<?xml version="1.0" standalone="no"?><!DOCTYPE svg PUBLIC "-//W3C//DTD SVG 1.1//EN" "http://www.w3.org/Graphics/SVG/1.1/DTD/svg11.dtd"><svg height="512" node-id="1" sillyvg="true" template-height="512" template-width="512" version="1.1" viewBox="0 0 512 512" width="512" xmlns="http://www.w3.org/2000/svg" xmlns:xlink="http://www.w3.org/1999/xlink"><defs node-id="166"></defs><g node-id="600"><path d="M 511.10 241.00 L 510.90 251.90 L 510.10 262.50 L 508.90 272.90 L 507.30 283.10 L 505.10 293.20 L 502.50 303.20 L 499.50 313.00 L 496.10 322.50 L 492.30 331.90 L 488.00 341.00 L 483.40 350.00 L 478.40 358.70 L 473.00 367.10 L 467.30 375.30 L 461.20 383.20 L 454.80 390.90 L 448.00 398.20 L 441.00 405.30 L 433.70 412.00 L 426.00 418.40 L 418.10 424.50 L 409.90 430.20 L 401.50 435.60 L 392.80 440.60 L 383.80 445.20 L 374.70 449.50 L 365.30 453.30 L 355.80 456.70 L 346.00 459.70 L 336.00 462.30 L 325.90 464.50 L 315.70 466.10 L 305.20 467.30 L 294.60 468.10 L 283.80 468.30 L 273.00 468.10 L 262.40 467.30 L 252.00 466.10 L 241.80 464.50 L 231.70 462.30 L 221.70 459.70 L 211.90 456.70 L 202.40 453.30 L 193.00 449.50 L 183.90 445.20 L 174.90 440.60 L 166.20 435.60 L 157.80 430.20 L 149.60 424.50 L 141.70 418.40 L 134.00 412.00 L 126.70 405.30 L 119.60 398.20 L 112.90 390.90 L 106.50 383.20 L 100.40 375.30 L 94.70 367.10 L 89.30 358.70 L 84.30 350.00 L 79.60 341.00 L 75.40 331.90 L 71.60 322.50 L 68.10 313.00 L 65.10 303.20 L 62.50 293.20 L 60.40 283.10 L 58.70 272.90 L 57.50 262.50 L 56.80 251.90 L 56.50 241.00 L 56.80 230.20 L 57.50 219.60 L 58.70 209.20 L 60.40 199.00 L 62.50 188.90 L 65.10 178.90 L 68.10 169.10 L 71.60 159.60 L 75.40 150.20 L 79.60 141.10 L 84.30 132.10 L 89.30 123.40 L 94.70 115.00 L 100.40 106.80 L 106.50 98.90 L 112.90 91.20 L 119.60 83.90 L 126.70 76.80 L 134.00 70.10 L 141.70 63.70 L 149.60 57.60 L 157.80 51.90 L 166.20 46.50 L 174.90 41.50 L 183.90 36.80 L 193.00 32.60 L 202.40 28.80 L 211.90 25.40 L 221.70 22.30 L 231.70 19.70 L 241.80 17.60 L 252.00 15.90 L 262.40 14.70 L 273.00 14.00 L 283.80 13.70 L 294.60 14.00 L 305.20 14.70 L 315.70 15.90 L 325.90 17.60 L 336.00 19.70 L 346.00 22.30 L 355.80 25.40 L 365.30 28.80 L 374.70 32.60 L 383.80 36.80 L 392.80 41.50 L 401.50 46.50 L 409.90 51.90 L 418.10 57.60 L 426.00 63.70 L 433.70 70.10 L 441.00 76.80 L 448.00 83.90 L 454.80 91.20 L 461.20 98.90 L 467.30 106.80 L 473.00 115.00 L 478.40 123.40 L 483.40 132.10 L 488.00 141.10 L 492.30 150.20 L 496.10 159.60 L 499.50 169.10 L 502.50 178.90 L 505.10 188.90 L 507.30 199.00 L 508.90 209.20 L 510.10 219.60 L 510.90 230.20 L 511.10 241.00 Z" fill="#92dcdd" fill-rule="nonzero" group-id="1" node-id="172" stroke="none" target-height="454.59998" target-width="454.6" target-x="56.5" target-y="13.7"></path></g><g node-id="601"><g node-id="604"><g node-id="632"><g node-id="670"><path d="M 465.10 431.80 L 460.90 433.50 L 458.20 433.90 L 455.50 433.80 L 453.00 433.20 L 450.60 432.30 L 448.40 430.90 L 446.50 429.20 L 444.80 427.20 L 443.60 424.80 L 442.70 422.20 L 438.30 403.30 L 437.50 400.90 L 436.30 398.70 L 434.80 396.80 L 433.00 395.20 L 430.90 394.00 L 428.70 393.00 L 426.30 392.50 L 423.90 392.40 L 421.30 392.80 L 363.70 402.30 L 361.00 402.50 L 358.40 402.20 L 355.90 401.50 L 353.50 400.40 L 351.50 398.90 L 349.60 397.00 L 348.10 394.90 L 347.00 392.50 L 346.30 389.80 L 346.10 387.10 L 346.40 384.40 L 347.10 381.90 L 348.30 379.60 L 349.80 377.50 L 351.60 375.70 L 353.70 374.20 L 356.10 373.10 L 358.80 372.40 L 419.40 362.40 L 423.80 362.10 L 428.10 362.30 L 432.40 362.80 L 436.60 363.80 L 440.60 365.10 L 444.40 366.90 L 451.60 371.40 L 454.80 374.10 L 457.80 377.10 L 460.50 380.50 L 462.90 384.10 L 464.90 387.90 L 466.50 392.00 L 472.20 415.30 L 472.60 419.70 L 471.70 423.80 L 469.80 427.50 L 466.90 430.60 L 465.10 431.80 Z" fill="#ff8b9f" fill-rule="nonzero" group-id="2,5,33,71" node-id="183" stroke="none" target-height="71.79999" target-width="126.5" target-x="346.1" target-y="362.1"></path></g></g><path d="M 440.80 414.20 L 443.60 424.80 L 444.80 427.20 L 446.50 429.20 L 448.40 430.90 L 450.60 432.30 L 453.00 433.20 L 455.50 433.80 L 458.20 433.90 L 460.90 433.50 L 463.10 432.80 L 466.90 430.60 L 469.80 427.50 L 471.70 423.80 L 472.60 419.70 L 472.60 417.50 L 470.00 405.90 L 440.80 414.20 Z" fill="#4846c2" fill-rule="nonzero" group-id="2,5,34" node-id="189" stroke="none" target-height="28" target-width="31.800018" target-x="440.8" target-y="405.9"></path></g><g node-id="605"><g node-id="634"><path d="M 101.60 402.20 L 99.10 403.50 L 100.00 385.20 L 99.80 382.50 L 99.20 380.20 L 98.30 378.10 L 97.10 376.40 L 95.00 374.30 L 92.60 372.80 L 89.70 371.60 L 86.70 371.00 L 83.60 370.80 L 80.30 371.00 L 77.10 371.70 L 74.10 372.90 L 71.20 374.50 L 67.20 378.20 L 63.90 383.20 L 59.20 395.60 L 57.80 398.30 L 55.10 401.40 L 53.30 402.70 L 48.80 404.40 L 45.70 405.00 L 41.80 405.20 L 36.20 404.50 L 31.80 402.70 L 28.50 399.60 L 27.40 397.60 L 26.60 395.60 L 26.10 392.70 L 22.40 392.70 L 19.20 392.30 L 16.20 391.40 L 13.40 390.00 L 10.90 388.30 L 8.60 386.20 L 6.60 383.70 L 4.80 380.80 L 2.80 376.70 L 1.40 372.20 L 0.40 367.30 L 0.00 362.20 L 0.10 357.00 L 0.80 351.60 L 2.00 346.30 L 3.80 341.20 L 6.20 336.10 L 8.40 332.50 L 10.90 329.10 L 13.70 326.00 L 17.00 323.00 L 20.50 320.40 L 24.40 318.10 L 28.70 316.10 L 33.50 314.40 L 40.00 312.90 L 46.10 311.90 L 51.70 311.60 L 56.90 311.70 L 62.10 312.40 L 67.00 313.50 L 71.50 315.10 L 75.60 317.00 L 79.60 319.40 L 83.30 322.10 L 86.70 325.10 L 89.90 328.50 L 95.20 336.00 L 97.50 340.10 L 99.50 344.50 L 101.70 350.50 L 103.50 356.80 L 104.70 363.30 L 105.40 369.90 L 105.60 376.50 L 105.40 383.10 L 104.60 389.70 L 103.30 396.10 L 101.60 402.20 Z" fill="#4846c2" fill-rule="nonzero" group-id="2,6,35" node-id="197" stroke="none" target-height="93.600006" target-width="105.6" target-x="0" target-y="311.6"></path></g><path d="M 26.10 392.70 L 25.90 386.60 L 26.10 382.20 L 26.80 377.50 L 28.10 372.30 L 29.30 368.80 L 31.00 365.50 L 33.10 362.10 L 35.60 359.10 L 38.70 356.30 L 42.40 353.80 L 44.80 352.70 L 50.40 351.20 L 55.00 350.60 L 64.30 350.70 L 77.50 352.30 L 72.80 349.50 L 66.30 346.90 L 59.30 345.70 L 55.50 345.50 L 51.30 345.80 L 46.60 346.70 L 42.50 348.00 L 39.00 349.60 L 36.00 351.60 L 33.40 354.10 L 31.10 356.70 L 29.30 359.60 L 27.70 362.70 L 25.60 369.10 L 24.80 374.00 L 24.40 378.70 L 24.40 383.20 L 24.80 387.00 L 26.10 392.70 Z" fill="#000000" fill-rule="nonzero" group-id="2,6,36" node-id="202" stroke="none" target-height="47.200012" target-width="53.1" target-x="24.4" target-y="345.5"></path></g><g node-id="606"><g node-id="636"><path d="M 219.70 116.00 L 212.10 121.40 L 209.70 123.90 L 207.70 126.60 L 206.00 129.60 L 204.80 132.70 L 203.90 136.00 L 203.50 139.30 L 203.50 142.70 L 204.00 146.10 L 204.80 149.40 L 206.20 152.60 L 208.00 155.70 L 239.90 202.60 L 273.90 179.50 L 232.30 118.40 L 230.70 116.60 L 228.70 115.30 L 226.50 114.60 L 224.20 114.40 L 221.90 114.90 L 219.70 116.00 Z" fill="#ff8b9f" fill-rule="nonzero" group-id="2,7,37" node-id="210" stroke="none" target-height="88.200005" target-width="70.399994" target-x="203.5" target-y="114.4"></path></g></g><g node-id="607"><g node-id="637"><path d="M 246.10 172.70 L 266.40 30.50 L 267.40 28.40 L 268.30 27.80 L 270.40 27.60 L 272.30 28.50 L 273.20 30.70 L 285.30 178.10 L 246.10 172.70 Z" fill="#fbc900" fill-rule="nonzero" group-id="2,8,38" node-id="218" stroke="none" target-height="150.5" target-width="39.19998" target-x="246.1" target-y="27.6"></path></g><path d="M 278.00 89.20 L 259.40 79.40 L 251.00 138.50 L 283.40 154.30 Z" fill="#ffffff" fill-opacity="0.5" fill-rule="nonzero" group-id="2,8,39" node-id="223" stroke="none" target-height="74.9" target-width="32.399994" target-x="251" target-y="79.4"></path></g><g node-id="608"><path d="M 467.30 200.40 L 238.20 167.80 L 234.30 167.50 L 230.60 167.70 L 227.10 168.40 L 223.60 169.60 L 220.40 171.10 L 217.40 173.10 L 214.70 175.40 L 212.30 178.10 L 210.20 181.10 L 208.50 184.30 L 207.30 187.80 L 206.50 191.60 L 193.50 282.60 L 191.90 282.60 L 191.90 318.60 L 177.80 319.00 L 170.60 319.80 L 163.60 321.30 L 156.80 323.30 L 150.10 325.80 L 143.80 328.70 L 137.70 332.20 L 132.00 336.10 L 126.50 340.40 L 121.50 345.10 L 116.80 350.20 L 112.40 355.60 L 108.50 361.40 L 105.10 367.40 L 102.10 373.80 L 99.60 380.40 L 97.60 387.20 L 96.20 394.20 L 95.30 401.40 L 95.00 408.90 L 95.30 427.50 L 95.90 433.10 L 97.10 438.60 L 98.60 443.90 L 100.60 449.10 L 102.90 454.00 L 105.60 458.80 L 108.60 463.30 L 112.00 467.50 L 115.70 471.50 L 119.60 475.10 L 123.90 478.50 L 128.40 481.60 L 133.10 484.20 L 138.00 486.60 L 143.20 488.50 L 148.50 490.10 L 154.00 491.20 L 159.70 491.90 L 165.50 492.10 L 289.20 492.10 L 297.00 491.90 L 304.50 491.10 L 311.90 489.80 L 319.00 488.10 L 326.10 485.90 L 332.90 483.30 L 339.50 480.30 L 345.80 476.80 L 352.00 472.90 L 357.80 468.70 L 363.30 464.20 L 368.60 459.20 L 373.50 454.00 L 378.00 448.50 L 382.30 442.70 L 386.10 436.50 L 389.60 430.20 L 392.60 423.60 L 395.20 416.80 L 397.40 409.70 L 399.20 402.50 L 400.40 395.20 L 401.20 387.60 L 401.40 379.90 L 401.40 318.20 L 407.60 318.80 L 413.70 318.90 L 419.60 318.50 L 425.40 317.70 L 431.20 316.40 L 436.70 314.70 L 442.10 312.50 L 447.30 310.00 L 452.30 307.10 L 457.00 303.80 L 461.40 300.20 L 465.60 296.20 L 469.50 291.90 L 473.00 287.30 L 476.20 282.50 L 479.10 277.30 L 481.50 271.90 L 483.50 266.30 L 485.00 260.50 L 486.20 254.30 L 489.60 230.10 L 489.90 226.50 L 489.70 223.00 L 489.00 219.70 L 487.90 216.50 L 486.50 213.40 L 484.60 210.60 L 482.40 208.10 L 480.00 205.80 L 477.20 203.90 L 474.10 202.30 L 470.90 201.20 L 467.30 200.40 Z" fill="#ffb2b9" fill-rule="nonzero" group-id="2,9" node-id="229" stroke="none" target-height="324.6" target-width="394.9" target-x="95" target-y="167.5"></path></g><g node-id="609"><g node-id="639"><path d="M 298.00 257.20 L 293.20 256.40 L 290.80 255.40 L 290.30 255.10 L 289.90 254.00 L 290.50 252.90 L 291.60 252.60 L 294.30 253.60 L 298.70 254.20 L 303.00 253.20 L 306.70 250.80 L 309.90 246.70 L 311.00 246.40 L 312.00 246.90 L 312.40 248.00 L 312.20 248.60 L 310.60 251.20 L 308.60 253.30 L 306.20 254.90 L 303.60 256.20 L 300.90 256.90 L 298.00 257.20 Z" fill="#ff3482" fill-opacity="0.22" fill-rule="nonzero" group-id="2,10,40" node-id="236" stroke="none" target-height="10.800018" target-width="22.5" target-x="289.9" target-y="246.4"></path></g></g><g node-id="610"><path d="M 375.40 341.00 L 374.60 346.40 L 373.80 348.40 L 371.30 351.80 L 369.70 353.00 L 367.00 354.50 L 363.80 355.50 L 355.40 357.10 L 354.00 357.80 L 351.80 360.20 L 350.80 363.30 L 350.70 365.00 L 351.30 368.30 L 353.20 371.00 L 354.70 372.10 L 356.30 372.70 L 358.40 373.10 L 361.10 372.90 L 356.50 377.90 L 353.60 382.80 L 353.00 384.60 L 352.60 388.30 L 353.00 390.10 L 353.90 391.80 L 355.40 393.60 L 356.90 394.60 L 358.40 395.10 L 360.00 395.20 L 362.30 394.70 L 364.60 393.70 L 366.60 392.40 L 369.50 389.90 L 370.50 405.30 L 370.40 417.30 L 369.10 430.30 L 367.80 436.70 L 366.70 440.90 L 363.80 448.50 L 360.00 455.70 L 356.40 461.70 L 349.50 471.40 L 344.00 477.80 L 350.30 474.00 L 356.30 469.80 L 362.00 465.30 L 367.40 460.30 L 372.50 455.10 L 377.20 449.50 L 381.60 443.60 L 385.60 437.40 L 389.10 431.00 L 392.30 424.30 L 395.00 417.40 L 397.30 410.20 L 399.10 402.90 L 400.40 395.50 L 401.20 387.80 L 401.40 379.90 L 401.40 318.20 L 374.80 314.40 L 375.40 341.00 Z" fill="#ffffff" fill-opacity="0.5" fill-rule="nonzero" group-id="2,11" node-id="242" stroke="none" target-height="163.4" target-width="57.399994" target-x="344" target-y="314.4"></path></g><g node-id="611"><g node-id="640"><path d="M 123.00 380.50 L 117.80 375.70 L 119.00 372.10 L 119.00 371.20 L 118.50 370.50 L 117.80 370.10 L 117.00 370.40 L 114.10 372.30 L 110.20 368.80 L 109.40 368.40 L 108.70 368.60 L 108.20 369.30 L 108.10 370.20 L 109.30 375.60 L 103.20 379.80 L 102.70 380.50 L 102.60 381.40 L 103.10 382.20 L 103.90 382.50 L 110.90 382.70 L 111.60 386.20 L 112.10 387.10 L 112.90 387.40 L 113.60 387.20 L 114.20 386.40 L 115.40 382.90 L 122.10 383.10 L 122.90 382.80 L 123.40 382.10 L 123.40 381.30 L 123.00 380.50 Z" fill="#160521" fill-rule="nonzero" group-id="2,12,41" node-id="249" stroke="none" target-height="19" target-width="20.800003" target-x="102.6" target-y="368.4"></path></g><g node-id="641"><path d="M 141.30 395.80 L 138.20 393.90 L 139.50 388.60 L 139.40 387.50 L 138.70 386.80 L 137.80 386.60 L 136.80 387.00 L 132.70 390.50 L 125.90 386.50 L 124.60 386.30 L 123.60 387.20 L 123.60 388.60 L 126.90 395.50 L 123.80 398.30 L 123.70 399.00 L 124.20 400.20 L 125.50 400.60 L 129.10 400.20 L 132.20 406.90 L 133.00 407.60 L 133.90 407.80 L 134.80 407.40 L 135.30 406.50 L 137.00 399.20 L 140.60 398.80 L 141.60 398.40 L 142.10 397.50 L 142.00 396.60 L 141.30 395.80 Z" fill="#ffffff" fill-rule="nonzero" group-id="2,12,42" node-id="254" stroke="none" target-height="21.5" target-width="18.500008" target-x="123.6" target-y="386.3"></path></g><path d="M 154.80 365.20 L 145.20 358.20 L 147.20 353.00 L 147.30 351.90 L 146.40 350.30 L 144.70 349.90 L 143.70 350.30 L 138.90 353.60 L 129.70 346.80 L 128.80 346.40 L 127.90 346.40 L 126.40 347.40 L 126.10 348.20 L 126.10 349.20 L 129.20 360.40 L 123.70 364.60 L 123.40 365.40 L 123.90 367.20 L 124.60 367.70 L 125.60 368.00 L 131.40 368.30 L 133.70 376.60 L 134.10 377.50 L 135.80 378.30 L 137.40 377.70 L 138.00 376.80 L 141.10 368.80 L 153.30 369.40 L 154.30 369.20 L 155.10 368.70 L 155.70 366.90 L 155.50 366.10 L 154.80 365.20 Z" fill="#ff3482" fill-rule="nonzero" group-id="2,12,43" node-id="259" stroke="none" target-height="31.899994" target-width="32.299995" target-x="123.4" target-y="346.4"></path></g><g node-id="612"><path d="M 299.80 275.70 L 299.40 273.70 L 298.40 271.90 L 296.90 270.50 L 295.00 269.60 L 293.20 269.30 L 291.50 269.40 L 289.90 270.00 L 288.50 270.90 L 287.40 272.10 L 286.50 273.60 L 286.20 272.10 L 284.70 269.50 L 282.20 267.90 L 280.60 267.40 L 278.80 267.40 L 277.10 267.90 L 275.50 268.80 L 274.20 270.00 L 273.30 271.50 L 272.80 273.50 L 273.10 276.70 L 275.20 280.60 L 277.10 282.80 L 280.90 286.30 L 282.60 287.30 L 284.40 287.80 L 286.30 287.90 L 288.10 287.40 L 293.10 284.90 L 295.60 283.10 L 298.60 280.10 L 299.80 277.30 L 299.80 275.70 Z" fill="#ff3482" fill-rule="nonzero" group-id="2,13" node-id="265" stroke="none" target-height="20.5" target-width="27" target-x="272.8" target-y="267.4"></path></g><g node-id="613"><path d="M 401.60 318.20 L 301.20 303.90 L 401.60 334.20 L 401.60 318.20 Z" fill="#ff3482" fill-opacity="0.22" fill-rule="nonzero" group-id="2,14" node-id="270" stroke="none" target-height="30.300018" target-width="100.399994" target-x="301.2" target-y="303.9"></path></g><g node-id="614"><g node-id="643"><path d="M 223.60 165.70 L 231.50 167.00 L 237.60 167.70 L 252.80 168.10 L 264.60 167.30 L 277.70 165.10 L 284.40 163.40 L 291.30 161.10 L 298.00 158.40 L 304.60 155.10 L 328.90 140.40 L 336.30 136.60 L 343.00 133.50 L 350.20 130.70 L 356.50 128.70 L 362.10 127.40 L 366.90 126.60 L 372.10 126.40 L 376.40 126.70 L 380.10 127.40 L 383.20 128.50 L 386.10 130.10 L 388.50 132.10 L 390.40 134.40 L 391.90 137.00 L 392.80 139.60 L 393.30 142.60 L 393.50 146.00 L 393.20 151.30 L 391.00 162.70 L 387.70 173.70 L 382.10 188.40 L 223.60 165.70 Z" fill="#160521" fill-rule="nonzero" group-id="2,15,44" node-id="277" stroke="none" target-height="61.999992" target-width="169.9" target-x="223.6" target-y="126.4"></path></g><g node-id="644"><path d="M 419.30 174.70 L 417.70 165.40 L 416.50 161.40 L 413.20 154.00 L 408.60 146.80 L 406.00 143.60 L 401.60 139.30 L 400.30 135.80 L 398.60 132.40 L 396.50 129.20 L 393.90 126.10 L 390.30 122.60 L 386.80 119.90 L 383.30 117.70 L 379.90 116.00 L 376.30 114.70 L 372.60 113.80 L 369.00 113.30 L 365.40 113.20 L 360.50 113.70 L 355.60 114.60 L 350.60 116.20 L 340.80 120.40 L 335.90 123.10 L 321.60 132.40 L 295.50 151.40 L 289.60 155.10 L 284.40 157.80 L 278.80 159.90 L 273.70 161.30 L 269.00 162.10 L 259.60 162.50 L 237.20 160.20 L 231.60 160.00 L 227.90 160.30 L 224.20 161.10 L 220.40 162.40 L 217.00 164.30 L 214.00 166.40 L 211.50 168.90 L 209.40 171.50 L 209.50 170.80 L 205.10 177.70 L 201.60 186.10 L 200.10 191.40 L 198.00 203.70 L 196.60 208.90 L 195.00 213.70 L 193.40 217.20 L 189.50 223.10 L 187.10 225.60 L 184.50 227.80 L 181.50 229.60 L 178.20 231.20 L 169.70 233.80 L 164.90 235.60 L 160.30 237.90 L 156.10 240.70 L 153.40 242.80 L 149.10 247.60 L 147.50 250.30 L 146.30 253.20 L 145.50 256.40 L 145.30 259.60 L 145.60 263.10 L 146.60 267.00 L 148.00 270.30 L 149.80 273.30 L 152.10 275.90 L 154.60 278.30 L 157.50 280.30 L 160.60 282.00 L 158.00 283.20 L 155.70 284.70 L 153.80 286.40 L 152.10 288.50 L 150.30 291.70 L 149.10 295.10 L 148.30 298.90 L 148.00 302.80 L 148.20 306.80 L 148.90 310.80 L 150.00 313.80 L 151.60 316.40 L 153.90 318.80 L 156.50 320.80 L 159.40 322.50 L 166.20 325.00 L 169.70 325.70 L 176.90 326.20 L 183.40 325.50 L 186.40 324.60 L 188.80 323.40 L 190.80 322.00 L 192.00 320.70 L 192.80 319.20 L 193.30 317.50 L 193.60 298.30 L 195.70 267.70 L 205.70 197.50 L 208.00 189.80 L 209.70 186.10 L 211.80 182.50 L 213.50 180.40 L 218.20 176.40 L 221.00 174.80 L 224.40 173.30 L 228.60 172.10 L 237.90 170.60 L 250.20 170.40 L 270.60 172.00 L 275.20 171.80 L 280.10 171.00 L 284.90 169.80 L 295.00 166.20 L 302.60 162.90 L 340.40 143.50 L 350.00 139.70 L 354.40 138.30 L 357.20 137.80 L 359.60 137.90 L 361.80 138.50 L 363.80 139.50 L 365.50 140.90 L 366.90 142.50 L 368.00 144.40 L 368.70 146.30 L 369.00 148.40 L 368.90 150.50 L 368.30 152.60 L 367.20 154.60 L 365.70 156.30 L 363.50 157.90 L 360.60 159.20 L 357.40 160.10 L 353.40 160.60 L 342.80 160.60 L 338.30 161.20 L 334.60 162.10 L 331.00 163.50 L 328.20 165.30 L 326.00 167.20 L 324.10 169.60 L 322.80 172.00 L 321.90 174.70 L 321.50 177.40 L 321.50 180.10 L 322.70 185.60 L 325.30 190.50 L 327.10 192.60 L 329.20 194.50 L 331.60 196.00 L 337.00 198.40 L 342.20 200.10 L 347.20 201.10 L 352.30 201.50 L 357.20 201.40 L 361.90 200.70 L 366.50 199.50 L 371.00 197.80 L 375.20 195.70 L 376.00 198.00 L 378.50 201.90 L 380.20 203.60 L 384.00 206.00 L 386.90 207.00 L 390.10 207.60 L 393.40 207.70 L 396.70 207.30 L 399.90 206.40 L 403.20 205.10 L 406.30 203.40 L 409.10 201.20 L 411.80 198.50 L 414.20 195.50 L 416.10 192.10 L 417.70 188.30 L 418.80 184.20 L 419.30 179.70 L 419.30 174.70 Z" fill="#4846c2" fill-rule="nonzero" group-id="2,15,45" node-id="282" stroke="none" target-height="213.00002" target-width="274" target-x="145.3" target-y="113.2"></path></g><g node-id="645"><g node-id="671"><path d="M 402.00 140.80 L 401.90 140.30 Z" fill="#000000" fill-rule="nonzero" group-id="2,15,46,72" node-id="289" stroke="none" target-height="0.5" target-width="0.1000061" target-x="401.9" target-y="140.3"></path></g><path d="M 403.20 151.30 L 402.90 155.60 L 402.10 159.90 L 401.00 164.20 L 397.50 172.60 L 395.20 176.60 L 389.70 184.00 L 386.40 187.40 L 382.90 190.50 L 379.20 193.30 L 375.20 195.70 L 376.20 198.50 L 380.50 196.30 L 384.30 193.70 L 387.90 190.80 L 391.10 187.40 L 393.90 183.80 L 396.40 179.80 L 398.60 175.60 L 400.30 171.00 L 401.70 166.30 L 402.60 161.50 L 403.10 156.50 L 403.20 151.30 Z" fill="#000000" fill-rule="nonzero" group-id="2,15,46,73" node-id="294" stroke="none" target-height="47.199997" target-width="28" target-x="375.2" target-y="151.3"></path></g><g node-id="646"><g node-id="673"><path d="M 195.70 267.60 L 195.70 267.50 Z" fill="#000000" fill-rule="nonzero" group-id="2,15,47,74" node-id="302" stroke="none" target-height="0.1000061" target-width="0" target-x="195.7" target-y="267.5"></path></g><g node-id="674"><path d="M 160.80 282.10 L 156.50 284.20 L 158.50 285.60 L 160.90 286.70 L 163.60 287.40 L 169.50 287.90 L 172.70 287.70 L 177.40 286.80 L 181.90 285.30 L 187.40 282.40 L 191.80 278.70 L 193.30 276.60 L 194.40 274.30 L 192.40 277.10 L 190.20 279.30 L 187.80 281.20 L 182.20 283.80 L 179.20 284.60 L 173.00 285.00 L 169.90 284.80 L 163.70 283.30 L 160.80 282.10 Z" fill="#000000" fill-rule="nonzero" group-id="2,15,47,75" node-id="307" stroke="none" target-height="13.600006" target-width="37.899994" target-x="156.5" target-y="274.3"></path></g><g node-id="675"><path d="M 195.00 272.10 L 195.60 268.20 Z" fill="#000000" fill-rule="nonzero" group-id="2,15,47,76" node-id="312" stroke="none" target-height="3.899994" target-width="0.6000061" target-x="195" target-y="268.2"></path></g><path d="M 195.70 267.70 L 195.70 267.70 Z" fill="#000000" fill-rule="nonzero" group-id="2,15,47,77" node-id="317" stroke="none" target-height="0" target-width="0" target-x="195.7" target-y="267.7"></path></g></g><g node-id="615"><g node-id="647"><path d="M 475.50 230.50 L 475.00 232.80 L 474.00 235.00 L 471.20 238.50 L 467.40 240.90 L 465.20 241.60 L 462.90 241.90 L 460.40 241.80 L 458.10 241.20 L 455.90 240.30 L 452.40 237.50 L 450.00 233.60 L 449.30 231.40 L 449.00 229.10 L 449.10 226.70 L 449.70 224.30 L 450.60 222.20 L 453.40 218.60 L 457.30 216.20 L 459.50 215.50 L 461.80 215.30 L 464.20 215.40 L 466.60 215.90 L 468.70 216.90 L 470.60 218.10 L 473.60 221.50 L 475.40 225.70 L 475.60 228.00 L 475.50 230.50 Z" fill="#ff3482" fill-rule="nonzero" group-id="2,16,48" node-id="326" stroke="none" target-height="26.59999" target-width="26.600006" target-x="449" target-y="215.3"></path></g><path d="M 461.50 215.30 L 463.50 215.80 L 465.40 216.80 L 467.00 218.30 L 468.40 220.10 L 469.40 222.30 L 470.10 224.60 L 470.30 227.10 L 470.20 229.70 L 469.60 232.20 L 468.70 234.50 L 467.40 236.60 L 465.80 238.40 L 463.90 239.80 L 462.00 240.70 L 459.90 241.20 L 457.80 241.10 L 455.80 240.60 L 453.90 239.60 L 452.30 238.10 L 450.90 236.30 L 449.90 234.10 L 449.20 231.80 L 449.00 229.30 L 449.10 226.70 L 449.70 224.20 L 450.60 221.90 L 451.90 219.80 L 453.50 218.00 L 455.40 216.60 L 457.30 215.70 L 459.40 215.20 L 461.50 215.30 Z" fill="#000000" fill-rule="nonzero" group-id="2,16,49,78" node-id="333" stroke="none" target-height="26" target-width="21.299988" target-x="449" target-y="215.2"></path></g><g node-id="616"><g node-id="649"><path d="M 422.60 222.90 L 422.00 225.30 L 421.10 227.40 L 418.20 231.00 L 414.40 233.40 L 412.20 234.10 L 409.90 234.40 L 407.50 234.20 L 405.10 233.70 L 403.00 232.80 L 399.40 229.90 L 397.00 226.10 L 396.30 223.90 L 396.00 221.60 L 396.20 219.20 L 396.70 216.80 L 397.70 214.70 L 400.50 211.10 L 404.30 208.70 L 406.50 208.00 L 408.80 207.70 L 411.30 207.80 L 413.60 208.40 L 415.80 209.30 L 417.70 210.60 L 420.70 214.00 L 422.40 218.20 L 422.70 220.50 L 422.60 222.90 Z" fill="#ff3482" fill-rule="nonzero" group-id="2,17,50" node-id="342" stroke="none" target-height="26.699997" target-width="26.700012" target-x="396" target-y="207.7"></path></g><path d="M 408.50 207.70 L 410.60 208.30 L 412.40 209.30 L 414.00 210.70 L 415.40 212.60 L 416.50 214.70 L 417.10 217.10 L 417.40 219.60 L 417.20 222.20 L 416.60 224.70 L 415.70 227.00 L 414.40 229.10 L 412.80 230.90 L 411.00 232.30 L 409.00 233.20 L 406.90 233.60 L 404.80 233.60 L 402.80 233.00 L 401.00 232.00 L 399.30 230.60 L 397.90 228.70 L 396.90 226.60 L 396.30 224.20 L 396.00 221.70 L 396.20 219.20 L 396.70 216.60 L 397.70 214.30 L 399.00 212.20 L 400.50 210.50 L 402.40 209.10 L 404.40 208.10 L 406.40 207.70 L 408.50 207.70 Z" fill="#000000" fill-rule="nonzero" group-id="2,17,51,79" node-id="349" stroke="none" target-height="25.90001" target-width="21.399994" target-x="396" target-y="207.7"></path></g><g node-id="617"><g node-id="651"><g node-id="679"><path d="M 167.90 147.30 L 163.50 155.50 L 162.40 158.80 L 161.80 162.20 L 161.60 165.60 L 161.90 168.90 L 162.60 172.20 L 163.70 175.40 L 165.20 178.40 L 167.00 181.30 L 169.30 183.80 L 171.90 186.10 L 174.90 188.10 L 224.20 216.20 L 244.50 180.50 L 180.40 143.90 L 178.10 143.00 L 175.70 142.70 L 173.40 143.10 L 171.30 143.90 L 169.40 145.40 L 167.90 147.30 Z" fill="#ffb2b9" fill-rule="nonzero" group-id="2,18,52,80" node-id="360" stroke="none" target-height="73.5" target-width="82.899994" target-x="161.6" target-y="142.7"></path></g></g><path d="M 178.80 182.80 L 175.70 180.80 L 173.00 178.40 L 170.80 175.80 L 168.80 172.90 L 167.30 169.90 L 166.20 166.60 L 165.50 163.30 L 165.20 159.90 L 165.40 156.40 L 166.00 153.00 L 167.10 149.60 L 168.70 146.30 L 165.40 151.80 L 163.80 155.10 L 162.70 158.50 L 162.00 161.90 L 161.90 165.40 L 162.10 168.80 L 162.80 172.20 L 163.90 175.40 L 165.50 178.50 L 167.40 181.40 L 169.70 184.00 L 172.30 186.40 L 175.40 188.40 L 224.20 216.20 L 227.40 210.60 L 178.80 182.80 Z" fill="#ff3482" fill-opacity="0.22" fill-rule="nonzero" group-id="2,18,53" node-id="366" stroke="none" target-height="69.899994" target-width="65.5" target-x="161.9" target-y="146.3"></path></g><g node-id="618"><g node-id="653"><g node-id="680"><path d="M 386.90 281.10 L 374.80 279.40 L 373.80 276.70 L 373.20 273.80 L 373.20 270.80 L 373.70 267.70 L 374.40 266.00 L 375.40 264.60 L 376.80 263.50 L 378.40 262.80 L 380.10 262.60 L 381.90 262.80 L 383.70 263.50 L 385.00 264.50 L 386.10 265.90 L 386.80 267.50 L 387.10 269.20 L 386.80 272.60 L 387.30 274.00 L 388.30 275.10 L 389.70 275.70 L 391.20 275.80 L 392.60 275.30 L 393.70 274.30 L 395.10 271.20 L 396.10 269.80 L 397.50 268.80 L 399.10 268.10 L 400.80 267.80 L 402.70 268.00 L 404.40 268.70 L 405.80 269.70 L 406.80 271.10 L 407.50 272.70 L 407.80 274.40 L 407.60 276.30 L 406.50 279.30 L 405.00 281.90 L 403.10 284.20 L 400.80 286.20 L 398.20 287.70 L 395.40 288.80 L 386.90 281.10 Z" fill="#000000" fill-rule="nonzero" group-id="2,19,54,81" node-id="376" stroke="none" target-height="26.199982" target-width="34.599976" target-x="373.2" target-y="262.6"></path></g></g><path d="M 374.80 279.40 L 377.60 283.60 L 379.40 285.40 L 383.80 288.10 L 386.30 288.90 L 389.50 289.40 L 392.50 289.40 L 395.50 288.80 L 395.80 286.80 L 395.00 284.00 L 393.70 282.00 L 391.60 280.20 L 389.20 278.80 L 386.10 277.70 L 381.70 277.20 L 377.80 277.80 L 374.80 279.40 Z" fill="#ff3482" fill-rule="nonzero" group-id="2,19,55" node-id="382" stroke="none" target-height="12.199982" target-width="21" target-x="374.8" target-y="277.2"></path></g><g node-id="619"><g node-id="655"><g node-id="681"><path d="M 96.60 422.50 L 96.00 417.60 L 95.70 410.80 L 124.00 411.70 L 124.70 418.90 L 125.80 424.50 L 128.30 432.70 L 130.30 437.60 L 132.50 442.40 L 135.40 447.40 L 138.90 452.70 L 141.50 455.80 L 144.20 458.50 L 147.10 460.70 L 153.40 464.30 L 161.50 467.10 L 170.70 468.60 L 174.50 468.80 L 185.50 468.40 L 187.90 468.60 L 190.30 469.40 L 192.40 470.50 L 194.30 471.90 L 196.00 473.60 L 197.40 475.70 L 198.40 477.90 L 199.00 480.40 L 199.10 483.00 L 198.80 485.50 L 198.10 487.80 L 197.00 490.00 L 195.60 491.90 L 193.80 493.60 L 191.80 494.90 L 189.60 495.90 L 187.00 496.50 L 182.80 497.00 L 173.20 497.10 L 167.10 496.70 L 155.10 494.70 L 144.90 491.50 L 139.80 489.30 L 134.70 486.50 L 129.60 483.10 L 122.60 477.10 L 116.00 469.40 L 111.90 463.30 L 108.40 457.40 L 105.60 451.80 L 101.00 440.60 L 97.70 428.40 L 96.60 422.50 Z" fill="#ffb2b9" fill-rule="nonzero" group-id="2,20,56,82" node-id="392" stroke="none" target-height="86.30002" target-width="103.40001" target-x="95.7" target-y="410.8"></path></g></g><path d="M 175.50 468.80 L 185.50 468.40 L 187.90 468.60 L 190.30 469.40 L 192.40 470.50 L 194.30 471.90 L 196.00 473.60 L 197.40 475.70 L 198.40 477.90 L 199.00 480.40 L 199.10 483.00 L 198.80 485.50 L 198.10 487.80 L 197.00 490.00 L 195.60 491.90 L 193.80 493.60 L 191.80 494.90 L 189.60 495.90 L 187.00 496.50 L 175.40 497.20 L 175.50 468.80 Z" fill="#4846c2" fill-rule="nonzero" group-id="2,20,57" node-id="398" stroke="none" target-height="28.800018" target-width="23.700012" target-x="175.4" target-y="468.4"></path></g><g node-id="620"><g node-id="657"><path d="M 175.00 470.20 L 169.10 467.80 L 164.40 465.20 L 160.70 462.70 L 157.90 460.10 L 155.80 457.40 L 154.30 454.70 L 153.40 451.90 L 153.10 447.50 L 154.30 442.60 L 156.70 438.00 L 164.30 429.40 L 168.10 423.20 L 170.50 416.30 L 171.50 409.10 L 171.40 405.40 L 170.90 401.40 L 170.00 397.60 L 168.70 394.10 L 166.90 390.70 L 164.80 387.50 L 162.40 384.60 L 159.60 382.00 L 154.30 378.40 L 155.80 375.70 L 161.50 379.70 L 164.60 382.50 L 167.20 385.60 L 169.50 389.10 L 171.40 392.80 L 172.90 396.70 L 173.90 400.80 L 174.50 405.20 L 174.50 409.20 L 174.20 413.20 L 173.50 417.00 L 172.30 420.80 L 169.00 427.90 L 166.80 431.20 L 160.30 438.30 L 158.20 441.40 L 156.50 445.90 L 156.10 448.50 L 156.40 451.30 L 157.20 453.60 L 158.50 455.90 L 160.30 458.20 L 162.90 460.50 L 166.30 462.80 L 170.60 465.10 L 176.10 467.40 L 175.00 470.20 Z" fill="#ff3482" fill-opacity="0.22" fill-rule="nonzero" group-id="2,21,58" node-id="406" stroke="none" target-height="94.5" target-width="23" target-x="153.1" target-y="375.7"></path></g></g><g node-id="621"><g node-id="658"><g node-id="682"><path d="M 284.00 230.90 L 283.80 233.40 L 284.10 235.80 L 284.90 238.10 L 287.30 242.10 L 289.10 243.70 L 291.00 245.00 L 293.20 246.00 L 295.70 246.50 L 298.20 246.70 L 300.60 246.40 L 302.90 245.70 L 306.90 243.20 L 308.50 241.40 L 309.80 239.50 L 310.70 237.30 L 311.30 234.80 L 284.00 230.90 Z" fill="#ffffff" fill-rule="nonzero" group-id="2,22,59,83" node-id="416" stroke="none" target-height="15.800003" target-width="27.5" target-x="283.8" target-y="230.9"></path></g><path d="M 291.20 231.80 L 291.30 235.50 L 291.80 237.20 L 293.60 240.10 L 296.30 242.30 L 299.80 243.50 L 303.40 243.30 L 306.60 242.00 L 309.20 239.60 L 310.20 238.20 L 311.30 234.70" fill="#160521" fill-rule="nonzero" group-id="2,22,59,84,95" node-id="423" stroke="none" target-height="11.699997" target-width="20.099976" target-x="291.2" target-y="231.8"></path></g><path d="M 296.50 239.20 L 296.20 240.40 L 295.60 241.40 L 294.60 242.00 L 293.40 242.30 L 292.30 242.00 L 291.30 241.40 L 290.60 240.40 L 290.40 239.20 L 290.60 238.10 L 291.30 237.10 L 292.30 236.40 L 293.40 236.20 L 294.60 236.40 L 295.60 237.10 L 296.20 238.10 L 296.50 239.20 Z" fill="#ffffff" fill-rule="nonzero" group-id="2,22,60" node-id="430" stroke="none" target-height="6.100006" target-width="6.100006" target-x="290.4" target-y="236.2"></path></g><g node-id="622"><g node-id="660"><path d="M 404.80 395.50 L 401.80 390.10 L 398.10 380.80 L 393.10 369.90 L 395.10 367.30 L 396.60 364.50 L 397.70 361.50 L 398.20 358.30 L 399.10 329.60 L 394.90 323.70 L 389.10 322.50 L 374.40 327.40 L 360.60 355.80 L 370.10 363.90 L 380.60 370.80 L 378.00 383.00 L 376.90 391.20 L 375.10 399.50 L 374.80 402.30 L 375.10 404.90 L 376.00 407.60 L 379.30 412.50 L 381.70 414.90 L 385.50 417.90 L 390.50 420.50 L 392.20 420.90 L 393.90 420.80 L 395.20 420.30 L 396.30 419.50 L 400.10 415.20 L 402.80 411.30 L 404.30 408.40 L 406.00 403.10 L 406.20 400.50 L 405.80 398.00 L 404.80 395.50 Z" fill="#ff3482" fill-rule="nonzero" group-id="2,23,61" node-id="438" stroke="none" target-height="98.399994" target-width="45.600006" target-x="360.6" target-y="322.5"></path></g><g node-id="661"><path d="M 365.60 366.00 L 193.30 306.30 L 194.60 282.00 L 389.10 322.50 Z" fill="#ffffff" fill-rule="nonzero" group-id="2,23,62" node-id="443" stroke="none" target-height="84" target-width="195.8" target-x="193.3" target-y="282"></path></g><path d="M 394.90 323.70 L 403.90 325.60 L 400.40 371.90 Z" fill="#ffffff" fill-rule="nonzero" group-id="2,23,63" node-id="448" stroke="none" target-height="48.19998" target-width="9" target-x="394.9" target-y="323.7"></path></g><g node-id="623"><g node-id="663"><path d="M 311.70 216.30 L 313.50 215.90 L 314.90 214.90 L 316.00 213.60 L 316.60 212.00 L 316.70 210.30 L 316.10 208.60 L 313.30 204.30 L 309.40 201.00 L 304.80 198.70 L 299.70 197.80 L 296.90 197.80 L 294.20 198.40 L 291.10 199.70 L 288.00 201.50 L 282.20 206.30 L 279.80 208.90 L 276.30 213.90 L 275.60 216.70 L 275.70 217.60 L 276.20 218.40 L 277.20 218.90 L 278.90 219.00 L 311.70 216.30 Z" fill="#ff3482" fill-opacity="0.22" fill-rule="nonzero" group-id="2,24,64" node-id="456" stroke="none" target-height="21.199997" target-width="41.100006" target-x="275.6" target-y="197.8"></path></g><path d="M 312.10 214.00 L 313.80 213.60 L 315.30 212.60 L 316.30 211.30 L 316.90 209.70 L 317.00 208.00 L 316.50 206.30 L 313.60 202.00 L 309.70 198.70 L 305.10 196.40 L 300.00 195.40 L 297.30 195.50 L 294.50 196.10 L 291.40 197.40 L 288.40 199.20 L 282.50 204.00 L 280.10 206.60 L 276.70 211.60 L 275.90 214.40 L 276.10 215.30 L 276.60 216.10 L 277.50 216.50 L 279.20 216.70 L 312.10 214.00 Z" fill="#4846c2" fill-rule="nonzero" group-id="2,24,65" node-id="461" stroke="none" target-height="21.300003" target-width="41.100006" target-x="275.9" target-y="195.4"></path></g></g><g node-id="602"><g node-id="624"><path d="M 476.90 498.30 L 416.70 498.30 L 413.20 497.60 L 411.70 496.70 L 409.40 494.40 L 408.00 491.40 L 407.90 488.10 L 409.00 484.90 L 410.10 483.40 L 439.10 456.60 L 442.50 455.10 L 512.00 454.90 L 486.40 494.00 L 484.40 495.80 L 482.10 497.20 L 479.60 498.00 L 476.90 498.30 Z" fill="#fbc900" fill-rule="nonzero" group-id="3,25" node-id="470" stroke="none" target-height="43.399994" target-width="104.100006" target-x="407.9" target-y="454.9"></path></g><g node-id="625"><g node-id="665"><g node-id="684"><path d="M 426.80 482.00 L 426.30 481.90 L 425.40 481.00 L 425.50 479.90 L 425.80 479.40 L 448.10 459.00 L 449.20 459.00 L 450.00 459.90 L 450.00 461.00 L 449.60 461.50 L 427.90 481.60 L 426.80 482.00 Z" fill="#ffffff" fill-opacity="0.5" fill-rule="nonzero" group-id="3,26,66,85" node-id="479" stroke="none" target-height="23" target-width="24.600006" target-x="425.4" target-y="459"></path></g></g><g node-id="666"><g node-id="685"><g node-id="695"><path d="M 458.30 462.90 L 457.20 462.50 L 456.80 461.40 L 457.30 460.30 L 458.90 459.00 L 460.10 459.00 L 460.60 459.40 L 461.00 460.50 L 460.50 461.50 L 459.40 462.50 L 458.30 462.90 Z" fill="#ffffff" fill-opacity="0.5" fill-rule="nonzero" group-id="3,26,67,86,96" node-id="489" stroke="none" target-height="3.899994" target-width="4.200012" target-x="456.8" target-y="459"></path></g></g><g node-id="686"><g node-id="696"><path d="M 443.70 476.50 L 442.60 476.00 L 442.30 475.50 L 442.30 474.30 L 445.60 471.30 L 446.80 471.30 L 447.30 471.70 L 447.60 472.20 L 447.50 473.30 L 444.70 476.10 L 443.70 476.50 Z M 451.00 469.70 L 449.90 469.20 L 449.60 468.70 L 449.60 467.60 L 453.00 464.50 L 454.10 464.60 L 454.60 464.90 L 454.90 465.40 L 454.80 466.60 L 452.00 469.30 L 451.00 469.70 Z" fill="#ffffff" fill-opacity="0.5" fill-rule="nonzero" group-id="3,26,67,87,97" node-id="497" stroke="none" target-height="12" target-width="12.600006" target-x="442.3" target-y="464.5"></path></g></g><path d="M 437.70 482.00 L 436.60 481.50 L 436.20 480.40 L 436.70 479.40 L 438.30 478.00 L 439.40 478.10 L 439.90 478.40 L 440.30 479.50 L 439.90 480.60 L 438.70 481.60 L 437.70 482.00 Z" fill="#ffffff" fill-opacity="0.5" fill-rule="nonzero" group-id="3,26,67,88,98" node-id="505" stroke="none" target-height="4" target-width="4.0999756" target-x="436.2" target-y="478"></path></g><g node-id="667"><g node-id="688"><g node-id="698"><path d="M 469.20 462.90 L 468.10 462.50 L 467.70 461.40 L 468.10 460.30 L 469.80 459.00 L 470.90 459.00 L 471.40 459.40 L 471.80 460.50 L 471.30 461.50 L 470.20 462.50 L 469.20 462.90 Z" fill="#ffffff" fill-opacity="0.5" fill-rule="nonzero" group-id="3,26,68,89,99" node-id="516" stroke="none" target-height="3.899994" target-width="4.0999756" target-x="467.7" target-y="459"></path></g></g><g node-id="689"><g node-id="699"><path d="M 454.50 476.50 L 453.40 476.00 L 453.10 475.50 L 453.20 474.30 L 456.50 471.30 L 457.60 471.30 L 458.10 471.70 L 458.40 472.20 L 458.40 473.30 L 455.60 476.10 L 454.50 476.50 Z M 461.90 469.70 L 460.70 469.20 L 460.40 468.70 L 460.50 467.60 L 463.80 464.50 L 464.90 464.60 L 465.40 464.90 L 465.70 465.40 L 465.70 466.60 L 462.90 469.30 L 461.90 469.70 Z" fill="#ffffff" fill-opacity="0.5" fill-rule="nonzero" group-id="3,26,68,90,100" node-id="524" stroke="none" target-height="12" target-width="12.600006" target-x="453.1" target-y="464.5"></path></g></g><path d="M 448.50 482.00 L 447.40 481.50 L 447.00 480.40 L 447.50 479.40 L 449.20 478.00 L 450.30 478.10 L 450.80 478.40 L 451.20 479.50 L 450.70 480.60 L 449.60 481.60 L 448.50 482.00 Z" fill="#ffffff" fill-opacity="0.5" fill-rule="nonzero" group-id="3,26,68,91,101" node-id="532" stroke="none" target-height="4" target-width="4.200012" target-x="447" target-y="478"></path></g><g node-id="668"><g node-id="691"><g node-id="701"><path d="M 480.50 464.90 L 479.40 464.40 L 479.00 463.30 L 479.40 462.20 L 480.50 461.40 L 481.60 461.40 L 482.10 461.80 L 482.50 462.90 L 482.00 463.90 L 480.50 464.90 Z" fill="#ffffff" fill-opacity="0.5" fill-rule="nonzero" group-id="3,26,69,92,102" node-id="543" stroke="none" target-height="3.5" target-width="3.5" target-x="479" target-y="461.4"></path></g></g><g node-id="692"><g node-id="702"><path d="M 464.20 479.90 L 463.10 479.40 L 462.70 478.30 L 463.20 477.30 L 464.80 476.00 L 465.90 476.00 L 466.40 476.40 L 466.80 477.40 L 466.30 478.50 L 465.20 479.50 L 464.20 479.90 Z M 469.60 474.90 L 468.50 474.40 L 468.10 473.30 L 468.60 472.30 L 470.20 470.90 L 471.30 471.00 L 471.80 471.30 L 472.20 472.40 L 471.70 473.50 L 470.60 474.50 L 469.60 474.90 Z M 475.00 469.90 L 473.90 469.40 L 473.50 468.30 L 474.00 467.20 L 475.60 465.90 L 476.70 466.00 L 477.20 466.30 L 477.60 467.40 L 477.10 468.50 L 476.10 469.50 L 475.00 469.90 Z" fill="#ffffff" fill-opacity="0.5" fill-rule="nonzero" group-id="3,26,69,93,103" node-id="551" stroke="none" target-height="14" target-width="14.899994" target-x="462.7" target-y="465.9"></path></g></g><path d="M 459.30 484.40 L 458.20 483.90 L 457.80 482.90 L 458.30 481.80 L 459.30 481.00 L 460.50 481.00 L 461.00 481.40 L 461.40 482.50 L 460.90 483.50 L 459.30 484.40 Z" fill="#ffffff" fill-opacity="0.5" fill-rule="nonzero" group-id="3,26,69,94,104" node-id="559" stroke="none" target-height="3.399994" target-width="3.600006" target-x="457.8" target-y="481"></path></g></g><g node-id="626"><path d="M 486.40 483.80 L 484.40 485.60 L 482.10 487.00 L 479.60 487.80 L 476.90 488.10 L 416.70 488.10 L 414.40 487.80 L 412.40 487.00 L 410.80 485.80 L 409.40 484.20 L 408.60 485.80 L 407.80 488.90 L 408.00 491.20 L 408.80 493.40 L 410.10 495.30 L 411.90 496.90 L 414.90 498.10 L 476.90 498.30 L 479.60 498.00 L 482.10 497.20 L 484.40 495.80 L 486.40 494.00 L 511.00 466.60 L 501.90 466.60 L 486.40 483.80 Z" fill="#ff3482" fill-opacity="0.22" fill-rule="nonzero" group-id="3,27" node-id="567" stroke="none" target-height="31.699982" target-width="103.20001" target-x="407.8" target-y="466.6"></path></g><g node-id="627"><path d="M 499.40 373.50 L 475.10 398.60 L 473.40 401.30 L 472.00 404.10 L 471.00 407.10 L 470.40 410.20 L 470.20 413.50 L 470.30 491.90 L 471.60 494.80 L 472.70 496.00 L 475.20 497.60 L 478.30 498.30 L 479.80 498.10 L 482.80 496.90 L 508.00 471.50 L 509.70 469.40 L 511.00 467.00 L 511.70 464.40 L 512.00 461.70 L 511.80 377.10 L 510.70 374.40 L 509.20 372.90 L 507.40 371.90 L 505.40 371.40 L 503.30 371.40 L 500.60 372.50 L 499.40 373.50 Z" fill="#fbc900" fill-rule="nonzero" group-id="3,28" node-id="572" stroke="none" target-height="126.899994" target-width="41.799988" target-x="470.2" target-y="371.4"></path></g><g node-id="628"><path d="M 481.20 490.10 L 481.20 413.50 L 481.50 410.20 L 482.10 407.10 L 483.10 404.10 L 484.50 401.30 L 486.20 398.60 L 510.20 373.80 L 508.70 372.50 L 506.90 371.70 L 505.00 371.30 L 503.00 371.50 L 501.20 372.20 L 499.40 373.50 L 475.10 398.60 L 473.40 401.30 L 472.00 404.10 L 471.00 407.10 L 470.40 410.20 L 470.20 413.50 L 470.30 491.80 L 471.60 494.70 L 473.10 496.40 L 475.10 497.60 L 477.30 498.20 L 479.50 498.20 L 482.50 497.10 L 483.90 496.10 L 482.00 493.50 L 481.20 490.10 Z" fill="#ff3482" fill-opacity="0.22" fill-rule="nonzero" group-id="3,29" node-id="577" stroke="none" target-height="126.900024" target-width="40" target-x="470.2" target-y="371.3"></path></g><path d="M 502.20 409.80 L 502.00 414.00 L 501.40 417.60 L 500.60 419.70 L 500.00 420.60 L 499.40 420.80 L 498.80 420.60 L 498.20 419.70 L 497.50 417.60 L 496.90 414.00 L 496.70 409.80 L 496.90 405.50 L 497.50 401.90 L 498.20 399.90 L 498.80 398.90 L 499.40 398.70 L 500.00 398.90 L 500.60 399.90 L 501.40 401.90 L 502.00 405.50 L 502.20 409.80 Z" fill="#ffffff" fill-opacity="0.5" fill-rule="nonzero" group-id="3,30" node-id="582" stroke="none" target-height="22.099976" target-width="5.5" target-x="496.7" target-y="398.7"></path></g><g node-id="603"><g node-id="630"><g node-id="669"><path d="M 352.40 463.40 L 357.70 459.50 L 360.90 457.80 L 364.40 456.40 L 368.30 455.40 L 372.90 454.60 L 376.90 454.50 L 380.70 454.80 L 384.20 455.40 L 387.70 456.50 L 394.10 459.30 L 398.40 462.10 L 402.20 464.90 L 408.30 470.70 L 415.20 479.30 L 417.00 480.90 L 419.10 482.20 L 421.40 483.10 L 423.70 483.60 L 426.10 483.70 L 428.50 483.40 L 430.90 482.70 L 433.20 481.50 L 435.20 479.90 L 436.90 478.10 L 438.20 476.00 L 439.10 473.70 L 439.60 471.40 L 439.70 468.90 L 439.40 466.50 L 438.60 464.20 L 437.50 461.90 L 432.50 455.30 L 428.70 451.00 L 424.40 446.70 L 415.00 439.00 L 405.70 433.40 L 400.70 431.00 L 395.20 429.10 L 389.30 427.50 L 380.20 426.20 L 375.20 426.10 L 370.00 426.40 L 359.10 428.40 L 350.10 431.50 L 344.50 434.30 L 339.60 437.30 L 335.40 440.60 L 331.40 444.30 L 325.10 451.60 L 321.40 457.30 L 318.70 462.40 L 316.50 467.20 L 314.20 474.60 L 352.40 463.40 Z" fill="#ffb2b9" fill-rule="nonzero" group-id="4,31,70" node-id="592" stroke="none" target-height="57.600006" target-width="125.5" target-x="314.2" target-y="426.1"></path></g></g><path d="M 428.30 450.60 L 407.50 469.80 L 410.20 472.80 L 415.20 479.30 L 417.00 480.90 L 419.10 482.20 L 421.40 483.10 L 423.70 483.60 L 426.10 483.70 L 428.50 483.40 L 430.90 482.70 L 433.20 481.50 L 435.20 479.90 L 436.90 478.10 L 438.20 476.00 L 439.10 473.70 L 439.60 471.40 L 439.70 468.90 L 439.40 466.50 L 438.60 464.20 L 437.50 461.90 L 434.90 458.20 L 428.30 450.60 Z" fill="#4846c2" fill-rule="nonzero" group-id="4,32" node-id="598" stroke="none" target-height="33.100006" target-width="32.200012" target-x="407.5" target-y="450.6"></path></g></svg>