<svg data-v-2cb57da0="" version="1.0" xmlns="http://www.w3.org/2000/svg" xmlns:xlink="http://www.w3.org/1999/xlink" width="100%" height="100%" viewBox="0 0 340.000000 250.000000" preserveAspectRatio="xMidYMid meet" color-interpolation-filters="sRGB" style="margin: auto;">  <g data-v-2cb57da0="" fill="#F9CB9C" class="icon-text-wrapper icon-svg-group iconsvg" transform="translate(6.7899932861328125,90.14958953857422)"><g class="iconsvg-imagesvg" transform="translate(0,0)" mask="url(#a888072a-a86d-434e-9100-37ef330be732)"><g><rect fill="#F9CB9C" fill-opacity="0" stroke-width="2" x="0" y="0" width="70.80000000000001" height="69.70081809858532" class="image-rect"></rect> <svg x="0" y="0" width="70.80000000000001" height="69.70081809858532" filtersec="colorsb2449719365" class="image-svg-svg primary" style="overflow: visible;"><svg xmlns="http://www.w3.org/2000/svg" viewBox="0.4385022521018982 -0.000009216904800268821 101.5615005493164 99.98497772216797"><path d="M69.3 59.41l-9.89 9.89L51 77.73 30.46 98.26A6 6 0 0 1 22 89.83L42.56 69.3 51 60.88l9.9-9.9zM102 24.28a6 6 0 0 1-1.75 4.21L77.72 51l-8.42-8.44 22.5-22.5a6 6 0 0 1 10.2 4.22z" fill="#0059cc"></path><path d="M83.64 6a5.94 5.94 0 0 1-1.74 4.21L41.08 51l-8.42-8.42 9.9-9.89L51 24.24 73.48 1.75A6 6 0 0 1 83.64 6zM32.66 59.41L12.13 79.93a6 6 0 0 1-8.42-8.42L24.24 51z" fill="#00dac7"></path><path d="M51 24.24l-8.42 8.43-22.5-22.5A6 6 0 0 1 24.28 0a5.89 5.89 0 0 1 4.2 1.75zM98.25 79.93a5.94 5.94 0 0 1-8.42 0L51 41.09l8.42-8.42 9.9 9.89 8.4 8.44 20.53 20.51a6 6 0 0 1 0 8.42z" fill="#00baec"></path><path d="M51 60.88l-8.44 8.42L1.74 28.49a6 6 0 0 1 8.43-8.43l22.49 22.5L41.08 51zM79.93 98.26a6 6 0 0 1-8.42 0L51 77.73l8.42-8.43 20.51 20.53a6 6 0 0 1 0 8.43z" fill="#00abd8"></path></svg></svg> <!----></g><rect v-gra="id" width="82.80000305175781" height="81.70082092285156" transform="translate(-6, -6)" style="pointer-events:none;" fill="url(#7CUAi1iA05OPQq02dBMMU)"></rect></g> <g transform="translate(90.80000305175781,0.28090667724609375)"><g data-gra="path-name" fill-rule="" class="tp-name iconsvg-namesvg"><g transform="scale(1.7000000000000006)"><g><path d="M2.25-25.47C2.25-19.01 5.85-15.67 11.21-16.22 13.81-16.47 16.05-17.25 18-18.52 17.59-14.15 15.25-11.63 11.43-11.05 9.13-10.68 6.71-10.75 4.76-11.07Q4.72-8.77 4.68-6.48C6.52-6.06 9.4-6.24 12.11-6.8 20.79-8.44 24.34-14.2 24.34-21.74 24.34-30.01 21.29-34.36 13.05-35.28 6.57-36.03 2.25-32.1 2.25-25.47Q2.25-25.47 2.25-25.47M8.32-25.67C8.32-29.24 10.13-31.22 12.96-31.03 15.79-30.84 17.59-28.83 17.59-25.61 17.59-22.3 15.84-20.36 12.96-20.22 10.13-20.06 8.32-22.01 8.32-25.67Q8.32-25.67 8.32-25.67M38.52-11.37Q41.85-11.71 45.18-12 45.18-21.94 45.18-31.87 42.81-32.02 40.45-32.18 36.58-30.97 32.72-29.69 32.72-27.37 32.72-25.07 35.61-25.87 38.52-26.63 38.52-19 38.52-11.37M74.12-10.57Q85.14-10.1 96.16-9.1 96.16-11.04 96.16-12.98 88.11-13.55 80.06-13.92 80.06-17.94 80.06-21.98C85.14-23.46 89.87-25.13 94.23-27Q94.23-29.23 94.23-31.47C89.59-29.39 84.87-27.59 80.06-26.02Q80.06-29.98 80.06-34.48 77.09-34.39 74.12-34.32 74.12-29.03 74.12-24.28C71.45-23.55 68.76-22.88 66.06-22.25Q66.06-20.33 66.06-18.41C68.81-19.04 71.5-19.71 74.12-20.38Q74.12-15.47 74.12-10.57M54.9-19.7C56.34-20.45 57.69-21.2 58.91-22.03Q58.91-16.04 58.91-10.05 61.83-10.16 64.75-10.24 64.75-18.78 64.75-27.33C66.28-29.26 67.41-31.39 68.09-34.29Q65.14-34.31 62.19-34.37C60.84-30.51 58.45-27.61 54.9-25.23Q54.9-22.47 54.9-19.7M138.91-29.3Q127.34-28.84 115.78-28.35 115.78-26.25 115.78-24.15 124.47-24.1 133.16-23.98 133.16-12.83 133.16-1.68 136.01-0.92 138.87-0.14 138.88-14.71 138.91-29.3M100.35-27.78C104.13-28.44 107.32-30.09 109.53-32.23Q110.36-30.74 111.19-29.23 114.22-29.39 117.27-29.55 116.41-31.21 115.56-32.85 117.69-33.04 119.83-33.24C119.79-33.24 119.79-33.2 119.74-33.2Q119.74-30.87 119.74-28.55C123.57-29.36 126.76-31.42 128.97-34.05Q129.8-32.19 130.63-30.29 133.66-30.46 136.71-30.62 135.85-32.69 135-34.73 137.91-35.03 140.85-35.32 140.85-38.07 140.85-40.81 133.4-39.73 125.95-38.68C124.74-36.41 122.85-34.78 120.46-33.56Q120.46-35.64 120.46-37.93 113.51-37.04 106.56-36.24C105.21-34.01 103.09-32.62 100.35-31.6Q100.35-29.69 100.35-27.78M102.28-22.37Q102.3-15.21 102.33-8.06 105.18-7.63 108.04-7.17 108.04-14.72 108.04-22.28 105.16-22.33 102.28-22.37M104.4-28.58Q105.77-26.17 107.14-23.71 110.13-23.7 113.13-23.68 111.75-26.3 110.38-28.86 107.39-28.72 104.4-28.58M111.73-8.22Q120.6-6.6 129.47-4.69 129.47-13.14 129.47-21.6 120.6-21.97 111.73-22.25 111.73-15.23 111.73-8.22M117.27-10.7Q117.27-11.83 117.27-12.97 120.6-12.54 123.93-12.08 123.93-10.85 123.93-9.63 120.6-10.18 117.27-10.7M117.27-16.28Q117.27-17.42 117.27-18.56 120.6-18.34 123.93-18.09 123.93-16.86 123.93-15.64 120.6-15.97 117.27-16.28" transform="translate(-2.25, 40.810001373291016)"></path></g> <!----> <!----> <!----> <!----> <!----> <!----> <!----></g></g> <!----></g></g><defs v-gra="od"></defs><defs v-gra="id"><filter id="f3903fb2-2497-4e43-84f6-61f904ef513b" filterUnits="userSpaceOnUse"><feColorMatrix type="matrix" values="0 0 0 0 0.99609375  0 0 0 0 0.99609375  0 0 0 0 0.99609375  0 0 0 1 0"></feColorMatrix></filter><linearGradient x1="0" y1="1" x2="0" y2="0" id="7CUAi1iA05OPQq02dBMMU"><stop offset="0%" stop-color="#00c9ff"></stop><stop offset="100%" stop-color="#92fe9d"></stop></linearGradient><filter id="42443b3f1de60f6b6fd3b6a9844b4764" filterUnits="userSpaceOnUse"><feColorMatrix type="matrix" values="0 0 0 0 0.99609375  0 0 0 0 0.99609375  0 0 0 0 0.99609375  0 0 0 1 0"></feColorMatrix></filter></defs><mask v-gra="im" id="a888072a-a86d-434e-9100-37ef330be732"><g class="iconsvg-imagesvg" filter="url(#f3903fb2-2497-4e43-84f6-61f904ef513b)"><g><rect fill="#F9CB9C" fill-opacity="0" stroke-width="2" x="0" y="0" width="70.80000000000001" height="69.70081809858532" class="image-rect"></rect> <svg x="0" y="0" width="70.80000000000001" height="69.70081809858532" filtersec="colorsb2449719365" class="image-svg-svg primary" style="overflow: visible;"><svg xmlns="http://www.w3.org/2000/svg" viewBox="0.4385022521018982 -0.000009216904800268821 101.5615005493164 99.98497772216797"><path d="M69.3 59.41l-9.89 9.89L51 77.73 30.46 98.26A6 6 0 0 1 22 89.83L42.56 69.3 51 60.88l9.9-9.9zM102 24.28a6 6 0 0 1-1.75 4.21L77.72 51l-8.42-8.44 22.5-22.5a6 6 0 0 1 10.2 4.22z" fill="#0059cc"></path><path d="M83.64 6a5.94 5.94 0 0 1-1.74 4.21L41.08 51l-8.42-8.42 9.9-9.89L51 24.24 73.48 1.75A6 6 0 0 1 83.64 6zM32.66 59.41L12.13 79.93a6 6 0 0 1-8.42-8.42L24.24 51z" fill="#00dac7"></path><path d="M51 24.24l-8.42 8.43-22.5-22.5A6 6 0 0 1 24.28 0a5.89 5.89 0 0 1 4.2 1.75zM98.25 79.93a5.94 5.94 0 0 1-8.42 0L51 41.09l8.42-8.42 9.9 9.89 8.4 8.44 20.53 20.51a6 6 0 0 1 0 8.42z" fill="#00baec"></path><path d="M51 60.88l-8.44 8.42L1.74 28.49a6 6 0 0 1 8.43-8.43l22.49 22.5L41.08 51zM79.93 98.26a6 6 0 0 1-8.42 0L51 77.73l8.42-8.43 20.51 20.53a6 6 0 0 1 0 8.43z" fill="#00abd8"></path></svg></svg> <!----></g></g></mask></svg>