<svg id="enfB8XVe2m01" xmlns="http://www.w3.org/2000/svg" xmlns:xlink="http://www.w3.org/1999/xlink" viewBox="0 0 2560 1696" shape-rendering="geometricPrecision" text-rendering="geometricPrecision"><defs><filter id="enfB8XVe2m02-filter" x="-150%" width="400%" y="-150%" height="400%"><feGaussianBlur id="enfB8XVe2m02-filter-blur-0" stdDeviation="80,80" result="result"/></filter><linearGradient id="enfB8XVe2m02-fill" x1="0.603529" y1="0.254443" x2="0.193651" y2="0.66982" spreadMethod="pad" gradientUnits="objectBoundingBox" gradientTransform="translate(0 0)"><stop id="enfB8XVe2m02-fill-0" offset="0%" stop-color="#e3b3ff"/><stop id="enfB8XVe2m02-fill-1" offset="16.187569%" stop-color="#ff711d"/><stop id="enfB8XVe2m02-fill-2" offset="62.458577%" stop-color="#febb66"/><stop id="enfB8XVe2m02-fill-3" offset="79.386002%" stop-color="#fdcd49"/><stop id="enfB8XVe2m02-fill-4" offset="100%" stop-color="rgba(253,205,73,0)"/></linearGradient><filter id="enfB8XVe2m03-filter" x="-150%" width="400%" y="-150%" height="400%"><feGaussianBlur id="enfB8XVe2m03-filter-blur-0" stdDeviation="130,130" result="result"/></filter><linearGradient id="enfB8XVe2m03-fill" x1="0.033067" y1="0.479977" x2="0.897222" y2="0.469129" spreadMethod="pad" gradientUnits="objectBoundingBox" gradientTransform="translate(0 0)"><stop id="enfB8XVe2m03-fill-0" offset="0%" stop-color="rgba(95,95,250,0)"/><stop id="enfB8XVe2m03-fill-1" offset="7%" stop-color="#6565ff"/><stop id="enfB8XVe2m03-fill-2" offset="48%" stop-color="#4242e3"/><stop id="enfB8XVe2m03-fill-3" offset="91%" stop-color="#2fc4ff"/><stop id="enfB8XVe2m03-fill-4" offset="100%" stop-color="rgba(51,166,249,0)"/></linearGradient></defs><path d="M585.46822,1213.02074c228,27,685.44447,84.37934,730.12241-168.8933s-189.55128-506.257517-523.165575-565.057529-620.960518,221.296864-684.958676,352.123848-154.998159,353.826981-77.998159,447.826981c67.819104,82.79216,328-93,556-66Z" transform="translate(-180.162948 206.320024)" filter="url(#enfB8XVe2m02-filter)" fill="url(#enfB8XVe2m02-fill)" fill-rule="evenodd"/><path d="M1360.92776,715.04088c388.18734,44.546805,854.46885-81.568969,907.54537-277.471485s-327.15099-387.407478-715.33833-431.954283c-231.21687-26.533511-349.66658,46.134091-536.66658,109.715012s-272.537566,154.631795-294,233.84847C669.39171,545.08111,972.740416,670.494074,1360.92776,715.04088Z" transform="translate(-180.162948 206.320024)" filter="url(#enfB8XVe2m03-filter)" fill="url(#enfB8XVe2m03-fill)" fill-rule="evenodd"/></svg>
