<?xml version="1.0" standalone="no"?><!DOCTYPE svg PUBLIC "-//W3C//DTD SVG 1.1//EN" "http://www.w3.org/Graphics/SVG/1.1/DTD/svg11.dtd"><svg height="1024" node-id="1" sillyvg="true" template-height="1024" template-width="1024" version="1.1" viewBox="0 0 1024 1024" width="1024" xmlns="http://www.w3.org/2000/svg" xmlns:xlink="http://www.w3.org/1999/xlink"><defs node-id="120"><linearGradient gradientUnits="objectBoundingBox" id="SVGID_1_" node-id="64" spreadMethod="pad" x1="504.0129" x2="512.3701" y1="621.4295" y2="753.1285"><stop offset="0" stop-color="#91b3ff"></stop><stop offset="0.4022" stop-color="#6791f2"></stop><stop offset="0.7939" stop-color="#3b6ce4"></stop></linearGradient><linearGradient gradientUnits="objectBoundingBox" id="SVGID_2_" node-id="69" spreadMethod="pad" x1="519.7179" x2="523.7009" y1="618.4447" y2="681.212"><stop offset="0" stop-color="#91b3ff"></stop><stop offset="0.2484" stop-color="#6795ec"></stop><stop offset="0.7939" stop-color="#004cbf"></stop></linearGradient><linearGradient gradientUnits="objectBoundingBox" id="SVGID_3_" node-id="78" spreadMethod="pad" x1="744.1927" x2="707.2399" y1="649.2149" y2="598.9297"><stop offset="0" stop-color="#efbb81"></stop><stop offset="0.5011" stop-color="#f79e57"></stop><stop offset="1" stop-color="#ff7f2a"></stop></linearGradient><linearGradient gradientUnits="objectBoundingBox" id="SVGID_4_" node-id="87" spreadMethod="pad" x1="802.523" x2="781.4401" y1="686.744" y2="658.0544"><stop offset="0" stop-color="#efbb81"></stop><stop offset="0.5011" stop-color="#f79e57"></stop><stop offset="1" stop-color="#ff7f2a"></stop></linearGradient><linearGradient gradientUnits="objectBoundingBox" id="SVGID_5_" node-id="96" spreadMethod="pad" x1="409.8831" x2="606.6173" y1="343.0361" y2="517.9087"><stop offset="0" stop-color="#91b3ff"></stop><stop offset="0.5066" stop-color="#6791f2"></stop><stop offset="1" stop-color="#3b6ce4"></stop></linearGradient></defs><g node-id="374"><g node-id="377"><path d="M 163.20 716.30 L 163.20 510.50 L 245.70 510.50 L 245.70 362.30 L 386.30 362.30 L 386.30 716.30 Z" fill="#ccdafe" fill-rule="nonzero" group-id="1,4" node-id="169" stroke="none" target-height="354" target-width="223.09999" target-x="163.2" target-y="362.3"></path><g node-id="380"><path d="M 259.70 386.80 L 288.50 386.80 L 288.50 409.80 L 259.70 409.80 Z" fill="#a8beef" fill-rule="nonzero" group-id="1,4,7" node-id="173" stroke="none" target-height="23" target-width="28.799988" target-x="259.7" target-y="386.8"></path><path d="M 302.80 386.80 L 331.60 386.80 L 331.60 409.80 L 302.80 409.80 Z" fill="#a8beef" fill-rule="nonzero" group-id="1,4,7" node-id="175" stroke="none" target-height="23" target-width="28.800018" target-x="302.8" target-y="386.8"></path><path d="M 346.00 386.80 L 374.80 386.80 L 374.80 409.80 L 346.00 409.80 Z" fill="#a8beef" fill-rule="nonzero" group-id="1,4,7" node-id="177" stroke="none" target-height="23" target-width="28.799988" target-x="346" target-y="386.8"></path><path d="M 259.70 422.70 L 288.50 422.70 L 288.50 445.70 L 259.70 445.70 Z" fill="#a8beef" fill-rule="nonzero" group-id="1,4,7" node-id="179" stroke="none" target-height="23" target-width="28.799988" target-x="259.7" target-y="422.7"></path><path d="M 302.80 422.70 L 331.60 422.70 L 331.60 445.70 L 302.80 445.70 Z" fill="#a8beef" fill-rule="nonzero" group-id="1,4,7" node-id="181" stroke="none" target-height="23" target-width="28.800018" target-x="302.8" target-y="422.7"></path><path d="M 346.00 422.70 L 374.80 422.70 L 374.80 445.70 L 346.00 445.70 Z" fill="#a8beef" fill-rule="nonzero" group-id="1,4,7" node-id="183" stroke="none" target-height="23" target-width="28.799988" target-x="346" target-y="422.7"></path><path d="M 259.70 458.70 L 288.50 458.70 L 288.50 481.70 L 259.70 481.70 Z" fill="#a8beef" fill-rule="nonzero" group-id="1,4,7" node-id="185" stroke="none" target-height="23" target-width="28.799988" target-x="259.7" target-y="458.7"></path><path d="M 302.80 458.70 L 331.60 458.70 L 331.60 481.70 L 302.80 481.70 Z" fill="#a8beef" fill-rule="nonzero" group-id="1,4,7" node-id="187" stroke="none" target-height="23" target-width="28.800018" target-x="302.8" target-y="458.7"></path><path d="M 346.00 458.70 L 374.80 458.70 L 374.80 481.70 L 346.00 481.70 Z" fill="#a8beef" fill-rule="nonzero" group-id="1,4,7" node-id="189" stroke="none" target-height="23" target-width="28.799988" target-x="346" target-y="458.7"></path><path d="M 259.70 494.70 L 288.50 494.70 L 288.50 517.70 L 259.70 517.70 Z" fill="#a8beef" fill-rule="nonzero" group-id="1,4,7" node-id="191" stroke="none" target-height="23" target-width="28.799988" target-x="259.7" target-y="494.7"></path><path d="M 302.80 494.70 L 331.60 494.70 L 331.60 517.70 L 302.80 517.70 Z" fill="#a8beef" fill-rule="nonzero" group-id="1,4,7" node-id="193" stroke="none" target-height="23" target-width="28.800018" target-x="302.8" target-y="494.7"></path><path d="M 346.00 494.70 L 374.80 494.70 L 374.80 517.70 L 346.00 517.70 Z" fill="#a8beef" fill-rule="nonzero" group-id="1,4,7" node-id="195" stroke="none" target-height="23" target-width="28.799988" target-x="346" target-y="494.7"></path><path d="M 259.70 530.70 L 288.50 530.70 L 288.50 553.70 L 259.70 553.70 Z" fill="#a8beef" fill-rule="nonzero" group-id="1,4,7" node-id="197" stroke="none" target-height="23" target-width="28.799988" target-x="259.7" target-y="530.7"></path><path d="M 216.50 530.70 L 245.30 530.70 L 245.30 553.70 L 216.50 553.70 Z" fill="#a8beef" fill-rule="nonzero" group-id="1,4,7" node-id="199" stroke="none" target-height="23" target-width="28.800003" target-x="216.5" target-y="530.7"></path><path d="M 173.30 530.70 L 202.10 530.70 L 202.10 553.70 L 173.30 553.70 Z" fill="#a8beef" fill-rule="nonzero" group-id="1,4,7" node-id="201" stroke="none" target-height="23" target-width="28.800003" target-x="173.3" target-y="530.7"></path><path d="M 302.80 530.70 L 331.60 530.70 L 331.60 553.70 L 302.80 553.70 Z" fill="#a8beef" fill-rule="nonzero" group-id="1,4,7" node-id="203" stroke="none" target-height="23" target-width="28.800018" target-x="302.8" target-y="530.7"></path><path d="M 346.00 530.70 L 374.80 530.70 L 374.80 553.70 L 346.00 553.70 Z" fill="#a8beef" fill-rule="nonzero" group-id="1,4,7" node-id="205" stroke="none" target-height="23" target-width="28.799988" target-x="346" target-y="530.7"></path><path d="M 259.70 566.60 L 288.50 566.60 L 288.50 589.60 L 259.70 589.60 Z" fill="#a8beef" fill-rule="nonzero" group-id="1,4,7" node-id="207" stroke="none" target-height="23" target-width="28.799988" target-x="259.7" target-y="566.6"></path><path d="M 216.50 566.60 L 245.30 566.60 L 245.30 589.60 L 216.50 589.60 Z" fill="#a8beef" fill-rule="nonzero" group-id="1,4,7" node-id="209" stroke="none" target-height="23" target-width="28.800003" target-x="216.5" target-y="566.6"></path><path d="M 173.30 566.60 L 202.10 566.60 L 202.10 589.60 L 173.30 589.60 Z" fill="#a8beef" fill-rule="nonzero" group-id="1,4,7" node-id="211" stroke="none" target-height="23" target-width="28.800003" target-x="173.3" target-y="566.6"></path><path d="M 302.80 566.60 L 331.60 566.60 L 331.60 589.60 L 302.80 589.60 Z" fill="#a8beef" fill-rule="nonzero" group-id="1,4,7" node-id="213" stroke="none" target-height="23" target-width="28.800018" target-x="302.8" target-y="566.6"></path><path d="M 346.00 566.60 L 374.80 566.60 L 374.80 589.60 L 346.00 589.60 Z" fill="#a8beef" fill-rule="nonzero" group-id="1,4,7" node-id="215" stroke="none" target-height="23" target-width="28.799988" target-x="346" target-y="566.6"></path><path d="M 259.70 602.60 L 288.50 602.60 L 288.50 625.60 L 259.70 625.60 Z" fill="#a8beef" fill-rule="nonzero" group-id="1,4,7" node-id="217" stroke="none" target-height="23" target-width="28.799988" target-x="259.7" target-y="602.6"></path><path d="M 216.50 602.60 L 245.30 602.60 L 245.30 625.60 L 216.50 625.60 Z" fill="#a8beef" fill-rule="nonzero" group-id="1,4,7" node-id="219" stroke="none" target-height="23" target-width="28.800003" target-x="216.5" target-y="602.6"></path><path d="M 173.30 602.60 L 202.10 602.60 L 202.10 625.60 L 173.30 625.60 Z" fill="#a8beef" fill-rule="nonzero" group-id="1,4,7" node-id="221" stroke="none" target-height="23" target-width="28.800003" target-x="173.3" target-y="602.6"></path><path d="M 302.80 602.60 L 331.60 602.60 L 331.60 625.60 L 302.80 625.60 Z" fill="#a8beef" fill-rule="nonzero" group-id="1,4,7" node-id="223" stroke="none" target-height="23" target-width="28.800018" target-x="302.8" target-y="602.6"></path><path d="M 346.00 602.60 L 374.80 602.60 L 374.80 625.60 L 346.00 625.60 Z" fill="#a8beef" fill-rule="nonzero" group-id="1,4,7" node-id="225" stroke="none" target-height="23" target-width="28.799988" target-x="346" target-y="602.6"></path><path d="M 259.70 638.60 L 288.50 638.60 L 288.50 661.60 L 259.70 661.60 Z" fill="#a8beef" fill-rule="nonzero" group-id="1,4,7" node-id="227" stroke="none" target-height="23" target-width="28.799988" target-x="259.7" target-y="638.6"></path><path d="M 216.50 638.60 L 245.30 638.60 L 245.30 661.60 L 216.50 661.60 Z" fill="#a8beef" fill-rule="nonzero" group-id="1,4,7" node-id="229" stroke="none" target-height="23" target-width="28.800003" target-x="216.5" target-y="638.6"></path><path d="M 173.30 638.60 L 202.10 638.60 L 202.10 661.60 L 173.30 661.60 Z" fill="#a8beef" fill-rule="nonzero" group-id="1,4,7" node-id="231" stroke="none" target-height="23" target-width="28.800003" target-x="173.3" target-y="638.6"></path><path d="M 302.80 638.60 L 331.60 638.60 L 331.60 661.60 L 302.80 661.60 Z" fill="#a8beef" fill-rule="nonzero" group-id="1,4,7" node-id="233" stroke="none" target-height="23" target-width="28.800018" target-x="302.8" target-y="638.6"></path><path d="M 346.00 638.60 L 374.80 638.60 L 374.80 661.60 L 346.00 661.60 Z" fill="#a8beef" fill-rule="nonzero" group-id="1,4,7" node-id="235" stroke="none" target-height="23" target-width="28.799988" target-x="346" target-y="638.6"></path></g></g><g node-id="378"><path d="M 635.30 713.40 L 635.30 583.90 L 698.60 583.90 L 698.60 434.30 L 795.00 434.30 L 795.00 504.80 L 851.10 504.80 L 851.10 713.40 Z" fill="#ccdafe" fill-rule="nonzero" group-id="1,5" node-id="241" stroke="none" target-height="279.10004" target-width="215.79999" target-x="635.3" target-y="434.3"></path><g node-id="381"><path d="M 713.00 453.00 L 741.80 453.00 L 741.80 476.00 L 713.00 476.00 Z" fill="#a8beef" fill-rule="nonzero" group-id="1,5,8" node-id="245" stroke="none" target-height="23" target-width="28.799988" target-x="713" target-y="453"></path><path d="M 753.30 453.00 L 782.10 453.00 L 782.10 476.00 L 753.30 476.00 Z" fill="#a8beef" fill-rule="nonzero" group-id="1,5,8" node-id="247" stroke="none" target-height="23" target-width="28.799988" target-x="753.3" target-y="453"></path><path d="M 713.00 596.90 L 741.80 596.90 L 741.80 619.90 L 713.00 619.90 Z" fill="#a8beef" fill-rule="nonzero" group-id="1,5,8" node-id="249" stroke="none" target-height="23" target-width="28.799988" target-x="713" target-y="596.9"></path><path d="M 672.70 596.90 L 701.50 596.90 L 701.50 619.90 L 672.70 619.90 Z" fill="#a8beef" fill-rule="nonzero" group-id="1,5,8" node-id="251" stroke="none" target-height="23" target-width="28.799988" target-x="672.7" target-y="596.9"></path><path d="M 672.70 632.80 L 701.50 632.80 L 701.50 655.80 L 672.70 655.80 Z" fill="#a8beef" fill-rule="nonzero" group-id="1,5,8" node-id="253" stroke="none" target-height="23" target-width="28.799988" target-x="672.7" target-y="632.8"></path><path d="M 753.30 596.90 L 782.10 596.90 L 782.10 619.90 L 753.30 619.90 Z" fill="#a8beef" fill-rule="nonzero" group-id="1,5,8" node-id="255" stroke="none" target-height="23" target-width="28.799988" target-x="753.3" target-y="596.9"></path><path d="M 713.00 488.90 L 741.80 488.90 L 741.80 511.90 L 713.00 511.90 Z" fill="#a8beef" fill-rule="nonzero" group-id="1,5,8" node-id="257" stroke="none" target-height="23" target-width="28.799988" target-x="713" target-y="488.9"></path><path d="M 753.30 488.90 L 782.10 488.90 L 782.10 511.90 L 753.30 511.90 Z" fill="#a8beef" fill-rule="nonzero" group-id="1,5,8" node-id="259" stroke="none" target-height="23" target-width="28.799988" target-x="753.3" target-y="488.9"></path><path d="M 713.00 524.90 L 741.80 524.90 L 741.80 547.90 L 713.00 547.90 Z" fill="#a8beef" fill-rule="nonzero" group-id="1,5,8" node-id="261" stroke="none" target-height="23" target-width="28.799988" target-x="713" target-y="524.9"></path><path d="M 753.30 524.90 L 782.10 524.90 L 782.10 547.90 L 753.30 547.90 Z" fill="#a8beef" fill-rule="nonzero" group-id="1,5,8" node-id="263" stroke="none" target-height="23" target-width="28.799988" target-x="753.3" target-y="524.9"></path><path d="M 793.60 524.90 L 822.40 524.90 L 822.40 547.90 L 793.60 547.90 Z" fill="#a8beef" fill-rule="nonzero" group-id="1,5,8" node-id="265" stroke="none" target-height="23" target-width="28.800049" target-x="793.6" target-y="524.9"></path><path d="M 793.60 560.90 L 822.40 560.90 L 822.40 583.90 L 793.60 583.90 Z" fill="#a8beef" fill-rule="nonzero" group-id="1,5,8" node-id="267" stroke="none" target-height="23" target-width="28.800049" target-x="793.6" target-y="560.9"></path><path d="M 793.60 596.90 L 822.40 596.90 L 822.40 619.90 L 793.60 619.90 Z" fill="#a8beef" fill-rule="nonzero" group-id="1,5,8" node-id="269" stroke="none" target-height="23" target-width="28.800049" target-x="793.6" target-y="596.9"></path><path d="M 793.60 632.80 L 822.40 632.80 L 822.40 655.80 L 793.60 655.80 Z" fill="#a8beef" fill-rule="nonzero" group-id="1,5,8" node-id="271" stroke="none" target-height="23" target-width="28.800049" target-x="793.6" target-y="632.8"></path><path d="M 713.00 560.90 L 741.80 560.90 L 741.80 583.90 L 713.00 583.90 Z" fill="#a8beef" fill-rule="nonzero" group-id="1,5,8" node-id="273" stroke="none" target-height="23" target-width="28.799988" target-x="713" target-y="560.9"></path><path d="M 753.30 560.90 L 782.10 560.90 L 782.10 583.90 L 753.30 583.90 Z" fill="#a8beef" fill-rule="nonzero" group-id="1,5,8" node-id="275" stroke="none" target-height="23" target-width="28.799988" target-x="753.3" target-y="560.9"></path><path d="M 713.00 632.80 L 741.80 632.80 L 741.80 655.80 L 713.00 655.80 Z" fill="#a8beef" fill-rule="nonzero" group-id="1,5,8" node-id="277" stroke="none" target-height="23" target-width="28.799988" target-x="713" target-y="632.8"></path><path d="M 753.30 632.80 L 782.10 632.80 L 782.10 655.80 L 753.30 655.80 Z" fill="#a8beef" fill-rule="nonzero" group-id="1,5,8" node-id="279" stroke="none" target-height="23" target-width="28.799988" target-x="753.3" target-y="632.8"></path></g></g><g node-id="379"><g node-id="382"><path d="M 92.70 750.90 L 105.30 741.60 L 128.40 726.60 L 155.70 710.50 L 182.90 696.30 L 197.40 689.20 L 213.40 682.00 L 230.80 674.50 L 248.40 667.50 L 267.30 660.70 L 287.60 653.90 L 318.70 644.70 L 335.20 640.50 L 352.50 636.40 L 369.70 632.90 L 387.50 629.70 L 405.90 626.80 L 425.00 624.40 L 443.90 622.50 L 463.50 621.10 L 483.60 620.20 L 504.30 619.90 L 521.80 620.20 L 539.10 620.90 L 556.10 622.00 L 572.90 623.60 L 606.20 627.90 L 638.30 633.50 L 659.40 638.00 L 679.70 642.90 L 699.40 648.20 L 719.00 654.00 L 737.60 659.90 L 773.10 672.50 L 805.40 685.40 L 828.20 695.40 L 848.40 704.80 L 867.40 714.20 L 883.40 722.60 L 909.60 737.30 L 931.70 750.90 L 914.80 745.80 L 888.90 739.70 L 859.30 734.30 L 842.90 731.90 L 823.90 729.60 L 801.90 727.40 L 779.90 725.80 L 755.10 724.50 L 727.30 723.60 L 714.60 723.60 L 702.40 724.00 L 690.60 724.90 L 673.00 726.80 L 655.70 729.30 L 603.20 738.30 L 572.20 743.10 L 545.30 746.10 L 531.60 747.10 L 517.00 747.80 L 501.40 748.00 L 479.70 747.80 L 439.40 746.00 L 420.10 744.70 L 343.30 737.90 L 302.50 734.70 L 258.20 732.20 L 243.70 731.90 L 229.60 731.90 L 215.90 732.40 L 189.20 734.20 L 158.80 737.80 L 128.20 742.90 L 116.40 745.30 L 92.70 750.90 Z" fill="url(#SVGID_1_)" fill-rule="nonzero" group-id="1,6,9" node-id="287" stroke="none" target-height="131" target-width="839" target-x="92.7" target-y="619.9"></path><path d="M 429.40 623.90 L 424.60 627.90 L 423.00 629.90 L 421.80 632.10 L 421.00 634.30 L 420.80 636.40 L 421.10 638.80 L 422.00 641.20 L 423.60 643.70 L 425.90 646.20 L 431.60 650.40 L 440.10 654.70 L 446.30 657.00 L 453.50 659.30 L 470.10 663.00 L 489.20 665.70 L 499.20 666.60 L 520.80 667.30 L 531.90 667.10 L 552.40 665.70 L 562.40 664.50 L 579.80 661.30 L 588.10 659.20 L 595.30 657.00 L 606.10 652.50 L 610.00 650.40 L 615.70 646.10 L 618.00 643.60 L 619.60 641.20 L 620.50 638.80 L 620.80 636.40 L 620.50 634.30 L 619.80 632.10 L 618.50 629.80 L 600.20 626.90 L 581.50 624.50 L 562.50 622.50 L 543.40 621.00 L 523.90 620.10 L 504.20 619.80 L 484.70 620.10 L 465.80 620.90 L 447.40 622.20 L 429.40 623.90 Z" fill="url(#SVGID_2_)" fill-rule="nonzero" group-id="1,6,9" node-id="289" stroke="none" target-height="47.5" target-width="200" target-x="420.8" target-y="619.8"></path><g node-id="384"><path d="M 387.30 677.20 L 387.50 678.80 L 387.40 680.40 L 386.70 682.20 L 385.50 684.20 L 383.60 686.50 L 380.90 689.00 L 377.30 691.80 L 369.10 696.70 L 364.00 699.20 L 353.10 703.60 L 346.90 705.50 L 340.60 707.20 L 329.00 709.50 L 323.40 710.10 L 313.80 710.40 L 309.30 710.00 L 305.70 709.40 L 302.80 708.40 L 300.70 707.40 L 299.20 706.20 L 298.20 705.00 L 297.50 703.60 L 297.30 702.00 L 298.10 698.60 L 301.30 694.30 L 303.90 691.70 L 307.50 689.00 L 315.70 684.00 L 320.80 681.50 L 331.80 677.20 L 338.00 675.20 L 344.30 673.50 L 355.80 671.30 L 361.50 670.60 L 371.00 670.40 L 375.50 670.70 L 379.20 671.40 L 382.10 672.30 L 384.10 673.40 L 385.60 674.50 L 386.70 675.80 L 387.30 677.20 Z" fill="#3b6ce4" fill-rule="nonzero" group-id="1,6,9,11" node-id="293" stroke="none" target-height="40" target-width="90.20001" target-x="297.3" target-y="670.4"></path></g><path d="M 562.60 699.70 L 568.20 701.60 L 573.40 703.90 L 578.10 706.60 L 582.00 709.30 L 585.90 713.30 L 587.90 716.90 L 588.10 718.60 L 587.90 720.20 L 587.20 721.60 L 586.10 722.80 L 584.30 723.90 L 580.00 725.40 L 576.90 725.80 L 572.20 725.90 L 566.80 725.50 L 561.20 724.50 L 555.40 723.00 L 549.80 721.00 L 544.70 718.70 L 539.90 716.10 L 536.10 713.30 L 532.10 709.40 L 530.20 705.70 L 529.90 704.00 L 530.10 702.50 L 530.80 701.10 L 532.00 699.80 L 533.70 698.70 L 538.10 697.30 L 541.10 696.80 L 545.80 696.70 L 551.30 697.20 L 556.80 698.10 L 562.60 699.70 Z" fill="#3b6ce4" fill-rule="nonzero" group-id="1,6,9,12" node-id="298" stroke="none" target-height="29.200012" target-width="58.19995" target-x="529.9" target-y="696.7"></path></g><g node-id="383"><g node-id="386"><path d="M 750.00 627.90 L 752.30 625.20 L 754.10 622.30 L 755.40 619.20 L 756.30 616.00 L 756.60 612.70 L 756.40 609.30 L 755.70 606.30 L 754.60 603.50 L 753.20 600.90 L 751.40 598.50 L 746.90 594.50 L 741.20 591.50 L 741.30 588.80 L 741.00 585.90 L 740.10 582.90 L 738.80 580.30 L 737.00 578.00 L 734.90 576.10 L 732.50 574.50 L 729.90 573.30 L 727.10 572.60 L 724.20 572.50 L 721.20 572.80 L 718.30 573.70 L 715.70 575.00 L 713.40 576.80 L 711.50 578.90 L 709.90 581.30 L 708.80 583.90 L 708.10 586.70 L 708.00 589.60 L 708.30 592.70 L 709.40 596.00 L 706.90 598.20 L 703.00 603.10 L 700.40 608.60 L 699.70 611.50 L 699.50 614.50 L 699.70 617.60 L 700.30 620.40 L 702.60 625.40 L 704.20 627.70 L 701.70 629.60 L 698.10 633.60 L 696.80 635.90 L 696.10 638.20 L 695.80 640.70 L 696.10 643.30 L 696.90 645.70 L 698.30 648.10 L 700.00 650.20 L 702.20 652.20 L 704.90 654.10 L 711.20 657.10 L 718.70 659.00 L 722.70 659.50 L 727.00 659.70 L 735.30 659.00 L 739.10 658.20 L 746.10 655.70 L 751.80 652.20 L 754.00 650.20 L 755.70 648.10 L 757.10 645.70 L 757.90 643.30 L 758.20 640.70 L 757.90 638.20 L 757.20 635.90 L 755.90 633.70 L 754.40 631.60 L 750.00 627.90 Z" fill="url(#SVGID_3_)" fill-rule="nonzero" group-id="1,6,10,13" node-id="306" stroke="none" target-height="87.20001" target-width="62.400024" target-x="695.8" target-y="572.5"></path><g node-id="388"><g node-id="390"><path d="M 726.30 686.20 L 725.30 684.50 L 725.00 683.30 L 727.10 660.00 L 727.30 651.60 L 727.20 639.70 L 726.60 631.50 L 724.70 619.40 L 724.80 618.20 L 725.50 616.20 L 726.30 615.60 L 727.00 615.60 L 727.60 616.20 L 728.10 617.60 L 730.00 630.00 L 730.80 642.90 L 730.90 651.80 L 729.80 671.30 L 728.50 683.70 L 727.60 685.90 L 727.00 686.30 L 726.30 686.20 Z" fill="#ff7f2a" fill-rule="nonzero" group-id="1,6,10,13,15,17" node-id="312" stroke="none" target-height="70.70001" target-width="6.200012" target-x="724.7" target-y="615.6"></path></g></g></g><g node-id="387"><path d="M 805.80 674.60 L 807.60 672.30 L 808.90 669.70 L 809.40 667.80 L 809.50 664.00 L 808.90 661.70 L 808.00 659.70 L 806.60 657.90 L 805.00 656.30 L 800.80 653.80 L 800.70 650.60 L 800.20 648.90 L 798.40 646.10 L 796.50 644.50 L 794.40 643.40 L 791.10 642.90 L 789.40 643.10 L 786.20 644.40 L 785.00 645.40 L 783.40 647.30 L 782.30 649.50 L 781.90 652.70 L 782.70 656.40 L 779.30 659.90 L 778.20 662.00 L 777.40 664.10 L 777.10 666.40 L 777.20 668.70 L 777.70 670.80 L 779.80 674.50 L 777.70 676.10 L 776.30 677.80 L 775.30 679.80 L 775.00 681.90 L 775.30 683.80 L 776.10 685.60 L 777.40 687.40 L 779.10 688.80 L 781.20 690.10 L 786.50 692.00 L 792.80 692.70 L 799.10 692.00 L 804.40 690.10 L 808.20 687.30 L 809.50 685.60 L 810.30 683.80 L 810.60 681.90 L 810.20 679.90 L 809.30 677.90 L 807.80 676.20 L 805.80 674.60 Z" fill="url(#SVGID_4_)" fill-rule="nonzero" group-id="1,6,10,14" node-id="319" stroke="none" target-height="49.799988" target-width="35.599976" target-x="775" target-y="642.9"></path><g node-id="389"><g node-id="391"><path d="M 792.30 707.80 L 791.70 706.90 L 791.60 705.30 L 792.60 695.50 L 792.80 681.30 L 792.50 676.60 L 791.40 668.90 L 791.80 667.80 L 792.60 667.50 L 793.30 668.60 L 794.40 675.70 L 794.90 688.10 L 794.50 696.10 L 793.50 706.30 L 793.10 707.70 L 792.70 707.90 L 792.30 707.80 Z" fill="#ff7f2a" fill-rule="nonzero" group-id="1,6,10,14,16,18" node-id="325" stroke="none" target-height="40.400024" target-width="3.5" target-x="791.4" target-y="667.5"></path></g></g></g></g></g></g><path d="M 516.40 272.60 L 592.20 278.10 L 593.50 278.40 L 595.70 279.60 L 597.10 281.70 L 599.10 291.20 L 600.50 296.20 L 604.30 305.90 L 608.80 314.00 L 611.60 317.90 L 618.40 325.60 L 626.30 332.00 L 630.20 334.50 L 638.10 338.50 L 647.30 341.60 L 651.80 342.60 L 661.50 343.80 L 662.70 361.60 L 663.50 381.20 L 663.70 405.50 L 663.00 432.80 L 662.00 447.00 L 660.70 461.30 L 658.90 475.50 L 656.50 489.30 L 652.30 506.80 L 649.80 514.80 L 646.90 522.70 L 643.70 529.90 L 640.20 536.30 L 635.40 543.60 L 630.00 550.90 L 623.90 558.20 L 617.40 565.10 L 603.30 578.40 L 592.00 587.80 L 580.50 596.60 L 568.90 604.80 L 557.90 612.20 L 537.60 624.60 L 521.90 633.40 L 513.00 638.00 L 511.70 638.30 L 510.60 638.00 L 502.00 633.50 L 487.00 624.80 L 467.50 612.50 L 456.80 605.20 L 445.50 596.90 L 434.30 588.10 L 423.10 578.50 L 415.90 571.80 L 402.30 557.60 L 396.00 550.20 L 390.30 542.60 L 385.10 534.80 L 381.60 528.50 L 378.30 521.50 L 375.30 513.80 L 372.80 505.80 L 368.50 488.50 L 366.00 474.90 L 364.10 460.80 L 362.60 446.60 L 361.60 432.50 L 361.00 418.50 L 360.70 392.40 L 361.50 361.50 L 362.60 343.70 L 377.50 340.40 L 388.30 337.00 L 393.90 334.80 L 399.20 332.40 L 404.00 329.60 L 409.40 325.40 L 411.40 323.10 L 415.60 317.10 L 419.00 311.20 L 421.90 305.20 L 426.20 294.30 L 429.30 282.00 L 430.00 280.20 L 431.10 278.80 L 432.60 277.90 L 434.50 277.40 L 505.70 272.60 L 511.00 272.40 L 516.40 272.60 Z" fill="#1e53a8" fill-rule="nonzero" node-id="333" stroke="none" target-height="365.9" target-width="303" target-x="360.7" target-y="272.4"></path><path d="M 511.90 616.00 L 497.90 608.00 L 479.50 596.40 L 458.80 581.80 L 448.20 573.60 L 437.60 564.60 L 424.30 551.90 L 418.10 545.30 L 412.20 538.40 L 406.90 531.30 L 402.10 524.20 L 399.20 518.90 L 396.40 512.90 L 393.80 506.10 L 389.70 491.70 L 387.90 483.70 L 385.70 471.40 L 383.90 458.40 L 381.70 431.80 L 381.10 418.40 L 380.70 392.80 L 381.60 360.00 L 393.70 356.30 L 400.10 353.90 L 406.40 351.10 L 412.50 347.80 L 418.10 344.10 L 421.60 341.30 L 424.70 338.30 L 427.40 335.10 L 432.20 328.30 L 436.20 321.60 L 439.60 314.80 L 442.40 308.40 L 446.40 296.50 L 511.00 292.30 L 580.10 297.10 L 582.00 303.50 L 584.80 310.70 L 589.60 320.40 L 592.70 325.40 L 596.20 330.30 L 600.20 335.00 L 604.80 339.80 L 613.60 347.10 L 622.40 352.70 L 630.90 356.80 L 637.30 359.10 L 642.90 360.80 L 643.80 385.80 L 643.80 415.10 L 643.20 430.50 L 641.20 456.50 L 638.60 476.50 L 636.80 486.30 L 634.80 495.40 L 630.40 510.20 L 625.70 521.10 L 623.20 525.70 L 619.40 531.60 L 614.90 537.60 L 609.90 543.70 L 598.70 555.40 L 592.40 561.20 L 582.70 569.50 L 572.40 577.60 L 561.80 585.30 L 551.30 592.50 L 530.60 605.50 L 511.90 616.00 Z" fill="url(#SVGID_5_)" fill-rule="nonzero" node-id="335" stroke="none" target-height="323.7" target-width="263.09998" target-x="380.7" target-y="292.3"></path><g node-id="375"><path d="M 487.50 392.00 L 487.70 388.60 L 488.40 385.40 L 489.40 382.40 L 490.90 379.50 L 492.70 376.90 L 494.70 374.50 L 497.10 372.40 L 499.70 370.70 L 502.60 369.20 L 505.60 368.20 L 508.80 367.50 L 512.20 367.30 L 515.60 367.50 L 518.80 368.20 L 521.80 369.20 L 524.70 370.70 L 527.30 372.50 L 531.80 376.90 L 533.50 379.50 L 535.00 382.40 L 536.00 385.40 L 536.70 388.60 L 536.90 409.00 L 552.40 409.00 L 552.20 387.80 L 551.60 383.80 L 550.60 380.00 L 547.50 372.80 L 543.20 366.40 L 537.80 361.00 L 531.40 356.70 L 524.20 353.60 L 516.40 352.00 L 512.20 351.80 L 504.00 352.60 L 500.20 353.60 L 493.00 356.70 L 486.60 361.00 L 483.80 363.60 L 481.20 366.40 L 476.90 372.80 L 473.80 380.00 L 472.20 387.80 L 472.00 409.00 L 487.50 409.00 L 487.50 392.00 Z" fill="#1e53a8" fill-rule="nonzero" group-id="2" node-id="339" stroke="none" target-height="57.200012" target-width="80.400024" target-x="472" target-y="351.8"></path><path d="M 561.30 416.10 L 463.10 416.10 L 461.40 416.30 L 460.00 416.90 L 458.70 417.90 L 457.70 419.20 L 457.10 420.60 L 456.90 422.30 L 456.90 496.50 L 457.10 498.20 L 457.70 499.60 L 458.70 500.90 L 460.00 501.90 L 461.40 502.50 L 463.10 502.70 L 561.30 502.70 L 563.00 502.50 L 564.40 501.90 L 565.70 500.90 L 566.70 499.60 L 567.30 498.20 L 567.50 496.50 L 567.50 422.30 L 567.30 420.60 L 566.70 419.20 L 565.70 417.90 L 564.50 416.90 L 563.00 416.30 L 561.30 416.10 Z M 518.40 456.20 L 518.40 478.70 L 506.00 478.70 L 506.00 456.20 L 503.70 453.20 L 503.10 451.30 L 502.90 449.30 L 503.50 446.10 L 504.20 444.60 L 505.60 442.70 L 507.50 441.30 L 509.00 440.60 L 512.20 440.00 L 515.40 440.60 L 516.90 441.30 L 518.80 442.70 L 520.20 444.60 L 520.90 446.10 L 521.50 449.30 L 521.30 451.30 L 520.70 453.20 L 518.40 456.20 Z" fill="#1e53a8" fill-rule="nonzero" group-id="2" node-id="341" stroke="none" target-height="86.600006" target-width="110.600006" target-x="456.9" target-y="416.1"></path></g><g node-id="376"><path d="M 364.40 645.80 L 382.40 644.70 L 384.30 647.70 L 386.30 652.50 L 386.90 655.30 L 386.90 659.30 L 386.50 661.40 L 385.70 663.30 L 384.50 665.30 L 382.70 667.30 L 380.50 669.00 L 377.70 670.70 L 373.90 672.30 L 368.50 673.90 L 363.20 675.10 L 357.90 675.70 L 350.10 676.00 L 342.70 675.70 L 323.50 673.80 L 319.20 673.60 L 316.50 673.90 L 314.60 674.50 L 313.40 675.50 L 312.80 676.70 L 312.40 678.50 L 312.40 681.10 L 313.00 685.20 L 314.10 690.20 L 317.30 700.80 L 320.90 710.80 L 325.10 721.20 L 315.50 728.60 L 305.00 709.80 L 299.60 699.00 L 294.80 688.20 L 292.90 683.10 L 291.60 678.80 L 290.90 673.90 L 292.00 669.10 L 293.20 666.50 L 296.20 662.60 L 298.00 661.20 L 300.20 660.00 L 302.90 659.10 L 321.30 655.50 L 364.40 645.80 Z" fill="#183f8c" fill-rule="nonzero" group-id="3" node-id="346" stroke="none" target-height="83.89996" target-width="96" target-x="290.9" target-y="644.7"></path><path d="M 324.70 719.30 L 328.80 720.90 L 331.50 722.80 L 332.30 724.00 L 332.50 725.20 L 332.00 726.40 L 330.30 728.80 L 325.50 734.40 L 313.20 747.00 L 310.00 743.60 L 309.20 741.20 L 309.40 739.90 L 311.00 736.80 L 316.00 729.20 L 314.20 726.10 L 324.70 719.30 Z" fill="#353535" fill-rule="nonzero" group-id="3" node-id="348" stroke="none" target-height="27.700012" target-width="23.299988" target-x="309.2" target-y="719.3"></path><path d="M 380.30 653.20 L 398.30 652.10 L 400.10 655.50 L 401.90 660.90 L 402.50 664.10 L 402.40 668.50 L 401.90 670.80 L 401.00 672.90 L 399.70 675.10 L 397.90 677.20 L 395.80 679.00 L 392.90 680.80 L 389.10 682.40 L 380.20 684.80 L 375.80 685.30 L 369.30 685.60 L 363.00 685.40 L 356.90 684.70 L 337.00 681.50 L 331.70 681.60 L 330.30 682.10 L 329.30 682.90 L 328.70 684.10 L 328.30 685.90 L 328.30 688.50 L 330.00 697.50 L 333.20 708.10 L 341.00 728.60 L 331.40 736.00 L 321.90 717.30 L 316.70 706.50 L 309.90 690.60 L 307.30 682.30 L 307.00 679.70 L 307.20 676.90 L 307.80 674.60 L 308.90 672.60 L 310.30 670.80 L 312.10 669.30 L 314.20 668.10 L 319.10 666.40 L 337.20 662.90 L 380.30 653.20 Z" fill="#274da0" fill-rule="nonzero" group-id="3" node-id="350" stroke="none" target-height="83.900024" target-width="95.5" target-x="307" target-y="652.1"></path><path d="M 342.80 592.20 L 339.30 595.40 L 334.70 602.30 L 331.80 607.60 L 326.70 619.20 L 322.40 631.30 L 319.40 642.30 L 318.00 650.50 L 318.00 652.60 L 318.80 654.30 L 326.20 657.40 L 331.10 658.70 L 338.80 660.20 L 347.40 661.40 L 356.30 662.00 L 365.20 662.30 L 374.00 662.00 L 382.00 661.40 L 391.60 659.70 L 395.30 658.70 L 398.90 657.30 L 401.20 655.80 L 402.70 654.30 L 404.20 651.50 L 405.40 648.40 L 406.80 641.00 L 406.90 632.80 L 406.20 626.50 L 404.90 620.10 L 403.20 614.00 L 401.00 608.40 L 399.20 604.80 L 395.50 599.00 L 393.20 596.60 L 391.10 594.90 L 388.90 593.80 L 383.40 592.00 L 377.00 590.50 L 370.40 589.50 L 363.80 589.00 L 357.20 588.90 L 351.60 589.40 L 347.90 590.10 L 345.00 591.00 L 342.80 592.20 Z" fill="#dbeefe" fill-rule="nonzero" group-id="3" node-id="352" stroke="none" target-height="73.39996" target-width="88.899994" target-x="318" target-y="588.9"></path><path d="M 385.30 602.00 L 388.00 604.20 L 391.60 608.40 L 393.50 611.40 L 395.00 614.70 L 396.30 618.90 L 396.40 621.00 L 396.00 623.10 L 395.00 625.30 L 393.60 627.40 L 389.40 631.70 L 381.70 637.50 L 373.70 642.30 L 364.90 646.80 L 348.50 646.80 L 359.70 642.20 L 376.10 634.30 L 386.80 627.70 L 391.00 624.40 L 392.20 622.90 L 393.00 621.30 L 393.20 619.50 L 393.00 616.70 L 392.20 613.70 L 389.40 608.00 L 385.30 602.00 Z" fill="#b9d8ed" fill-rule="nonzero" group-id="3" node-id="354" stroke="none" target-height="44.799988" target-width="47.899994" target-x="348.5" target-y="602"></path><path d="M 377.20 590.60 L 375.20 594.90 L 373.40 597.70 L 371.00 599.80 L 368.50 601.40 L 367.30 602.10 L 360.30 601.30 L 358.90 594.90 L 359.20 592.40 L 360.30 589.00 L 372.40 589.80 L 377.20 590.60 Z" fill="#b9d8ed" fill-rule="nonzero" group-id="3" node-id="356" stroke="none" target-height="13.099976" target-width="18.300018" target-x="358.9" target-y="589"></path><path d="M 365.30 594.50 L 367.20 596.90 L 367.90 598.60 L 368.00 601.20 L 366.60 604.30 L 366.00 605.20 L 364.50 606.20 L 362.10 631.00 L 356.30 636.70 L 352.40 628.90 L 361.20 605.70 L 360.30 603.20 L 360.40 599.70 L 361.20 597.80 L 362.10 596.70 L 365.30 594.50 Z" fill="#183f8c" fill-rule="nonzero" group-id="3" node-id="358" stroke="none" target-height="42.200012" target-width="15.600006" target-x="352.4" target-y="594.5"></path><path d="M 339.10 625.50 L 346.50 615.50 L 343.80 629.70 Z" fill="#b9d8ed" fill-rule="nonzero" group-id="3" node-id="360" stroke="none" target-height="14.200012" target-width="7.399994" target-x="339.1" target-y="615.5"></path><path d="M 285.10 616.10 L 347.30 626.50 L 357.30 668.10 L 293.60 657.50 Z" fill="#353535" fill-rule="nonzero" group-id="3" node-id="362" stroke="none" target-height="52" target-width="72.19998" target-x="285.1" target-y="616.1"></path><path d="M 361.60 582.60 L 375.00 580.30 L 374.00 590.10 L 369.80 593.30 L 366.80 594.40 L 365.30 594.50 L 364.00 594.20 L 362.40 592.80 L 361.60 591.40 L 361.10 588.70 L 361.60 582.60 Z" fill="#fdcaca" fill-rule="nonzero" group-id="3" node-id="364" stroke="none" target-height="14.200012" target-width="13.899994" target-x="361.1" target-y="580.3"></path><path d="M 339.30 724.30 L 343.40 725.90 L 346.10 727.80 L 346.90 729.00 L 347.10 730.20 L 346.60 731.40 L 344.90 733.80 L 340.10 739.40 L 327.80 752.00 L 324.60 748.60 L 323.80 746.20 L 324.00 744.90 L 325.60 741.80 L 330.60 734.20 L 328.80 731.10 L 339.30 724.30 Z" fill="#353535" fill-rule="nonzero" group-id="3" node-id="366" stroke="none" target-height="27.700012" target-width="23.300018" target-x="323.8" target-y="724.3"></path><path d="M 352.80 569.10 L 351.40 568.10 L 349.90 565.50 L 348.90 560.70 L 349.50 550.80 L 350.30 546.80 L 351.00 545.30 L 353.30 543.00 L 358.40 540.40 L 363.00 539.50 L 367.90 540.30 L 372.90 536.90 L 374.90 536.00 L 377.10 535.40 L 379.30 535.20 L 381.40 535.60 L 384.00 537.40 L 386.10 540.90 L 387.20 545.30 L 387.50 548.90 L 386.70 556.40 L 384.80 563.00 L 383.70 565.40 L 382.40 567.40 L 381.30 568.20 L 378.90 568.90 L 372.00 569.60 L 360.70 569.60 L 352.80 569.10 Z" fill="#63393f" fill-rule="nonzero" group-id="3" node-id="368" stroke="none" target-height="34.399963" target-width="38.600006" target-x="348.9" target-y="535.2"></path><path d="M 354.50 553.50 L 354.50 565.10 L 352.10 565.80 L 351.00 566.60 L 350.00 568.30 L 349.90 569.50 L 350.90 572.90 L 352.60 574.70 L 354.50 575.20 L 355.20 578.40 L 356.10 580.50 L 357.40 582.40 L 359.20 584.20 L 361.40 585.70 L 365.00 587.10 L 368.80 587.30 L 372.80 586.40 L 374.70 585.30 L 376.50 583.80 L 378.30 581.60 L 379.00 579.80 L 379.50 577.00 L 381.00 576.80 L 382.60 575.00 L 383.20 572.80 L 383.40 570.60 L 383.10 569.40 L 382.50 568.60 L 381.30 568.10 L 382.30 561.30 L 382.70 555.80 L 382.50 553.30 L 381.30 550.00 L 378.70 546.60 L 376.70 545.20 L 373.10 544.10 L 366.70 544.00 L 361.30 544.90 L 359.50 545.70 L 357.80 546.90 L 356.60 548.40 L 355.40 550.60 L 354.50 553.50 Z" fill="#fdcaca" fill-rule="nonzero" group-id="3" node-id="370" stroke="none" target-height="43.299988" target-width="33.5" target-x="349.9" target-y="544"></path><path d="M 351.30 565.80 L 353.20 568.50 L 354.00 569.10 L 354.70 569.10 L 355.20 568.60 L 357.60 559.00 L 357.50 557.80 L 356.70 556.60 L 357.10 555.90 L 360.20 553.60 L 362.70 552.90 L 367.80 554.90 L 368.60 555.80 L 370.00 558.50 L 370.70 559.10 L 371.60 559.30 L 374.50 559.10 L 375.90 559.70 L 376.70 561.50 L 376.80 565.40 L 377.10 566.40 L 380.10 568.40 L 380.30 570.60 L 385.40 561.90 L 383.60 542.60 L 363.90 540.20 L 352.50 547.30 L 351.30 565.80 Z" fill="#63393f" fill-rule="nonzero" group-id="3" node-id="372" stroke="none" target-height="30.399963" target-width="34.100006" target-x="351.3" target-y="540.2"></path></g></svg>