<?xml version="1.0" standalone="no"?><!DOCTYPE svg PUBLIC "-//W3C//DTD SVG 1.1//EN" "http://www.w3.org/Graphics/SVG/1.1/DTD/svg11.dtd"><svg t="1721821118726" class="icon" viewBox="0 0 2141 1024" version="1.1" xmlns="http://www.w3.org/2000/svg" p-id="12257" xmlns:xlink="http://www.w3.org/1999/xlink" width="66.90625" height="32"><path d="M1597.44 977.92H638.464c-257.536 0-465.92-208.384-465.92-465.92s208.384-465.92 465.92-465.92H1597.44c257.536 0 465.92 208.384 465.92 465.92s-208.384 465.92-465.92 465.92z" fill="#C5903D" p-id="12258"></path><path d="M519.168 518.656m-466.432 0a466.432 466.432 0 1 0 932.864 0 466.432 466.432 0 1 0-932.864 0Z" fill="#FFDA98" p-id="12259"></path><path d="M519.168 518.656m-416.768 0a416.768 416.768 0 1 0 833.536 0 416.768 416.768 0 1 0-833.536 0Z" fill="#B77602" p-id="12260"></path><path d="M521.216 225.792c-22.016 0-39.936 17.92-39.936 39.936 0.512 14.336 8.192 28.16 20.48 35.84C449.024 398.336 410.624 465.92 409.088 471.04c-1.024 2.048-2.56 3.584-4.608 4.608-3.072 1.536-6.144-1.536-8.192-1.536s-45.056-29.184-105.472-67.584c3.584-6.656 5.632-13.312 6.144-20.992-0.512-22.016-18.432-39.936-40.448-39.424s-39.936 18.432-39.424 40.448c0.512 22.016 17.92 39.424 39.936 39.424 3.584 0.512 6.656-0.512 9.728-1.536 20.48 69.632 45.056 151.04 65.536 220.672 0.512 1.536 2.048 3.584 3.072 4.608 1.536 1.024 4.096 1.536 6.144 1.536l179.712-1.024V225.792zM366.592 696.832c-17.408 0-31.232 13.824-31.232 31.232 0 17.408 13.824 31.232 31.232 31.232h154.624v-62.464H366.592z" fill="#FFFEC9" p-id="12261"></path><path d="M698.88 647.68c1.536-1.536 2.56-3.072 3.072-4.608 20.48-70.656 49.664-149.504 71.68-220.16 4.096 1.536 8.704 2.048 12.8 1.536 22.016 0 39.936-17.408 39.936-39.424V384c1.024-20.48-14.336-37.888-34.816-38.912h-3.072c-22.016-0.512-39.936 16.384-40.96 38.4v2.048c0 6.656 1.536 13.312 4.608 19.456-60.928 38.912-102.4 66.048-107.008 69.632-4.608 3.584-4.608 3.072-8.192 1.536-3.072-1.536-3.072-3.072-4.608-4.608-1.536-1.536-39.936-72.704-92.672-169.472 13.312-6.656 21.504-20.48 20.48-35.84 0-22.016-17.408-39.936-39.936-39.936V650.24l171.008-0.512c3.584-0.512 6.144-1.024 7.68-2.048zM708.096 728.064c0-17.408-13.824-31.232-31.232-31.232h-155.648v62.464h155.648c17.408 0 31.232-13.824 31.232-31.232z" fill="#FED693" p-id="12262"></path><path d="M1105.92 594.432h84.992V443.392h186.88V349.696h-155.136c-23.552 43.008-50.176 81.92-79.872 118.272-9.216-9.728-19.968-19.456-32.768-29.696 50.176-56.32 87.552-119.296 112.64-189.44l43.52 12.288c-7.168 17.408-15.36 34.304-23.04 50.688h363.008v37.888h-185.344v94.208h176.128v36.864h-176.128v114.176h208.896v37.888h-208.896v142.336h-43.008v-142.336H1105.92v-38.4z m126.976 0h145.408V480.768h-145.408v113.664z" fill="#FFFFFF" p-id="12263"></path></svg>