<svg xmlns="http://www.w3.org/2000/svg" fill="none" viewBox="0 0 1024 1047" height="1047" width="1024">
<g clip-path="url(#clip0_1_959)">
<path fill="#D9CFC1" d="M535.775 860.337H601.157L852.181 715.197L631.844 585.261L474.263 671.793L535.775 860.337Z" opacity="0.3"></path>
<path fill="#EFECF8" d="M295.81 659.629L307.421 652.855L323.317 661.978L311.706 668.752L295.81 659.629Z"></path>
<path fill="#C5BEED" d="M325.805 654.514L337.416 647.741L325.529 667.231L313.779 674.143L325.805 654.514Z"></path>
<path fill="#989BE0" d="M353.451 666.402L365.201 659.629V663.637L353.451 670.549V666.402Z"></path>
<path fill="#EFECF8" d="M323.594 649.261L335.343 642.488L365.201 659.629L353.451 666.402L323.594 649.261Z"></path>
<path fill="#989BE0" d="M353.451 666.402V670.549L325.805 654.514L313.779 674.143L295.81 663.637V659.629L311.706 668.752L323.594 649.261L353.451 666.402Z"></path>
<path fill="#EFECF8" d="M339.214 634.886L350.963 628.112L366.86 637.235L355.11 644.009L339.214 634.886Z"></path>
<path fill="#C5BEED" d="M369.209 629.771L380.959 622.998L368.933 642.488L357.184 649.261L369.209 629.771Z"></path>
<path fill="#989BE0" d="M396.855 641.659L408.605 634.886V638.894L396.855 645.806V641.659Z"></path>
<path fill="#EFECF8" d="M367.136 624.518L378.747 617.607L408.605 634.886L396.855 641.659L367.136 624.518Z"></path>
<path fill="#989BE0" d="M396.855 641.659V645.806L369.21 629.771L357.184 649.261L339.214 638.894V634.886L355.11 644.009L367.136 624.518L396.855 641.659Z"></path>
<path fill="#EFECF8" d="M380.82 610.004L392.57 603.231L408.466 612.492L396.717 619.266L380.82 610.004Z"></path>
<path fill="#C5BEED" d="M410.816 605.028L422.565 598.117L410.539 617.745L398.928 624.518L410.816 605.028Z"></path>
<path fill="#989BE0" d="M438.462 616.916L450.211 610.143V614.151L438.462 620.924V616.916Z"></path>
<path fill="#EFECF8" d="M408.743 599.637L420.354 592.864L450.211 610.143L438.462 616.916L408.743 599.637Z"></path>
<path fill="#989BE0" d="M438.462 616.916V620.924L410.816 605.028L398.928 624.518L380.82 614.151V610.004L396.717 619.266L408.743 599.637L438.462 616.916Z"></path>
<path fill="#EFECF8" d="M252.821 686.583L264.57 679.672L280.328 688.933L268.717 695.706L252.821 686.583Z"></path>
<path fill="#C5BEED" d="M282.816 681.469L294.566 674.695L282.54 694.186L270.791 700.959L282.816 681.469Z"></path>
<path fill="#989BE0" d="M310.462 693.356L322.212 686.583V690.592L310.462 697.365V693.356Z"></path>
<path fill="#EFECF8" d="M280.605 676.078L292.354 669.305L322.212 686.583L310.462 693.356L280.605 676.078Z"></path>
<path fill="#989BE0" d="M310.462 693.356V697.365L282.816 681.469L270.791 700.959L252.821 690.592V686.583L268.717 695.706L280.605 676.078L310.462 693.356Z"></path>
<path fill="#EFECF8" d="M427.127 583.879L438.877 577.106L454.635 586.229L443.024 593.14L427.127 583.879Z"></path>
<path fill="#C5BEED" d="M457.123 578.903L468.873 571.991L456.847 591.62L445.097 598.393L457.123 578.903Z"></path>
<path fill="#989BE0" d="M484.769 590.791L496.518 584.017V588.026L484.769 594.799V590.791Z"></path>
<path fill="#EFECF8" d="M454.912 573.512L466.661 566.739L496.519 584.017L484.769 590.791L454.912 573.512Z"></path>
<path fill="#989BE0" d="M484.769 590.791V594.799L457.123 578.903L445.097 598.393L427.127 588.026V583.879L443.024 593.14L454.911 573.512L484.769 590.791Z"></path>
<path fill="#EFECF8" d="M471.637 558.721L483.248 551.948L499.144 561.071L487.395 567.844L471.637 558.721Z"></path>
<path fill="#C5BEED" d="M501.632 553.607L513.244 546.834L501.356 566.324L489.606 573.097L501.632 553.607Z"></path>
<path fill="#989BE0" d="M529.278 565.495L540.89 558.721V562.73L529.278 569.503V565.495Z"></path>
<path fill="#EFECF8" d="M499.421 548.354L511.17 541.443L540.89 558.721L529.278 565.495L499.421 548.354Z"></path>
<path fill="#989BE0" d="M529.278 565.495V569.503L501.632 553.607L489.606 573.097L471.637 562.73V558.721L487.395 567.845L499.421 548.354L529.278 565.495Z"></path>
<path fill="#EFECF8" d="M772.009 660.181L760.397 653.408L744.501 662.531L756.25 669.443L772.009 660.181Z"></path>
<path fill="#C5BEED" d="M742.013 655.067L730.402 648.294L742.29 667.922L754.039 674.695L742.013 655.067Z"></path>
<path fill="#989BE0" d="M714.367 667.093L702.756 660.181V664.328L714.367 671.101V667.093Z"></path>
<path fill="#EFECF8" d="M744.225 649.814L732.475 643.041L702.756 660.181L714.367 667.093L744.225 649.814Z"></path>
<path fill="#989BE0" d="M714.367 667.093V671.102L742.013 655.067L754.039 674.695L772.009 664.328V660.181L756.251 669.443L744.225 649.814L714.367 667.093Z"></path>
<path fill="#EFECF8" d="M728.605 635.438L716.855 628.665L701.097 637.788L712.708 644.562L728.605 635.438Z"></path>
<path fill="#C5BEED" d="M698.609 630.324L686.86 623.551L698.886 643.179L710.635 649.952L698.609 630.324Z"></path>
<path fill="#989BE0" d="M670.963 642.35L659.214 635.438V639.585L670.963 646.358V642.35Z"></path>
<path fill="#EFECF8" d="M700.821 625.071L689.071 618.298L659.214 635.438L670.963 642.35L700.821 625.071Z"></path>
<path fill="#989BE0" d="M670.963 642.35V646.359L698.609 630.324L710.635 649.952L728.605 639.585V635.438L712.709 644.562L700.821 625.071L670.963 642.35Z"></path>
<path fill="#EFECF8" d="M686.998 610.695L675.248 603.922L659.352 613.045L671.101 619.819L686.998 610.695Z"></path>
<path fill="#C5BEED" d="M657.002 605.581L645.253 598.808L657.279 618.298L669.028 625.209L657.002 605.581Z"></path>
<path fill="#989BE0" d="M629.356 617.469L617.607 610.695V614.704L629.356 621.616V617.469Z"></path>
<path fill="#EFECF8" d="M659.076 600.328L647.464 593.555L617.607 610.695L629.356 617.469L659.076 600.328Z"></path>
<path fill="#989BE0" d="M629.356 617.469V621.616L657.002 605.581L669.028 625.209L686.998 614.704V610.695L671.102 619.819L659.076 600.328L629.356 617.469Z"></path>
<path fill="#EFECF8" d="M814.998 687.136L803.248 680.363L787.49 689.486L799.101 696.259L814.998 687.136Z"></path>
<path fill="#C5BEED" d="M785.002 682.022L773.391 675.248L785.279 694.739L797.028 701.65L785.002 682.022Z"></path>
<path fill="#989BE0" d="M757.356 693.909L745.607 687.136V691.283L757.356 698.056V693.909Z"></path>
<path fill="#EFECF8" d="M787.214 676.769L775.464 669.996L745.607 687.136L757.356 693.909L787.214 676.769Z"></path>
<path fill="#989BE0" d="M757.356 693.909V698.056L785.002 682.022L797.028 701.65L814.998 691.145V687.136L799.102 696.259L787.214 676.769L757.356 693.909Z"></path>
<path fill="#EFECF8" d="M640.691 584.57L629.079 577.797L613.183 586.92L624.794 593.693L640.691 584.57Z"></path>
<path fill="#C5BEED" d="M610.695 579.456L599.084 572.682L610.972 592.173L622.721 598.946L610.695 579.456Z"></path>
<path fill="#989BE0" d="M583.049 591.343L571.3 584.57V588.579L583.049 595.352V591.343Z"></path>
<path fill="#EFECF8" d="M612.907 574.203L601.157 567.292L571.3 584.57L583.049 591.343L612.907 574.203Z"></path>
<path fill="#989BE0" d="M583.049 591.343V595.352L610.695 579.456L622.721 598.946L640.691 588.579V584.57L624.794 593.693L612.907 574.203L583.049 591.343Z"></path>
<path fill="#EFECF8" d="M596.181 559.274L584.57 552.501L568.674 561.624L580.423 568.397L596.181 559.274Z"></path>
<path fill="#C5BEED" d="M566.324 554.16L554.575 547.387L566.601 567.015L578.212 573.788L566.324 554.16Z"></path>
<path fill="#989BE0" d="M538.54 566.048L526.929 559.274V563.421L538.54 570.194V566.048Z"></path>
<path fill="#EFECF8" d="M568.397 548.907L556.648 542.134L526.929 559.274L538.54 566.048L568.397 548.907Z"></path>
<path fill="#989BE0" d="M538.54 566.048V570.194L566.324 554.16L578.212 573.788L596.32 563.283L596.182 559.274L580.423 568.397L568.397 548.907L538.54 566.048Z"></path>
<path fill="#1380FD" d="M786.661 686.721L786.523 714.644L535.775 860.337L535.914 832.415L786.661 686.721Z"></path>
<path fill="#1462FC" d="M535.913 832.415L535.775 860.337L283.369 714.644L283.507 686.721L535.913 832.415Z"></path>
<path fill="#05A1FF" d="M786.661 686.721L535.913 832.415L283.507 686.721L534.255 540.89L786.661 686.721Z"></path>
<path fill="#E0DDFA" d="M726.531 679.533L726.393 693.495L535.637 804.492V790.531L726.531 679.533Z"></path>
<path fill="#D2CBF6" d="M535.637 790.531V804.492L343.499 693.633V679.533L535.637 790.531Z"></path>
<path fill="white" d="M726.531 679.533L535.637 790.531L343.499 679.533L534.393 568.674L726.531 679.533Z"></path>
<path fill="#D2CBF6" d="M262.912 758.877L251.162 752.104L263.05 718.79L274.661 725.702L262.912 758.877Z"></path>
<path fill="#EFECF8" d="M274.661 725.702L263.05 718.79L292.769 701.65L304.518 708.423L274.661 725.702Z"></path>
<path fill="#EFECF8" d="M247.015 768.138L235.266 761.227L251.162 752.104L262.911 758.877L247.015 768.138Z"></path>
<path fill="#C5BEED" d="M247.015 772.147L235.266 765.374V761.227L247.015 768.138V772.147Z"></path>
<path fill="#989BE0" d="M304.518 708.423V712.432L276.873 728.467L264.985 761.78L247.015 772.147V768.138L262.911 758.877L274.661 725.702L304.518 708.423Z"></path>
<path fill="#D2CBF6" d="M306.868 784.173L295.119 777.261L307.006 743.948L318.756 750.86L306.868 784.173Z"></path>
<path fill="#EFECF8" d="M318.756 750.86L307.006 743.948L336.864 726.808L348.475 733.581L318.756 750.86Z"></path>
<path fill="#EFECF8" d="M290.972 793.296L279.36 786.523L295.118 777.261L306.868 784.173L290.972 793.296Z"></path>
<path fill="#C5BEED" d="M290.972 797.305L279.36 790.531V786.523L290.972 793.296V797.305Z"></path>
<path fill="#989BE0" d="M348.475 733.581V737.59L320.829 753.624L309.08 786.937L290.972 797.305V793.296L306.868 784.173L318.756 750.86L348.475 733.581Z"></path>
<path fill="#D2CBF6" d="M350.549 809.607L338.799 802.695L350.687 769.52L362.298 776.294L350.549 809.607Z"></path>
<path fill="#EFECF8" d="M362.298 776.294L350.687 769.52L380.406 752.242L392.156 759.015L362.298 776.294Z"></path>
<path fill="#EFECF8" d="M334.652 818.73L322.903 811.957L338.799 802.695L350.549 809.607L334.652 818.73Z"></path>
<path fill="#C5BEED" d="M334.652 822.739L322.903 815.965V811.957L334.652 818.73V822.739Z"></path>
<path fill="#989BE0" d="M392.156 759.015V763.162L364.51 779.058L352.622 812.371L334.652 822.739V818.73L350.549 809.607L362.298 776.294L392.156 759.015Z"></path>
<path fill="#D2CBF6" d="M394.091 834.765L382.479 827.991L394.229 794.678L405.978 801.451L394.091 834.765Z"></path>
<path fill="#EFECF8" d="M405.978 801.451L394.229 794.678L424.086 777.538L435.836 784.311L405.978 801.451Z"></path>
<path fill="#EFECF8" d="M378.332 844.026L366.583 837.115L382.479 827.991L394.091 834.765L378.332 844.026Z"></path>
<path fill="#C5BEED" d="M378.332 848.035L366.583 841.261V837.115L378.332 844.026V848.035Z"></path>
<path fill="#989BE0" d="M435.836 784.311V788.32L408.052 804.354L396.302 837.667L378.333 848.035V844.026L394.091 834.765L405.978 801.451L435.836 784.311Z"></path>
<path fill="#D2CBF6" d="M438.324 859.922L426.575 853.149L438.462 819.836L450.074 826.609L438.324 859.922Z"></path>
<path fill="#EFECF8" d="M450.074 826.609L438.462 819.836L468.32 802.557L479.931 809.33L450.074 826.609Z"></path>
<path fill="#EFECF8" d="M422.428 869.045L410.678 862.272L426.575 853.149L438.324 859.922L422.428 869.045Z"></path>
<path fill="#C5BEED" d="M422.428 873.054L410.816 866.281L410.678 862.272L422.428 869.045V873.054Z"></path>
<path fill="#989BE0" d="M479.931 809.33V813.477L452.285 829.374L440.536 862.687L422.428 873.054V869.045L438.324 859.922L450.074 826.609L479.931 809.33Z"></path>
<path fill="#D2CBF6" d="M481.59 885.218L469.979 878.445L481.728 845.132L493.477 851.905L481.59 885.218Z"></path>
<path fill="#EFECF8" d="M493.478 851.905L481.728 845.132L511.585 827.853L523.335 834.626L493.478 851.905Z"></path>
<path fill="#EFECF8" d="M465.832 894.341L454.082 887.568L469.978 878.445L481.59 885.218L465.832 894.341Z"></path>
<path fill="#C5BEED" d="M465.832 898.35L454.082 891.577V887.568L465.832 894.341V898.35Z"></path>
<path fill="#989BE0" d="M523.335 834.626V838.773L495.689 854.67L483.801 887.983L465.832 898.35V894.341L481.59 885.218L493.477 851.905L523.335 834.626Z"></path>
<path fill="#D2CBF6" d="M808.086 759.43L819.697 752.657L807.948 719.343L796.198 726.117L808.086 759.43Z"></path>
<path fill="#EFECF8" d="M796.198 726.117L807.948 719.343L778.09 702.065L766.341 708.838L796.198 726.117Z"></path>
<path fill="#EFECF8" d="M823.982 768.553L835.594 761.78L819.697 752.657L808.086 759.43L823.982 768.553Z"></path>
<path fill="#C5BEED" d="M823.844 772.562L835.594 765.788V761.78L823.982 768.553L823.844 772.562Z"></path>
<path fill="#989BE0" d="M766.341 708.838V712.985L794.125 728.881L805.874 762.194L823.844 772.562L823.982 768.553L808.086 759.43L796.198 726.117L766.341 708.838Z"></path>
<path fill="#D2CBF6" d="M763.991 784.587L775.741 777.814L763.991 744.501L752.242 751.274L763.991 784.587Z"></path>
<path fill="#EFECF8" d="M752.242 751.274L763.991 744.501L734.134 727.222L722.384 733.996L752.242 751.274Z"></path>
<path fill="#EFECF8" d="M779.888 793.711L791.637 786.937L775.741 777.814L763.991 784.587L779.888 793.711Z"></path>
<path fill="#C5BEED" d="M779.888 797.857L791.637 790.946V786.937L779.888 793.711V797.857Z"></path>
<path fill="#989BE0" d="M722.384 733.996V738.143L750.03 754.039L761.918 787.352L779.888 797.857V793.711L763.991 784.587L752.242 751.274L722.384 733.996Z"></path>
<path fill="#D2CBF6" d="M720.449 810.022L732.06 803.248L720.311 769.935L708.562 776.708L720.449 810.022Z"></path>
<path fill="#EFECF8" d="M708.561 776.708L720.311 769.935L690.454 752.657L678.842 759.43L708.561 776.708Z"></path>
<path fill="#EFECF8" d="M736.346 819.145L747.957 812.371L732.06 803.248L720.449 810.022L736.346 819.145Z"></path>
<path fill="#C5BEED" d="M736.346 823.292L747.957 816.38V812.371L736.346 819.145V823.292Z"></path>
<path fill="#989BE0" d="M678.842 759.43L678.704 763.577L706.488 779.473L718.238 812.786L736.346 823.292V819.145L720.449 810.022L708.562 776.708L678.842 759.43Z"></path>
<path fill="#D2CBF6" d="M676.768 835.317L688.518 828.406L676.63 795.231L665.019 802.004L676.768 835.317Z"></path>
<path fill="#EFECF8" d="M665.019 802.004L676.63 795.231L646.911 777.952L635.162 784.726L665.019 802.004Z"></path>
<path fill="#EFECF8" d="M692.665 844.441L704.414 837.667L688.518 828.406L676.769 835.318L692.665 844.441Z"></path>
<path fill="#C5BEED" d="M692.665 848.449L704.414 841.676V837.667L692.665 844.441V848.449Z"></path>
<path fill="#989BE0" d="M635.162 784.726V788.873L662.807 804.769L674.695 838.082L692.665 848.449V844.441L676.769 835.317L665.019 802.004L635.162 784.726Z"></path>
<path fill="#D2CBF6" d="M632.674 860.337L644.285 853.564L632.536 820.251L620.786 827.024L632.674 860.337Z"></path>
<path fill="#EFECF8" d="M620.786 827.024L632.536 820.251L602.678 802.972L590.929 809.883L620.786 827.024Z"></path>
<path fill="#EFECF8" d="M648.432 869.46L660.181 862.687L644.285 853.564L632.674 860.337L648.432 869.46Z"></path>
<path fill="#C5BEED" d="M648.432 873.607L660.182 866.834V862.687L648.432 869.46V873.607Z"></path>
<path fill="#989BE0" d="M590.929 809.883V813.892L618.574 829.927L630.462 863.101L648.432 873.607V869.46L632.674 860.337L620.786 827.024L590.929 809.883Z"></path>
<path fill="#D2CBF6" d="M589.27 885.633L601.019 878.86L589.132 845.546L577.521 852.32L589.27 885.633Z"></path>
<path fill="#EFECF8" d="M577.521 852.32L589.132 845.546L559.413 828.268L547.663 835.179L577.521 852.32Z"></path>
<path fill="#EFECF8" d="M605.166 894.756L616.916 887.983L601.019 878.86L589.27 885.633L605.166 894.756Z"></path>
<path fill="#C5BEED" d="M605.167 898.903L616.916 892.13V887.983L605.167 894.756V898.903Z"></path>
<path fill="#989BE0" d="M547.663 835.179V839.188L575.309 855.222L587.058 888.397L605.166 898.903V894.756L589.27 885.633L577.521 852.32L547.663 835.179Z"></path>
<path fill="#E0DDFA" d="M409.849 679.533L419.11 684.924L534.531 751.551V606.963L409.849 679.533Z"></path>
<path fill="#D2CBF6" d="M534.531 606.963V751.551L535.361 752.104L650.92 685.063L660.181 679.533L534.531 606.963Z"></path>
<path fill="#05A1FF" d="M650.92 685.063L535.36 752.104L419.11 684.924L534.531 617.883L650.92 685.063Z"></path>
<path fill="#05A1FF" d="M650.92 685.063L535.36 752.104L419.11 684.924L534.531 617.883L650.92 685.063Z"></path>
<path fill="#E0DDFA" d="M597.425 674.972V682.022L583.741 689.901V682.989L597.425 674.972Z"></path>
<path fill="#D2CBF6" d="M583.741 682.989V689.901L522.505 654.652V647.603L583.741 682.989Z"></path>
<path fill="#F8F8FC" d="M597.425 674.972L583.741 682.989L522.505 647.603L536.19 639.585L597.425 674.972Z"></path>
<path fill="#1462FC" d="M529.278 686.583V693.633C525.685 692.665 522.229 691.698 518.911 690.868C515.594 690.039 512.553 689.21 509.788 688.518C507.024 687.827 504.535 687.136 502.462 686.721C500.389 686.168 498.73 685.754 497.486 685.477V678.428C498.73 678.704 500.389 679.119 502.6 679.672C504.674 680.225 507.162 680.778 509.926 681.469C512.691 682.16 515.732 682.989 519.05 683.819C522.367 684.648 525.823 685.616 529.417 686.583H529.278Z"></path>
<mask height="16" width="33" y="678" x="497" maskUnits="userSpaceOnUse" style="mask-type:luminance" id="mask0_1_959">
<path fill="white" d="M529.278 686.583V693.633C525.685 692.665 522.229 691.698 518.911 690.868C515.594 690.039 512.553 689.21 509.788 688.518C507.024 687.827 504.535 687.136 502.462 686.721C500.389 686.168 498.73 685.754 497.486 685.477V678.428C498.73 678.704 500.389 679.119 502.6 679.672C504.674 680.225 507.162 680.778 509.926 681.469C512.691 682.16 515.732 682.989 519.05 683.819C522.367 684.648 525.823 685.616 529.417 686.583H529.278Z"></path>
</mask>
<g mask="url(#mask0_1_959)">
<path fill="#D2CBF6" d="M529.278 686.583V693.633C525.685 692.665 522.229 691.698 518.911 690.868C515.594 690.039 512.553 689.21 509.788 688.518C507.024 687.827 504.535 687.136 502.462 686.721C500.389 686.168 498.73 685.754 497.486 685.477V678.428C498.73 678.704 500.389 679.119 502.6 679.672C504.674 680.225 507.162 680.778 509.926 681.469C512.691 682.16 515.732 682.989 519.05 683.819C522.367 684.648 525.823 685.616 529.417 686.583H529.278Z"></path>
</g>
<path fill="#1462FC" d="M552.501 693.495V700.544C549.46 699.715 546.419 698.886 543.516 698.056V691.007C546.557 691.836 549.598 692.665 552.501 693.495Z"></path>
<mask height="10" width="10" y="691" x="543" maskUnits="userSpaceOnUse" style="mask-type:luminance" id="mask1_1_959">
<path fill="white" d="M552.501 693.495V700.544C549.46 699.715 546.419 698.886 543.516 698.056V691.007C546.557 691.836 549.598 692.665 552.501 693.495Z"></path>
</mask>
<g mask="url(#mask1_1_959)">
<path fill="#D2CBF6" d="M552.501 693.495V700.544C549.46 699.715 546.419 698.886 543.516 698.056V691.007C546.557 691.836 549.598 692.665 552.501 693.495Z"></path>
</g>
<path fill="#1462FC" d="M561.209 695.983V703.032C558.445 702.203 555.542 701.374 552.501 700.544V693.495C555.542 694.324 558.445 695.153 561.209 695.983Z"></path>
<mask height="11" width="10" y="693" x="552" maskUnits="userSpaceOnUse" style="mask-type:luminance" id="mask2_1_959">
<path fill="white" d="M561.209 695.983V703.032C558.445 702.203 555.542 701.374 552.501 700.544V693.495C555.542 694.324 558.445 695.153 561.209 695.983Z"></path>
</mask>
<g mask="url(#mask2_1_959)">
<path fill="#D2CBF6" d="M561.209 695.983V703.032C558.445 702.203 555.542 701.374 552.501 700.544V693.495C555.542 694.324 558.445 695.153 561.209 695.983Z"></path>
</g>
<path fill="#E0DDFA" d="M575.861 687.551V694.462L561.209 703.032V695.983L575.861 687.551Z"></path>
<path fill="#E0DDFA" d="M543.516 691.007V698.056L519.741 711.741V704.829L543.516 691.007Z"></path>
<path fill="#1462FC" d="M514.211 723.352V730.402C509.926 725.287 505.918 720.449 502.462 716.026C498.868 711.603 495.689 707.456 492.648 703.447C489.607 699.438 486.842 695.568 484.354 691.974C481.866 688.242 479.516 684.648 477.304 681.054V674.004C479.516 677.598 481.866 681.33 484.354 684.924C486.842 688.657 489.607 692.389 492.648 696.397C495.689 700.406 498.868 704.553 502.462 708.976C506.056 713.4 509.926 718.238 514.211 723.352Z"></path>
<mask height="57" width="38" y="674" x="477" maskUnits="userSpaceOnUse" style="mask-type:luminance" id="mask3_1_959">
<path fill="white" d="M514.211 723.352V730.402C509.926 725.287 505.918 720.449 502.462 716.026C498.868 711.603 495.689 707.456 492.648 703.447C489.607 699.438 486.842 695.568 484.354 691.974C481.866 688.242 479.516 684.648 477.304 681.054V674.004C479.516 677.598 481.866 681.33 484.354 684.924C486.842 688.657 489.607 692.389 492.648 696.397C495.689 700.406 498.868 704.553 502.462 708.976C506.056 713.4 509.926 718.238 514.211 723.352Z"></path>
</mask>
<g mask="url(#mask3_1_959)">
<path fill="#D2CBF6" d="M514.211 723.352V730.402C509.926 725.287 505.918 720.449 502.462 716.026C498.868 711.603 495.689 707.456 492.648 703.447C489.607 699.438 486.842 695.568 484.354 691.974C481.866 688.242 479.516 684.648 477.304 681.054V674.004C479.516 677.598 481.866 681.33 484.354 684.924C486.842 688.657 489.607 692.389 492.648 696.397C495.689 700.406 498.868 704.553 502.462 708.976C506.056 713.4 509.926 718.238 514.211 723.352Z"></path>
</g>
<path fill="#E0DDFA" d="M528.449 715.058V722.108L514.211 730.264V723.352L528.449 715.058Z"></path>
<path fill="#F8F8FC" d="M552.501 693.495C549.46 692.665 546.419 691.836 543.516 691.006L519.74 704.829C521.261 706.626 522.643 708.285 524.164 710.082C525.684 711.879 527.067 713.538 528.587 715.058L514.349 723.352C510.064 718.238 506.056 713.4 502.6 708.976C499.006 704.553 495.827 700.406 492.786 696.397C489.745 692.389 486.98 688.518 484.492 684.924C482.004 681.192 479.654 677.598 477.442 674.004L490.436 666.402C496.656 667.646 503.015 669.028 509.373 670.549C515.732 671.931 522.367 673.59 529.278 675.248C536.19 676.907 543.516 678.842 551.118 680.916C558.721 682.989 567.015 685.201 576 687.689L561.347 696.259C558.583 695.43 555.68 694.6 552.639 693.771L552.501 693.495ZM511.861 696.674L529.278 686.583C525.684 685.616 522.229 684.648 518.911 683.819C515.594 682.989 512.553 682.16 509.788 681.469C507.023 680.778 504.535 680.086 502.462 679.672C500.388 679.119 498.73 678.704 497.486 678.428C498.039 679.119 498.868 680.086 499.835 681.33C500.803 682.575 501.909 683.957 503.153 685.616C504.397 687.274 505.779 688.933 507.3 690.868C508.82 692.803 510.341 694.877 512 696.95L511.861 696.674Z"></path>
<path fill="#05A1FF" d="M536.328 971.058L121.503 731.508L533.702 491.957L948.527 731.508L536.328 971.058ZM132.423 731.508L536.328 964.7L937.468 731.508L533.563 498.315L132.423 731.508Z"></path>
<path fill="#05A1FF" d="M185.779 765.512L155.093 783.205C155.093 783.205 154.125 783.482 153.572 783.205L122.056 765.097L19.9047 823.983L10.3669 829.512C10.3669 829.512 9.95217 829.65 9.67572 829.65C9.1228 829.65 8.70811 829.374 8.43166 828.959C8.01697 828.268 8.29343 827.438 8.98457 827.024L17.0019 822.324L121.365 762.056C121.365 762.056 122.332 761.78 122.885 762.056L154.401 780.164L182.877 763.715L185.779 765.374V765.512Z"></path>
<path fill="#05A1FF" d="M433.209 905.538L428.371 908.302L400.449 924.475C400.449 924.475 399.481 924.752 398.928 924.475L367.412 906.367L327.741 929.313L324.838 930.972L264.57 965.806L255.861 970.782C255.861 970.782 255.447 970.92 255.17 970.92C254.617 970.92 254.203 970.644 253.926 970.229C253.512 969.538 253.788 968.708 254.479 968.294L262.22 963.87L322.073 929.313L324.976 927.654L366.859 903.464C366.859 903.464 367.827 903.188 368.38 903.464L399.758 921.572L425.468 906.782L430.306 904.017L433.209 905.676V905.538Z"></path>
<path fill="#05A1FF" d="M337.693 850.384L332.855 853.149L305.762 868.769C305.762 868.769 304.795 869.045 304.242 868.769L272.726 850.661L232.225 874.022L229.322 875.68L171.404 909.132L161.175 915.076C161.175 915.076 160.76 915.214 160.484 915.214C159.931 915.214 159.516 914.937 159.24 914.523C158.825 913.832 159.102 913.002 159.793 912.587L169.192 907.197L226.557 874.022L229.46 872.363L272.173 847.758C272.173 847.758 273.14 847.482 273.693 847.758L305.071 865.866L330.091 851.49L334.929 848.726L337.832 850.384H337.693Z"></path>
<path fill="#05A1FF" d="M261.529 806.428L256.691 809.192L154.125 868.492L146.384 872.916C146.384 872.916 145.832 873.054 145.693 873.054C145.14 873.054 144.726 872.778 144.449 872.363C144.035 871.672 144.311 870.842 145.002 870.428L151.361 866.695L253.788 807.533L258.626 804.769L261.529 806.428Z"></path>
<path fill="#05A1FF" d="M468.319 925.719L463.481 928.484L362.298 986.955L354.419 991.516C354.419 991.516 353.866 991.654 353.727 991.654C353.175 991.654 352.76 991.378 352.483 990.963C352.069 990.272 352.345 989.443 353.036 989.028L359.395 985.434L460.578 926.963L465.416 924.199L468.319 925.858V925.719Z"></path>
<path fill="#05A1FF" d="M370.453 869.184L365.615 871.948L297.33 911.343L294.428 913.002L263.464 930.972L255.309 935.672C255.309 935.672 254.894 935.81 254.618 935.81C254.065 935.81 253.65 935.534 253.374 935.119C252.959 934.428 253.235 933.598 253.926 933.184L260.7 929.313L291.663 911.482L294.566 909.823L362.851 870.428L367.689 867.663L370.592 869.322L370.453 869.184Z"></path>
<path fill="#05A1FF" d="M368.933 952.95L330.505 975.067L319.862 981.149L318.341 978.661L328.017 973.132L363.127 952.95L324.976 930.834L322.073 929.175L294.289 913.14L291.386 911.482L229.46 875.68L226.557 874.022L201.399 859.508L272.173 818.177L276.872 815.274L279.775 816.933L275.075 819.836L207.205 859.508L229.46 872.363L232.363 874.022L294.289 909.823L297.192 911.482L324.976 927.516L327.879 929.175L368.933 952.95Z"></path>
<path fill="#05A1FF" d="M18.9372 823.153C23.2223 825.641 23.2223 829.65 18.9372 832.138C14.6521 834.626 7.60244 834.626 3.31734 832.138C-0.967759 829.65 -0.967759 825.641 3.31734 823.153C7.60244 820.665 14.6521 820.665 18.9372 823.153Z"></path>
<path fill="#05A1FF" d="M209.278 818.868C209.278 818.868 209.002 819.836 208.587 820.112L120.674 870.842L112.656 875.542C112.656 875.542 112.242 875.68 111.965 875.68C111.412 875.68 110.998 875.404 110.721 874.989C110.307 874.298 110.583 873.469 111.274 873.054L117.909 869.184L204.993 818.868L172.648 800.207C172.648 800.207 171.957 799.516 171.957 798.963C171.957 798.41 172.233 797.996 172.648 797.719L204.579 779.197L209.417 776.432L212.319 778.091L207.481 780.855L176.242 798.963L208.587 817.624C208.587 817.624 209.278 818.315 209.278 818.868Z"></path>
<path fill="#05A1FF" d="M119.153 869.737C123.438 872.225 123.438 876.233 119.153 878.721C114.868 881.21 107.818 881.21 103.533 878.721C99.2481 876.233 99.2481 872.225 103.533 869.737C107.818 867.248 114.868 867.248 119.153 869.737Z"></path>
<path fill="#05A1FF" d="M487.257 977.279C487.257 977.279 486.98 978.246 486.566 978.523L401.002 1028.01L390.635 1033.95C390.635 1033.95 390.22 1034.09 389.944 1034.09C389.391 1034.09 388.976 1033.81 388.7 1033.4C388.285 1032.71 388.561 1031.74 389.253 1031.46L398.238 1026.21L482.972 977.279L450.626 958.618C450.626 958.618 449.935 957.927 449.935 957.374C449.935 956.821 450.212 956.406 450.626 956.13L480.898 938.713L485.736 935.948L488.639 937.607L483.801 940.371L454.22 957.374L486.566 976.035C486.566 976.035 487.257 976.726 487.257 977.279Z"></path>
<path fill="#05A1FF" d="M399.343 1026.76C403.629 1029.25 403.629 1033.26 399.343 1035.75C395.058 1038.24 388.009 1038.24 383.724 1035.75C379.438 1033.26 379.438 1029.25 383.724 1026.76C388.009 1024.28 395.058 1024.28 399.343 1026.76Z"></path>
<path fill="#05A1FF" d="M152.467 867.248C156.752 869.737 156.752 873.745 152.467 876.233C148.181 878.721 141.132 878.721 136.847 876.233C132.562 873.745 132.562 869.737 136.847 867.248C141.132 864.76 148.181 864.76 152.467 867.248Z"></path>
<path fill="#05A1FF" d="M169.054 907.196C173.339 909.685 173.339 913.693 169.054 916.181C164.769 918.669 157.719 918.669 153.434 916.181C149.149 913.693 149.149 909.685 153.434 907.196C157.719 904.708 164.769 904.708 169.054 907.196Z"></path>
<path fill="#05A1FF" d="M261.944 930.143C266.229 932.631 266.229 936.639 261.944 939.127C257.658 941.616 250.609 941.616 246.324 939.127C242.039 936.639 242.039 932.631 246.324 930.143C250.609 927.654 257.658 927.654 261.944 930.143Z"></path>
<path fill="#05A1FF" d="M262.359 963.732C266.644 966.22 266.644 970.229 262.359 972.717C258.073 975.205 251.024 975.205 246.739 972.717C242.454 970.229 242.454 966.22 246.739 963.732C251.024 961.244 258.073 961.244 262.359 963.732Z"></path>
<path fill="#05A1FF" d="M328.432 973.408C332.717 975.896 332.717 979.905 328.432 982.393C324.147 984.881 317.097 984.881 312.812 982.393C308.527 979.905 308.527 975.896 312.812 973.408C317.097 970.92 324.147 970.92 328.432 973.408Z"></path>
<path fill="#05A1FF" d="M361.054 986.125C365.339 988.613 365.339 992.622 361.054 995.11C356.769 997.598 349.719 997.598 345.434 995.11C341.149 992.622 341.149 988.613 345.434 986.125C349.719 983.637 356.769 983.637 361.054 986.125Z"></path>
<path fill="#05A1FF" d="M971.473 865.728C971.473 865.728 970.782 866.419 970.229 866.419C969.953 866.419 969.676 866.419 969.538 866.281L960.691 861.166L873.607 810.851C873.607 810.851 872.916 810.16 872.916 809.607C872.916 809.054 873.192 808.639 873.607 808.363L905.953 789.702L876.924 772.976L872.086 770.212L874.989 768.553L879.827 771.317L909.547 788.458C909.547 788.458 910.238 789.149 910.238 789.702C910.238 790.255 909.961 790.67 909.547 790.946L877.201 809.607L964.009 859.646L971.058 863.654C971.749 864.069 972.026 864.898 971.611 865.59L971.473 865.728Z"></path>
<path fill="#05A1FF" d="M670.41 1039.9C670.41 1039.9 669.719 1040.59 669.166 1040.59C668.89 1040.59 668.613 1040.59 668.475 1040.45L659.905 1035.47L572.544 985.019C572.544 985.019 571.853 984.328 571.853 983.775C571.853 983.222 572.13 982.808 572.544 982.531L604.89 963.87L576.415 947.421L571.577 944.657L574.48 942.998L579.317 945.762L608.484 962.626C608.484 962.626 609.175 963.318 609.175 963.87C609.175 964.423 608.899 964.838 608.484 965.114L576.138 983.775L663.222 1034.09L669.857 1037.96C670.549 1038.38 670.825 1039.21 670.41 1039.9Z"></path>
<path fill="#05A1FF" d="M818.868 946.315C818.868 946.315 818.039 947.006 817.624 947.006C817.348 947.006 817.071 947.006 816.933 946.868L808.916 942.168L742.842 904.017C742.842 904.017 742.151 903.326 742.151 902.773C742.151 902.22 742.428 901.806 742.842 901.529L767.309 887.43L745.192 874.436L742.289 872.778L723.767 861.857L718.929 859.093L721.832 857.434L726.67 860.199L745.192 871.119L748.095 872.778L770.903 886.186C770.903 886.186 771.594 886.877 771.594 887.43C771.594 887.983 771.318 888.397 770.903 888.674L746.436 902.773L812.924 941.063L818.454 944.242C818.454 944.242 819.421 945.486 819.006 946.177L818.868 946.315Z"></path>
<path fill="#05A1FF" d="M938.989 942.445C938.989 942.445 938.298 943.136 937.745 943.136C937.468 943.136 937.192 943.136 937.054 942.998L928.484 938.022L807.948 868.354C807.948 868.354 807.257 867.663 807.257 867.11C807.257 866.557 807.533 866.143 807.948 865.866L852.181 840.294L806.289 813.754L801.451 810.989L804.354 809.33L809.192 812.095L855.913 839.05C855.913 839.05 856.605 839.741 856.605 840.294C856.605 840.847 856.328 841.261 855.913 841.538L811.68 867.11L931.939 936.501L938.574 940.371C939.265 940.786 939.542 941.616 939.127 942.307L938.989 942.445Z"></path>
<path fill="#05A1FF" d="M809.607 978.799C809.607 978.799 808.916 979.49 808.363 979.49C808.086 979.49 807.81 979.49 807.672 979.352L800.346 975.067L715.058 925.857L667.922 953.089C667.922 953.089 666.955 953.365 666.402 953.089L616.363 924.199L611.525 921.434L614.428 919.775L619.266 922.54L667.093 950.186L714.229 922.955C714.229 922.955 715.197 922.678 715.749 922.955L803.248 973.546L809.192 977.002C809.883 977.417 810.16 978.246 809.745 978.937L809.607 978.799Z"></path>
<path fill="#05A1FF" d="M937.607 863.101C937.607 863.101 936.916 863.793 936.363 863.793C936.086 863.793 935.81 863.793 935.672 863.654L927.378 858.816L827.715 801.313L822.877 798.549L825.78 796.89L830.618 799.654L930.419 857.296L937.054 861.166C937.745 861.581 938.022 862.41 937.607 863.101Z"></path>
<path fill="#05A1FF" d="M1014.6 818.039C1014.6 818.039 1013.91 818.73 1013.36 818.73C1013.08 818.73 1012.8 818.73 1012.67 818.592L1003.54 813.339L905.123 756.527L900.285 753.762L903.188 752.104L908.026 754.868L1006.44 811.68L1014.19 816.242C1014.88 816.657 1015.15 817.486 1014.74 818.177L1014.6 818.039Z"></path>
<path fill="#05A1FF" d="M848.173 914.108C848.173 914.108 847.343 914.799 846.929 914.799C846.652 914.799 846.376 914.799 846.237 914.661L837.252 909.408L760.95 865.313L758.047 863.654L739.248 852.873L734.41 850.108L737.313 848.449L742.151 851.214L760.95 861.996L763.853 863.654L839.879 907.611L847.758 912.173C847.758 912.173 848.725 913.417 848.311 914.108H848.173Z"></path>
<path fill="#05A1FF" d="M703.585 998.289C703.585 998.289 702.894 998.981 702.341 998.981C702.065 998.981 701.788 998.981 701.65 998.842L693.218 994.004L594.384 936.916L589.546 934.151L592.449 932.492L597.287 935.257L696.397 992.484L703.171 996.354C703.862 996.769 704.138 997.598 703.723 998.289H703.585Z"></path>
<path fill="#05A1FF" d="M810.298 836.7L763.715 863.654L760.812 865.313L748.095 872.639L745.192 874.436L686.859 908.026L678.151 913.14L676.63 910.514L684.371 906.091L742.289 872.639L745.192 870.981L757.909 863.654L760.812 861.996L804.492 836.7L785.555 825.918L780.717 823.015L783.62 821.356L788.458 824.121L810.298 836.7Z"></path>
<path fill="#05A1FF" d="M675.801 1035.33C680.086 1037.82 680.086 1041.83 675.801 1044.32C671.516 1046.81 664.466 1046.81 660.181 1044.32C655.896 1041.83 655.896 1037.82 660.181 1035.33C664.466 1032.85 671.516 1032.85 675.801 1035.33Z"></path>
<path fill="#05A1FF" d="M709.805 993.451C714.09 995.94 714.09 999.948 709.805 1002.44C705.52 1004.92 698.471 1004.92 694.186 1002.44C689.9 999.948 689.9 995.94 694.186 993.451C698.471 990.963 705.52 990.963 709.805 993.451Z"></path>
<path fill="#05A1FF" d="M684.509 906.091C688.795 908.579 688.795 912.587 684.509 915.075C680.224 917.564 673.175 917.564 668.89 915.075C664.605 912.587 664.605 908.579 668.89 906.091C673.175 903.603 680.224 903.603 684.509 906.091Z"></path>
<path fill="#05A1FF" d="M817.209 974.238C821.494 976.726 821.494 980.734 817.209 983.222C812.924 985.711 805.874 985.711 801.589 983.222C797.304 980.734 797.304 976.726 801.589 974.238C805.874 971.749 812.924 971.749 817.209 974.238Z"></path>
<path fill="#05A1FF" d="M823.292 942.86C827.577 945.348 827.577 949.356 823.292 951.844C819.007 954.333 811.957 954.333 807.672 951.844C803.387 949.356 803.387 945.348 807.672 942.86C811.957 940.371 819.007 940.371 823.292 942.86Z"></path>
<path fill="#05A1FF" d="M854.67 907.888C858.955 910.376 858.955 914.384 854.67 916.873C850.385 919.361 843.335 919.361 839.05 916.873C834.765 914.384 834.765 910.376 839.05 907.888C843.335 905.4 850.385 905.4 854.67 907.888Z"></path>
<path fill="#05A1FF" d="M944.38 937.883C948.665 940.371 948.665 944.38 944.38 946.868C940.095 949.356 933.045 949.356 928.76 946.868C924.475 944.38 924.475 940.371 928.76 937.883C933.045 935.395 940.095 935.395 944.38 937.883Z"></path>
<path fill="#05A1FF" d="M936.086 869.184C942.194 869.184 947.144 866.337 947.144 862.825C947.144 859.313 942.194 856.466 936.086 856.466C929.979 856.466 925.028 859.313 925.028 862.825C925.028 866.337 929.979 869.184 936.086 869.184Z"></path>
<path fill="#05A1FF" d="M976.726 860.752C981.011 863.24 981.011 867.248 976.726 869.736C972.441 872.225 965.391 872.225 961.106 869.736C956.821 867.248 956.821 863.24 961.106 860.752C965.391 858.264 972.441 858.264 976.726 860.752Z"></path>
<path fill="#05A1FF" d="M1020.68 812.095C1024.97 814.583 1024.97 818.592 1020.68 821.08C1016.4 823.568 1009.35 823.568 1005.06 821.08C1000.78 818.592 1000.78 814.583 1005.06 812.095C1009.35 809.607 1016.4 809.607 1020.68 812.095Z"></path>
<path fill="#05A1FF" d="M428.924 462.652C428.924 462.652 428.648 463.62 428.233 463.896L405.149 477.719L402.246 479.378L373.356 496.657L370.453 498.315L343.36 514.488L419.524 558.445L424.362 561.209L421.46 562.868L416.622 560.104L339.766 515.732C339.766 515.732 339.075 515.041 339.075 514.488C339.075 513.935 339.352 513.521 339.766 513.244L367.55 496.518L370.453 494.86L399.343 477.581L402.246 475.922L424.501 462.514L381.788 437.909L374.6 433.762C374.6 433.762 373.632 432.518 374.047 431.827C374.462 431.136 375.291 430.86 375.982 431.274L384.553 436.251L428.095 461.408C428.095 461.408 428.786 462.099 428.786 462.652H428.924Z"></path>
<path fill="#05A1FF" d="M168.777 707.317L93.9954 664.19L126.341 645.529C126.341 645.529 127.032 644.838 127.032 644.285C127.032 643.732 126.756 643.317 126.341 643.041L82.3842 617.745L74.2287 613.045C73.5375 612.631 72.7082 612.907 72.2935 613.598C71.8788 614.289 72.1552 615.119 72.8464 615.533L79.0667 619.127L122.747 644.285L90.4015 662.946C90.4015 662.946 89.7103 663.637 89.7103 664.19C89.7103 664.743 89.9868 665.158 90.4015 665.434L165.874 708.976L168.777 707.317Z"></path>
<path fill="#05A1FF" d="M320.829 621.754L317.926 623.413L313.088 620.648L261.114 590.652C261.114 590.652 260.423 589.961 260.423 589.408C260.423 588.855 260.7 588.441 261.114 588.164L285.581 574.065L225.589 538.816L219.922 535.499C219.231 535.084 218.954 534.255 219.369 533.564C219.784 532.873 220.613 532.596 221.304 533.011L228.492 537.296L289.037 572.959C289.037 572.959 289.728 573.65 289.728 574.203C289.728 574.756 289.451 575.171 289.037 575.447L264.57 589.546L315.853 619.127L320.691 621.892L320.829 621.754Z"></path>
<path fill="#05A1FF" d="M385.797 583.879L382.894 585.538L378.056 582.773L297.192 536.052C297.192 536.052 296.501 535.361 296.501 534.808C296.501 534.255 296.777 533.84 297.192 533.564L332.855 512.968L287.516 486.704L277.978 481.175C277.287 480.76 277.011 479.931 277.425 479.24C277.84 478.549 278.669 478.272 279.361 478.687L290.281 485.045L336.449 511.724C336.449 511.724 337.14 512.415 337.14 512.968C337.14 513.521 336.864 513.935 336.449 514.212L300.786 534.808L380.959 581.114L385.797 583.879Z"></path>
<path fill="#05A1FF" d="M284.199 642.903L281.296 644.562L276.458 641.797L223.654 611.387L185.918 633.227C185.918 633.227 184.95 633.503 184.397 633.227L133.253 603.784L126.894 600.19C126.203 599.775 125.927 598.946 126.341 598.255C126.756 597.564 127.585 597.287 128.277 597.702L135.741 601.987L184.812 630.324L222.549 608.484C222.549 608.484 223.516 608.207 224.069 608.484L279.084 640.276L283.922 643.041L284.199 642.903Z"></path>
<path fill="#05A1FF" d="M454.911 543.793L452.008 545.451L447.17 542.687L370.592 498.454L367.689 496.795L344.052 483.11L337.831 479.516C337.14 479.101 336.864 478.272 337.278 477.581C337.693 476.89 338.522 476.613 339.214 477.028L347.093 481.59L370.453 494.998L373.356 496.657L449.935 540.89L454.773 543.654L454.911 543.793Z"></path>
<path fill="#05A1FF" d="M487.257 524.994L484.354 526.652L479.516 523.888L402.384 479.378L399.482 477.719L310.324 426.298L305.762 423.672C305.071 423.257 304.795 422.428 305.209 421.737C305.624 421.045 306.454 420.769 307.145 421.184L313.918 425.054L402.246 476.06L405.149 477.719L482.281 522.229L487.119 524.994H487.257Z"></path>
<path fill="#05A1FF" d="M370.039 593.002L367.136 594.661L362.298 591.896L260.147 532.873L253.374 528.864C252.683 528.449 252.406 527.62 252.821 526.929C253.236 526.238 254.065 525.961 254.756 526.376L263.326 531.352L365.201 590.238L370.039 593.002Z"></path>
<path fill="#05A1FF" d="M226.557 676.492L223.654 678.151L218.816 675.387L173.201 648.985L162.281 642.626C162.281 642.626 161.313 641.382 161.728 640.691C162.143 640 162.972 639.724 163.663 640.138L176.242 647.326L221.719 673.59L226.557 676.354V676.492Z"></path>
<path fill="#05A1FF" d="M82.2463 608.622C86.5314 611.11 86.5314 615.119 82.2463 617.607C77.9612 620.095 70.9115 620.095 66.6264 617.607C62.3413 615.119 62.3413 611.11 66.6264 608.622C70.9115 606.134 77.9612 606.134 82.2463 608.622Z"></path>
<path fill="#05A1FF" d="M175.136 639.171C179.421 641.659 179.421 645.667 175.136 648.156C170.851 650.644 163.801 650.644 159.516 648.156C155.231 645.667 155.231 641.659 159.516 639.171C163.801 636.683 170.851 636.683 175.136 639.171Z"></path>
<path fill="#05A1FF" d="M134.359 594.108C138.644 596.596 138.644 600.605 134.359 603.093C130.073 605.581 123.024 605.581 118.739 603.093C114.454 600.605 114.454 596.596 118.739 594.108C123.024 591.62 130.073 591.62 134.359 594.108Z"></path>
<path fill="#05A1FF" d="M227.663 528.588C231.948 531.076 231.948 535.084 227.663 537.572C223.378 540.06 216.328 540.06 212.043 537.572C207.758 535.084 207.758 531.076 212.043 528.588C216.328 526.099 223.378 526.099 227.663 528.588Z"></path>
<path fill="#05A1FF" d="M151.499 572.682C155.784 575.171 155.784 579.179 151.499 581.667C147.214 584.156 140.164 584.156 135.879 581.667C131.594 579.179 131.594 575.171 135.879 572.682C140.164 570.194 147.214 570.194 151.499 572.682Z"></path>
<path fill="#05A1FF" d="M303.412 631.844L300.509 633.503L295.671 630.739L174.721 560.933L152.743 573.65L144.449 578.35C144.449 578.35 142.928 578.488 142.514 577.797C142.099 577.106 142.375 576.276 143.067 575.862L149.84 571.991L174.03 558.03C174.03 558.03 174.997 557.754 175.55 558.03L298.712 629.08L303.55 631.844H303.412Z"></path>
<path fill="#05A1FF" d="M505.503 514.35L502.6 516.009L497.762 513.244L445.235 482.834C445.235 482.834 444.544 482.143 444.544 481.59C444.544 481.037 444.82 480.622 445.235 480.346L469.702 466.246L409.71 430.998L404.043 427.68C404.043 427.68 403.075 426.436 403.49 425.745C403.905 425.054 404.734 424.778 405.425 425.192L412.751 429.477L473.296 465.14C473.296 465.14 473.987 465.832 473.987 466.384C473.987 466.937 473.71 467.352 473.296 467.629L448.829 481.728L500.665 511.585L505.503 514.35Z"></path>
<path fill="#05A1FF" d="M411.784 420.907C416.069 423.395 416.069 427.404 411.784 429.892C407.499 432.38 400.449 432.38 396.164 429.892C391.879 427.404 391.879 423.395 396.164 420.907C400.449 418.419 407.499 418.419 411.784 420.907Z"></path>
<path fill="#05A1FF" d="M262.635 522.92C266.92 525.408 266.92 529.417 262.635 531.905C258.35 534.393 251.3 534.393 247.015 531.905C242.73 529.417 242.73 525.408 247.015 522.92C251.3 520.432 258.35 520.432 262.635 522.92Z"></path>
<path fill="#05A1FF" d="M288.76 477.166C293.045 479.654 293.045 483.663 288.76 486.151C284.475 488.639 277.425 488.639 273.14 486.151C268.855 483.663 268.855 479.654 273.14 477.166C277.425 474.678 284.475 474.678 288.76 477.166Z"></path>
<path fill="#05A1FF" d="M314.333 415.793C318.618 418.281 318.618 422.289 314.333 424.778C310.048 427.266 302.998 427.266 298.713 424.778C294.428 422.289 294.428 418.281 298.713 415.793C302.998 413.305 310.048 413.305 314.333 415.793Z"></path>
<path fill="#05A1FF" d="M383.171 428.371C387.456 430.86 387.456 434.868 383.171 437.356C378.885 439.844 371.836 439.844 367.551 437.356C363.266 434.868 363.266 430.86 367.551 428.371C371.836 425.883 378.885 425.883 383.171 428.371Z"></path>
<path fill="#05A1FF" d="M346.678 472.881C350.963 475.369 350.963 479.378 346.678 481.866C342.393 484.354 335.343 484.354 331.058 481.866C326.773 479.378 326.773 475.369 331.058 472.881C335.343 470.393 342.393 470.393 346.678 472.881Z"></path>
<path fill="#05A1FF" d="M918.255 629.356C918.255 629.356 917.978 630.324 917.563 630.6L845.27 672.346L840.432 675.11L837.529 673.451L842.367 670.687L913.969 629.356L848.311 589.961L845.408 588.302L829.235 578.626C829.235 578.626 828.544 577.935 828.544 577.382C828.544 576.829 828.82 576.415 829.235 576.138L872.777 550.981L881.347 546.004C881.347 546.004 882.868 545.866 883.283 546.557C883.697 547.248 883.421 548.078 882.73 548.492L875.542 552.639L832.829 577.244L848.311 586.505L851.214 588.164L917.563 627.974C917.563 627.974 918.255 628.665 918.255 629.218V629.356Z"></path>
<path fill="#05A1FF" d="M849.14 537.711L843.473 541.028L783.482 576.276L807.948 590.376C807.948 590.376 808.639 591.067 808.639 591.62C808.639 592.173 808.363 592.587 807.948 592.864L758.047 621.754L753.209 624.518L750.307 622.86L755.145 620.095L804.354 591.758L779.888 577.659C779.888 577.659 779.196 576.968 779.196 576.415C779.196 575.862 779.473 575.447 779.888 575.171L840.432 539.508L847.62 535.222C848.311 534.808 849.14 535.084 849.555 535.775C849.97 536.467 849.693 537.296 849.002 537.711H849.14Z"></path>
<path fill="#05A1FF" d="M787.075 474.816L777.814 480.207L730.955 507.3L767.447 528.311C767.447 528.311 768.138 529.002 768.138 529.555C768.138 530.108 767.862 530.523 767.447 530.799L683.818 579.041L678.98 581.806L676.078 580.147L680.916 577.382L763.853 529.555L727.361 508.544C727.361 508.544 726.669 507.853 726.669 507.3C726.669 506.747 726.946 506.333 727.361 506.056L775.326 478.41L785.693 472.328C786.384 471.914 787.214 472.19 787.628 472.881C788.043 473.572 787.767 474.402 787.075 474.816Z"></path>
<path fill="#05A1FF" d="M996.354 658.108L990.134 661.702L947.974 686.03C947.974 686.03 947.006 686.307 946.453 686.03L914.799 667.646L876.095 690.039L871.257 692.803L868.354 691.145L873.192 688.38L914.108 664.743C914.108 664.743 915.075 664.467 915.628 664.743L947.283 683.127L986.954 660.181L994.972 655.62C995.663 655.205 996.492 655.482 996.907 656.173C997.322 656.864 997.045 657.693 996.354 658.108Z"></path>
<path fill="#05A1FF" d="M728.19 482.557L721.969 486.151L622.306 543.654L617.468 546.419L614.565 544.76L619.403 541.996L718.652 484.631L726.531 480.069C727.222 479.654 728.051 479.931 728.466 480.622C728.881 481.313 728.604 482.143 727.913 482.557H728.19Z"></path>
<path fill="#05A1FF" d="M763.3 426.16L758.739 428.786L591.205 525.408L586.367 528.173L583.464 526.514L588.302 523.749L755.145 427.542L761.918 423.672C762.609 423.257 763.438 423.533 763.853 424.225C764.268 424.916 763.991 425.745 763.3 426.16Z"></path>
<path fill="#05A1FF" d="M815.689 531.49L808.777 535.499L708.561 593.417L703.723 596.181L700.82 594.523L705.658 591.758L805.598 533.978L814.168 529.002C814.859 528.587 815.689 528.864 816.103 529.555C816.518 530.246 816.241 531.076 815.55 531.49H815.689Z"></path>
<path fill="#05A1FF" d="M707.041 530.246L696.121 536.605L653.131 561.486L648.293 564.251L645.391 562.592L650.229 559.827L693.08 535.084L705.658 527.896C706.35 527.482 707.179 527.758 707.594 528.449C708.008 529.14 707.732 529.97 707.041 530.384V530.246Z"></path>
<path fill="#05A1FF" d="M701.926 537.434C708.034 537.434 712.985 534.587 712.985 531.076C712.985 527.564 708.034 524.717 701.926 524.717C695.819 524.717 690.868 527.564 690.868 531.076C690.868 534.587 695.819 537.434 701.926 537.434Z"></path>
<path fill="#05A1FF" d="M987.645 651.473C983.36 653.961 983.36 657.97 987.645 660.458C991.931 662.946 998.98 662.946 1003.27 660.458C1007.55 657.97 1007.55 653.961 1003.27 651.473C998.98 648.985 991.931 648.985 987.645 651.473Z"></path>
<path fill="#05A1FF" d="M841.399 531.076C837.114 533.564 837.114 537.572 841.399 540.06C845.684 542.549 852.734 542.549 857.019 540.06C861.304 537.572 861.304 533.564 857.019 531.076C852.734 528.587 845.684 528.587 841.399 531.076Z"></path>
<path fill="#05A1FF" d="M917.563 575.171C913.278 577.659 913.278 581.667 917.563 584.156C921.849 586.644 928.898 586.644 933.183 584.156C937.468 581.667 937.468 577.659 933.183 575.171C928.898 572.683 921.849 572.683 917.563 575.171Z"></path>
<path fill="#05A1FF" d="M926.549 580.285C926.134 580.976 925.305 581.253 924.613 580.838L916.32 576.138L894.341 563.421L851.214 588.302L848.311 589.961L775.464 631.983L770.626 634.747L767.724 633.089L772.562 630.324L845.408 588.302L848.311 586.644L893.65 560.518C893.65 560.518 894.618 560.242 895.171 560.518L919.361 574.48L926.134 578.35C926.134 578.35 927.102 579.594 926.687 580.285H926.549Z"></path>
<path fill="#05A1FF" d="M665.019 430.168L659.352 433.486L599.361 468.734L623.827 482.834C623.827 482.834 624.518 483.525 624.518 484.078C624.518 484.631 624.242 485.045 623.827 485.322L572.683 514.765L567.845 517.529L549.598 528.035C549.598 528.035 549.184 528.173 548.907 528.173C548.354 528.173 547.94 527.896 547.663 527.482C547.248 526.79 547.525 525.823 548.216 525.546L564.942 515.87L569.78 513.106L620.095 484.078L595.629 469.978C595.629 469.978 594.937 469.287 594.937 468.734C594.937 468.181 595.214 467.767 595.629 467.49L656.173 431.827L663.499 427.542C663.499 427.542 665.019 427.404 665.434 428.095C665.849 428.786 665.572 429.616 664.881 430.03L665.019 430.168Z"></path>
<path fill="#05A1FF" d="M657.278 423.533C652.993 426.022 652.993 430.03 657.278 432.518C661.563 435.006 668.613 435.006 672.898 432.518C677.183 430.03 677.183 426.022 672.898 423.533C668.613 421.045 661.563 421.045 657.278 423.533Z"></path>
<path fill="#05A1FF" d="M806.428 525.408C802.143 527.896 802.143 531.905 806.428 534.393C810.713 536.881 817.762 536.881 822.048 534.393C826.333 531.905 826.333 527.896 822.048 525.408C817.762 522.92 810.713 522.92 806.428 525.408Z"></path>
<path fill="#05A1FF" d="M777.261 470.808C772.976 473.296 772.976 477.305 777.261 479.793C781.546 482.281 788.596 482.281 792.881 479.793C797.166 477.305 797.166 473.296 792.881 470.808C788.596 468.32 781.546 468.32 777.261 470.808Z"></path>
<path fill="#05A1FF" d="M754.73 418.419C750.445 420.907 750.445 424.916 754.73 427.404C759.015 429.892 766.065 429.892 770.35 427.404C774.635 424.916 774.635 420.907 770.35 418.419C766.065 415.931 759.015 415.931 754.73 418.419Z"></path>
<path fill="#05A1FF" d="M874.436 543.102C870.151 545.59 870.151 549.598 874.436 552.086C878.721 554.575 885.771 554.575 890.056 552.086C894.341 549.598 894.341 545.59 890.056 543.102C885.771 540.613 878.721 540.613 874.436 543.102Z"></path>
<path fill="#05A1FF" d="M719.343 475.922C715.058 478.41 715.058 482.419 719.343 484.907C723.628 487.395 730.678 487.395 734.963 484.907C739.248 482.419 739.248 478.41 734.963 475.922C730.678 473.434 723.628 473.434 719.343 475.922Z"></path>
<path fill="#E5E2F2" d="M386.35 525.132L362.298 511.171C359.671 509.65 357.736 506.609 356.907 501.771L380.959 515.732C381.65 520.57 383.723 523.611 386.35 525.132Z"></path>
<mask height="25" width="31" y="501" x="356" maskUnits="userSpaceOnUse" style="mask-type:luminance" id="mask4_1_959">
<path fill="white" d="M386.35 525.132L362.298 511.171C359.671 509.65 357.736 506.609 356.907 501.771L380.959 515.732C381.65 520.57 383.723 523.611 386.35 525.132Z"></path>
</mask>
<g mask="url(#mask4_1_959)">
<path fill="#E5E2F2" d="M386.35 525.132L362.298 511.171C359.671 509.65 357.736 506.609 356.907 501.909L380.959 515.87C381.788 520.57 383.723 523.611 386.35 525.132Z"></path>
<path fill="#E5E2F2" d="M380.959 515.87L356.907 501.909V501.771L380.959 515.732V515.87Z"></path>
</g>
<path fill="#E5E2F2" d="M406.946 273.97L430.997 287.931C423.948 283.784 414.272 284.337 403.352 290.695L379.3 276.734C390.22 270.376 399.896 269.961 406.946 273.97Z"></path>
<mask height="20" width="52" y="271" x="379" maskUnits="userSpaceOnUse" style="mask-type:luminance" id="mask5_1_959">
<path fill="white" d="M406.946 273.97L430.997 287.931C423.948 283.784 414.272 284.337 403.352 290.695L379.3 276.734C390.22 270.376 399.896 269.961 406.946 273.97Z"></path>
</mask>
<g mask="url(#mask5_1_959)">
<path fill="#E5E2F2" d="M403.49 290.695L379.438 276.734C390.358 270.376 400.034 269.961 407.084 273.97L431.136 287.931C424.086 283.784 414.41 284.337 403.49 290.695Z"></path>
</g>
<path fill="#E5E2F2" d="M380.958 515.732L356.906 501.771L333.822 354.972L357.874 369.071L380.958 515.732Z"></path>
<path fill="#F5F4FB" d="M396.025 294.981L371.974 281.019L379.3 276.734L403.49 290.695L396.025 294.981Z"></path>
<path fill="#F5F4FB" d="M357.874 369.071L333.823 355.11C329.952 330.091 348.06 294.842 372.112 281.019L396.164 294.981C372.112 308.803 354.004 344.052 357.874 369.071Z"></path>
<mask height="89" width="64" y="281" x="333" maskUnits="userSpaceOnUse" style="mask-type:luminance" id="mask6_1_959">
<path fill="white" d="M357.874 369.071L333.823 355.11C329.952 330.091 348.06 294.842 372.112 281.019L396.164 294.981C372.112 308.803 354.004 344.052 357.874 369.071Z"></path>
</mask>
<g mask="url(#mask6_1_959)">
<path fill="#F5F4FB" d="M357.874 369.071L333.823 355.11C332.578 347.508 333.408 338.937 335.896 330.367L359.948 344.328C357.46 352.898 356.63 361.469 357.874 369.071Z"></path>
<path fill="#F5F4FB" d="M359.948 344.328L335.896 330.367C338.661 320.691 343.36 310.877 349.442 302.307L373.494 316.268C367.412 324.838 362.574 334.652 359.948 344.328Z"></path>
<path fill="#F5F4FB" d="M373.494 316.268L349.442 302.307C354.142 295.81 359.533 289.866 365.477 285.305L389.529 299.266C383.585 303.827 378.056 309.633 373.494 316.268Z"></path>
<path fill="#F5F4FB" d="M389.667 299.266L365.615 285.305C367.689 283.646 369.9 282.263 372.112 280.881L396.164 294.842C393.952 296.086 391.74 297.607 389.667 299.266Z"></path>
</g>
<path fill="#D2CBF6" d="M403.49 290.695C427.403 276.873 445.788 290.972 442.056 320.415L419.801 493.339C418.004 507.024 409.295 518.359 400.449 523.473C391.602 528.587 382.894 527.343 380.958 515.732L357.874 369.071C354.004 344.052 372.112 308.803 396.164 294.981L403.49 290.695Z"></path>
<path fill="#05A1FF" d="M430.03 291.94L446.756 301.616C439.706 297.469 429.754 298.022 418.972 304.38L402.246 294.704C413.166 288.484 422.98 287.793 430.03 291.94Z"></path>
<mask height="16" width="45" y="289" x="402" maskUnits="userSpaceOnUse" style="mask-type:luminance" id="mask7_1_959">
<path fill="white" d="M430.03 291.94L446.756 301.616C439.706 297.469 429.754 298.022 418.972 304.38L402.246 294.704C413.166 288.484 422.98 287.793 430.03 291.94Z"></path>
</mask>
<g mask="url(#mask7_1_959)">
<path fill="#05A1FF" d="M418.972 304.38L402.246 294.704C413.166 288.484 422.98 287.793 430.03 291.94L446.756 301.616C439.706 297.469 429.754 298.022 418.972 304.38Z"></path>
</g>
<path fill="#05A1FF" d="M422.842 320.829C437.633 312.259 449.659 319.171 449.797 336.173C449.797 353.175 437.909 373.909 422.981 382.479C408.19 391.05 396.026 384.138 396.026 367.136C396.026 350.134 407.914 329.261 422.842 320.829Z"></path>
<path fill="#05A1FF" d="M391.326 397.132L374.6 387.456C367.551 383.309 363.266 374.739 363.127 362.298C363.127 337.417 380.544 307.145 402.108 294.704L418.834 304.38C397.27 316.821 379.715 347.093 379.853 371.974C379.853 384.276 384.276 392.985 391.326 397.132Z"></path>
<mask height="104" width="56" y="294" x="363" maskUnits="userSpaceOnUse" style="mask-type:luminance" id="mask8_1_959">
<path fill="white" d="M391.326 397.132L374.6 387.456C367.551 383.309 363.266 374.739 363.127 362.298C363.127 337.417 380.544 307.145 402.108 294.704L418.834 304.38C397.27 316.821 379.715 347.093 379.853 371.974C379.853 384.276 384.276 392.985 391.326 397.132Z"></path>
</mask>
<g mask="url(#mask8_1_959)">
<path fill="#05A1FF" d="M391.326 397.132L374.6 387.456C368.38 383.862 364.233 376.536 363.404 366.307L380.129 375.983C380.959 386.212 385.106 393.4 391.326 397.132Z"></path>
<path fill="#05A1FF" d="M380.13 375.983L363.404 366.307C363.404 365.063 363.266 363.68 363.266 362.298C363.266 340.873 376.121 315.438 393.676 300.786L410.402 310.462C392.985 325.114 379.991 350.549 379.991 371.974C379.991 373.356 379.991 374.739 380.13 375.983Z"></path>
<path fill="#05A1FF" d="M410.263 310.6L393.538 300.924C396.302 298.575 399.205 296.501 402.246 294.842L418.972 304.518C415.931 306.177 413.028 308.251 410.263 310.6Z"></path>
</g>
<path fill="#05A1FF" d="M422.842 320.829L418.972 304.518C440.535 292.078 458.229 302.03 458.229 326.911C458.229 351.793 440.812 382.065 419.248 394.505C397.685 406.946 379.991 396.994 379.991 372.112C379.991 347.231 397.408 316.959 418.972 304.518L422.842 320.829C408.052 329.4 396.026 350.134 396.026 367.136C396.026 384.138 408.19 391.05 422.98 382.479C437.771 373.909 449.797 353.175 449.797 336.173C449.797 319.171 437.633 312.259 422.842 320.829Z"></path>
<mask height="101" width="80" y="299" x="379" maskUnits="userSpaceOnUse" style="mask-type:luminance" id="mask9_1_959">
<path fill="white" d="M422.842 320.829L418.972 304.518C440.535 292.078 458.229 302.03 458.229 326.911C458.229 351.793 440.812 382.065 419.248 394.505C397.685 406.946 379.991 396.994 379.991 372.112C379.991 347.231 397.408 316.959 418.972 304.518L422.842 320.829C408.052 329.4 396.026 350.134 396.026 367.136C396.026 384.138 408.19 391.05 422.98 382.479C437.771 373.909 449.797 353.175 449.797 336.173C449.797 319.171 437.633 312.259 422.842 320.829Z"></path>
</mask>
<g mask="url(#mask9_1_959)">
<path fill="#1380FD" d="M422.842 320.829L418.972 304.518C440.535 292.078 458.229 302.03 458.229 326.911C458.229 351.793 440.812 382.065 419.248 394.505C397.685 406.946 379.991 396.994 379.991 372.112C379.991 347.231 397.408 316.959 418.972 304.518L422.842 320.829C408.052 329.4 396.026 350.134 396.026 367.136C396.026 384.138 408.19 391.05 422.98 382.479C437.771 373.909 449.797 353.175 449.797 336.173C449.797 319.171 437.633 312.259 422.842 320.829Z"></path>
</g>
<path fill="#1D1F33" d="M377.128 21.7306L368.934 24.2405L412.373 166.057L420.567 163.547L377.128 21.7306Z"></path>
<path fill="#989BE0" d="M468.32 610.281C428.51 585.676 419.525 552.639 415.654 538.54C418.695 552.086 429.339 565.495 447.447 576.415C492.648 603.646 567.43 604.337 614.566 578.073C634.747 566.739 646.635 552.363 649.952 537.434C646.911 549.184 642.212 566.877 624.656 587.335C618.021 595.076 603.231 609.451 579.732 618.989C543.931 633.365 500.25 629.909 468.458 610.281H468.32Z"></path>
<path fill="#EFECF8" d="M615.257 287.378C659.352 313.918 657.832 356.078 611.94 381.788C566.048 407.361 493.063 406.67 449.106 380.13C405.011 353.59 406.531 311.43 452.423 285.719C498.315 260.009 571.3 260.838 615.257 287.378Z"></path>
<path fill="#C5BEED" d="M415.516 538.125L379.991 382.894C384.138 401.002 397.961 418.557 421.46 432.657C480.207 468.043 577.382 469.011 638.618 434.868C664.881 420.216 680.224 401.417 684.648 382.065L649.952 537.434C646.635 552.363 634.747 566.739 614.566 578.073C567.43 604.337 492.648 603.646 447.447 576.415C429.339 565.495 418.695 552.086 415.516 538.125Z"></path>
<path fill="#E5E2F2" d="M433.486 283.231C493.477 250.609 578.35 251.577 635.438 285.581C630.324 282.54 623.274 282.816 615.257 287.24C571.162 260.7 498.315 260.009 452.423 285.581C406.531 311.153 405.011 353.451 449.106 379.991C493.201 406.531 566.047 407.222 611.939 381.65C657.831 356.078 659.352 313.78 615.257 287.24C623.274 282.816 630.324 282.54 635.438 285.581C647.326 293.322 665.434 304.933 678.013 329.538C689.762 352.484 686.168 372.942 684.648 381.788C680.224 401.693 664.881 420.492 638.618 435.145C577.382 469.287 480.207 468.32 421.46 432.933C397.961 418.834 384.276 401.279 379.991 383.171C378.471 375.292 377.088 367.827 378.609 356.216C380.406 341.564 386.211 330.505 386.488 330.091C390.911 321.935 402.522 300.233 433.624 283.369L433.486 283.231Z"></path>
<path fill="#F5F4FB" d="M596.043 95.7927C629.771 116.112 628.665 148.596 593.417 168.225C558.168 187.853 502.324 187.3 468.458 166.981C434.73 146.661 435.836 114.177 471.084 94.5486C506.332 74.9201 562.177 75.473 596.043 95.7927Z"></path>
<path fill="#C5BEED" d="M423.81 338.246C369.486 304.657 357.46 260.009 357.045 228.631C357.045 253.927 373.356 279.084 405.84 298.713C472.881 339.076 584.017 340.181 653.961 301.201C689.901 281.158 708.009 254.341 708.009 227.525C707.456 243.974 706.488 252.544 699.853 270.929C694.739 285.305 685.477 297.607 680.501 304.242C678.151 307.283 656.588 334.79 614.981 351.101C542.825 379.162 466.937 364.924 423.948 338.246H423.81Z"></path>
<path fill="#EFECF8" d="M428.924 89.4341C460.717 72.1555 496.518 63.5853 535.223 64C574.894 64.5529 610.557 73.9525 641.244 92.0605C629.771 85.149 613.737 85.8402 596.181 95.6544C562.454 75.3348 506.471 74.7819 471.223 94.4104C435.974 114.039 434.868 146.384 468.596 166.842C502.324 187.162 558.307 187.715 593.555 168.086C628.803 148.458 629.909 116.112 596.181 95.6544C613.875 85.8402 629.771 85.149 641.244 92.0605C657.417 102.428 706.488 134.22 708.009 201.676C708.009 228.492 690.039 255.171 653.961 275.352C584.017 314.333 473.02 313.227 405.84 272.864C373.218 253.235 357.045 228.078 357.045 202.782C357.46 192.968 357.875 181.909 362.16 168.225C367.274 152.19 371.559 145.279 378.886 133.806C384.553 124.821 402.385 103.81 428.924 89.4341Z"></path>
<path fill="#041B99" d="M567.015 301.892C510.203 308.527 448.968 298.851 405.84 272.864C373.495 253.374 357.184 228.354 357.045 203.197C357.045 186.886 363.68 171.819 375.015 159.793C375.292 182.324 389.806 204.855 418.834 222.272C457.538 245.495 512.415 254.203 563.283 248.259C565.495 266.644 566.877 285.581 567.015 301.892Z"></path>
<path fill="#E5E2F2" d="M357.045 228.631V202.782C357.045 228.078 373.218 253.235 405.84 272.864C472.881 313.227 584.017 314.333 653.961 275.352C689.901 255.309 708.009 228.492 708.009 201.676V227.525C708.147 254.341 690.039 281.019 654.099 301.201C584.156 340.181 473.158 339.076 405.978 298.713C373.356 279.084 357.184 253.927 357.184 228.631H357.045Z"></path>
<path fill="#05A1FF" d="M385.52 229.322C382.064 238.998 376.121 239.689 372.112 230.842C365.339 215.914 372.112 197.944 381.097 200.57C382.756 200.985 383.585 201.952 384.414 202.92C390.082 210.937 387.041 225.037 385.52 229.322Z"></path>
<path fill="#05A1FF" d="M485.045 273.417C482.419 288.069 464.034 290.557 454.773 277.425C445.097 263.741 455.741 248.121 469.287 249.78C469.84 249.78 470.393 249.918 470.946 250.056C482.972 253.512 486.428 265.814 485.045 273.279V273.417Z"></path>
<path fill="#1462FC" d="M648.846 210.523C648.846 201.814 642.764 198.359 635.3 202.644C627.835 206.929 621.753 217.572 621.753 226.143C621.753 234.713 627.835 238.307 635.3 234.022C642.764 229.737 648.846 219.093 648.846 210.523Z"></path>
<path fill="#1D1F33" d="M636.959 222.825C635.715 222.825 634.332 222.272 633.503 221.166C632.121 219.231 632.535 216.605 634.332 215.222L733.304 140.855C735.239 139.473 737.866 139.888 739.248 141.685C740.63 143.62 740.216 146.246 738.419 147.629L639.447 221.996C638.617 222.549 637.788 222.825 636.82 222.825H636.959Z"></path>
<path fill="#1462FC" d="M761.227 138.92C761.227 126.203 750.859 115.836 738.142 115.836C725.425 115.836 715.058 126.203 715.058 138.92C715.058 151.637 725.425 162.004 738.142 162.004C750.859 162.004 761.227 151.637 761.227 138.92Z"></path>
<path fill="#1462FC" d="M393.952 23.0842C393.952 10.3672 383.585 0 370.868 0C358.151 0 347.784 10.3672 347.784 23.0842C347.784 35.8013 358.151 46.1685 370.868 46.1685C383.585 46.1685 393.952 35.8013 393.952 23.0842Z"></path>
<path fill="#05A1FF" d="M669.166 374.6L685.892 384.276C678.842 380.13 668.889 380.682 658.108 387.041L641.382 377.365C652.302 371.145 662.116 370.454 669.166 374.6Z"></path>
<mask height="17" width="45" y="371" x="641" maskUnits="userSpaceOnUse" style="mask-type:luminance" id="mask10_1_959">
<path fill="white" d="M669.166 374.6L685.892 384.276C678.842 380.13 668.889 380.682 658.108 387.041L641.382 377.365C652.302 371.145 662.116 370.454 669.166 374.6Z"></path>
</mask>
<g mask="url(#mask10_1_959)">
<path fill="#05A1FF" d="M658.108 387.041L641.382 377.365C652.302 371.145 662.116 370.454 669.166 374.6L685.892 384.276C678.842 380.13 668.889 380.682 658.108 387.041Z"></path>
</g>
<path fill="#05A1FF" d="M661.978 403.49C676.769 394.92 688.794 401.832 688.933 418.834C688.933 435.836 677.045 456.57 662.116 465.14C647.326 473.711 635.162 466.799 635.162 449.797C635.162 432.795 647.049 411.922 661.978 403.49Z"></path>
<path fill="#05A1FF" d="M630.462 479.793L613.736 470.117C606.687 465.97 602.401 457.4 602.263 444.959C602.263 420.078 619.68 389.806 641.244 377.365L657.969 387.041C636.406 399.482 618.851 429.754 618.989 454.635C618.989 466.937 623.412 475.646 630.462 479.793Z"></path>
<mask height="103" width="56" y="377" x="602" maskUnits="userSpaceOnUse" style="mask-type:luminance" id="mask11_1_959">
<path fill="white" d="M630.462 479.793L613.736 470.117C606.687 465.97 602.401 457.4 602.263 444.959C602.263 420.078 619.68 389.806 641.244 377.365L657.969 387.041C636.406 399.482 618.851 429.754 618.989 454.635C618.989 466.937 623.412 475.646 630.462 479.793Z"></path>
</mask>
<g mask="url(#mask11_1_959)">
<path fill="#05A1FF" d="M630.462 479.793L613.736 470.117C607.516 466.523 603.369 459.197 602.54 448.968L619.265 458.644C620.095 468.873 624.242 476.06 630.462 479.793Z"></path>
<path fill="#05A1FF" d="M619.265 458.644L602.54 448.968C602.54 447.724 602.401 446.341 602.401 444.959C602.401 423.533 615.257 398.099 632.812 383.447L649.537 393.123C632.121 407.775 619.127 433.209 619.127 454.635C619.127 456.017 619.127 457.4 619.265 458.644Z"></path>
<path fill="#05A1FF" d="M649.399 393.261L632.673 383.585C635.438 381.235 638.341 379.162 641.382 377.503L658.107 387.179C655.066 388.838 652.164 390.911 649.399 393.261Z"></path>
</g>
<path fill="#05A1FF" d="M661.978 403.49L658.108 387.179C679.671 374.739 697.365 384.691 697.365 409.572C697.365 434.454 679.948 464.726 658.384 477.166C636.82 489.607 619.127 479.654 619.127 454.773C619.127 429.892 636.544 399.62 658.108 387.179L661.978 403.49C647.187 412.06 635.162 432.795 635.162 449.797C635.162 466.799 647.326 473.711 662.116 465.14C676.907 456.57 688.933 435.836 688.933 418.834C688.933 401.832 676.768 394.92 661.978 403.49Z"></path>
<mask height="102" width="79" y="381" x="619" maskUnits="userSpaceOnUse" style="mask-type:luminance" id="mask12_1_959">
<path fill="white" d="M661.978 403.49L658.108 387.179C679.671 374.739 697.365 384.691 697.365 409.572C697.365 434.454 679.948 464.726 658.384 477.166C636.82 489.607 619.127 479.654 619.127 454.773C619.127 429.892 636.544 399.62 658.108 387.179L661.978 403.49C647.187 412.06 635.162 432.795 635.162 449.797C635.162 466.799 647.326 473.711 662.116 465.14C676.907 456.57 688.933 435.836 688.933 418.834C688.933 401.832 676.768 394.92 661.978 403.49Z"></path>
</mask>
<g mask="url(#mask12_1_959)">
<path fill="#1380FD" d="M661.978 403.49L658.108 387.179C679.671 374.739 697.365 384.691 697.365 409.572C697.365 434.454 679.948 464.726 658.384 477.166C636.82 489.607 619.127 479.654 619.127 454.773C619.127 429.892 636.544 399.62 658.108 387.179L661.978 403.49C647.187 412.06 635.162 432.795 635.162 449.797C635.162 466.799 647.326 473.711 662.116 465.14C676.907 456.57 688.933 435.836 688.933 418.834C688.933 401.832 676.768 394.92 661.978 403.49Z"></path>
</g>
<path fill="#E5E2F2" d="M669.443 633.227L645.391 619.266C642.765 617.745 640.829 614.704 640 609.866L664.052 623.827C664.743 628.665 666.816 631.706 669.443 633.227Z"></path>
<mask height="25" width="30" y="609" x="640" maskUnits="userSpaceOnUse" style="mask-type:luminance" id="mask13_1_959">
<path fill="white" d="M669.443 633.227L645.391 619.266C642.765 617.745 640.829 614.704 640 609.866L664.052 623.827C664.743 628.665 666.816 631.706 669.443 633.227Z"></path>
</mask>
<g mask="url(#mask13_1_959)">
<path fill="#E5E2F2" d="M669.443 633.227L645.391 619.266C642.765 617.745 640.829 614.704 640 610.004L664.052 623.965C664.881 628.665 666.816 631.706 669.443 633.227Z"></path>
<path fill="#E5E2F2" d="M664.052 623.965L640 610.004V609.866L664.052 623.827V623.965Z"></path>
</g>
<path fill="#E5E2F2" d="M690.177 382.203L714.229 396.164C707.179 392.017 697.503 392.57 686.583 398.929L662.531 384.968C673.451 378.609 683.127 378.194 690.177 382.203Z"></path>
<mask height="20" width="53" y="379" x="662" maskUnits="userSpaceOnUse" style="mask-type:luminance" id="mask14_1_959">
<path fill="white" d="M690.177 382.203L714.229 396.164C707.179 392.017 697.503 392.57 686.583 398.929L662.531 384.968C673.451 378.609 683.127 378.194 690.177 382.203Z"></path>
</mask>
<g mask="url(#mask14_1_959)">
<path fill="#E5E2F2" d="M686.583 398.929L662.531 384.968C673.451 378.609 683.127 378.194 690.177 382.203L714.229 396.164C707.179 392.017 697.503 392.57 686.583 398.929Z"></path>
</g>
<path fill="#E5E2F2" d="M664.052 623.827L640 609.866L616.916 463.205L640.968 477.166L664.052 623.827Z"></path>
<path fill="#F5F4FB" d="M679.119 403.076L655.067 389.114L662.393 384.829L686.583 398.929L679.119 403.076Z"></path>
<path fill="#F5F4FB" d="M640.968 477.166L616.916 463.205C613.045 438.186 631.153 402.937 655.205 389.114L679.257 403.076C655.205 416.898 637.097 452.147 640.968 477.166Z"></path>
<mask height="89" width="64" y="389" x="616" maskUnits="userSpaceOnUse" style="mask-type:luminance" id="mask15_1_959">
<path fill="white" d="M640.968 477.166L616.916 463.205C613.045 438.186 631.153 402.937 655.205 389.114L679.257 403.076C655.205 416.898 637.097 452.147 640.968 477.166Z"></path>
</mask>
<g mask="url(#mask15_1_959)">
<path fill="#F5F4FB" d="M640.968 477.166L616.916 463.205C615.672 455.603 616.64 447.032 618.989 438.462L643.041 452.423C640.553 460.994 639.724 469.564 640.968 477.166Z"></path>
<path fill="#F5F4FB" d="M643.041 452.423L618.989 438.462C621.754 428.786 626.454 418.972 632.536 410.402L656.588 424.363C650.505 432.933 645.667 442.747 643.041 452.423Z"></path>
<path fill="#F5F4FB" d="M656.588 424.363L632.536 410.402C637.235 403.905 642.626 397.961 648.57 393.4L672.622 407.361C666.678 411.922 661.149 417.728 656.588 424.363Z"></path>
<path fill="#F5F4FB" d="M672.76 407.499L648.708 393.538C650.782 391.879 652.994 390.497 655.205 389.114L679.257 403.076C677.045 404.32 674.834 405.84 672.76 407.499Z"></path>
</g>
<path fill="#D2CBF6" d="M686.583 398.929C710.635 385.106 728.881 399.205 725.149 428.648L702.894 601.572C701.097 615.257 692.389 626.592 683.542 631.706C674.695 636.821 665.987 635.577 664.052 623.965L640.968 477.305C637.097 452.285 655.205 417.037 679.257 403.214L686.583 398.929Z"></path>
</g>
<defs>
<clipPath id="clip0_1_959">
<rect fill="white" height="1046.25" width="1024"></rect>
</clipPath>
</defs>
</svg>
