<?xml version="1.0" standalone="no"?><!DOCTYPE svg PUBLIC "-//W3C//DTD SVG 1.1//EN" "http://www.w3.org/Graphics/SVG/1.1/DTD/svg11.dtd"><svg height="239" node-id="1" sillyvg="true" template-height="239" template-width="289" version="1.1" viewBox="0 0 289 239" width="289" xmlns="http://www.w3.org/2000/svg" xmlns:xlink="http://www.w3.org/1999/xlink"><defs node-id="102"><linearGradient gradientUnits="objectBoundingBox" id="未命名的渐变_702" node-id="5" spreadMethod="pad" x1="57.61" x2="57.61" y1="95.93" y2="15.08"><stop offset="0" stop-color="#ff6cec"></stop><stop offset="1" stop-color="#ffe0db"></stop></linearGradient><linearGradient gradientUnits="objectBoundingBox" id="未命名的渐变_501" node-id="8" spreadMethod="pad" x1="142.88" x2="142.88" y1="69.73" y2="11.36"><stop offset="0" stop-color="#ccccff"></stop><stop offset="1" stop-color="#8fccff"></stop></linearGradient><linearGradient gradientUnits="objectBoundingBox" id="未命名的渐变_570" node-id="11" spreadMethod="pad" x1="149.87" x2="160.38" y1="32.15" y2="32.15"><stop offset="0" stop-color="#ffa1ec"></stop><stop offset="1" stop-color="#ffc3a3"></stop></linearGradient><linearGradient gradientUnits="objectBoundingBox" id="未命名的渐变_104" node-id="14" spreadMethod="pad" x1="134.45" x2="134.45" y1="73.92" y2="202.42"><stop offset="0" stop-color="#6b70ff"></stop><stop offset="1" stop-color="#4be7ff"></stop></linearGradient><linearGradient gradientUnits="objectBoundingBox" id="未命名的渐变_501-2" node-id="17" spreadMethod="pad" x1="134.64" x2="134.64" y1="172.46" y2="212.54"><stop offset="0" stop-color="#ccccff"></stop><stop offset="1" stop-color="#8fccff"></stop></linearGradient><linearGradient gradientUnits="objectBoundingBox" id="未命名的渐变_104-2" node-id="18" spreadMethod="pad" x1="133.66" x2="133.66" y1="183.42" y2="219.92"><stop offset="0" stop-color="#6b70ff"></stop><stop offset="1" stop-color="#4be7ff"></stop></linearGradient><linearGradient gradientUnits="objectBoundingBox" id="未命名的渐变_104-3" node-id="19" spreadMethod="pad" x1="206.62" x2="206.62" y1="183.42" y2="219.92"><stop offset="0" stop-color="#6b70ff"></stop><stop offset="1" stop-color="#4be7ff"></stop></linearGradient><linearGradient gradientUnits="objectBoundingBox" id="未命名的渐变_104-4" node-id="20" spreadMethod="pad" x1="62.28" x2="62.28" y1="183.42" y2="219.92"><stop offset="0" stop-color="#6b70ff"></stop><stop offset="1" stop-color="#4be7ff"></stop></linearGradient><linearGradient gradientUnits="objectBoundingBox" id="未命名的渐变_104-5" node-id="21" spreadMethod="pad" x1="103.45" x2="103.45" y1="103.72" y2="130.44"><stop offset="0" stop-color="#6b70ff"></stop><stop offset="1" stop-color="#4be7ff"></stop></linearGradient><linearGradient gradientUnits="objectBoundingBox" id="未命名的渐变_411" node-id="22" spreadMethod="pad" x1="103.45" x2="103.45" y1="109.15" y2="126.27"><stop offset="0" stop-color="#3a3fd9"></stop><stop offset="1" stop-color="#3392ff"></stop></linearGradient><linearGradient gradientUnits="objectBoundingBox" id="未命名的渐变_104-6" node-id="25" spreadMethod="pad" x1="165.45" x2="165.45" y1="103.72" y2="130.44"><stop offset="0" stop-color="#6b70ff"></stop><stop offset="1" stop-color="#4be7ff"></stop></linearGradient><linearGradient gradientUnits="objectBoundingBox" id="未命名的渐变_411-2" node-id="26" spreadMethod="pad" x1="165.45" x2="165.45" y1="109.15" y2="126.27"><stop offset="0" stop-color="#3a3fd9"></stop><stop offset="1" stop-color="#3392ff"></stop></linearGradient><linearGradient gradientUnits="objectBoundingBox" id="未命名的渐变_664" node-id="27" spreadMethod="pad" x1="174.83" x2="174.83" y1="184.55" y2="152.78"><stop offset="0" stop-color="#ffccfe"></stop><stop offset="0.00000011920929" stop-color="#fff9db"></stop><stop offset="1" stop-color="#ffcdfd"></stop></linearGradient><linearGradient gradientUnits="objectBoundingBox" id="未命名的渐变_702-2" node-id="31" spreadMethod="pad" x1="158.88" x2="158.88" y1="188.46" y2="144.62"><stop offset="0" stop-color="#ff6cec"></stop><stop offset="1" stop-color="#ffe0db"></stop></linearGradient><linearGradient gradientUnits="objectBoundingBox" id="未命名的渐变_664-2" node-id="32" spreadMethod="pad" x1="93.99" x2="93.99" y1="184.55" y2="152.78"><stop offset="0" stop-color="#ffccfe"></stop><stop offset="0.00000011920929" stop-color="#fff9db"></stop><stop offset="1" stop-color="#ffcdfd"></stop></linearGradient><linearGradient gradientUnits="objectBoundingBox" id="未命名的渐变_702-3" node-id="33" spreadMethod="pad" x1="109.95" x2="109.95" y1="188.46" y2="144.62"><stop offset="0" stop-color="#ff6cec"></stop><stop offset="1" stop-color="#ffe0db"></stop></linearGradient><linearGradient gradientUnits="objectBoundingBox" id="未命名的渐变_664-3" node-id="34" spreadMethod="pad" x1="134.41" x2="134.41" y1="184.55" y2="152.78"><stop offset="0" stop-color="#ffccfe"></stop><stop offset="0.00000011920929" stop-color="#fff9db"></stop><stop offset="1" stop-color="#ffcdfd"></stop></linearGradient><linearGradient gradientUnits="objectBoundingBox" id="未命名的渐变_702-4" node-id="35" spreadMethod="pad" x1="134.41" x2="134.41" y1="188.46" y2="144.62"><stop offset="0" stop-color="#ff6cec"></stop><stop offset="1" stop-color="#ffe0db"></stop></linearGradient><linearGradient gradientUnits="objectBoundingBox" id="未命名的渐变_570-2" node-id="36" spreadMethod="pad" x1="151.5" x2="151.5" y1="47" y2="74"><stop offset="0" stop-color="#ffa1ec"></stop><stop offset="1" stop-color="#ffc3a3"></stop></linearGradient><linearGradient gradientUnits="objectBoundingBox" id="未命名的渐变_529" node-id="37" spreadMethod="pad" x1="202.94" x2="202.94" y1="110.89" y2="149.04"><stop offset="0" stop-color="#f08e71"></stop><stop offset="1" stop-color="#ffdb8c"></stop></linearGradient><linearGradient gradientUnits="objectBoundingBox" id="未命名的渐变_428" node-id="40" spreadMethod="pad" x1="229.14" x2="229.14" y1="90" y2="160"><stop offset="0" stop-color="#ffb999"></stop><stop offset="1" stop-color="#fff533"></stop></linearGradient><linearGradient gradientUnits="objectBoundingBox" id="未命名的渐变_529-2" node-id="43" spreadMethod="pad" x1="234.16" x2="234.16" y1="102.01" y2="154.84"><stop offset="0" stop-color="#f08e71"></stop><stop offset="1" stop-color="#ffdb8c"></stop></linearGradient><linearGradient gradientUnits="objectBoundingBox" id="未命名的渐变_428-2" node-id="44" spreadMethod="pad" x1="228.84" x2="228.84" y1="107.86" y2="139.48"><stop offset="0" stop-color="#ffb999"></stop><stop offset="1" stop-color="#fff533"></stop></linearGradient><linearGradient gradientUnits="objectBoundingBox" id="未命名的渐变_664-4" node-id="45" spreadMethod="pad" x1="51.81" x2="52.29" y1="82.62" y2="36.83"><stop offset="0" stop-color="#ffccfe"></stop><stop offset="0.00000011920929" stop-color="#fff9db"></stop><stop offset="1" stop-color="#ffcdfd"></stop></linearGradient><linearGradient gradientUnits="objectBoundingBox" id="未命名的渐变_664-5" node-id="46" spreadMethod="pad" x1="72.49" x2="72.97" y1="82.84" y2="37.05"><stop offset="0" stop-color="#ffccfe"></stop><stop offset="0.00000011920929" stop-color="#fff9db"></stop><stop offset="1" stop-color="#ffcdfd"></stop></linearGradient><linearGradient gradientUnits="objectBoundingBox" id="未命名的渐变_631" node-id="47" spreadMethod="pad" x1="220.28" x2="234.66" y1="181.52" y2="181.52"><stop offset="0" stop-color="#a1ffe4"></stop><stop offset="1" stop-color="#7df8ff"></stop></linearGradient><linearGradient gradientUnits="objectBoundingBox" id="未命名的渐变_631-2" node-id="50" spreadMethod="pad" x1="220.28" x2="252.44" y1="189.2" y2="189.2"><stop offset="0" stop-color="#a1ffe4"></stop><stop offset="1" stop-color="#7df8ff"></stop></linearGradient><linearGradient gradientUnits="objectBoundingBox" id="未命名的渐变_631-3" node-id="51" spreadMethod="pad" x1="-117.03" x2="-102.64" y1="101.13" y2="101.13"><stop offset="0" stop-color="#a1ffe4"></stop><stop offset="1" stop-color="#7df8ff"></stop></linearGradient><linearGradient gradientUnits="objectBoundingBox" id="未命名的渐变_631-4" node-id="52" spreadMethod="pad" x1="-117.03" x2="-84.87" y1="108.8" y2="108.8"><stop offset="0" stop-color="#a1ffe4"></stop><stop offset="1" stop-color="#7df8ff"></stop></linearGradient></defs><g node-id="376"><path d="M 175.00 56.00 L 174.70 62.10 L 173.70 67.80 L 172.20 73.40 L 170.10 78.70 L 167.50 83.80 L 164.40 88.50 L 160.80 92.90 L 156.90 96.80 L 152.50 100.40 L 147.80 103.50 L 142.70 106.10 L 137.40 108.20 L 131.80 109.70 L 126.10 110.70 L 120.00 111.00 L 113.90 110.70 L 108.20 109.70 L 102.60 108.20 L 97.30 106.10 L 92.20 103.50 L 87.50 100.40 L 83.10 96.80 L 79.20 92.90 L 75.60 88.50 L 72.50 83.80 L 69.90 78.70 L 67.80 73.40 L 66.30 67.80 L 65.30 62.10 L 65.00 56.00 L 65.30 49.90 L 66.30 44.20 L 67.80 38.60 L 69.90 33.30 L 72.50 28.20 L 75.60 23.50 L 79.20 19.10 L 83.10 15.20 L 87.50 11.60 L 92.20 8.50 L 97.30 5.90 L 102.60 3.80 L 108.20 2.30 L 113.90 1.30 L 120.00 1.00 L 126.10 1.30 L 131.80 2.30 L 137.40 3.80 L 142.70 5.90 L 147.80 8.50 L 152.50 11.60 L 156.90 15.20 L 160.80 19.10 L 164.40 23.50 L 167.50 28.20 L 170.10 33.30 L 172.20 38.60 L 173.70 44.20 L 174.70 49.90 L 175.00 56.00 Z" fill="none" group-id="1" node-id="291" stroke="#dfe8ef" stroke-dasharray="5 6" stroke-linecap="round" stroke-width="2" target-height="110" target-width="110" target-x="65" target-y="1"></path><path d="M 111.00 183.00 L 110.70 189.10 L 109.70 194.80 L 108.20 200.40 L 106.10 205.70 L 103.50 210.80 L 100.40 215.50 L 96.80 219.90 L 92.90 223.80 L 88.50 227.40 L 83.80 230.50 L 78.70 233.10 L 73.40 235.20 L 67.80 236.70 L 62.10 237.70 L 56.00 238.00 L 49.90 237.70 L 44.20 236.70 L 38.60 235.20 L 33.30 233.10 L 28.20 230.50 L 23.50 227.40 L 19.10 223.80 L 15.20 219.90 L 11.60 215.50 L 8.50 210.80 L 5.90 205.70 L 3.80 200.40 L 2.30 194.80 L 1.30 189.10 L 1.00 183.00 L 1.30 176.90 L 2.30 171.20 L 3.80 165.60 L 5.90 160.30 L 8.50 155.20 L 11.60 150.50 L 15.20 146.10 L 19.10 142.20 L 23.50 138.60 L 28.20 135.50 L 33.30 132.90 L 38.60 130.80 L 44.20 129.30 L 49.90 128.30 L 56.00 128.00 L 62.10 128.30 L 67.80 129.30 L 73.40 130.80 L 78.70 132.90 L 83.80 135.50 L 88.50 138.60 L 92.90 142.20 L 96.80 146.10 L 100.40 150.50 L 103.50 155.20 L 106.10 160.30 L 108.20 165.60 L 109.70 171.20 L 110.70 176.90 L 111.00 183.00 Z" fill="none" group-id="1" node-id="293" stroke="#dfe8ef" stroke-dasharray="5 6" stroke-linecap="round" stroke-width="2" target-height="110" target-width="110" target-x="1" target-y="128"></path><path d="M 288.00 144.50 L 287.80 150.10 L 287.10 155.50 L 286.00 160.80 L 284.60 165.80 L 282.70 170.80 L 280.50 175.50 L 277.90 180.10 L 275.00 184.40 L 268.20 192.20 L 260.40 199.00 L 256.10 201.90 L 251.50 204.50 L 246.80 206.70 L 241.80 208.60 L 236.80 210.00 L 231.50 211.10 L 226.10 211.80 L 220.50 212.00 L 214.90 211.80 L 209.50 211.10 L 204.20 210.00 L 199.20 208.60 L 194.20 206.70 L 189.50 204.50 L 184.90 201.90 L 176.60 195.70 L 169.30 188.40 L 166.00 184.40 L 163.10 180.10 L 160.50 175.50 L 158.30 170.80 L 156.40 165.80 L 155.00 160.80 L 153.90 155.50 L 153.20 150.10 L 153.00 144.50 L 153.20 138.90 L 153.90 133.50 L 155.00 128.20 L 156.40 123.20 L 158.30 118.20 L 160.50 113.50 L 163.10 108.90 L 169.30 100.60 L 176.60 93.30 L 180.60 90.00 L 184.90 87.10 L 189.50 84.50 L 194.20 82.30 L 199.20 80.40 L 204.20 79.00 L 209.50 77.90 L 214.90 77.20 L 220.50 77.00 L 226.10 77.20 L 231.50 77.90 L 236.80 79.00 L 241.80 80.40 L 246.80 82.30 L 251.50 84.50 L 256.10 87.10 L 260.40 90.00 L 268.20 96.80 L 275.00 104.60 L 277.90 108.90 L 280.50 113.50 L 282.70 118.20 L 284.60 123.20 L 286.00 128.20 L 287.10 133.50 L 287.80 138.90 L 288.00 144.50 Z" fill="none" group-id="1" node-id="295" stroke="#dfe8ef" stroke-dasharray="5 6" stroke-linecap="round" stroke-width="2" target-height="135" target-width="135" target-x="153" target-y="77"></path><path d="M 285.20 113.80 L 285.00 115.00 L 283.90 116.90 L 283.00 117.60 L 280.80 118.20 L 279.70 118.00 L 277.80 116.90 L 276.60 115.00 L 276.60 112.70 L 277.80 110.70 L 279.70 109.60 L 280.80 109.50 L 282.00 109.60 L 283.90 110.70 L 284.60 111.70 L 285.20 113.80 Z" fill="#dfe8ef" fill-rule="nonzero" group-id="1" node-id="297" stroke="none" target-height="8.699997" target-width="8.600006" target-x="276.6" target-y="109.5"></path><path d="M 87.00 63.30 L 86.70 67.40 L 85.90 71.20 L 84.60 74.80 L 82.90 78.20 L 80.80 81.30 L 78.40 84.10 L 75.50 86.60 L 72.40 88.70 L 69.00 90.40 L 65.40 91.60 L 61.60 92.40 L 57.60 92.70 L 53.60 92.40 L 49.80 91.60 L 46.20 90.40 L 42.80 88.70 L 39.70 86.60 L 36.90 84.10 L 34.40 81.30 L 32.30 78.20 L 30.60 74.80 L 29.30 71.20 L 28.50 67.40 L 28.30 63.30 L 28.50 59.30 L 29.30 55.50 L 30.60 51.90 L 32.30 48.50 L 34.40 45.40 L 36.90 42.60 L 39.70 40.10 L 42.80 38.00 L 46.20 36.30 L 49.80 35.10 L 53.60 34.30 L 57.60 34.00 L 61.60 34.30 L 65.40 35.10 L 69.00 36.30 L 72.40 38.00 L 75.50 40.10 L 78.40 42.60 L 80.80 45.40 L 82.90 48.50 L 84.60 51.90 L 85.90 55.50 L 86.70 59.30 L 87.00 63.30 Z" fill="url(#未命名的渐变_702)" fill-rule="nonzero" group-id="1" node-id="299" stroke="none" target-height="58.699997" target-width="58.7" target-x="28.3" target-y="34"></path><path d="M 98.80 61.30 L 98.80 65.10 L 100.00 68.60 L 101.00 70.20 L 102.30 71.60 L 105.50 73.70 L 109.10 74.70 L 112.80 74.40 L 132.50 102.30 L 139.70 97.20 L 120.00 69.20 L 121.00 67.10 L 121.50 65.00 L 121.60 62.80 L 121.30 60.60 L 120.60 58.50 L 119.50 56.50 L 117.90 54.80 L 116.20 53.40 L 114.20 52.50 L 112.00 51.90 L 109.80 51.80 L 107.60 52.10 L 105.40 52.80 L 103.50 53.90 L 101.80 55.40 L 100.50 57.10 L 99.50 59.10 L 98.90 61.30 Z" fill="url(#未命名的渐变_501)" fill-rule="nonzero" group-id="1" node-id="301" stroke="none" target-height="50.500004" target-width="40.899994" target-x="98.8" target-y="51.8"></path><path d="M 105.10 61.70 L 105.00 63.20 L 106.00 65.60 L 108.00 67.30 L 110.40 67.90 L 112.70 67.30 L 114.50 65.70 L 115.50 63.40 L 115.50 62.10 L 115.20 60.80 L 113.90 58.80 L 111.80 57.60 L 110.50 57.30 L 109.10 57.50 L 106.90 58.50 L 105.50 60.50 L 105.10 61.70 Z" fill="url(#未命名的渐变_570)" fill-rule="nonzero" group-id="1" node-id="303" stroke="#ffffff" stroke-linecap="butt" stroke-width="2" target-height="10.600002" target-width="10.5" target-x="105" target-y="57.3"></path><path d="M 134.50 86.10 L 128.10 86.30 L 122.00 87.10 L 116.00 88.20 L 110.20 89.80 L 104.50 91.90 L 99.10 94.30 L 93.90 97.10 L 88.90 100.30 L 84.10 103.80 L 79.70 107.70 L 75.60 111.90 L 71.70 116.30 L 68.20 121.10 L 65.00 126.10 L 62.20 131.40 L 59.80 136.90 L 57.80 142.60 L 56.30 148.50 L 55.10 154.50 L 54.50 160.80 L 54.50 162.20 L 55.80 164.60 L 56.90 165.50 L 59.50 166.30 L 209.40 166.30 L 210.80 166.10 L 213.10 164.60 L 213.90 163.50 L 214.40 160.80 L 213.80 154.50 L 212.60 148.50 L 211.10 142.60 L 209.10 136.90 L 206.60 131.40 L 203.90 126.10 L 200.70 121.10 L 197.20 116.40 L 193.30 111.90 L 189.20 107.70 L 184.70 103.80 L 180.00 100.30 L 175.00 97.10 L 169.80 94.30 L 164.40 91.90 L 158.70 89.80 L 152.90 88.20 L 146.90 87.10 L 140.80 86.30 L 134.50 86.10 Z" fill="url(#未命名的渐变_104)" fill-rule="nonzero" group-id="1" id="_路径_" node-id="64" stroke="none" target-height="80.200005" target-width="159.9" target-x="54.5" target-y="86.1"></path><path d="M 62.70 203.90 L 74.80 203.90 L 78.40 201.20 L 82.30 199.00 L 86.30 197.40 L 90.50 196.10 L 94.70 195.40 L 99.00 195.20 L 103.30 195.40 L 107.50 196.10 L 111.70 197.40 L 115.70 199.00 L 119.60 201.20 L 123.30 203.90 L 145.80 203.90 L 149.40 201.20 L 153.30 199.00 L 157.30 197.40 L 161.50 196.10 L 165.70 195.40 L 170.00 195.20 L 174.30 195.40 L 178.50 196.10 L 182.70 197.40 L 186.70 199.00 L 190.60 201.20 L 194.30 203.90 L 206.60 203.90 L 206.30 199.70 L 205.50 195.70 L 204.20 191.90 L 202.40 188.30 L 200.20 185.10 L 197.60 182.10 L 194.60 179.50 L 191.40 177.30 L 187.80 175.50 L 184.00 174.20 L 180.00 173.40 L 175.80 173.10 L 93.50 173.10 L 89.40 173.40 L 85.50 174.10 L 81.70 175.40 L 78.10 177.20 L 74.80 179.40 L 71.70 182.10 L 69.00 185.20 L 66.80 188.50 L 65.00 192.10 L 63.70 195.90 L 62.90 199.80 L 62.70 203.90 Z" fill="url(#未命名的渐变_501-2)" fill-rule="nonzero" group-id="1" node-id="306" stroke="none" target-height="30.799988" target-width="143.90001" target-x="62.7" target-y="173.1"></path><g node-id="377"><path d="M 133.70 191.60 L 129.30 192.30 L 125.70 194.50 L 123.00 197.70 L 122.10 199.60 L 121.30 203.90 L 122.10 208.20 L 124.20 211.90 L 127.40 214.60 L 131.40 216.00 L 133.70 216.20 L 135.90 216.00 L 138.00 215.50 L 141.60 213.30 L 144.30 210.10 L 145.20 208.20 L 146.00 203.90 L 145.80 201.50 L 145.10 199.20 L 143.90 197.10 L 142.40 195.20 L 140.50 193.60 L 138.40 192.50 L 136.10 191.80 L 133.70 191.60 Z" fill="url(#未命名的渐变_104-2)" fill-rule="nonzero" group-id="1,2" node-id="309" stroke="none" target-height="24.59999" target-width="24.699997" target-x="121.3" target-y="191.6"></path><path d="M 206.60 191.60 L 202.30 192.30 L 198.70 194.50 L 196.00 197.70 L 195.10 199.60 L 194.30 203.90 L 195.10 208.20 L 197.20 211.90 L 200.40 214.60 L 204.40 216.00 L 206.70 216.20 L 208.90 216.00 L 211.00 215.50 L 214.60 213.30 L 217.30 210.10 L 218.20 208.20 L 219.00 203.90 L 218.80 201.50 L 218.10 199.20 L 216.90 197.00 L 215.40 195.20 L 213.50 193.60 L 211.40 192.50 L 209.10 191.80 L 206.60 191.60 Z" fill="url(#未命名的渐变_104-3)" fill-rule="nonzero" group-id="1,2" node-id="311" stroke="none" target-height="24.59999" target-width="24.699997" target-x="194.3" target-y="191.6"></path><path d="M 62.30 191.60 L 58.00 192.30 L 54.30 194.50 L 51.60 197.70 L 50.70 199.60 L 49.90 203.90 L 50.70 208.20 L 52.90 211.90 L 56.10 214.60 L 60.00 216.00 L 62.30 216.20 L 64.50 216.00 L 66.60 215.50 L 70.20 213.30 L 72.90 210.10 L 73.80 208.20 L 74.60 203.90 L 74.40 201.50 L 73.70 199.20 L 72.60 197.10 L 71.00 195.20 L 69.10 193.60 L 67.00 192.50 L 64.70 191.80 L 62.30 191.60 Z" fill="url(#未命名的渐变_104-4)" fill-rule="nonzero" group-id="1,2" node-id="313" stroke="none" target-height="24.59999" target-width="24.699997" target-x="49.9" target-y="191.6"></path><path d="M 68.50 203.90 L 68.30 205.60 L 67.70 207.00 L 66.70 208.30 L 65.40 209.30 L 64.00 209.90 L 62.30 210.10 L 60.60 209.90 L 59.10 209.30 L 57.90 208.30 L 56.90 207.00 L 56.30 205.60 L 56.10 203.90 L 56.30 202.20 L 56.90 200.80 L 57.90 199.50 L 59.10 198.50 L 60.60 197.90 L 62.30 197.70 L 63.90 197.90 L 65.40 198.50 L 66.70 199.50 L 67.70 200.80 L 68.30 202.30 L 68.50 203.90 Z" fill="#ffffff" fill-rule="nonzero" group-id="1,2" id="_路径_2" node-id="70" stroke="none" target-height="12.400009" target-width="12.400002" target-x="56.1" target-y="197.7"></path></g><path d="M 139.90 203.90 L 139.60 205.60 L 139.00 207.00 L 138.10 208.30 L 136.80 209.30 L 135.30 209.90 L 133.70 210.10 L 132.00 209.90 L 130.50 209.30 L 128.30 207.00 L 127.70 205.60 L 127.40 203.90 L 127.70 202.20 L 128.30 200.80 L 129.30 199.50 L 130.50 198.50 L 132.00 197.90 L 133.70 197.70 L 135.30 197.90 L 136.80 198.50 L 138.10 199.50 L 139.00 200.80 L 139.60 202.20 L 139.90 203.90 Z" fill="#ffffff" fill-rule="nonzero" group-id="1" id="_路径_3" node-id="71" stroke="none" target-height="12.400009" target-width="12.499992" target-x="127.4" target-y="197.7"></path><path d="M 212.80 203.90 L 212.60 205.60 L 212.00 207.00 L 211.00 208.30 L 209.80 209.30 L 208.30 209.90 L 206.60 210.10 L 204.90 209.90 L 203.50 209.30 L 202.20 208.30 L 201.20 207.00 L 200.60 205.60 L 200.40 203.90 L 200.60 202.20 L 201.20 200.80 L 202.20 199.50 L 203.50 198.50 L 204.90 197.90 L 206.60 197.70 L 208.30 197.90 L 209.70 198.50 L 211.00 199.50 L 212.00 200.80 L 212.60 202.30 L 212.80 203.90 Z" fill="#ffffff" fill-rule="nonzero" group-id="1" id="_路径_4" node-id="72" stroke="none" target-height="12.400009" target-width="12.400009" target-x="200.4" target-y="197.7"></path><g node-id="378"><path d="M 103.50 98.70 L 100.20 99.00 L 97.30 99.80 L 94.50 101.10 L 92.10 102.90 L 90.00 105.00 L 88.20 107.50 L 86.90 110.20 L 86.10 113.20 L 85.80 116.40 L 86.10 119.60 L 86.90 122.60 L 88.20 125.30 L 90.00 127.80 L 92.10 129.90 L 94.50 131.60 L 97.30 132.90 L 100.20 133.70 L 103.50 134.00 L 106.70 133.70 L 109.60 132.90 L 112.40 131.60 L 114.80 129.90 L 116.90 127.80 L 118.70 125.30 L 120.00 122.60 L 120.80 119.60 L 121.10 116.40 L 120.80 113.20 L 120.00 110.20 L 118.70 107.50 L 116.90 105.00 L 114.80 102.90 L 112.40 101.10 L 109.60 99.80 L 106.70 99.00 L 103.50 98.70 Z" fill="#ffffff" fill-rule="nonzero" group-id="1,3" node-id="320" stroke="none" target-height="35.300003" target-width="35.299995" target-x="85.8" target-y="98.7"></path><path d="M 117.60 116.40 L 117.30 119.20 L 116.50 121.80 L 115.20 124.30 L 113.50 126.40 L 111.40 128.10 L 108.90 129.50 L 106.10 130.30 L 103.40 130.60 L 100.70 130.30 L 98.10 129.50 L 95.70 128.20 L 93.40 126.40 L 91.60 124.20 L 90.30 121.80 L 89.60 119.20 L 89.30 116.40 L 89.50 113.70 L 90.40 111.00 L 91.70 108.50 L 93.40 106.30 L 95.60 104.60 L 98.00 103.30 L 100.60 102.50 L 103.50 102.20 L 106.00 102.50 L 108.40 103.10 L 110.60 104.20 L 112.60 105.60 L 114.30 107.20 L 115.70 109.20 L 116.70 111.40 L 117.40 113.80 L 117.60 116.40 Z" fill="url(#未命名的渐变_104-5)" fill-rule="nonzero" group-id="1,3" id="_路径_5" node-id="75" stroke="none" target-height="28.40001" target-width="28.299995" target-x="89.3" target-y="102.2"></path><path d="M 111.80 116.40 L 111.50 118.60 L 110.60 120.60 L 109.30 122.30 L 107.70 123.60 L 105.70 124.40 L 103.50 124.70 L 101.20 124.40 L 99.20 123.60 L 97.60 122.30 L 96.30 120.60 L 95.40 118.60 L 95.10 116.40 L 95.40 114.10 L 96.30 112.20 L 97.60 110.50 L 99.20 109.20 L 101.20 108.40 L 103.50 108.10 L 105.70 108.40 L 107.70 109.20 L 109.30 110.50 L 110.60 112.20 L 111.50 114.10 L 111.80 116.40 Z" fill="url(#未命名的渐变_411)" fill-rule="nonzero" group-id="1,3" id="_路径_6" node-id="76" stroke="none" target-height="16.599998" target-width="16.700005" target-x="95.1" target-y="108.1"></path><path d="M 113.40 110.90 L 113.10 112.30 L 112.30 113.50 L 111.10 114.30 L 109.70 114.60 L 108.20 114.30 L 107.00 113.50 L 106.30 112.30 L 106.00 110.90 L 106.30 109.40 L 107.00 108.20 L 108.20 107.40 L 109.70 107.10 L 111.10 107.40 L 112.30 108.20 L 113.10 109.40 L 113.40 110.90 Z" fill="#ffffff" fill-rule="nonzero" group-id="1,3" id="_路径_7" node-id="77" stroke="none" target-height="7.5" target-width="7.4000015" target-x="106" target-y="107.1"></path></g><g node-id="379"><path d="M 165.50 98.70 L 162.20 99.00 L 159.30 99.80 L 156.50 101.10 L 154.10 102.90 L 152.00 105.00 L 150.20 107.50 L 148.90 110.20 L 148.10 113.20 L 147.80 116.40 L 148.10 119.60 L 148.90 122.60 L 150.20 125.30 L 152.00 127.80 L 154.10 129.90 L 156.50 131.60 L 159.30 132.90 L 162.20 133.70 L 165.50 134.00 L 168.70 133.70 L 171.60 132.90 L 174.40 131.60 L 176.80 129.90 L 178.90 127.80 L 180.70 125.30 L 182.00 122.60 L 182.80 119.60 L 183.10 116.40 L 182.80 113.20 L 182.00 110.20 L 180.70 107.50 L 178.90 105.00 L 176.80 102.90 L 174.40 101.10 L 171.60 99.80 L 168.70 99.00 L 165.50 98.70 Z" fill="#ffffff" fill-rule="nonzero" group-id="1,4" node-id="327" stroke="none" target-height="35.300003" target-width="35.300003" target-x="147.8" target-y="98.7"></path><path d="M 179.60 116.40 L 179.30 119.20 L 178.50 121.80 L 177.20 124.30 L 175.50 126.40 L 173.40 128.10 L 170.90 129.50 L 168.10 130.30 L 165.40 130.60 L 162.70 130.30 L 160.10 129.50 L 157.70 128.20 L 155.40 126.40 L 153.60 124.20 L 152.30 121.80 L 151.60 119.20 L 151.30 116.40 L 151.50 113.70 L 152.40 111.00 L 153.70 108.50 L 155.40 106.30 L 157.60 104.60 L 160.00 103.30 L 162.60 102.50 L 165.50 102.20 L 168.00 102.50 L 170.40 103.10 L 172.60 104.20 L 174.60 105.60 L 176.30 107.20 L 177.70 109.20 L 178.70 111.40 L 179.40 113.80 L 179.60 116.40 Z" fill="url(#未命名的渐变_104-6)" fill-rule="nonzero" group-id="1,4" id="_路径_8" node-id="80" stroke="none" target-height="28.40001" target-width="28.300003" target-x="151.3" target-y="102.2"></path><path d="M 173.80 116.40 L 173.50 118.60 L 172.60 120.60 L 171.30 122.30 L 169.70 123.60 L 167.70 124.40 L 165.50 124.70 L 163.20 124.40 L 161.20 123.60 L 159.60 122.30 L 158.30 120.60 L 157.40 118.60 L 157.10 116.40 L 157.40 114.10 L 158.30 112.20 L 159.60 110.50 L 161.20 109.20 L 163.20 108.40 L 165.50 108.10 L 167.70 108.40 L 169.70 109.20 L 171.30 110.50 L 172.60 112.20 L 173.50 114.10 L 173.80 116.40 Z" fill="url(#未命名的渐变_411-2)" fill-rule="nonzero" group-id="1,4" id="_路径_9" node-id="81" stroke="none" target-height="16.599998" target-width="16.699997" target-x="157.1" target-y="108.1"></path><path d="M 175.40 110.90 L 175.10 112.30 L 174.30 113.50 L 173.10 114.30 L 171.70 114.60 L 170.30 114.30 L 169.00 113.50 L 168.20 112.30 L 168.00 110.90 L 168.20 109.40 L 169.00 108.20 L 170.30 107.40 L 171.70 107.10 L 173.10 107.40 L 174.30 108.20 L 175.10 109.40 L 175.40 110.90 Z" fill="#ffffff" fill-rule="nonzero" group-id="1,4" id="_路径_10" node-id="82" stroke="none" target-height="7.5" target-width="7.399994" target-x="168" target-y="107.1"></path></g><path d="M 178.00 164.60 L 178.00 173.90 L 177.50 175.00 L 176.50 175.50 L 171.80 175.50 L 171.80 163.00 L 177.00 163.10 L 177.60 163.50 L 178.00 164.60 Z" fill="url(#未命名的渐变_664)" fill-rule="nonzero" group-id="1" node-id="333" stroke="none" target-height="12.5" target-width="6.199997" target-x="171.8" target-y="163"></path><path d="M 171.70 158.60 L 171.70 180.00 L 171.50 181.80 L 170.90 183.40 L 169.90 184.90 L 167.10 187.00 L 163.50 187.90 L 159.70 187.30 L 146.10 180.20 L 146.80 178.80 L 147.10 177.30 L 147.10 161.30 L 146.80 159.70 L 146.10 158.40 L 159.70 151.20 L 163.50 150.60 L 167.10 151.50 L 169.90 153.60 L 170.90 155.10 L 171.50 156.70 L 171.80 158.50 Z" fill="url(#未命名的渐变_702-2)" fill-rule="nonzero" group-id="1" node-id="335" stroke="none" target-height="37.299988" target-width="25.699997" target-x="146.1" target-y="150.6"></path><path d="M 90.90 164.70 L 91.00 174.60 L 91.80 175.40 L 92.40 175.50 L 97.10 175.50 L 97.10 163.10 L 91.80 163.20 L 91.00 164.10 L 90.90 164.70 Z" fill="url(#未命名的渐变_664-2)" fill-rule="nonzero" group-id="1" node-id="337" stroke="none" target-height="12.399994" target-width="6.199997" target-x="90.9" target-y="163.1"></path><path d="M 122.80 180.20 L 109.20 187.40 L 107.20 187.90 L 103.50 187.70 L 101.80 187.10 L 99.00 185.00 L 98.00 183.50 L 97.40 181.90 L 97.10 180.10 L 97.10 158.70 L 97.40 156.80 L 98.00 155.20 L 99.00 153.70 L 101.80 151.60 L 105.30 150.70 L 109.10 151.30 L 122.70 158.40 L 122.00 159.80 L 121.70 161.30 L 121.70 177.30 L 122.00 178.90 L 122.70 180.20 Z" fill="url(#未命名的渐变_702-3)" fill-rule="nonzero" group-id="1" node-id="339" stroke="none" target-height="37.199997" target-width="25.700005" target-x="97.1" target-y="150.7"></path><path d="M 147.10 161.30 L 147.10 177.30 L 146.40 179.60 L 144.70 181.40 L 142.40 182.00 L 126.40 182.00 L 124.10 181.40 L 123.10 180.60 L 121.90 178.50 L 121.70 161.30 L 122.40 159.00 L 124.00 157.30 L 126.40 156.60 L 143.60 156.80 L 145.70 158.00 L 146.90 160.10 L 147.10 161.30 Z" fill="url(#未命名的渐变_664-3)" fill-rule="nonzero" group-id="1" node-id="341" stroke="none" target-height="25.399994" target-width="25.40001" target-x="121.7" target-y="156.6"></path><path d="M 137.30 173.50 L 140.20 170.70 L 141.00 169.30 L 141.30 167.80 L 141.00 166.30 L 140.10 165.00 L 138.80 164.10 L 137.30 163.80 L 135.80 164.10 L 134.40 165.00 L 133.00 164.00 L 131.50 163.70 L 130.00 164.00 L 128.70 164.90 L 127.80 166.20 L 127.50 167.80 L 127.80 169.30 L 128.70 170.60 L 134.50 176.40 Z" fill="url(#未命名的渐变_702-4)" fill-rule="nonzero" group-id="1" node-id="343" stroke="none" target-height="12.699997" target-width="13.800003" target-x="127.5" target-y="163.7"></path><path d="M 134.50 139.20 L 138.40 138.50 L 140.10 137.70 L 143.00 135.20 L 145.00 131.90 L 145.70 128.00 L 123.20 128.00 L 123.90 131.90 L 124.80 133.70 L 127.20 136.60 L 130.50 138.50 L 134.50 139.20 Z" fill="#ffffff" fill-rule="nonzero" group-id="1" id="_路径_11" node-id="89" stroke="none" target-height="11.199997" target-width="22.5" target-x="123.2" target-y="128"></path><path d="M 172.00 64.00 L 160.00 64.00 L 154.00 48.00 L 150.00 73.00 L 146.00 61.00 L 131.00 61.00" fill="none" group-id="1" node-id="346" stroke="url(#未命名的渐变_570-2)" stroke-linecap="round" stroke-width="2" target-height="25" target-width="41" target-x="131" target-y="48"></path><path d="M 218.80 150.80 L 214.40 130.00 L 212.40 108.90 L 202.60 113.70 L 196.20 118.10 L 193.20 120.70 L 190.60 123.50 L 188.60 126.50 L 187.70 128.60 L 187.20 130.80 L 187.30 134.50 L 188.00 136.60 L 189.10 138.60 L 190.70 140.40 L 193.50 142.70 L 196.80 144.70 L 200.40 146.40 L 208.00 148.80 L 218.80 150.80 Z" fill="url(#未命名的渐变_529)" fill-rule="nonzero" group-id="1" node-id="348" stroke="none" target-height="41.9" target-width="31.600006" target-x="187.2" target-y="108.9"></path><g node-id="380"><path d="M 248.30 124.80 L 249.00 134.00 L 248.80 138.20 L 247.40 146.20 L 244.90 152.80 L 243.20 155.50 L 241.30 157.70 L 239.10 159.60 L 236.80 160.80 L 234.30 161.50 L 231.60 161.60 L 229.00 161.10 L 226.40 160.00 L 224.00 158.40 L 221.60 156.30 L 219.20 153.70 L 215.20 147.40 L 212.00 139.60 L 210.90 135.30 L 210.00 130.70 L 209.30 121.50 L 209.50 117.30 L 210.90 109.40 L 213.40 102.70 L 215.10 100.00 L 217.00 97.80 L 219.10 96.00 L 221.50 94.70 L 224.00 94.00 L 226.60 93.90 L 229.20 94.40 L 231.90 95.50 L 234.30 97.10 L 236.70 99.20 L 241.10 104.80 L 244.80 111.90 L 247.40 120.20 L 248.30 124.80 Z" fill="url(#未命名的渐变_428)" fill-rule="nonzero" group-id="1,5" node-id="352" stroke="none" target-height="67.700005" target-width="39.699997" target-x="209.3" target-y="93.9"></path></g><path d="M 246.20 125.20 L 244.00 116.00 L 242.50 112.20 L 240.70 108.50 L 238.70 105.60 L 236.80 103.40 L 235.00 102.00 L 233.40 101.20 L 231.70 100.80 L 230.10 100.80 L 228.60 101.20 L 227.20 102.10 L 225.90 103.40 L 223.80 106.80 L 222.90 109.20 L 222.00 112.90 L 221.50 117.40 L 227.60 119.00 L 230.60 120.20 L 233.10 121.80 L 234.50 123.00 L 235.50 124.40 L 236.10 126.00 L 236.20 128.60 L 235.60 130.30 L 234.70 131.90 L 232.70 134.20 L 230.20 136.30 L 224.90 139.80 L 226.70 143.90 L 230.20 149.30 L 233.20 152.00 L 234.90 152.90 L 236.50 153.30 L 238.10 153.30 L 239.60 152.80 L 241.10 151.90 L 242.40 150.60 L 243.70 148.80 L 244.90 146.10 L 245.90 142.70 L 246.60 138.70 L 246.80 134.60 L 246.20 125.20 Z" fill="url(#未命名的渐变_529-2)" fill-rule="nonzero" group-id="1" node-id="355" stroke="none" target-height="52.5" target-width="25.300003" target-x="221.5" target-y="100.8"></path><path d="M 236.30 126.90 L 235.50 124.40 L 234.50 123.00 L 233.10 121.80 L 230.60 120.20 L 227.60 119.00 L 221.50 117.40 L 221.50 123.10 L 222.00 128.80 L 223.20 134.30 L 224.90 139.80 L 230.20 136.30 L 232.70 134.20 L 234.70 131.90 L 235.60 130.30 L 236.20 128.60 L 236.30 126.90 Z" fill="url(#未命名的渐变_428-2)" fill-rule="nonzero" group-id="1" node-id="357" stroke="none" target-height="22.400002" target-width="14.800003" target-x="221.5" target-y="117.4"></path><path d="M 43.60 48.40 L 60.10 48.40 L 64.80 77.30 L 60.40 78.30 L 57.20 65.90 L 46.20 67.20 L 43.00 78.30 L 38.90 77.50 Z M 47.80 61.70 L 56.10 61.70 L 54.00 53.90 L 50.20 53.60 Z" fill="url(#未命名的渐变_664-4)" fill-rule="nonzero" group-id="1" node-id="359" stroke="none" target-height="29.900002" target-width="25.900002" target-x="38.9" target-y="48.4"></path><path d="M 75.40 48.40 L 76.30 78.20 L 68.80 78.20 L 69.70 48.40 Z" fill="url(#未命名的渐变_664-5)" fill-rule="nonzero" group-id="1" node-id="361" stroke="none" target-height="29.799995" target-width="7.5" target-x="68.8" target-y="48.4"></path><path d="M 222.40 179.50 L 233.50 179.60 L 234.10 180.10 L 234.70 181.50 L 234.60 182.30 L 233.50 183.40 L 221.60 183.40 L 220.90 183.00 L 220.30 181.50 L 220.90 180.10 L 222.40 179.50 Z" fill="url(#未命名的渐变_631)" fill-rule="nonzero" group-id="1" node-id="363" stroke="none" target-height="3.899994" target-width="14.399994" target-x="220.3" target-y="179.5"></path><path d="M 222.40 187.10 L 250.40 187.10 L 251.80 187.70 L 252.50 189.20 L 251.80 190.70 L 250.40 191.30 L 222.40 191.30 L 220.90 190.70 L 220.30 189.20 L 220.90 187.70 L 222.40 187.10 Z" fill="url(#未命名的渐变_631-2)" fill-rule="nonzero" group-id="1" node-id="365" stroke="none" target-height="4.199997" target-width="32.199997" target-x="220.3" target-y="187.1"></path><g node-id="381"><path d="M 33.10 103.20 L 21.90 103.00 L 20.80 101.90 L 20.70 101.10 L 20.80 100.30 L 21.90 99.20 L 33.90 99.20 L 35.00 100.30 L 35.00 101.90 L 33.90 103.00 L 33.10 103.20 Z" fill="url(#未命名的渐变_631-3)" fill-rule="nonzero" group-id="1,6" node-id="369" stroke="none" target-height="4" target-width="14.299999" target-x="20.7" target-y="99.2"></path></g><path d="M 33.10 110.90 L 5.00 110.90 L 4.20 110.70 L 3.10 109.60 L 3.10 108.00 L 4.20 106.90 L 33.10 106.70 L 34.50 107.30 L 35.10 108.80 L 34.50 110.30 L 33.10 110.90 Z" fill="url(#未命名的渐变_631-4)" fill-rule="nonzero" group-id="1,7" node-id="374" stroke="none" target-height="4.2000046" target-width="31.999998" target-x="3.1" target-y="106.7"></path></g></svg>