<?xml version="1.0" standalone="no"?><!DOCTYPE svg PUBLIC "-//W3C//DTD SVG 1.1//EN" "http://www.w3.org/Graphics/SVG/1.1/DTD/svg11.dtd"><svg height="300" node-id="1" sillyvg="true" template-height="300" template-width="300" version="1.1" viewBox="0 0 300 300" width="300" xmlns="http://www.w3.org/2000/svg" xmlns:xlink="http://www.w3.org/1999/xlink"><defs node-id="235"><linearGradient gradientUnits="objectBoundingBox" id="SVGID_1_" node-id="7" spreadMethod="pad" x1="39.7294" x2="32.2829" y1="189.7312" y2="193.1044"><stop offset="0.00502513" stop-color="#5298ef"></stop><stop offset="1" stop-color="#73b0f1" stop-opacity="0"></stop></linearGradient><linearGradient gradientUnits="objectBoundingBox" id="SVGID_2_" node-id="11" spreadMethod="pad" x1="35.7755" x2="49.5796" y1="184.9616" y2="184.9616"><stop offset="0" stop-color="#6dacef"></stop><stop offset="1" stop-color="#97c9fe"></stop></linearGradient><linearGradient gradientUnits="objectBoundingBox" id="SVGID_3_" node-id="15" spreadMethod="pad" x1="42.7922" x2="49.3809" y1="187.9022" y2="182.424"><stop offset="0.00337838" stop-color="#8ebef4"></stop><stop offset="1" stop-color="#b4d8fa"></stop></linearGradient><linearGradient gradientUnits="objectBoundingBox" id="SVGID_4_" node-id="19" spreadMethod="pad" x1="35.747" x2="49.7386" y1="178.7594" y2="178.7594"><stop offset="0" stop-color="#97c3f4"></stop><stop offset="1" stop-color="#e8f1fa"></stop></linearGradient><linearGradient gradientUnits="objectBoundingBox" id="SVGID_5_" node-id="23" spreadMethod="pad" x1="-1428.9304" x2="-1428.9304" y1="757.6027" y2="774.5121"><stop offset="0.00337838" stop-color="#75b2ff"></stop><stop offset="1" stop-color="#75b2ff" stop-opacity="0"></stop></linearGradient><linearGradient gradientUnits="objectBoundingBox" id="SVGID_6_" node-id="27" spreadMethod="pad" x1="-1481.4531" x2="-1481.4531" y1="552.7504" y2="560.0612"><stop offset="0.00337838" stop-color="#75b2ff"></stop><stop offset="1" stop-color="#75b2ff" stop-opacity="0"></stop></linearGradient><linearGradient gradientUnits="objectBoundingBox" id="SVGID_7_" node-id="33" spreadMethod="pad" x1="274.7427" x2="267.2962" y1="191.5406" y2="194.9138"><stop offset="0.00502513" stop-color="#5298ef"></stop><stop offset="1" stop-color="#73b0f1" stop-opacity="0"></stop></linearGradient><linearGradient gradientUnits="objectBoundingBox" id="SVGID_8_" node-id="37" spreadMethod="pad" x1="270.7888" x2="284.5929" y1="186.771" y2="186.771"><stop offset="0" stop-color="#6dacef"></stop><stop offset="1" stop-color="#97c9fe"></stop></linearGradient><linearGradient gradientUnits="objectBoundingBox" id="SVGID_9_" node-id="41" spreadMethod="pad" x1="277.8055" x2="284.3942" y1="189.7116" y2="184.2334"><stop offset="0.00337838" stop-color="#8ebef4"></stop><stop offset="1" stop-color="#b4d8fa"></stop></linearGradient><linearGradient gradientUnits="objectBoundingBox" id="SVGID_10_" node-id="45" spreadMethod="pad" x1="270.7603" x2="284.7519" y1="180.5688" y2="180.5688"><stop offset="0" stop-color="#97c3f4"></stop><stop offset="1" stop-color="#e8f1fa"></stop></linearGradient><linearGradient gradientUnits="objectBoundingBox" id="SVGID_11_" node-id="49" spreadMethod="pad" x1="-1309.8517" x2="-1309.8517" y1="554.9769" y2="571.8865"><stop offset="0.00337838" stop-color="#75b2ff"></stop><stop offset="1" stop-color="#75b2ff" stop-opacity="0"></stop></linearGradient><linearGradient gradientUnits="objectBoundingBox" id="SVGID_12_" node-id="53" spreadMethod="pad" x1="-1356.6895" x2="-1356.6895" y1="307.8089" y2="315.1197"><stop offset="0.00337838" stop-color="#75b2ff"></stop><stop offset="1" stop-color="#75b2ff" stop-opacity="0"></stop></linearGradient><linearGradient gradientUnits="objectBoundingBox" id="SVGID_13_" node-id="58" spreadMethod="pad" x1="145.4906" x2="146.528" y1="267.411" y2="128.7381"><stop offset="0" stop-color="#3282ed"></stop><stop offset="1" stop-color="#60a2f0"></stop></linearGradient><linearGradient gradientUnits="objectBoundingBox" id="SVGID_14_" node-id="62" spreadMethod="pad" x1="52.3948" x2="239.6081" y1="183.722" y2="183.722"><stop offset="0" stop-color="#7ab4f4"></stop><stop offset="1" stop-color="#49a5fa"></stop></linearGradient><linearGradient gradientUnits="objectBoundingBox" id="SVGID_15_" node-id="67" spreadMethod="pad" x1="146.0051" x2="146.0051" y1="223.5985" y2="83.5273"><stop offset="0" stop-color="#3282ed"></stop><stop offset="0.5145" stop-color="#4aa8ef"></stop><stop offset="1" stop-color="#60a2f0"></stop></linearGradient><linearGradient gradientUnits="objectBoundingBox" id="SVGID_16_" node-id="72" spreadMethod="pad" x1="-6.8594" x2="185.4155" y1="259.9098" y2="109.1329"><stop offset="0" stop-color="#3282ed"></stop><stop offset="1" stop-color="#60a2f0"></stop></linearGradient><linearGradient gradientUnits="objectBoundingBox" id="SVGID_17_" node-id="76" spreadMethod="pad" x1="73.749" x2="93.2027" y1="179.9518" y2="164.6967"><stop offset="0" stop-color="#3282ed"></stop><stop offset="1" stop-color="#60a2f0"></stop></linearGradient><linearGradient gradientUnits="objectBoundingBox" id="SVGID_18_" node-id="81" spreadMethod="pad" x1="65" x2="155.9836" y1="90.6842" y2="90.6842"><stop offset="0" stop-color="#4c9cf4"></stop><stop offset="1" stop-color="#acd4fa"></stop></linearGradient><linearGradient gradientUnits="objectBoundingBox" id="SVGID_19_" node-id="85" spreadMethod="pad" x1="76.8641" x2="170.4546" y1="97.1751" y2="97.1751"><stop offset="0" stop-color="#4c9cf4"></stop><stop offset="1" stop-color="#acd4fa"></stop></linearGradient><linearGradient gradientUnits="objectBoundingBox" id="SVGID_20_" node-id="89" spreadMethod="pad" x1="79.5849" x2="170.5685" y1="97.7718" y2="97.7718"><stop offset="0.00337838" stop-color="#a1c8f4"></stop><stop offset="1" stop-color="#dfedfa"></stop></linearGradient><linearGradient gradientUnits="objectBoundingBox" id="SVGID_21_" node-id="93" spreadMethod="pad" x1="79.5849" x2="170.5685" y1="67.3535" y2="67.3535"><stop offset="0.00337838" stop-color="#a1c8f4"></stop><stop offset="1" stop-color="#dfedfa"></stop></linearGradient><linearGradient gradientUnits="objectBoundingBox" id="SVGID_22_" node-id="140" spreadMethod="pad" x1="125.823" x2="146.0702" y1="99.1137" y2="99.1137"><stop offset="0" stop-color="#6dacef"></stop><stop offset="1" stop-color="#97c9fe"></stop></linearGradient><linearGradient gradientUnits="objectBoundingBox" id="SVGID_23_" node-id="144" spreadMethod="pad" x1="125.823" x2="146.0702" y1="116.8147" y2="116.8147"><stop offset="0" stop-color="#6dacef"></stop><stop offset="1" stop-color="#97c9fe"></stop></linearGradient><linearGradient gradientUnits="objectBoundingBox" id="SVGID_24_" node-id="149" spreadMethod="pad" x1="2026.7301" x2="2032.9901" y1="156.0122" y2="168.8127"><stop offset="0" stop-color="#aecdff"></stop><stop offset="0.0562" stop-color="#b6d2ff"></stop><stop offset="0.3126" stop-color="#d6e6ff"></stop><stop offset="0.5607" stop-color="#edf4ff"></stop><stop offset="0.7947" stop-color="#fafcff"></stop><stop offset="1" stop-color="#ffffff"></stop></linearGradient><linearGradient gradientUnits="objectBoundingBox" id="SVGID_25_" node-id="157" spreadMethod="pad" x1="1875.6643" x2="1889.6787" y1="-284.4777" y2="-255.821"><stop offset="0" stop-color="#aecdff"></stop><stop offset="0.0562" stop-color="#b6d2ff"></stop><stop offset="0.3126" stop-color="#d6e6ff"></stop><stop offset="0.5607" stop-color="#edf4ff"></stop><stop offset="0.7947" stop-color="#fafcff"></stop><stop offset="1" stop-color="#ffffff"></stop></linearGradient><linearGradient gradientUnits="objectBoundingBox" id="SVGID_26_" node-id="168" spreadMethod="pad" x1="2019.4987" x2="2039.5404" y1="126.4417" y2="126.4417"><stop offset="0" stop-color="#3282ed"></stop><stop offset="1" stop-color="#60a2f0"></stop></linearGradient><linearGradient gradientUnits="objectBoundingBox" id="SVGID_27_" node-id="174" spreadMethod="pad" x1="154.244" x2="180.7997" y1="107.3386" y2="107.3386"><stop offset="0" stop-color="#3282ed"></stop><stop offset="1" stop-color="#60a2f0"></stop></linearGradient><linearGradient gradientUnits="objectBoundingBox" id="SVGID_28_" node-id="179" spreadMethod="pad" x1="2018.8394" x2="2021.3762" y1="110.5374" y2="110.5374"><stop offset="0" stop-color="#00dbff"></stop><stop offset="0.1675" stop-color="#00bcec"></stop><stop offset="0.5349" stop-color="#016cba"></stop><stop offset="1" stop-color="#010077"></stop></linearGradient><linearGradient gradientUnits="objectBoundingBox" id="SVGID_29_" node-id="185" spreadMethod="pad" x1="2021.6976" x2="2045.1107" y1="108.4146" y2="108.4146"><stop offset="0" stop-color="#00dbff"></stop><stop offset="0.1675" stop-color="#00bcec"></stop><stop offset="0.5349" stop-color="#016cba"></stop><stop offset="1" stop-color="#010077"></stop></linearGradient><linearGradient gradientUnits="objectBoundingBox" id="SVGID_30_" node-id="197" spreadMethod="pad" x1="2036.1042" x2="2050.1187" y1="126.9972" y2="155.6539"><stop offset="0" stop-color="#aecdff"></stop><stop offset="0.0562" stop-color="#b6d2ff"></stop><stop offset="0.3126" stop-color="#d6e6ff"></stop><stop offset="0.5607" stop-color="#edf4ff"></stop><stop offset="0.7947" stop-color="#fafcff"></stop><stop offset="1" stop-color="#ffffff"></stop></linearGradient><linearGradient gradientUnits="objectBoundingBox" id="SVGID_31_" node-id="205" spreadMethod="pad" x1="2023.3883" x2="2027.9993" y1="135.1478" y2="144.5763"><stop offset="0" stop-color="#3282ed"></stop><stop offset="1" stop-color="#60a2f0"></stop></linearGradient><linearGradient gradientUnits="objectBoundingBox" id="SVGID_32_" node-id="210" spreadMethod="pad" x1="242.6913" x2="260.3827" y1="57.6734" y2="57.6734"><stop offset="0" stop-color="#6dacef"></stop><stop offset="1" stop-color="#97c9fe"></stop></linearGradient><linearGradient gradientUnits="objectBoundingBox" id="SVGID_33_" node-id="214" spreadMethod="pad" x1="225" x2="242.7106" y1="57.6573" y2="57.6573"><stop offset="0" stop-color="#3282ed"></stop><stop offset="1" stop-color="#60a2f0"></stop></linearGradient><linearGradient gradientUnits="objectBoundingBox" id="SVGID_34_" node-id="218" spreadMethod="pad" x1="225.0032" x2="260.382" y1="41.6375" y2="41.6375"><stop offset="0" stop-color="#7ab4f4"></stop><stop offset="1" stop-color="#dfedfa"></stop></linearGradient><linearGradient gradientUnits="objectBoundingBox" id="SVGID_35_" node-id="222" spreadMethod="pad" x1="235.8256" x2="235.8256" y1="78.2344" y2="108.5734"><stop offset="0" stop-color="#6dacef"></stop><stop offset="1" stop-color="#97c9fe"></stop></linearGradient><linearGradient gradientUnits="objectBoundingBox" id="SVGID_36_" node-id="226" spreadMethod="pad" x1="246.1656" x2="246.1656" y1="87.8024" y2="118.1414"><stop offset="0" stop-color="#6dacef"></stop><stop offset="1" stop-color="#97c9fe"></stop></linearGradient><linearGradient gradientUnits="objectBoundingBox" id="SVGID_37_" node-id="230" spreadMethod="pad" x1="251.775" x2="251.775" y1="75.1031" y2="105.4421"><stop offset="0" stop-color="#6dacef"></stop><stop offset="1" stop-color="#97c9fe"></stop></linearGradient></defs><g node-id="751"><g node-id="759"><g node-id="771"><path d="M 28.80 191.90 L 35.90 188.10 L 42.80 191.30 L 35.60 194.90 Z" fill="url(#SVGID_1_)" fill-opacity="0.3" fill-rule="nonzero" group-id="1,9,21" node-id="501" stroke="none" target-height="6.799988" target-width="14" target-x="28.8" target-y="188.1"></path></g><path d="M 49.60 182.90 L 42.90 191.30 L 35.90 188.20 L 35.80 178.60 L 49.60 180.30 Z" fill="url(#SVGID_2_)" fill-rule="nonzero" group-id="1,9" node-id="504" stroke="none" target-height="12.699997" target-width="13.799999" target-x="35.8" target-y="178.6"></path><path d="M 42.90 191.30 L 42.90 182.20 L 49.30 178.80 L 49.70 178.80 L 49.80 187.80 Z" fill="url(#SVGID_3_)" fill-rule="nonzero" group-id="1,9" node-id="506" stroke="none" target-height="12.5" target-width="6.8999977" target-x="42.9" target-y="178.8"></path><path d="M 35.80 178.60 L 42.60 175.20 L 49.70 178.80 L 42.90 182.30 Z" fill="url(#SVGID_4_)" fill-rule="nonzero" group-id="1,9" node-id="508" stroke="none" target-height="7.100006" target-width="13.900002" target-x="35.8" target-y="175.2"></path></g><g node-id="760"><path d="M 15.40 192.10 L 15.60 191.20 L 32.60 181.40 L 33.40 181.70 L 33.20 182.50 L 16.20 192.30 L 15.40 192.10 Z" fill="url(#SVGID_5_)" fill-opacity="0.5" fill-rule="nonzero" group-id="1,10" node-id="513" stroke="none" target-height="10.900009" target-width="18.000002" target-x="15.4" target-y="181.4"></path></g><path d="M 27.00 191.00 L 27.10 190.10 L 33.00 186.70 L 33.40 187.10 L 33.20 187.80 L 27.70 191.10 L 27.00 191.00 Z" fill="url(#SVGID_6_)" fill-opacity="0.5" fill-rule="nonzero" group-id="1,11" node-id="518" stroke="none" target-height="4.400009" target-width="6.4000015" target-x="27" target-y="186.7"></path></g><g node-id="752"><g node-id="762"><g node-id="772"><path d="M 263.90 193.70 L 271.00 189.90 L 277.90 193.10 L 270.60 196.70 Z" fill="url(#SVGID_7_)" fill-opacity="0.3" fill-rule="nonzero" group-id="2,12,22" node-id="527" stroke="none" target-height="6.800003" target-width="14" target-x="263.9" target-y="189.9"></path></g><path d="M 284.60 184.70 L 277.90 193.10 L 270.90 190.00 L 270.80 180.50 L 284.60 182.10 Z" fill="url(#SVGID_8_)" fill-rule="nonzero" group-id="2,12" node-id="530" stroke="none" target-height="12.600006" target-width="13.800018" target-x="270.8" target-y="180.5"></path><path d="M 277.90 193.10 L 277.90 184.00 L 284.30 180.60 L 284.80 180.70 L 284.80 189.60 Z" fill="url(#SVGID_9_)" fill-rule="nonzero" group-id="2,12" node-id="532" stroke="none" target-height="12.5" target-width="6.899994" target-x="277.9" target-y="180.6"></path><path d="M 270.80 180.40 L 277.60 177.00 L 284.80 180.70 L 277.90 184.10 Z" fill="url(#SVGID_10_)" fill-rule="nonzero" group-id="2,12" node-id="534" stroke="none" target-height="7.100006" target-width="14" target-x="270.8" target-y="177"></path></g><g node-id="763"><path d="M 250.40 193.90 L 250.60 193.10 L 267.60 183.30 L 268.50 183.50 L 268.20 184.30 L 251.20 194.10 L 250.40 193.90 Z" fill="url(#SVGID_11_)" fill-opacity="0.5" fill-rule="nonzero" group-id="2,13" node-id="539" stroke="none" target-height="10.800003" target-width="18.100006" target-x="250.4" target-y="183.3"></path></g><path d="M 262.00 192.80 L 262.10 191.90 L 268.00 188.50 L 268.40 188.90 L 268.20 189.60 L 262.70 193.00 L 262.00 192.80 Z" fill="url(#SVGID_12_)" fill-opacity="0.5" fill-rule="nonzero" group-id="2,14" node-id="544" stroke="none" target-height="4.5" target-width="6.399994" target-x="262" target-y="188.5"></path></g><g node-id="753"><path d="M 108.20 253.60 L 61.50 226.60 L 58.40 224.60 L 56.10 222.50 L 54.40 220.50 L 53.10 218.10 L 52.50 215.90 L 52.40 213.70 L 52.50 182.20 L 52.90 180.40 L 53.80 178.60 L 56.60 175.50 L 58.80 174.00 L 131.60 132.20 L 137.40 130.40 L 142.10 129.80 L 147.10 129.70 L 152.10 130.20 L 157.10 131.20 L 160.30 132.20 L 166.20 134.90 L 230.50 172.10 L 233.40 174.00 L 235.60 175.90 L 237.30 177.80 L 238.60 180.00 L 239.30 182.10 L 239.60 184.10 L 239.60 215.00 L 239.00 218.50 L 236.90 221.80 L 233.20 224.70 L 160.40 266.50 L 154.60 268.30 L 149.90 268.90 L 144.90 269.00 L 139.80 268.50 L 131.60 266.40 L 128.60 265.20 L 121.90 261.50" fill="url(#SVGID_13_)" fill-rule="nonzero" group-id="3" node-id="550" stroke="none" target-height="139.3" target-width="187.20001" target-x="52.4" target-y="129.7"></path><path d="M 162.90 234.10 L 233.20 193.50 L 235.50 191.90 L 237.20 190.30 L 238.40 188.60 L 239.20 186.90 L 239.60 185.00 L 239.60 183.10 L 239.10 181.20 L 238.20 179.20 L 235.40 175.60 L 230.50 172.10 L 163.40 133.50 L 157.10 131.20 L 152.20 130.20 L 147.10 129.70 L 142.10 129.80 L 137.40 130.40 L 131.60 132.20 L 58.80 174.00 L 56.50 175.50 L 54.80 177.20 L 53.60 178.80 L 52.90 180.50 L 52.50 182.40 L 52.50 184.30 L 52.90 186.20 L 53.80 188.20 L 56.60 191.80 L 61.50 195.40 L 128.60 234.00 L 134.90 236.20 L 139.90 237.20 L 144.90 237.70 L 149.90 237.70 L 154.60 237.00 L 157.70 236.30 L 162.90 234.10 Z" fill="url(#SVGID_14_)" fill-rule="nonzero" group-id="3" node-id="552" stroke="none" target-height="108" target-width="187.1" target-x="52.5" target-y="129.7"></path><g node-id="765"><path d="M 52.40 140.40 L 52.50 138.50 L 52.90 136.70 L 53.80 134.90 L 56.60 131.80 L 58.80 130.30 L 129.10 89.70 L 134.30 87.50 L 137.40 86.70 L 142.10 86.10 L 147.10 86.00 L 152.10 86.50 L 157.10 87.60 L 163.40 89.80 L 230.50 128.40 L 233.40 130.30 L 235.60 132.20 L 237.30 134.10 L 238.60 136.30 L 239.30 138.40 L 239.60 140.50 L 239.50 173.10 L 239.00 174.90 L 236.90 178.10 L 233.20 181.00 L 162.90 221.60 L 157.70 223.80 L 154.60 224.60 L 149.90 225.20 L 144.90 225.30 L 139.80 224.80 L 134.90 223.80 L 131.60 222.80 L 125.80 220.10 L 61.50 182.90 L 58.40 180.90 L 56.10 178.80 L 54.40 176.80 L 53.10 174.40 L 52.50 172.20 L 52.40 140.40 Z" fill="url(#SVGID_15_)" fill-rule="nonzero" group-id="3,15" node-id="556" stroke="none" target-height="139.3" target-width="187.20001" target-x="52.4" target-y="86"></path><path d="M 106.70 177.80 L 125.80 188.80 L 131.60 191.50 L 134.90 192.50 L 139.80 193.60 L 144.90 194.00 L 149.90 194.00 L 154.60 193.30 L 160.40 191.60 L 233.20 149.80 L 235.50 148.20 L 237.20 146.60 L 238.40 144.90 L 239.20 143.20 L 239.60 141.30 L 239.50 139.50 L 239.10 137.50 L 238.20 135.50 L 235.40 131.90 L 230.50 128.40 L 163.40 89.80 L 157.10 87.60 L 152.20 86.50 L 147.10 86.00 L 142.10 86.10 L 137.40 86.70 L 134.30 87.50 L 129.10 89.70 L 58.80 130.30 L 56.50 131.90 L 54.80 133.50 L 53.60 135.10 L 52.80 136.90 L 52.40 138.70 L 52.50 140.60 L 52.90 142.50 L 55.00 146.40 L 58.80 149.90 L 71.90 157.70" fill="url(#SVGID_16_)" fill-rule="nonzero" group-id="3,15" node-id="558" stroke="none" target-height="108" target-width="187.20001" target-x="52.4" target-y="86"></path><path d="M 71.30 157.40 L 107.10 178.20" fill="url(#SVGID_17_)" fill-rule="nonzero" group-id="3,15" node-id="560" stroke="none" target-height="20.800003" target-width="35.799995" target-x="71.3" target-y="157.4"></path></g></g><g node-id="754"><g node-id="766"><path d="M 153.70 30.70 L 154.60 30.40 L 155.30 30.50 L 155.80 31.00 L 156.00 32.00 L 156.00 97.80 L 155.70 98.70 L 155.10 99.40 L 65.90 150.90 L 65.30 150.90 L 65.00 150.40 L 65.00 84.60 L 65.70 82.30 L 67.30 80.60 L 153.70 30.70 Z" fill="url(#SVGID_18_)" fill-opacity="0.3" fill-rule="nonzero" group-id="4,16" node-id="568" stroke="none" target-height="120.49999" target-width="91" target-x="65" target-y="30.4"></path></g><path d="M 112.70 67.20 L 165.50 36.60 L 167.40 36.40 L 169.50 37.10 L 170.20 37.70 L 170.50 38.30 L 167.80 103.80 L 167.60 104.60 L 167.00 105.30 L 80.20 157.90 L 77.60 157.00 L 76.90 156.30 L 77.00 89.40 L 78.30 87.20 L 79.20 86.50 L 112.70 67.20" fill="url(#SVGID_19_)" fill-rule="nonzero" group-id="4" node-id="571" stroke="none" target-height="121.49999" target-width="93.6" target-x="76.9" target-y="36.4"></path><path d="M 79.60 119.50 L 79.60 91.60 L 79.80 90.50 L 81.00 88.40 L 168.30 37.80 L 169.20 37.50 L 169.90 37.60 L 170.40 38.10 L 170.60 39.10 L 170.60 104.90 L 170.30 105.80 L 169.70 106.40 L 80.50 157.90 L 79.80 158.00 L 79.60 157.40 L 79.60 127.80" fill="url(#SVGID_20_)" fill-rule="nonzero" group-id="4" node-id="573" stroke="none" target-height="120.5" target-width="91.00001" target-x="79.6" target-y="37.5"></path><path d="M 135.80 64.70 L 79.60 97.20 L 79.80 90.60 L 81.00 88.40 L 81.90 87.70 L 168.30 37.90 L 169.20 37.50 L 169.90 37.70 L 170.40 38.20 L 170.60 44.60" fill="url(#SVGID_21_)" fill-rule="nonzero" group-id="4" node-id="575" stroke="none" target-height="59.699997" target-width="91.00001" target-x="79.6" target-y="37.5"></path><path d="M 92.60 95.20 L 92.30 96.10 L 91.70 96.80 L 91.10 96.80 L 90.80 96.30 L 91.10 95.40 L 91.70 94.70 L 92.30 94.60 L 92.60 95.20 Z" fill="#ffffff" fill-rule="nonzero" group-id="4" node-id="577" stroke="none" target-height="2.2000046" target-width="1.7999954" target-x="90.8" target-y="94.6"></path><path d="M 95.00 93.80 L 94.70 94.70 L 94.10 95.40 L 93.40 95.50 L 93.20 94.90 L 93.40 94.00 L 94.10 93.30 L 94.70 93.20 L 95.00 93.80 Z" fill="#ffffff" fill-rule="nonzero" group-id="4" node-id="579" stroke="none" target-height="2.300003" target-width="1.800003" target-x="93.2" target-y="93.2"></path><path d="M 97.40 92.50 L 97.10 93.40 L 96.50 94.00 L 95.80 94.10 L 95.50 93.50 L 95.80 92.60 L 96.50 91.90 L 97.10 91.90 L 97.40 92.50 Z" fill="#ffffff" fill-rule="nonzero" group-id="4" node-id="581" stroke="none" target-height="2.199997" target-width="1.9000015" target-x="95.5" target-y="91.9"></path><g node-id="767"><g node-id="773"><path d="M 129.70 74.20 L 130.90 74.00 L 131.40 75.20 L 131.40 109.80 L 130.90 111.50 L 129.70 112.80 L 84.10 139.10 L 82.90 139.20 L 82.40 138.10 L 82.40 103.40 L 82.90 101.70 L 84.10 100.40 L 129.70 74.20 Z" fill="#ffffff" fill-opacity="0.3" fill-rule="nonzero" group-id="4,17,23" node-id="587" stroke="none" target-height="65.2" target-width="48.999992" target-x="82.4" target-y="74"></path></g><g node-id="774"><path d="M 135.80 78.10 L 137.10 78.00 L 137.60 79.10 L 137.60 113.70 L 137.10 115.50 L 135.80 116.80 L 90.30 143.00 L 89.10 143.10 L 88.60 142.00 L 88.60 107.30 L 89.10 105.60 L 90.30 104.30 L 135.80 78.10 Z" fill="#ffffff" fill-opacity="0.3" fill-rule="nonzero" group-id="4,17,24" node-id="592" stroke="none" target-height="65.100006" target-width="49.000008" target-x="88.6" target-y="78"></path></g><g node-id="775"><path d="M 143.60 81.70 L 144.80 81.60 L 145.30 82.70 L 145.30 117.40 L 144.80 119.10 L 143.60 120.40 L 98.00 146.60 L 96.80 146.70 L 96.30 145.60 L 96.30 110.90 L 96.80 109.20 L 98.00 107.90 L 143.60 81.70 Z" fill="#ffffff" fill-opacity="0.8" fill-rule="nonzero" group-id="4,17,25" node-id="597" stroke="none" target-height="65.1" target-width="49" target-x="96.3" target-y="81.6"></path></g><g node-id="776"><g node-id="777"><path d="M 122.90 108.40 L 103.10 119.90 L 102.80 119.60 L 102.90 119.10 L 122.90 107.40 L 123.30 107.70 L 122.90 108.40 Z" fill="#6491fb" fill-rule="nonzero" group-id="4,17,26,27" node-id="604" stroke="none" target-height="12.5" target-width="20.5" target-x="102.8" target-y="107.4"></path><path d="M 134.60 101.70 L 126.00 106.70 L 125.60 106.40 L 125.70 105.90 L 134.60 100.70 L 135.00 101.00 L 134.60 101.70 Z" fill="#ff9999" fill-rule="nonzero" group-id="4,17,26,27" node-id="606" stroke="none" target-height="6" target-width="9.400002" target-x="125.6" target-y="100.7"></path></g><g node-id="778"><path d="M 122.90 111.50 L 112.50 117.50 L 112.10 117.20 L 112.20 116.70 L 122.90 110.40 L 123.30 110.70 L 122.90 111.50 Z" fill="#ff9999" fill-rule="nonzero" group-id="4,17,26,28" node-id="611" stroke="none" target-height="7.0999985" target-width="11.200005" target-x="112.1" target-y="110.4"></path><path d="M 110.10 118.80 L 103.10 122.90 L 102.80 122.60 L 102.90 122.10 L 110.10 117.80 L 110.50 118.10 L 110.10 118.80 Z" fill="#ff9999" fill-rule="nonzero" group-id="4,17,26,28" node-id="613" stroke="none" target-height="5.0999985" target-width="7.699997" target-x="102.8" target-y="117.8"></path><path d="M 134.50 104.70 L 125.90 109.70 L 125.50 109.40 L 125.60 109.00 L 134.50 103.70 L 134.90 104.00 L 134.50 104.70 Z" fill="#a69cfb" fill-rule="nonzero" group-id="4,17,26,28" node-id="615" stroke="none" target-height="6" target-width="9.399994" target-x="125.5" target-y="103.7"></path></g><g node-id="779"><path d="M 115.80 106.50 L 103.20 113.80 L 102.80 113.60 L 102.90 113.10 L 115.80 105.50 L 116.20 105.80 L 115.80 106.50 Z" fill="#6491fb" fill-rule="nonzero" group-id="4,17,26,29" node-id="620" stroke="none" target-height="8.300003" target-width="13.399994" target-x="102.8" target-y="105.5"></path><path d="M 123.40 102.20 L 118.00 105.30 L 117.60 105.00 L 117.80 104.50 L 123.40 101.10 L 123.80 101.40 L 123.40 102.20 Z" fill="#a69cfb" fill-rule="nonzero" group-id="4,17,26,29" node-id="622" stroke="none" target-height="4.2000046" target-width="6.2000046" target-x="117.6" target-y="101.1"></path><path d="M 138.70 93.30 L 125.80 100.80 L 125.40 100.50 L 125.50 100.00 L 138.70 92.30 L 139.10 92.60 L 138.70 93.30 Z" fill="#94f2b5" fill-rule="nonzero" group-id="4,17,26,29" node-id="624" stroke="none" target-height="8.5" target-width="13.700005" target-x="125.4" target-y="92.3"></path></g><g node-id="780"><path d="M 126.10 121.60 L 138.70 114.30 L 139.10 113.60 L 138.70 113.30 L 126.10 120.60 L 125.70 121.40 L 126.10 121.60 Z" fill="#6491fb" fill-rule="nonzero" group-id="4,17,26,30" node-id="629" stroke="none" target-height="8.299995" target-width="13.400009" target-x="125.7" target-y="113.3"></path><path d="M 118.50 126.00 L 123.80 122.90 L 124.10 121.90 L 118.50 125.00 L 118.10 125.70 L 118.50 126.00 Z" fill="#94f2b5" fill-rule="nonzero" group-id="4,17,26,30" node-id="631" stroke="none" target-height="4.0999985" target-width="6" target-x="118.1" target-y="121.9"></path><path d="M 103.10 134.90 L 116.00 127.40 L 116.30 126.40 L 103.10 133.90 L 102.80 134.60 L 103.10 134.90 Z" fill="#ff9999" fill-rule="nonzero" group-id="4,17,26,30" node-id="633" stroke="none" target-height="8.499992" target-width="13.5" target-x="102.8" target-y="126.4"></path></g><g node-id="781"><path d="M 111.20 112.20 L 103.10 116.90 L 102.80 116.60 L 102.90 116.10 L 111.20 111.10 L 111.60 111.40 L 111.20 112.20 Z" fill="#a69cfb" fill-rule="nonzero" group-id="4,17,26,31" node-id="638" stroke="none" target-height="5.800003" target-width="8.799995" target-x="102.8" target-y="111.1"></path><path d="M 128.60 102.10 L 113.00 111.20 L 112.60 110.90 L 112.70 110.40 L 128.60 101.10 L 129.00 101.40 L 128.60 102.10 Z" fill="#94f2b5" fill-rule="nonzero" group-id="4,17,26,31" node-id="640" stroke="none" target-height="10.099998" target-width="16.400002" target-x="112.6" target-y="101.1"></path><path d="M 140.20 95.50 L 130.40 101.10 L 130.00 100.80 L 130.10 100.40 L 140.20 94.40 L 140.60 94.70 L 140.20 95.50 Z" fill="#6491fb" fill-rule="nonzero" group-id="4,17,26,31" node-id="642" stroke="none" target-height="6.699997" target-width="10.600006" target-x="130" target-y="94.4"></path></g><g node-id="782"><path d="M 132.10 120.20 L 140.20 115.50 L 140.60 115.80 L 140.40 116.20 L 132.10 121.20 L 131.70 120.90 L 132.10 120.20 Z" fill="#94f2b5" fill-rule="nonzero" group-id="4,17,26,32" node-id="647" stroke="none" target-height="5.699997" target-width="8.900009" target-x="131.7" target-y="115.5"></path><path d="M 114.70 130.20 L 130.30 121.20 L 130.70 121.50 L 130.60 121.90 L 114.70 131.20 L 114.30 130.90 L 114.70 130.20 Z" fill="#ffc99c" fill-rule="nonzero" group-id="4,17,26,32" node-id="649" stroke="none" target-height="10" target-width="16.399994" target-x="114.3" target-y="121.2"></path><path d="M 103.10 136.90 L 112.90 131.20 L 113.30 131.50 L 113.20 131.90 L 103.10 137.90 L 102.80 137.60 L 103.10 136.90 Z" fill="#a69cfb" fill-rule="nonzero" group-id="4,17,26,32" node-id="651" stroke="none" target-height="6.699997" target-width="10.5" target-x="102.8" target-y="131.2"></path></g><g node-id="783"><path d="M 122.90 120.50 L 103.10 131.90 L 102.80 131.60 L 102.90 131.10 L 122.90 119.40 L 123.30 119.70 L 122.90 120.50 Z" fill="#ffc99c" fill-rule="nonzero" group-id="4,17,26,33" node-id="656" stroke="none" target-height="12.499992" target-width="20.5" target-x="102.8" target-y="119.4"></path><path d="M 134.60 113.70 L 126.00 118.70 L 125.60 118.40 L 125.70 118.00 L 134.60 112.70 L 135.00 113.00 L 134.60 113.70 Z" fill="#ff9999" fill-rule="nonzero" group-id="4,17,26,33" node-id="658" stroke="none" target-height="6" target-width="9.400002" target-x="125.6" target-y="112.7"></path></g><g node-id="784"><path d="M 111.20 124.20 L 103.10 128.90 L 102.80 128.60 L 102.90 128.10 L 111.20 123.20 L 111.60 123.50 L 111.20 124.20 Z" fill="#94f2b5" fill-rule="nonzero" group-id="4,17,26,34" node-id="663" stroke="none" target-height="5.699997" target-width="8.799995" target-x="102.8" target-y="123.2"></path><path d="M 128.60 114.20 L 113.00 123.20 L 112.60 122.90 L 112.70 122.40 L 128.60 113.10 L 129.00 113.40 L 128.60 114.20 Z" fill="#6491fb" fill-rule="nonzero" group-id="4,17,26,34" node-id="665" stroke="none" target-height="10.099998" target-width="16.400002" target-x="112.6" target-y="113.1"></path><path d="M 140.20 107.50 L 130.40 113.20 L 130.00 112.90 L 130.10 112.40 L 140.20 106.50 L 140.60 106.80 L 140.20 107.50 Z" fill="#94f2b5" fill-rule="nonzero" group-id="4,17,26,34" node-id="667" stroke="none" target-height="6.699997" target-width="10.600006" target-x="130" target-y="106.5"></path></g><g node-id="785"><path d="M 109.70 122.10 L 103.10 125.90 L 102.80 125.60 L 102.90 125.10 L 109.70 121.00 L 110.10 121.30 L 109.70 122.10 Z" fill="#a69cfb" fill-rule="nonzero" group-id="4,17,26,35" node-id="672" stroke="none" target-height="4.9000015" target-width="7.2999954" target-x="102.8" target-y="121"></path><path d="M 124.20 113.70 L 111.30 121.10 L 110.90 120.90 L 111.00 120.40 L 124.20 112.70 L 124.60 113.00 L 124.20 113.70 Z" fill="#ff9999" fill-rule="nonzero" group-id="4,17,26,35" node-id="674" stroke="none" target-height="8.400002" target-width="13.699997" target-x="110.9" target-y="112.7"></path><path d="M 138.60 105.40 L 125.70 112.80 L 125.30 112.50 L 125.40 112.10 L 138.60 104.40 L 139.00 104.70 L 138.60 105.40 Z" fill="#ffc99c" fill-rule="nonzero" group-id="4,17,26,35" node-id="676" stroke="none" target-height="8.400002" target-width="13.699997" target-x="125.3" target-y="104.4"></path></g></g></g></g><g node-id="755"><path d="M 145.20 86.70 L 145.80 86.60 L 146.10 87.20 L 146.10 99.40 L 145.20 100.80 L 126.70 111.50 L 126.10 111.60 L 125.80 111.10 L 125.80 98.90 L 126.10 98.00 L 126.70 97.40 L 145.20 86.70 Z" fill="url(#SVGID_22_)" fill-opacity="0.3" fill-rule="nonzero" group-id="5" node-id="684" stroke="none" target-height="25" target-width="20.300003" target-x="125.8" target-y="86.6"></path></g><g node-id="756"><path d="M 145.20 104.40 L 145.80 104.30 L 146.10 104.90 L 146.10 117.10 L 145.80 117.90 L 145.20 118.50 L 126.70 129.20 L 126.10 129.30 L 125.80 128.80 L 125.80 116.60 L 126.10 115.70 L 126.70 115.10 L 145.20 104.40 Z" fill="url(#SVGID_23_)" fill-opacity="0.3" fill-rule="nonzero" group-id="6" node-id="689" stroke="none" target-height="25" target-width="20.300003" target-x="125.8" target-y="104.3"></path></g><g node-id="757"><path d="M 181.50 163.90 L 181.20 164.90 L 180.10 165.90 L 177.90 167.00 L 173.80 167.90 L 169.10 168.30 L 164.30 167.90 L 160.30 167.00 L 158.00 165.90 L 156.90 164.90 L 156.60 163.90 L 156.90 162.90 L 158.00 161.80 L 160.30 160.80 L 164.30 159.80 L 169.10 159.50 L 173.80 159.80 L 177.90 160.80 L 180.10 161.80 L 181.20 162.90 L 181.50 163.90 Z" fill="url(#SVGID_24_)" fill-rule="nonzero" group-id="7" node-id="694" stroke="none" target-height="8.800003" target-width="24.899994" target-x="156.6" target-y="159.5"></path><path d="M 175.40 129.30 L 178.00 129.10 L 179.20 129.50 L 181.10 131.20 L 183.70 138.00 L 185.60 144.70 L 186.30 148.10 L 186.60 152.90 L 186.00 155.30 L 183.60 158.30 L 182.60 158.30 L 182.20 157.70 L 175.80 144.60 L 173.50 138.10 L 172.90 135.00 L 172.90 132.50 L 173.30 131.00 L 174.10 130.00 L 175.40 129.30 Z" fill="url(#SVGID_25_)" fill-rule="nonzero" group-id="7" node-id="696" stroke="none" target-height="29.199997" target-width="13.700012" target-x="172.9" target-y="129.1"></path><path d="M 173.00 163.60 L 177.60 158.20 L 179.50 155.50 L 182.80 149.00 L 183.90 145.40 L 184.30 143.00 L 184.00 138.00 L 183.30 135.60 L 182.00 133.20 L 180.20 130.70 L 177.50 128.20 L 174.90 126.40 L 172.40 125.40 L 169.80 124.80 L 167.40 124.60 L 162.70 125.60 L 158.80 127.70 L 156.40 129.70 L 154.80 131.80 L 154.10 133.30 L 153.90 135.60 L 157.10 147.50 L 159.40 154.90 L 162.10 160.90 L 163.20 162.40 L 165.10 163.60 L 168.60 163.90 L 173.00 163.60 Z" fill="#e6edfc" fill-rule="nonzero" group-id="7" node-id="698" stroke="none" target-height="39.299995" target-width="30.40001" target-x="153.9" target-y="124.6"></path><g node-id="768"><path d="M 181.60 116.90 L 181.30 119.10 L 180.50 121.20 L 179.20 123.20 L 177.50 124.90 L 175.40 126.30 L 173.00 127.40 L 170.40 128.00 L 167.70 128.20 L 164.90 128.00 L 162.40 127.40 L 160.00 126.30 L 157.80 124.90 L 156.10 123.20 L 154.80 121.20 L 154.00 119.10 L 153.80 116.90 L 154.00 114.90 L 154.60 113.00 L 155.70 111.20 L 158.70 108.30 L 162.80 106.30 L 167.70 105.60 L 172.50 106.30 L 176.70 108.30 L 179.70 111.20 L 180.70 113.00 L 181.30 114.90 L 181.60 116.90 Z" fill="#f1f5ff" fill-rule="nonzero" group-id="7,18" node-id="702" stroke="none" target-height="22.599998" target-width="27.800003" target-x="153.8" target-y="105.6"></path><path d="M 175.30 115.30 L 176.70 112.20 L 178.50 114.80 L 179.60 118.10 L 179.30 121.00 L 178.80 122.00 L 176.70 123.50 L 174.50 124.20 L 169.50 124.60 L 163.90 124.10 L 161.50 122.70 L 159.90 120.30 L 159.60 118.90 L 159.80 117.50 L 160.40 116.20 L 163.40 112.70 L 164.70 115.70 L 175.30 115.30 Z" fill="url(#SVGID_26_)" fill-rule="nonzero" group-id="7,18" node-id="704" stroke="none" target-height="12.400002" target-width="20" target-x="159.6" target-y="112.2"></path><path d="M 177.60 119.10 L 177.40 119.80 L 176.50 120.70 L 175.20 120.70 L 174.30 119.80 L 174.30 118.50 L 175.20 117.60 L 176.50 117.60 L 177.10 117.90 L 177.60 119.10 Z" fill="#ffffff" fill-rule="nonzero" group-id="7,18" node-id="706" stroke="none" target-height="3.0999985" target-width="3.300003" target-x="174.3" target-y="117.6"></path><path d="M 167.40 119.40 L 167.30 120.10 L 166.40 121.00 L 165.10 121.00 L 164.20 120.10 L 164.20 118.80 L 165.10 117.90 L 166.40 117.90 L 166.90 118.20 L 167.40 119.40 Z" fill="#ffffff" fill-rule="nonzero" group-id="7,18" node-id="708" stroke="none" target-height="3.0999985" target-width="3.199997" target-x="164.2" target-y="117.9"></path></g><path d="M 180.80 113.20 L 180.10 108.60 L 179.30 106.80 L 176.90 103.80 L 173.60 101.90 L 171.70 101.40 L 166.20 101.10 L 160.80 102.00 L 159.10 102.70 L 156.30 104.80 L 154.60 107.80 L 154.30 109.50 L 154.70 113.70 L 157.80 113.70 L 157.80 110.80 L 158.20 109.00 L 159.10 107.20 L 160.60 105.60 L 163.80 104.20 L 166.30 103.80 L 172.10 103.90 L 173.90 104.30 L 176.70 105.60 L 178.10 107.50 L 178.30 109.50 L 180.80 113.20 Z" fill="url(#SVGID_27_)" fill-rule="nonzero" group-id="7" node-id="711" stroke="none" target-height="12.599998" target-width="26.5" target-x="154.3" target-y="101.1"></path><g node-id="769"><path d="M 180.60 112.70 L 180.30 109.80 L 179.80 107.90 L 180.50 110.00 L 180.80 113.20 L 178.30 109.50 L 180.60 112.70 Z" fill="url(#SVGID_28_)" fill-rule="nonzero" group-id="7,19" node-id="715" stroke="none" target-height="5.2999954" target-width="2.5" target-x="178.3" target-y="107.9"></path><path d="M 157.60 113.10 L 157.60 110.30 L 158.00 108.40 L 158.90 106.70 L 160.50 105.10 L 163.60 103.60 L 166.10 103.20 L 170.30 103.20 L 173.00 103.60 L 175.30 104.40 L 176.60 105.20 L 178.00 107.20 L 176.30 105.40 L 172.70 104.00 L 166.30 103.80 L 163.80 104.20 L 160.70 105.60 L 159.10 107.20 L 158.20 109.00 L 157.80 110.80 L 157.80 113.70 L 154.70 113.70 L 154.50 113.10 L 157.60 113.10 Z" fill="url(#SVGID_29_)" fill-rule="nonzero" group-id="7,19" node-id="717" stroke="none" target-height="10.5" target-width="23.5" target-x="154.5" target-y="103.2"></path></g><g node-id="770"><path d="M 159.00 116.70 L 158.70 118.20 L 158.00 119.50 L 157.00 120.30 L 155.80 120.60 L 154.60 120.30 L 153.60 119.50 L 152.90 118.20 L 152.60 116.70 L 152.90 115.20 L 153.60 113.90 L 154.60 113.10 L 155.80 112.80 L 157.00 113.10 L 158.00 113.90 L 158.70 115.20 L 159.00 116.70 Z" fill="#0032c8" fill-rule="nonzero" group-id="7,20" node-id="722" stroke="none" target-height="7.7999954" target-width="6.399994" target-x="152.6" target-y="112.8"></path><path d="M 158.50 116.70 L 158.20 118.20 L 157.50 119.50 L 156.50 120.30 L 155.30 120.60 L 154.10 120.30 L 153.10 119.50 L 152.40 118.20 L 152.10 116.70 L 152.40 115.20 L 153.10 113.90 L 154.10 113.10 L 155.30 112.80 L 156.50 113.10 L 157.50 113.90 L 158.20 115.20 L 158.50 116.70 Z" fill="#b0c6fd" fill-rule="nonzero" group-id="7,20" node-id="724" stroke="none" target-height="7.7999954" target-width="6.399994" target-x="152.1" target-y="112.8"></path><path d="M 157.40 116.70 L 157.20 118.00 L 155.90 119.70 L 155.00 120.00 L 154.10 119.70 L 152.80 118.00 L 152.80 115.40 L 154.10 113.70 L 155.00 113.50 L 155.90 113.70 L 157.20 115.40 L 157.40 116.70 Z" fill="#0055ff" fill-rule="nonzero" group-id="7,20" node-id="726" stroke="none" target-height="6.5" target-width="4.599991" target-x="152.8" target-y="113.5"></path><path d="M 156.10 116.80 L 155.60 118.30 L 155.10 118.70 L 154.00 118.70 L 153.10 117.60 L 153.10 115.90 L 154.00 114.80 L 155.10 114.80 L 155.60 115.20 L 156.10 116.80 Z" fill="#a1c1ff" fill-rule="nonzero" group-id="7,20" node-id="728" stroke="none" target-height="3.899994" target-width="3" target-x="153.1" target-y="114.8"></path><path d="M 155.00 116.50 L 154.80 117.30 L 154.20 117.60 L 153.70 117.30 L 153.50 116.50 L 153.70 115.70 L 154.20 115.40 L 154.80 115.70 L 155.00 116.50 Z" fill="#ffffff" fill-rule="nonzero" group-id="7,20" node-id="730" stroke="none" target-height="2.199997" target-width="1.5" target-x="153.5" target-y="115.4"></path></g><path d="M 160.20 130.40 L 162.30 131.90 L 163.00 132.90 L 163.50 135.40 L 161.30 142.40 L 158.70 148.90 L 157.20 152.00 L 154.50 156.00 L 152.50 157.50 L 148.80 158.30 L 148.00 157.70 L 148.00 157.00 L 151.10 142.70 L 153.20 136.20 L 154.70 133.30 L 156.20 131.40 L 157.40 130.50 L 158.70 130.20 L 160.20 130.40 Z" fill="url(#SVGID_30_)" fill-rule="nonzero" group-id="7" node-id="733" stroke="none" target-height="28.100006" target-width="15.5" target-x="148" target-y="130.2"></path><path d="M 166.70 140.90 L 167.40 143.00 L 168.30 143.90 L 171.00 144.90 L 173.10 145.10 L 175.20 144.90 L 178.30 143.90 L 179.50 142.90 L 180.10 142.00 L 180.40 140.90 L 180.10 139.70 L 179.50 138.80 L 178.30 137.80 L 175.20 136.80 L 173.10 136.60 L 171.00 136.80 L 168.30 137.80 L 167.40 138.70 L 166.70 140.90 Z" fill="url(#SVGID_31_)" fill-rule="nonzero" group-id="7" node-id="735" stroke="none" target-height="8.5" target-width="13.699997" target-x="166.7" target-y="136.6"></path></g><g node-id="758"><path d="M 260.40 63.50 L 242.70 73.70 L 242.70 51.90 L 260.40 41.70 Z" fill="url(#SVGID_32_)" fill-opacity="0.3" fill-rule="nonzero" group-id="8" node-id="739" stroke="none" target-height="31.999996" target-width="17.699997" target-x="242.7" target-y="41.7"></path><path d="M 225.00 63.50 L 242.70 73.70 L 242.70 51.90 L 225.00 41.60 Z" fill="url(#SVGID_33_)" fill-opacity="0.3" fill-rule="nonzero" group-id="8" node-id="741" stroke="none" target-height="32.1" target-width="17.699997" target-x="225" target-y="41.6"></path><path d="M 242.70 51.90 L 225.00 41.60 L 242.60 31.40 L 260.40 41.70 Z" fill="url(#SVGID_34_)" fill-opacity="0.3" fill-rule="nonzero" group-id="8" node-id="743" stroke="none" target-height="20.500002" target-width="35.399994" target-x="225" target-y="31.4"></path><path d="M 235.20 78.20 L 236.40 78.20 L 236.40 108.60 L 235.20 108.60 Z" fill="url(#SVGID_35_)" fill-opacity="0.3" fill-rule="nonzero" group-id="8" node-id="745" stroke="none" target-height="30.400002" target-width="1.199997" target-x="235.2" target-y="78.2"></path><path d="M 245.60 87.70 L 246.80 87.70 L 246.80 118.20 L 245.60 118.20 Z" fill="url(#SVGID_36_)" fill-opacity="0.3" fill-rule="nonzero" group-id="8" node-id="747" stroke="none" target-height="30.5" target-width="1.199997" target-x="245.6" target-y="87.7"></path><path d="M 251.20 75.00 L 252.40 75.00 L 252.40 105.50 L 251.20 105.50 Z" fill="url(#SVGID_37_)" fill-opacity="0.3" fill-rule="nonzero" group-id="8" node-id="749" stroke="none" target-height="30.5" target-width="1.199997" target-x="251.2" target-y="75"></path></g></svg>