<?xml version="1.0" standalone="no"?><!DOCTYPE svg PUBLIC "-//W3C//DTD SVG 1.1//EN" "http://www.w3.org/Graphics/SVG/1.1/DTD/svg11.dtd"><svg t="1733747548964" class="icon" viewBox="0 0 1024 1024" version="1.1" xmlns="http://www.w3.org/2000/svg" p-id="14270" xmlns:xlink="http://www.w3.org/1999/xlink" width="32" height="32"><path d="M853.333333 725.333333c-39.552-13.610667-79.786667-27.946667-128-42.666667-64.554667-19.712-128.896-42.752-128.896-42.752l0-42.666667c0 0 85.333333-85.248 85.333333-256 0-42.666667 0.042667-53.802667 0.042667-84.650667 0-107.349333-77.226667-165.632-169.813333-171.093333L512 85.418667c0 0 0 0 0 0s0 0 0 0l0 0.128c-92.586667 5.461333-169.813333 63.744-169.813333 171.093333 0 30.848 0.042667 41.984 0.042667 84.650667 0 170.752 85.333333 256 85.333333 256l0 42.666667c0 0-64.341333 23.04-128.896 42.752-48.213333 14.72-88.448 29.056-128 42.666667-85.333333 29.354667-85.333333 170.666667-85.333333 170.666667l0 42.666667 426.666667 0 426.666667 0 0-42.666667C938.666667 896 938.666667 754.688 853.333333 725.333333z" fill="#11a5eb" p-id="14271"></path></svg>