<?xml version="1.0" standalone="no"?><!DOCTYPE svg PUBLIC "-//W3C//DTD SVG 1.1//EN" "http://www.w3.org/Graphics/SVG/1.1/DTD/svg11.dtd"><svg height="1024" node-id="1" sillyvg="true" template-height="1024" template-width="1024" version="1.1" viewBox="0 0 1024 1024" width="1024" xmlns="http://www.w3.org/2000/svg" xmlns:xlink="http://www.w3.org/1999/xlink"><defs node-id="65"><linearGradient gradientUnits="objectBoundingBox" id="SVGID_1_" node-id="6" spreadMethod="pad" x1="107.9514" x2="926.902" y1="674.4791" y2="674.4791"><stop offset="0.005154639" stop-color="#8574fd"></stop><stop offset="1" stop-color="#715ef5"></stop></linearGradient><linearGradient gradientUnits="objectBoundingBox" id="SVGID_2_" node-id="12" spreadMethod="pad" x1="107.9514" x2="926.902" y1="402.2965" y2="402.2965"><stop offset="0.005154639" stop-color="#c5bafe"></stop><stop offset="1" stop-color="#e9e6fc"></stop></linearGradient><linearGradient gradientUnits="objectBoundingBox" id="SVGID_3_" node-id="22" spreadMethod="pad" x1="687.9326" x2="926.9048" y1="655.9576" y2="655.9576"><stop offset="0.005154639" stop-color="#7263f3"></stop><stop offset="1" stop-color="#5042d3"></stop></linearGradient><linearGradient gradientUnits="objectBoundingBox" id="SVGID_4_" node-id="26" spreadMethod="pad" x1="107.9514" x2="520.6304" y1="664.7122" y2="664.7122"><stop offset="0.005154639" stop-color="#7263f3"></stop><stop offset="1" stop-color="#5042d3"></stop></linearGradient><linearGradient gradientUnits="objectBoundingBox" id="SVGID_5_" node-id="31" spreadMethod="pad" x1="228.7538" x2="750.0543" y1="381.576" y2="381.576"><stop offset="0" stop-color="#8071fe"></stop><stop offset="0.9948" stop-color="#6052e9"></stop></linearGradient><linearGradient gradientUnits="objectBoundingBox" id="SVGID_6_" node-id="35" spreadMethod="pad" x1="716.6719" x2="750.0543" y1="352.6748" y2="352.6748"><stop offset="0" stop-color="#8071fe"></stop><stop offset="0.9948" stop-color="#6052e9"></stop></linearGradient><linearGradient gradientUnits="objectBoundingBox" id="SVGID_7_" node-id="39" spreadMethod="pad" x1="229.0634" x2="747.9726" y1="307.2086" y2="307.2086"><stop offset="0.005154639" stop-color="#c1b7fe"></stop><stop offset="1" stop-color="#7d6ff8"></stop></linearGradient><linearGradient gradientUnits="objectBoundingBox" id="SVGID_8_" node-id="43" spreadMethod="pad" x1="251.6604" x2="731.1729" y1="307.1638" y2="307.1638"><stop offset="0.005154639" stop-color="#c1b7fe"></stop><stop offset="1" stop-color="#7d6ff8"></stop></linearGradient><linearGradient gradientUnits="objectBoundingBox" id="SVGID_9_" node-id="48" spreadMethod="pad" x1="141.4119" x2="197.1793" y1="294.1828" y2="294.1828"><stop offset="0.005154639" stop-color="#c5bafe"></stop><stop offset="1" stop-color="#e9e6fc"></stop></linearGradient><linearGradient gradientUnits="objectBoundingBox" id="SVGID_10_" node-id="52" spreadMethod="pad" x1="821.7745" x2="866.3884" y1="344.3735" y2="344.3735"><stop offset="0.005154639" stop-color="#c5bafe"></stop><stop offset="1" stop-color="#e9e6fc"></stop></linearGradient><linearGradient gradientUnits="objectBoundingBox" id="SVGID_11_" node-id="56" spreadMethod="pad" x1="364.4816" x2="409.0955" y1="121.3038" y2="121.3038"><stop offset="0.005154639" stop-color="#c5bafe"></stop><stop offset="1" stop-color="#e9e6fc"></stop></linearGradient><linearGradient gradientUnits="objectBoundingBox" id="SVGID_12_" node-id="60" spreadMethod="pad" x1="517.4267" x2="676.7791" y1="758.506" y2="758.506"><stop offset="0" stop-color="#5042d3"></stop><stop offset="0.9948" stop-color="#6353e2"></stop></linearGradient></defs><g node-id="195"><path d="M 108.00 402.30 L 108.00 754.00 L 108.20 760.60 L 108.90 767.20 L 110.10 773.60 L 111.70 780.10 L 113.80 786.50 L 116.30 792.80 L 119.80 800.10 L 123.90 807.40 L 128.70 814.60 L 134.10 821.80 L 140.20 829.00 L 146.50 835.70 L 153.40 842.30 L 160.90 848.80 L 169.10 855.30 L 177.90 861.70 L 196.20 873.50 L 216.70 884.80 L 227.90 890.30 L 241.90 896.50 L 256.60 902.50 L 272.10 908.30 L 288.50 913.80 L 304.90 918.70 L 321.90 923.30 L 339.60 927.60 L 358.10 931.60 L 376.40 935.00 L 395.40 938.00 L 414.90 940.60 L 435.00 942.80 L 454.90 944.50 L 475.30 945.70 L 496.20 946.40 L 517.50 946.70 L 538.80 946.40 L 559.70 945.70 L 580.10 944.50 L 600.00 942.80 L 620.10 940.60 L 639.60 938.00 L 658.50 935.00 L 676.90 931.60 L 695.40 927.60 L 713.10 923.30 L 730.10 918.70 L 746.40 913.80 L 762.80 908.30 L 778.40 902.50 L 793.10 896.50 L 807.00 890.30 L 818.20 884.80 L 838.80 873.50 L 857.00 861.70 L 865.90 855.30 L 874.00 848.80 L 881.50 842.30 L 888.40 835.70 L 894.70 829.00 L 900.80 821.80 L 906.20 814.60 L 911.00 807.40 L 915.10 800.10 L 918.60 792.80 L 921.10 786.50 L 923.20 780.10 L 924.80 773.60 L 926.00 767.20 L 926.70 760.60 L 926.90 754.00 L 926.90 402.30 L 108.00 402.30 Z" fill="url(#SVGID_1_)" fill-rule="nonzero" group-id="1" node-id="144" stroke="none" target-height="544.4" target-width="818.9" target-x="108" target-y="402.3"></path><path d="M 517.40 815.30 L 496.10 815.00 L 475.30 814.30 L 454.90 813.10 L 434.90 811.40 L 414.80 809.20 L 395.30 806.60 L 376.40 803.60 L 358.00 800.20 L 339.60 796.20 L 321.90 791.90 L 304.80 787.30 L 288.50 782.40 L 272.10 776.90 L 256.60 771.10 L 241.80 765.10 L 227.90 758.90 L 206.10 747.80 L 196.10 742.10 L 177.90 730.30 L 169.10 723.90 L 160.90 717.40 L 153.40 710.90 L 146.50 704.30 L 140.20 697.60 L 134.10 690.40 L 128.70 683.20 L 123.90 676.00 L 119.80 668.70 L 116.30 661.40 L 113.80 655.10 L 111.70 648.70 L 110.10 642.20 L 108.90 635.80 L 108.20 629.20 L 108.00 622.60 L 108.00 658.70 L 108.20 665.30 L 108.90 671.90 L 110.10 678.30 L 111.70 684.80 L 113.80 691.20 L 116.30 697.50 L 119.80 704.80 L 123.90 712.10 L 128.70 719.30 L 134.10 726.50 L 140.20 733.70 L 146.50 740.40 L 153.40 747.00 L 160.90 753.50 L 169.10 760.00 L 177.90 766.40 L 196.20 778.20 L 206.10 783.90 L 227.90 795.00 L 241.90 801.20 L 256.60 807.20 L 272.10 813.00 L 288.50 818.50 L 304.90 823.40 L 321.90 828.00 L 339.60 832.30 L 358.10 836.30 L 376.40 839.70 L 395.40 842.70 L 414.90 845.30 L 435.00 847.50 L 454.90 849.20 L 475.30 850.40 L 496.20 851.10 L 517.50 851.40 L 538.80 851.10 L 559.70 850.40 L 580.10 849.20 L 600.00 847.50 L 620.10 845.30 L 639.60 842.70 L 658.60 839.70 L 676.90 836.30 L 695.40 832.30 L 713.10 828.00 L 730.10 823.40 L 746.50 818.50 L 762.90 813.00 L 778.40 807.20 L 793.10 801.20 L 807.10 795.00 L 828.90 783.90 L 838.80 778.20 L 857.10 766.40 L 865.90 760.00 L 874.10 753.50 L 881.60 747.00 L 888.50 740.40 L 894.80 733.70 L 900.90 726.50 L 906.30 719.30 L 911.10 712.10 L 915.20 704.80 L 918.70 697.50 L 921.20 691.20 L 923.30 684.80 L 924.90 678.30 L 926.10 671.90 L 926.80 665.30 L 927.00 658.70 L 927.00 622.60 L 926.70 629.20 L 926.00 635.80 L 924.90 642.20 L 923.30 648.70 L 921.20 655.10 L 918.60 661.40 L 915.10 668.70 L 911.00 676.00 L 906.30 683.20 L 900.90 690.40 L 894.80 697.60 L 888.50 704.30 L 881.50 710.90 L 874.00 717.40 L 865.90 723.90 L 857.00 730.30 L 838.80 742.10 L 828.80 747.80 L 807.00 758.90 L 793.10 765.10 L 778.30 771.10 L 762.80 776.90 L 746.40 782.40 L 730.00 787.30 L 713.00 791.90 L 695.30 796.20 L 676.80 800.20 L 658.50 803.60 L 639.50 806.60 L 620.00 809.20 L 599.90 811.40 L 580.00 813.10 L 559.60 814.30 L 538.70 815.00 L 517.40 815.30 Z" fill="#7c72ed" fill-rule="nonzero" group-id="1" node-id="146" stroke="none" target-height="228.80005" target-width="819" target-x="108" target-y="622.6"></path><path d="M 517.40 670.70 L 496.10 670.40 L 475.30 669.70 L 454.90 668.50 L 434.90 666.80 L 414.80 664.60 L 395.30 662.00 L 376.40 659.00 L 358.00 655.60 L 339.60 651.60 L 321.90 647.40 L 304.80 642.70 L 288.50 637.80 L 272.10 632.30 L 256.60 626.60 L 241.80 620.50 L 227.90 614.30 L 206.10 603.20 L 196.10 597.50 L 177.90 585.80 L 169.10 579.30 L 160.90 572.80 L 153.40 566.30 L 146.50 559.70 L 140.20 553.00 L 134.10 545.90 L 128.70 538.70 L 123.90 531.40 L 119.80 524.20 L 116.30 516.90 L 113.80 510.50 L 111.70 504.10 L 110.10 497.60 L 108.90 491.20 L 108.20 484.60 L 108.00 478.00 L 108.00 514.10 L 108.20 520.70 L 108.90 527.30 L 110.10 533.70 L 111.70 540.20 L 113.80 546.60 L 116.30 552.90 L 119.80 560.20 L 123.90 567.50 L 128.70 574.70 L 134.10 581.90 L 140.20 589.10 L 146.50 595.80 L 153.40 602.40 L 160.90 608.90 L 169.10 615.40 L 177.90 621.80 L 196.20 633.60 L 206.10 639.30 L 227.90 650.40 L 241.90 656.60 L 256.60 662.60 L 272.10 668.40 L 288.50 673.90 L 304.90 678.80 L 321.90 683.40 L 339.60 687.70 L 358.10 691.70 L 376.40 695.10 L 395.40 698.10 L 414.90 700.70 L 435.00 702.90 L 454.90 704.60 L 475.30 705.80 L 496.20 706.50 L 517.50 706.80 L 538.80 706.50 L 559.70 705.80 L 580.10 704.60 L 600.00 702.90 L 620.10 700.70 L 639.60 698.10 L 658.60 695.10 L 676.90 691.70 L 695.40 687.70 L 713.10 683.40 L 730.10 678.80 L 746.50 673.90 L 762.90 668.40 L 778.40 662.60 L 793.10 656.60 L 807.10 650.40 L 828.90 639.30 L 838.80 633.60 L 857.10 621.80 L 865.90 615.40 L 874.10 608.90 L 881.60 602.40 L 888.50 595.80 L 894.80 589.10 L 900.90 581.90 L 906.30 574.70 L 911.10 567.50 L 915.20 560.20 L 918.70 552.90 L 921.20 546.60 L 923.30 540.20 L 924.90 533.70 L 926.10 527.30 L 926.80 520.70 L 927.00 514.10 L 927.00 478.00 L 926.70 484.60 L 926.00 491.20 L 924.90 497.60 L 923.30 504.10 L 921.20 510.50 L 918.60 516.90 L 915.10 524.20 L 911.00 531.40 L 906.30 538.70 L 900.90 545.90 L 894.80 553.00 L 888.50 559.70 L 881.50 566.30 L 874.00 572.80 L 865.90 579.30 L 857.00 585.80 L 838.80 597.50 L 828.80 603.20 L 807.00 614.30 L 793.10 620.50 L 778.30 626.60 L 762.80 632.30 L 746.40 637.80 L 730.00 642.70 L 713.00 647.40 L 695.30 651.60 L 676.80 655.60 L 658.50 659.00 L 639.50 662.00 L 620.00 664.60 L 599.90 666.80 L 580.00 668.50 L 559.60 669.70 L 538.70 670.40 L 517.40 670.70 Z" fill="#7c72ed" fill-rule="nonzero" group-id="1" node-id="148" stroke="none" target-height="228.79999" target-width="819" target-x="108" target-y="478"></path><path d="M 926.90 402.30 L 926.60 409.90 L 925.60 417.50 L 924.10 425.00 L 921.80 432.50 L 919.00 440.10 L 915.60 447.30 L 911.60 454.40 L 907.00 461.60 L 901.70 468.80 L 895.70 476.00 L 889.50 482.70 L 882.70 489.40 L 875.20 496.00 L 867.00 502.60 L 858.10 509.20 L 849.20 515.20 L 839.70 521.20 L 829.50 527.10 L 818.60 532.90 L 807.00 538.60 L 792.50 545.00 L 777.30 551.20 L 761.30 557.10 L 744.60 562.60 L 727.90 567.60 L 710.60 572.20 L 692.60 576.50 L 674.10 580.30 L 655.60 583.70 L 636.70 586.60 L 617.40 589.20 L 597.70 591.30 L 578.00 592.90 L 558.00 594.10 L 537.80 594.80 L 517.40 595.00 L 497.00 594.80 L 476.80 594.10 L 456.80 592.90 L 437.10 591.30 L 417.40 589.20 L 398.10 586.60 L 379.20 583.70 L 360.70 580.30 L 342.20 576.50 L 324.20 572.20 L 306.90 567.60 L 290.20 562.60 L 273.50 557.10 L 257.50 551.20 L 242.30 545.00 L 227.80 538.60 L 216.20 532.90 L 205.30 527.10 L 195.10 521.20 L 185.60 515.20 L 176.70 509.20 L 167.80 502.60 L 159.60 496.00 L 152.10 489.40 L 145.30 482.70 L 139.10 476.00 L 133.10 468.80 L 127.80 461.60 L 123.20 454.40 L 119.20 447.30 L 115.80 440.10 L 113.00 432.50 L 110.70 425.00 L 109.20 417.50 L 108.20 409.90 L 107.90 402.30 L 108.20 394.70 L 109.20 387.10 L 110.70 379.60 L 113.00 372.10 L 115.80 364.50 L 119.20 357.30 L 123.20 350.20 L 127.80 343.00 L 133.10 335.80 L 139.10 328.60 L 145.30 321.90 L 152.10 315.20 L 159.60 308.60 L 167.80 302.00 L 176.70 295.40 L 185.60 289.40 L 195.10 283.40 L 205.30 277.50 L 216.20 271.70 L 227.80 266.00 L 242.30 259.60 L 257.50 253.40 L 273.50 247.50 L 290.20 242.00 L 306.90 237.00 L 324.20 232.40 L 342.20 228.10 L 360.70 224.30 L 379.20 220.90 L 398.10 218.00 L 417.40 215.40 L 437.10 213.30 L 456.80 211.70 L 476.80 210.50 L 497.00 209.80 L 517.40 209.60 L 537.80 209.80 L 558.00 210.50 L 578.00 211.70 L 597.70 213.30 L 617.40 215.40 L 636.70 218.00 L 655.60 220.90 L 674.10 224.30 L 692.60 228.10 L 710.60 232.40 L 727.90 237.00 L 744.60 242.00 L 761.30 247.50 L 777.30 253.40 L 792.50 259.60 L 807.00 266.00 L 818.60 271.70 L 829.50 277.50 L 839.70 283.40 L 849.20 289.40 L 858.10 295.40 L 867.00 302.00 L 875.20 308.60 L 882.70 315.20 L 889.50 321.90 L 895.70 328.60 L 901.70 335.80 L 907.00 343.00 L 911.60 350.20 L 915.60 357.30 L 919.00 364.50 L 921.80 372.10 L 924.10 379.60 L 925.60 387.10 L 926.60 394.70 L 926.90 402.30 Z" fill="url(#SVGID_2_)" fill-rule="nonzero" group-id="1" node-id="150" stroke="none" target-height="385.4" target-width="819" target-x="107.9" target-y="209.6"></path><g node-id="197"><path d="M 794.40 852.80 L 782.40 852.80 L 782.40 794.70 L 810.60 781.50 L 824.90 774.00 L 839.50 765.80 L 855.20 755.60 L 866.30 747.30 L 872.70 741.80 L 872.70 587.40 L 884.70 575.40 L 884.70 746.90 L 878.50 752.80 L 866.00 762.60 L 857.30 768.80 L 845.60 776.20 L 830.60 784.70 L 815.90 792.30 L 794.30 802.60 L 794.30 852.80 Z" fill="#b1a9f7" fill-rule="nonzero" group-id="1,3" node-id="154" stroke="none" target-height="277.39996" target-width="102.29999" target-x="782.4" target-y="575.4"></path></g><path d="M 734.20 865.70 L 734.20 895.90 L 749.90 891.00 L 764.90 885.90 L 779.20 880.60 L 792.90 875.00 L 806.50 868.90 L 819.30 862.60 L 831.30 856.10 L 842.60 849.50 L 842.60 819.70 L 831.00 826.10 L 818.70 832.50 L 805.80 838.60 L 792.20 844.60 L 764.40 855.50 L 734.20 865.70 Z" fill="#8b80fb" fill-rule="nonzero" group-id="1" node-id="157" stroke="none" target-height="76.20001" target-width="108.39996" target-x="734.2" target-y="819.7"></path><path d="M 312.70 862.30 L 312.70 892.50 L 297.00 887.60 L 282.00 882.50 L 267.70 877.20 L 254.00 871.60 L 240.40 865.50 L 227.60 859.20 L 215.60 852.70 L 204.30 846.10 L 204.30 816.30 L 215.90 822.80 L 228.20 829.10 L 241.10 835.20 L 254.70 841.20 L 282.50 852.20 L 297.30 857.30 L 312.70 862.30 Z" fill="#c2bdfc" fill-rule="nonzero" group-id="1" node-id="159" stroke="none" target-height="76.20001" target-width="108.40001" target-x="204.3" target-y="816.3"></path><path d="M 206.70 680.40 L 199.80 676.60 L 193.00 672.20 L 186.20 667.40 L 173.10 656.80 L 166.70 651.10 L 157.40 642.20 L 140.20 624.10 L 107.90 586.50 L 107.90 600.00 L 130.20 627.90 L 144.90 645.10 L 153.00 653.70 L 161.80 662.30 L 174.10 673.10 L 187.30 682.90 L 194.10 687.20 L 201.10 691.10 L 258.40 720.60 L 258.40 842.70 L 270.40 847.40 L 270.40 713.30 L 206.70 680.40 Z" fill="#b1a9f7" fill-rule="nonzero" group-id="1" node-id="161" stroke="none" target-height="260.90002" target-width="162.5" target-x="107.9" target-y="586.5"></path><g node-id="198"><path d="M 687.90 689.40 L 687.90 797.80 L 705.60 793.70 L 722.60 789.30 L 738.90 784.70 L 754.60 779.70 L 770.30 774.10 L 785.10 768.40 L 799.20 762.40 L 812.50 756.20 L 825.80 749.30 L 838.20 742.40 L 849.60 735.20 L 860.30 728.00 L 868.70 721.60 L 876.50 715.30 L 883.70 708.80 L 890.30 702.40 L 896.30 695.80 L 902.10 688.80 L 907.20 681.80 L 911.70 674.70 L 915.60 667.60 L 919.00 660.50 L 921.80 653.00 L 924.00 645.50 L 925.60 638.00 L 926.60 630.30 L 926.90 622.60 L 926.90 514.20 L 926.60 521.90 L 925.60 529.50 L 924.00 537.10 L 921.80 544.60 L 919.00 552.00 L 915.60 559.20 L 911.70 566.30 L 907.20 573.30 L 902.10 580.40 L 896.30 587.40 L 890.30 593.90 L 883.70 600.40 L 876.50 606.80 L 868.70 613.20 L 860.30 619.50 L 849.60 626.80 L 838.20 633.90 L 825.80 640.90 L 812.50 647.70 L 799.20 653.90 L 785.10 659.90 L 770.30 665.70 L 754.60 671.20 L 738.90 676.20 L 722.60 680.90 L 705.60 685.30 L 687.90 689.40 Z" fill="url(#SVGID_3_)" fill-rule="nonzero" group-id="1,4" node-id="165" stroke="none" target-height="283.59998" target-width="239" target-x="687.9" target-y="514.2"></path><path d="M 520.60 706.80 L 496.10 706.50 L 475.20 705.80 L 454.80 704.60 L 434.90 702.90 L 414.80 700.70 L 395.30 698.10 L 376.30 695.10 L 358.00 691.70 L 339.50 687.70 L 321.80 683.40 L 304.80 678.80 L 288.40 673.90 L 272.00 668.40 L 256.50 662.60 L 241.80 656.60 L 227.80 650.40 L 206.00 639.30 L 196.10 633.60 L 177.80 621.80 L 169.00 615.40 L 160.80 608.90 L 153.30 602.40 L 146.40 595.80 L 140.10 589.10 L 134.00 581.90 L 128.60 574.70 L 123.80 567.50 L 119.70 560.20 L 116.20 552.90 L 113.70 546.60 L 111.60 540.20 L 110.00 533.70 L 108.80 527.30 L 108.10 520.70 L 107.90 514.10 L 107.90 622.50 L 108.10 629.10 L 108.80 635.70 L 110.00 642.10 L 111.60 648.60 L 113.70 655.00 L 116.20 661.30 L 119.70 668.60 L 123.80 675.90 L 128.60 683.10 L 134.00 690.30 L 140.10 697.50 L 146.40 704.20 L 153.30 710.80 L 160.80 717.30 L 169.00 723.80 L 177.80 730.20 L 196.10 742.00 L 216.60 753.30 L 227.80 758.80 L 241.80 765.00 L 256.50 771.00 L 272.00 776.80 L 288.40 782.30 L 304.80 787.20 L 321.80 791.80 L 339.50 796.10 L 358.00 800.10 L 376.30 803.50 L 395.30 806.50 L 414.80 809.10 L 434.90 811.30 L 454.80 813.00 L 475.20 814.20 L 496.10 814.90 L 520.60 815.20 L 520.60 706.80 Z" fill="url(#SVGID_4_)" fill-rule="nonzero" group-id="1,4" node-id="167" stroke="none" target-height="301.10004" target-width="412.69998" target-x="107.9" target-y="514.1"></path></g></g><g node-id="196"><path d="M 750.10 444.50 L 742.70 451.90 L 742.50 458.10 L 741.70 464.00 L 739.50 471.60 L 735.80 479.20 L 729.90 487.20 L 722.00 495.30 L 716.70 499.90 L 705.20 508.80 L 690.70 518.70 L 681.90 523.50 L 676.90 525.50 L 664.40 529.30 L 656.80 530.80 L 640.70 532.90 L 624.20 533.70 L 611.80 533.70 L 588.10 532.40 L 567.50 530.20 L 542.30 526.10 L 393.00 443.60 L 320.30 403.00 L 263.30 370.70 L 239.90 356.80 L 238.20 355.50 L 236.20 353.00 L 234.40 349.70 L 232.90 346.10 L 229.80 335.80 L 228.80 328.00 L 228.80 229.30 L 748.00 255.30 L 750.10 444.50 Z" fill="url(#SVGID_5_)" fill-rule="nonzero" group-id="2" node-id="173" stroke="none" target-height="304.40002" target-width="521.3" target-x="228.8" target-y="229.3"></path><path d="M 743.00 347.70 L 743.00 451.60 L 750.10 444.50 L 748.00 255.30 L 716.70 253.80 L 716.70 347.70 Z" fill="url(#SVGID_6_)" fill-rule="nonzero" group-id="2" node-id="175" stroke="none" target-height="197.8" target-width="33.399963" target-x="716.7" target-y="253.8"></path><path d="M 243.30 261.90 L 539.30 428.00 L 542.40 429.40 L 545.80 430.40 L 565.60 433.50 L 586.30 435.90 L 598.10 436.80 L 610.30 437.30 L 622.90 437.40 L 631.30 437.20 L 647.90 435.80 L 656.10 434.60 L 663.80 433.00 L 671.20 431.10 L 676.60 429.20 L 686.40 424.90 L 699.50 416.40 L 713.10 406.40 L 719.20 401.40 L 728.10 392.70 L 731.90 388.30 L 734.80 384.20 L 737.10 380.30 L 739.00 376.30 L 740.50 372.20 L 742.10 364.20 L 742.60 355.50 L 742.30 349.40 L 741.50 344.20 L 740.30 339.80 L 738.60 335.60 L 736.70 332.00 L 732.40 326.40 L 728.10 322.60 L 724.90 320.50 L 720.30 318.40 L 727.90 309.50 L 734.90 299.40 L 738.30 293.40 L 741.60 286.60 L 743.60 281.90 L 746.50 271.80 L 747.40 266.60 L 747.90 261.20 L 747.80 255.70 L 747.40 251.70 L 745.40 243.30 L 743.80 239.10 L 741.80 235.10 L 739.30 231.00 L 736.30 226.90 L 732.70 222.60 L 728.90 218.80 L 724.30 215.00 L 719.00 211.10 L 712.90 207.10 L 705.80 203.10 L 698.50 199.60 L 691.00 196.50 L 683.30 193.70 L 672.80 190.60 L 662.20 188.10 L 651.40 186.10 L 640.60 184.70 L 629.90 183.70 L 619.30 183.20 L 598.50 183.10 L 574.40 184.60 L 549.70 187.70 L 540.00 189.30 L 520.40 193.40 L 512.70 189.70 L 506.30 187.30 L 499.30 185.00 L 490.30 182.70 L 477.20 180.50 L 469.60 179.80 L 462.00 179.60 L 453.90 179.80 L 445.20 180.60 L 428.10 183.10 L 415.20 185.60 L 403.80 188.30 L 396.00 190.50 L 389.40 192.80 L 382.70 195.90 L 375.80 192.00 L 363.70 186.60 L 355.60 183.70 L 343.80 180.40 L 330.00 177.90 L 322.70 177.30 L 314.80 177.00 L 307.00 177.30 L 298.80 178.10 L 290.20 179.60 L 283.90 181.10 L 277.50 183.10 L 270.80 185.50 L 264.00 188.50 L 256.70 192.30 L 250.70 196.00 L 245.80 199.70 L 241.30 203.70 L 237.70 207.70 L 235.00 211.50 L 232.60 215.60 L 231.00 219.50 L 229.90 223.30 L 228.90 230.90 L 229.00 234.50 L 229.80 239.70 L 231.00 244.40 L 234.20 252.40 L 236.00 255.30 L 238.10 257.80 L 240.50 260.00 L 243.30 261.90 Z" fill="url(#SVGID_7_)" fill-rule="nonzero" group-id="2" node-id="177" stroke="none" target-height="260.4" target-width="519" target-x="228.9" target-y="177"></path><g node-id="199"><path d="M 265.10 263.90 L 538.50 417.30 L 541.40 418.70 L 544.50 419.50 L 562.80 422.40 L 581.90 424.60 L 592.80 425.40 L 604.00 425.90 L 615.70 426.00 L 627.30 425.50 L 638.80 424.50 L 646.30 423.30 L 653.50 421.90 L 660.30 420.10 L 666.90 417.80 L 672.90 415.10 L 678.30 412.00 L 690.00 404.10 L 699.00 397.30 L 704.60 392.70 L 712.90 384.70 L 719.10 376.80 L 721.20 373.20 L 724.30 365.80 L 725.20 362.10 L 726.10 356.40 L 726.30 350.30 L 726.00 344.70 L 725.30 339.90 L 724.20 335.80 L 722.60 331.90 L 720.90 328.70 L 716.90 323.40 L 713.00 319.90 L 710.00 317.90 L 705.70 316.00 L 710.80 310.30 L 717.80 300.60 L 721.60 294.30 L 726.10 285.10 L 728.00 280.00 L 729.50 274.80 L 730.60 269.40 L 731.10 263.80 L 731.20 259.60 L 730.80 255.30 L 730.00 251.00 L 728.80 246.60 L 727.20 242.40 L 725.00 238.20 L 722.20 233.80 L 718.80 229.40 L 715.10 225.50 L 710.60 221.40 L 705.20 217.40 L 698.80 213.20 L 692.20 209.60 L 685.50 206.30 L 678.60 203.40 L 671.40 200.90 L 661.70 198.10 L 651.90 195.80 L 642.00 194.10 L 632.00 192.80 L 622.10 192.00 L 612.30 191.60 L 593.00 191.70 L 570.70 193.30 L 547.80 196.40 L 538.90 198.00 L 520.70 202.00 L 513.10 198.40 L 506.80 196.10 L 499.80 193.90 L 490.80 191.80 L 477.60 190.00 L 469.90 189.50 L 462.30 189.50 L 454.10 190.10 L 445.20 191.20 L 429.60 194.10 L 418.20 196.80 L 408.30 199.70 L 401.80 202.00 L 396.30 204.40 L 391.30 207.40 L 384.90 203.80 L 373.80 198.60 L 366.50 195.80 L 358.60 193.30 L 349.50 191.00 L 336.60 189.00 L 329.50 188.40 L 322.50 188.30 L 315.10 188.70 L 307.50 189.60 L 296.10 192.00 L 284.30 196.10 L 277.40 199.30 L 271.80 202.50 L 267.20 205.60 L 263.00 209.30 L 259.60 212.80 L 257.10 216.40 L 255.00 220.10 L 253.40 223.80 L 252.40 227.40 L 251.70 234.70 L 251.80 238.10 L 252.60 243.10 L 253.80 247.60 L 255.30 251.80 L 258.40 257.80 L 260.30 260.20 L 262.50 262.20 L 265.10 263.90 Z" fill="url(#SVGID_8_)" fill-opacity="0.5" fill-rule="nonzero" group-id="2,5" node-id="181" stroke="none" target-height="237.7" target-width="479.5" target-x="251.7" target-y="188.3"></path></g><path d="M 494.00 321.90 L 501.40 323.60 L 508.90 324.90 L 516.70 325.70 L 524.50 326.10 L 532.30 326.00 L 540.00 325.50 L 553.00 323.60 L 562.00 321.40 L 572.80 317.50 L 578.50 314.70 L 583.30 311.80 L 587.50 308.80 L 591.20 305.50 L 594.70 301.60 L 596.90 298.40 L 598.60 295.20 L 599.90 291.80 L 600.60 288.40 L 600.80 284.90 L 600.40 281.30 L 599.50 277.60 L 582.30 279.10 L 581.10 278.80 L 580.90 278.10 L 601.70 251.30 L 602.60 250.90 L 603.80 251.10 L 641.20 273.10 L 641.20 273.50 L 640.20 274.00 L 623.00 275.50 L 624.20 279.90 L 624.70 284.10 L 624.60 288.30 L 624.00 292.40 L 622.80 296.40 L 621.10 300.30 L 618.90 304.10 L 616.10 307.90 L 612.10 312.30 L 607.20 316.60 L 603.20 319.60 L 593.70 325.20 L 587.70 328.00 L 579.70 331.10 L 571.00 333.70 L 561.90 335.80 L 553.20 337.30 L 543.60 338.50 L 533.60 339.10 L 523.60 339.10 L 513.60 338.60 L 503.60 337.50 L 493.90 335.80 L 484.40 333.50 L 481.60 332.50 L 479.60 331.20 L 477.80 329.10 L 477.40 326.90 L 478.40 324.60 L 480.00 323.30 L 482.30 322.30 L 484.90 321.60 L 487.90 321.20 L 491.00 321.30 L 494.00 321.90 Z M 427.50 292.80 L 410.30 294.30 L 409.30 294.80 L 409.60 295.50 L 446.70 317.20 L 448.50 317.30 L 469.60 290.20 L 469.40 289.50 L 468.20 289.20 L 451.00 290.70 L 450.00 286.90 L 449.70 283.20 L 449.90 279.60 L 450.70 276.10 L 452.00 272.70 L 453.80 269.40 L 456.10 266.20 L 459.10 262.90 L 465.60 257.50 L 469.50 255.00 L 478.10 250.70 L 483.60 248.50 L 495.10 245.30 L 504.30 243.60 L 510.80 242.80 L 518.50 242.30 L 526.20 242.30 L 533.90 242.70 L 541.60 243.50 L 549.10 244.80 L 559.50 247.10 L 562.60 247.10 L 565.60 246.80 L 568.20 246.10 L 570.60 244.90 L 572.20 243.50 L 572.90 242.30 L 573.20 240.10 L 572.10 237.90 L 571.10 236.90 L 569.10 235.60 L 566.20 234.60 L 556.70 232.40 L 547.00 230.70 L 537.10 229.60 L 527.10 229.10 L 517.10 229.10 L 506.80 229.70 L 497.70 230.80 L 485.20 233.10 L 479.40 234.50 L 470.60 237.20 L 463.10 240.10 L 457.20 242.80 L 451.80 245.70 L 446.70 249.00 L 442.20 252.50 L 438.20 256.10 L 434.60 260.00 L 431.50 264.30 L 429.30 268.10 L 427.60 272.00 L 426.50 276.00 L 425.80 280.10 L 425.80 284.20 L 426.30 288.40 L 427.50 292.80" fill="#ffffff" fill-rule="nonzero" group-id="2" node-id="184" stroke="none" target-height="110" target-width="231.90002" target-x="409.3" target-y="229.1"></path></g><path d="M 197.20 294.20 L 196.90 298.00 L 196.20 301.60 L 195.00 305.10 L 193.40 308.30 L 191.40 311.20 L 189.00 313.90 L 186.30 316.30 L 183.40 318.30 L 180.20 319.90 L 176.70 321.10 L 173.10 321.80 L 169.30 322.10 L 165.50 321.80 L 161.90 321.10 L 158.40 319.90 L 155.20 318.30 L 152.30 316.30 L 149.60 313.90 L 147.20 311.20 L 145.20 308.30 L 143.60 305.10 L 142.40 301.60 L 141.70 298.00 L 141.40 294.20 L 141.70 290.40 L 142.40 286.80 L 143.60 283.30 L 145.20 280.10 L 147.20 277.20 L 149.60 274.50 L 152.30 272.10 L 155.20 270.10 L 158.40 268.50 L 161.90 267.30 L 165.50 266.60 L 169.30 266.30 L 173.10 266.60 L 176.70 267.30 L 180.20 268.50 L 183.40 270.10 L 186.30 272.10 L 189.00 274.50 L 191.40 277.20 L 193.40 280.10 L 195.00 283.30 L 196.20 286.80 L 196.90 290.40 L 197.20 294.20 Z" fill="url(#SVGID_9_)" fill-rule="nonzero" node-id="187" stroke="none" target-height="55.80002" target-width="55.800003" target-x="141.4" target-y="266.3"></path><path d="M 866.40 344.40 L 866.20 347.50 L 864.70 353.10 L 863.40 355.70 L 859.90 360.20 L 855.40 363.70 L 852.80 365.00 L 847.20 366.50 L 844.10 366.70 L 838.10 365.90 L 835.40 365.00 L 830.50 362.00 L 826.50 358.00 L 824.80 355.70 L 822.60 350.40 L 822.00 347.50 L 821.80 344.40 L 822.60 338.40 L 823.50 335.70 L 826.50 330.80 L 830.50 326.80 L 835.40 323.80 L 841.00 322.30 L 844.10 322.10 L 847.20 322.30 L 852.80 323.80 L 855.40 325.10 L 859.90 328.60 L 863.40 333.10 L 864.70 335.70 L 866.20 341.30 L 866.40 344.40 Z" fill="url(#SVGID_10_)" fill-rule="nonzero" node-id="189" stroke="none" target-height="44.600006" target-width="44.600037" target-x="821.8" target-y="322.1"></path><path d="M 409.10 121.30 L 408.90 124.40 L 407.40 130.00 L 406.10 132.60 L 402.60 137.10 L 398.10 140.60 L 395.50 141.90 L 389.90 143.40 L 386.80 143.60 L 383.70 143.40 L 378.10 141.90 L 375.50 140.60 L 371.00 137.10 L 367.50 132.60 L 366.20 130.00 L 364.70 124.40 L 364.50 121.30 L 364.70 118.20 L 366.20 112.60 L 367.50 110.00 L 371.00 105.50 L 375.50 102.00 L 378.10 100.70 L 383.70 99.20 L 386.80 99.00 L 389.90 99.20 L 395.50 100.70 L 398.10 102.00 L 402.60 105.50 L 406.10 110.00 L 407.40 112.60 L 408.90 118.20 L 409.10 121.30 Z" fill="url(#SVGID_11_)" fill-rule="nonzero" node-id="191" stroke="none" target-height="44.600006" target-width="44.600006" target-x="364.5" target-y="99"></path><path d="M 517.40 670.70 L 676.80 745.90 L 520.60 846.30 Z" fill="url(#SVGID_12_)" fill-rule="nonzero" node-id="193" stroke="none" target-height="175.59998" target-width="159.39996" target-x="517.4" target-y="670.7"></path></svg>