<?xml version="1.0" standalone="no"?><!DOCTYPE svg PUBLIC "-//W3C//DTD SVG 1.1//EN" "http://www.w3.org/Graphics/SVG/1.1/DTD/svg11.dtd"><svg height="1024" node-id="1" sillyvg="true" template-height="1024" template-width="1024" version="1.1" viewBox="0 0 1024 1024" width="1024" xmlns="http://www.w3.org/2000/svg" xmlns:xlink="http://www.w3.org/1999/xlink"><defs node-id="71"><linearGradient gradientUnits="objectBoundingBox" id="SVGID_1_" node-id="5" spreadMethod="pad" x1="107.9457" x2="913.4055" y1="564.8043" y2="564.8043"><stop offset="0.005154639" stop-color="#c1b7fe"></stop><stop offset="1" stop-color="#7d6ff8"></stop></linearGradient><linearGradient gradientUnits="objectBoundingBox" id="SVGID_2_" node-id="9" spreadMethod="pad" x1="186.7441" x2="471.9139" y1="841.7859" y2="635.83"><stop offset="0.005154639" stop-color="#6052e9"></stop><stop offset="1" stop-color="#8071fe"></stop></linearGradient><linearGradient gradientUnits="objectBoundingBox" id="SVGID_3_" node-id="13" spreadMethod="pad" x1="510.6756" x2="913.4055" y1="753.2657" y2="753.2657"><stop offset="0.005154639" stop-color="#6052e9"></stop><stop offset="1" stop-color="#8071fe"></stop></linearGradient><linearGradient gradientUnits="objectBoundingBox" id="SVGID_4_" node-id="22" spreadMethod="pad" x1="107.9457" x2="913.4055" y1="341.3456" y2="341.3456"><stop offset="0.005154639" stop-color="#c1b7fe"></stop><stop offset="1" stop-color="#7d6ff8"></stop></linearGradient><linearGradient gradientUnits="objectBoundingBox" id="SVGID_5_" node-id="26" spreadMethod="pad" x1="186.7441" x2="471.9139" y1="618.3273" y2="412.3713"><stop offset="0.005154639" stop-color="#c5bafe"></stop><stop offset="1" stop-color="#7d6ff8"></stop></linearGradient><linearGradient gradientUnits="objectBoundingBox" id="SVGID_6_" node-id="30" spreadMethod="pad" x1="510.6756" x2="913.4055" y1="529.807" y2="529.807"><stop offset="0.005154639" stop-color="#c5bafe"></stop><stop offset="1" stop-color="#7d6ff8"></stop></linearGradient><linearGradient gradientUnits="objectBoundingBox" id="SVGID_7_" node-id="45" spreadMethod="pad" x1="451.4506" x2="569.9006" y1="682.2428" y2="682.2428"><stop offset="0.005154639" stop-color="#c5bafe"></stop><stop offset="0.4935" stop-color="#bcb1fd"></stop><stop offset="0.5" stop-color="#7d6ff8"></stop><stop offset="1" stop-color="#8d7ff9"></stop></linearGradient><linearGradient gradientUnits="objectBoundingBox" id="SVGID_8_" node-id="51" spreadMethod="pad" x1="451.4506" x2="569.9006" y1="648.724" y2="648.724"><stop offset="0.005154639" stop-color="#c5bafe"></stop><stop offset="0.4935" stop-color="#bcb1fd"></stop><stop offset="0.5" stop-color="#7d6ff8"></stop><stop offset="1" stop-color="#8d7ff9"></stop></linearGradient><linearGradient gradientUnits="objectBoundingBox" id="SVGID_9_" node-id="58" spreadMethod="pad" x1="451.4506" x2="569.9006" y1="894.5286" y2="894.5286"><stop offset="0.005154639" stop-color="#c5bafe"></stop><stop offset="0.4935" stop-color="#bcb1fd"></stop><stop offset="0.5" stop-color="#7d6ff8"></stop><stop offset="1" stop-color="#8d7ff9"></stop></linearGradient><linearGradient gradientUnits="objectBoundingBox" id="SVGID_10_" node-id="64" spreadMethod="pad" x1="451.4506" x2="569.9006" y1="861.0098" y2="861.0098"><stop offset="0.005154639" stop-color="#c5bafe"></stop><stop offset="0.4935" stop-color="#bcb1fd"></stop><stop offset="0.5" stop-color="#7d6ff8"></stop><stop offset="1" stop-color="#8d7ff9"></stop></linearGradient></defs><path d="M 510.70 353.00 L 107.90 551.20 L 510.70 776.60 L 913.40 551.20 Z" fill="url(#SVGID_1_)" fill-rule="nonzero" node-id="152" stroke="none" target-height="423.59998" target-width="805.5" target-x="107.9" target-y="353"></path><path d="M 107.90 551.20 L 107.90 729.90 L 510.70 955.40 L 510.70 776.60 Z" fill="url(#SVGID_2_)" fill-rule="nonzero" node-id="154" stroke="none" target-height="404.2" target-width="402.80002" target-x="107.9" target-y="551.2"></path><path d="M 913.40 551.20 L 913.40 729.90 L 510.70 955.40 L 510.70 776.60 Z" fill="url(#SVGID_3_)" fill-rule="nonzero" node-id="156" stroke="none" target-height="404.2" target-width="402.7" target-x="510.7" target-y="551.2"></path><path d="M 759.40 683.60 L 759.40 709.90 L 700.20 743.10 L 700.20 716.80 Z" fill="#c2bdfc" fill-rule="nonzero" node-id="158" stroke="none" target-height="59.5" target-width="59.200012" target-x="700.2" target-y="683.6"></path><path d="M 759.40 739.50 L 759.40 765.80 L 700.20 798.90 L 700.20 772.60 Z" fill="#c2bdfc" fill-rule="nonzero" node-id="160" stroke="none" target-height="59.400024" target-width="59.200012" target-x="700.2" target-y="739.5"></path><g node-id="228"><path d="M 119.80 373.10 L 119.80 546.60 L 510.70 765.40 L 510.70 591.90 Z" fill="#5747db" fill-rule="nonzero" group-id="1" node-id="164" stroke="none" target-height="392.30002" target-width="390.90002" target-x="119.8" target-y="373.1"></path><path d="M 901.60 373.10 L 901.60 546.60 L 510.70 765.40 L 510.70 591.90 Z" fill="#5747db" fill-rule="nonzero" group-id="1" node-id="166" stroke="none" target-height="392.30002" target-width="390.89996" target-x="510.7" target-y="373.1"></path></g><path d="M 510.70 129.60 L 107.90 327.70 L 510.70 553.10 L 913.40 327.70 Z" fill="url(#SVGID_4_)" fill-rule="nonzero" node-id="169" stroke="none" target-height="423.49997" target-width="805.5" target-x="107.9" target-y="129.6"></path><path d="M 107.90 327.70 L 107.90 506.50 L 510.70 731.90 L 510.70 553.10 Z" fill="url(#SVGID_5_)" fill-rule="nonzero" node-id="171" stroke="none" target-height="404.2" target-width="402.80002" target-x="107.9" target-y="327.7"></path><path d="M 913.40 327.70 L 913.40 506.50 L 510.70 731.90 L 510.70 553.10 Z" fill="url(#SVGID_6_)" fill-rule="nonzero" node-id="173" stroke="none" target-height="404.2" target-width="402.7" target-x="510.7" target-y="327.7"></path><g node-id="229"><g node-id="233"><path d="M 244.90 476.70 L 247.60 480.40 L 249.70 484.10 L 251.30 487.60 L 252.40 491.40 L 252.90 494.70 L 252.90 497.80 L 252.50 500.00 L 250.80 503.60 L 249.40 505.00 L 246.00 506.70 L 241.70 507.00 L 238.70 506.40 L 235.50 505.20 L 232.10 503.40 L 228.90 501.20 L 225.70 498.40 L 222.70 495.00 L 219.90 491.30 L 217.80 487.70 L 216.30 484.10 L 215.10 480.40 L 214.60 477.00 L 214.70 474.00 L 215.10 471.70 L 215.80 469.80 L 216.80 468.20 L 218.10 466.80 L 221.60 465.00 L 225.90 464.80 L 228.90 465.30 L 232.10 466.50 L 235.50 468.30 L 238.70 470.60 L 241.80 473.40 L 244.90 476.70 Z" fill="#c2bdfc" fill-rule="nonzero" group-id="2,6" node-id="179" stroke="none" target-height="42.200012" target-width="38.299988" target-x="214.6" target-y="464.8"></path></g><g node-id="234"><path d="M 298.60 505.70 L 301.30 509.40 L 303.40 513.00 L 305.00 516.60 L 306.10 520.30 L 306.60 523.70 L 306.60 526.70 L 306.20 529.00 L 305.50 530.90 L 303.10 533.90 L 299.70 535.60 L 297.70 536.00 L 295.40 535.90 L 292.40 535.30 L 289.20 534.20 L 285.80 532.30 L 282.60 530.10 L 279.40 527.30 L 276.40 523.90 L 273.70 520.20 L 271.50 516.60 L 270.00 513.00 L 268.90 509.30 L 268.30 506.00 L 268.40 502.90 L 268.80 500.70 L 269.50 498.70 L 271.80 495.70 L 275.30 494.00 L 277.30 493.70 L 279.60 493.70 L 282.60 494.30 L 285.80 495.50 L 289.20 497.30 L 292.40 499.50 L 295.50 502.30 L 298.60 505.70 Z" fill="#c2bdfc" fill-rule="nonzero" group-id="2,7" node-id="184" stroke="none" target-height="42.299988" target-width="38.30002" target-x="268.3" target-y="493.7"></path></g><path d="M 352.50 534.60 L 355.20 538.30 L 357.30 542.00 L 358.90 545.50 L 360.00 549.30 L 360.50 552.60 L 360.50 555.70 L 360.10 557.90 L 358.30 561.50 L 357.00 562.90 L 353.50 564.60 L 349.20 564.90 L 346.20 564.30 L 343.10 563.10 L 339.60 561.30 L 336.40 559.00 L 333.30 556.30 L 330.20 552.90 L 327.50 549.20 L 325.40 545.60 L 323.80 542.00 L 322.70 538.30 L 322.20 534.90 L 322.20 531.90 L 322.60 529.60 L 324.30 526.10 L 325.70 524.70 L 327.30 523.60 L 329.10 522.90 L 333.40 522.70 L 336.40 523.20 L 339.60 524.40 L 343.10 526.20 L 346.20 528.50 L 349.40 531.30 L 352.50 534.60 Z" fill="#c2bdfc" fill-rule="nonzero" group-id="2,8" node-id="189" stroke="none" target-height="42.200012" target-width="38.299988" target-x="322.2" target-y="522.7"></path></g><g node-id="230"><g node-id="236"><path d="M 245.00 700.20 L 247.70 703.90 L 249.80 707.60 L 251.30 711.10 L 252.50 714.90 L 253.00 718.20 L 253.00 721.30 L 252.60 723.50 L 251.80 725.40 L 249.50 728.50 L 247.80 729.50 L 246.00 730.20 L 244.00 730.50 L 241.70 730.50 L 238.70 729.90 L 235.50 728.70 L 232.10 726.90 L 228.90 724.60 L 225.80 721.90 L 222.70 718.50 L 220.00 714.80 L 217.90 711.20 L 216.30 707.60 L 215.20 703.90 L 214.70 700.50 L 214.70 697.50 L 215.10 695.20 L 215.80 693.30 L 216.80 691.70 L 218.20 690.30 L 219.80 689.20 L 221.60 688.50 L 223.60 688.20 L 225.90 688.30 L 228.90 688.80 L 232.10 690.00 L 235.50 691.80 L 238.70 694.10 L 241.90 696.90 L 245.00 700.20 Z" fill="#c2bdfc" fill-rule="nonzero" group-id="3,9" node-id="197" stroke="none" target-height="42.299988" target-width="38.300003" target-x="214.7" target-y="688.2"></path></g><g node-id="237"><path d="M 298.70 729.20 L 301.40 732.90 L 303.50 736.50 L 305.00 740.10 L 306.20 743.80 L 306.70 747.20 L 306.70 750.20 L 306.30 752.50 L 304.50 756.00 L 303.20 757.40 L 301.50 758.50 L 299.70 759.10 L 295.40 759.40 L 292.40 758.80 L 289.20 757.70 L 285.80 755.80 L 282.60 753.60 L 279.50 750.80 L 276.40 747.40 L 273.70 743.70 L 271.60 740.10 L 270.00 736.50 L 268.90 732.80 L 268.40 729.50 L 268.40 726.40 L 268.80 724.20 L 270.50 720.60 L 271.90 719.20 L 275.30 717.50 L 279.60 717.20 L 282.60 717.80 L 285.80 718.90 L 289.20 720.80 L 292.40 723.00 L 295.60 725.80 L 298.70 729.20 Z" fill="#c2bdfc" fill-rule="nonzero" group-id="3,10" node-id="202" stroke="none" target-height="42.200012" target-width="38.30002" target-x="268.4" target-y="717.2"></path></g><path d="M 352.40 758.10 L 355.10 761.80 L 357.30 765.40 L 358.80 768.90 L 359.90 772.70 L 360.50 776.00 L 360.40 779.10 L 360.00 781.30 L 358.30 784.90 L 357.00 786.30 L 353.50 788.00 L 349.20 788.30 L 346.20 787.70 L 343.00 786.50 L 339.60 784.70 L 336.40 782.50 L 333.30 779.70 L 330.20 776.30 L 327.50 772.60 L 325.40 769.00 L 323.80 765.40 L 322.70 761.70 L 322.10 758.30 L 322.20 755.30 L 322.60 753.00 L 323.30 751.10 L 324.30 749.50 L 325.70 748.10 L 327.30 747.00 L 329.10 746.30 L 331.10 746.00 L 333.40 746.10 L 336.40 746.70 L 339.60 747.80 L 343.00 749.70 L 346.20 751.90 L 349.40 754.70 L 352.40 758.10 Z" fill="#c2bdfc" fill-rule="nonzero" group-id="3,11" node-id="207" stroke="none" target-height="42.299988" target-width="38.399994" target-x="322.1" target-y="746"></path></g><path d="M 759.40 471.30 L 759.40 497.60 L 700.20 530.80 L 700.20 504.50 Z" fill="#c2bdfc" fill-rule="nonzero" node-id="211" stroke="none" target-height="59.5" target-width="59.200012" target-x="700.2" target-y="471.3"></path><path d="M 759.40 516.00 L 759.40 542.30 L 700.20 575.50 L 700.20 549.20 Z" fill="#c2bdfc" fill-rule="nonzero" node-id="213" stroke="none" target-height="59.5" target-width="59.200012" target-x="700.2" target-y="516"></path><g node-id="231"><path d="M 569.90 654.30 L 569.90 676.70 L 510.70 710.20 L 451.50 676.70 L 451.50 654.30 L 510.70 687.80 Z" fill="url(#SVGID_7_)" fill-rule="nonzero" group-id="4" node-id="217" stroke="none" target-height="55.900024" target-width="118.400024" target-x="451.5" target-y="654.3"></path><path d="M 569.90 620.80 L 569.90 643.10 L 510.70 676.70 L 451.50 643.10 L 451.50 620.80 L 510.70 654.30 Z" fill="url(#SVGID_8_)" fill-rule="nonzero" group-id="4" node-id="219" stroke="none" target-height="55.900024" target-width="118.400024" target-x="451.5" target-y="620.8"></path></g><g node-id="232"><path d="M 569.90 866.60 L 569.90 888.90 L 510.70 922.50 L 451.50 888.90 L 451.50 866.60 L 510.70 900.10 Z" fill="url(#SVGID_9_)" fill-rule="nonzero" group-id="5" node-id="224" stroke="none" target-height="55.900024" target-width="118.400024" target-x="451.5" target-y="866.6"></path><path d="M 569.90 833.10 L 569.90 855.40 L 510.70 888.90 L 451.50 855.40 L 451.50 833.10 L 510.70 866.60 Z" fill="url(#SVGID_10_)" fill-rule="nonzero" group-id="5" node-id="226" stroke="none" target-height="55.80005" target-width="118.400024" target-x="451.5" target-y="833.1"></path></g></svg>