<?xml version="1.0" standalone="no"?><!DOCTYPE svg PUBLIC "-//W3C//DTD SVG 1.1//EN" "http://www.w3.org/Graphics/SVG/1.1/DTD/svg11.dtd"><svg height="1024" node-id="1" sillyvg="true" template-height="1024" template-width="1024" version="1.1" viewBox="0 0 1024 1024" width="1024" xmlns="http://www.w3.org/2000/svg" xmlns:xlink="http://www.w3.org/1999/xlink"><defs node-id="85"><linearGradient gradientUnits="objectBoundingBox" id="SVGID_1_" node-id="6" spreadMethod="pad" x1="3004.6592" x2="3830.6912" y1="552.7925" y2="552.7925"><stop offset="0.005154639" stop-color="#c1b7fe"></stop><stop offset="1" stop-color="#7d6ff8"></stop></linearGradient><linearGradient gradientUnits="objectBoundingBox" id="SVGID_2_" node-id="10" spreadMethod="pad" x1="3437.3718" x2="2961.7107" y1="915.4759" y2="542.6604"><stop offset="0.005154639" stop-color="#7a69f6"></stop><stop offset="1" stop-color="#5847d6"></stop></linearGradient><linearGradient gradientUnits="objectBoundingBox" id="SVGID_3_" node-id="14" spreadMethod="pad" x1="3417.675" x2="3830.6912" y1="738.1804" y2="738.1804"><stop offset="0.005154639" stop-color="#7966fc"></stop><stop offset="1" stop-color="#8c7bfb"></stop></linearGradient><linearGradient gradientUnits="objectBoundingBox" id="SVGID_4_" node-id="25" spreadMethod="pad" x1="3004.6592" x2="3065.3967" y1="703.8944" y2="703.8944"><stop offset="0.005154639" stop-color="#c5bafe"></stop><stop offset="1" stop-color="#8173f7"></stop></linearGradient><linearGradient gradientUnits="objectBoundingBox" id="SVGID_5_" node-id="29" spreadMethod="pad" x1="3004.6592" x2="3065.3967" y1="673.2518" y2="673.2518"><stop offset="0.005154639" stop-color="#c5bafe"></stop><stop offset="1" stop-color="#8173f7"></stop></linearGradient><linearGradient gradientUnits="objectBoundingBox" id="SVGID_6_" node-id="33" spreadMethod="pad" x1="3074.9226" x2="3464.8892" y1="471.8294" y2="471.8294"><stop offset="0.005154639" stop-color="#7a69f6"></stop><stop offset="1" stop-color="#5847d6"></stop></linearGradient><linearGradient gradientUnits="objectBoundingBox" id="SVGID_7_" node-id="37" spreadMethod="pad" x1="3196.398" x2="3586.3645" y1="533.1147" y2="533.1147"><stop offset="0.005154639" stop-color="#7a69f6"></stop><stop offset="1" stop-color="#5847d6"></stop></linearGradient><linearGradient gradientUnits="objectBoundingBox" id="SVGID_8_" node-id="41" spreadMethod="pad" x1="3342.1682" x2="3732.1348" y1="594.4" y2="594.4"><stop offset="0.005154639" stop-color="#7a69f6"></stop><stop offset="1" stop-color="#5847d6"></stop></linearGradient><linearGradient gradientUnits="objectBoundingBox" id="SVGID_9_" node-id="46" spreadMethod="pad" x1="3287.66" x2="3326.1277" y1="395.9177" y2="470.2888"><stop offset="0.005155" stop-color="#c1b7fe" stop-opacity="0"></stop><stop offset="1" stop-color="#7d6ff8"></stop></linearGradient><linearGradient gradientUnits="objectBoundingBox" id="SVGID_10_" node-id="53" spreadMethod="pad" x1="3259.7573" x2="3441.9702" y1="366.221" y2="366.221"><stop offset="0.005154639" stop-color="#c5bafe"></stop><stop offset="1" stop-color="#e9e6fc"></stop></linearGradient><linearGradient gradientUnits="objectBoundingBox" id="SVGID_11_" node-id="57" spreadMethod="pad" x1="3211.1672" x2="3441.9702" y1="325.7132" y2="325.7132"><stop offset="0.005154639" stop-color="#c5bafe"></stop><stop offset="1" stop-color="#e9e6fc"></stop></linearGradient><linearGradient gradientUnits="objectBoundingBox" id="SVGID_12_" node-id="62" spreadMethod="pad" x1="3409.1353" x2="3447.603" y1="457.203" y2="531.5741"><stop offset="0.005155" stop-color="#c1b7fe" stop-opacity="0"></stop><stop offset="1" stop-color="#7d6ff8"></stop></linearGradient><linearGradient gradientUnits="objectBoundingBox" id="SVGID_13_" node-id="69" spreadMethod="pad" x1="3381.2327" x2="3563.4456" y1="427.5063" y2="427.5063"><stop offset="0.005154639" stop-color="#c5bafe"></stop><stop offset="1" stop-color="#e9e6fc"></stop></linearGradient><linearGradient gradientUnits="objectBoundingBox" id="SVGID_14_" node-id="75" spreadMethod="pad" x1="3554.9055" x2="3593.3733" y1="518.4883" y2="592.8594"><stop offset="0.005155" stop-color="#c1b7fe" stop-opacity="0"></stop><stop offset="1" stop-color="#7d6ff8"></stop></linearGradient></defs><g node-id="288"><path d="M 531.40 359.20 L 118.40 540.30 L 531.40 746.40 L 944.50 540.30 Z" fill="url(#SVGID_1_)" fill-rule="nonzero" group-id="1" node-id="176" stroke="none" target-height="387.2" target-width="826.1" target-x="118.4" target-y="359.2"></path><path d="M 118.40 540.30 L 118.40 730.00 L 531.40 936.00 L 531.40 746.40 Z" fill="url(#SVGID_2_)" fill-rule="nonzero" group-id="1" node-id="178" stroke="none" target-height="395.7" target-width="413.00003" target-x="118.4" target-y="540.3"></path><path d="M 944.50 540.30 L 944.50 730.00 L 531.40 936.00 L 531.40 746.40 Z" fill="url(#SVGID_3_)" fill-rule="nonzero" group-id="1" node-id="180" stroke="none" target-height="395.7" target-width="413.09998" target-x="531.4" target-y="540.3"></path><g node-id="292"><g node-id="303"><path d="M 378.60 705.50 L 381.60 708.80 L 384.00 712.00 L 385.90 715.30 L 387.40 718.70 L 388.30 721.90 L 388.60 724.80 L 388.50 727.00 L 387.20 730.60 L 386.00 732.10 L 382.90 734.20 L 378.80 735.00 L 375.80 734.80 L 372.70 734.00 L 369.20 732.70 L 365.80 730.90 L 362.50 728.60 L 359.20 725.70 L 356.20 722.50 L 353.80 719.20 L 351.90 716.00 L 350.40 712.50 L 349.50 709.40 L 349.20 706.40 L 349.40 704.20 L 350.60 700.60 L 351.80 699.10 L 354.90 697.00 L 359.00 696.30 L 362.00 696.50 L 365.20 697.20 L 368.70 698.60 L 372.00 700.40 L 375.30 702.70 L 378.60 705.50 Z" fill="#c2bdfc" fill-rule="nonzero" group-id="1,5,16" node-id="186" stroke="none" target-height="38.700012" target-width="39.399994" target-x="349.2" target-y="696.3"></path></g><g node-id="304"><path d="M 433.70 732.00 L 436.70 735.20 L 439.10 738.40 L 441.00 741.70 L 442.50 745.20 L 443.40 748.30 L 443.70 751.20 L 443.50 753.50 L 443.10 755.40 L 441.10 758.60 L 438.00 760.60 L 436.10 761.20 L 433.90 761.40 L 430.90 761.20 L 427.70 760.50 L 424.20 759.10 L 420.90 757.30 L 417.60 755.00 L 414.30 752.10 L 411.30 748.90 L 408.80 745.70 L 407.00 742.40 L 405.50 739.00 L 404.60 735.80 L 404.30 732.90 L 404.40 730.70 L 404.90 728.70 L 406.90 725.50 L 410.00 723.50 L 411.90 722.90 L 414.10 722.70 L 417.10 722.90 L 420.20 723.70 L 423.70 725.00 L 427.10 726.80 L 430.40 729.10 L 433.70 732.00 Z" fill="#c2bdfc" fill-rule="nonzero" group-id="1,5,17" node-id="191" stroke="none" target-height="38.700012" target-width="39.400024" target-x="404.3" target-y="722.7"></path></g><path d="M 488.90 758.40 L 491.90 761.60 L 494.40 764.90 L 496.30 768.10 L 497.70 771.60 L 498.60 774.70 L 498.90 777.70 L 498.80 779.90 L 497.50 783.50 L 496.30 785.00 L 493.20 787.10 L 489.10 787.80 L 486.20 787.60 L 483.00 786.90 L 479.50 785.50 L 476.10 783.70 L 472.80 781.40 L 469.50 778.60 L 466.50 775.30 L 464.10 772.10 L 462.20 768.80 L 460.70 765.40 L 459.80 762.20 L 459.50 759.30 L 459.70 757.10 L 461.00 753.50 L 462.10 752.00 L 465.20 749.90 L 469.30 749.10 L 472.30 749.30 L 475.50 750.10 L 479.00 751.40 L 482.30 753.20 L 485.60 755.50 L 488.90 758.40 Z" fill="#c2bdfc" fill-rule="nonzero" group-id="1,5,18" node-id="196" stroke="none" target-height="38.700012" target-width="39.399994" target-x="459.5" target-y="749.1"></path></g><path d="M 786.50 684.70 L 786.50 708.80 L 725.80 739.10 L 725.80 715.00 Z" fill="#c2bdfc" fill-rule="nonzero" group-id="1" node-id="200" stroke="none" target-height="54.399963" target-width="60.700012" target-x="725.8" target-y="684.7"></path><path d="M 786.50 725.60 L 786.50 749.60 L 725.80 779.90 L 725.80 755.90 Z" fill="#c2bdfc" fill-rule="nonzero" group-id="1" node-id="202" stroke="none" target-height="54.30005" target-width="60.700012" target-x="725.8" target-y="725.6"></path><g node-id="293"><path d="M 179.20 729.40 L 118.40 698.80 L 118.40 678.40 L 179.20 709.00 Z" fill="url(#SVGID_4_)" fill-rule="nonzero" group-id="1,6" node-id="206" stroke="none" target-height="51" target-width="60.799995" target-x="118.4" target-y="678.4"></path><path d="M 179.20 698.80 L 118.40 668.10 L 118.40 647.70 L 179.20 678.40 Z" fill="url(#SVGID_5_)" fill-rule="nonzero" group-id="1,6" node-id="208" stroke="none" target-height="51.099976" target-width="60.799995" target-x="118.4" target-y="647.7"></path></g></g><path d="M 227.80 557.60 L 578.70 398.90 L 548.40 386.10 L 188.70 538.70 Z" fill="url(#SVGID_6_)" fill-rule="nonzero" node-id="212" stroke="none" target-height="171.49997" target-width="390" target-x="188.7" target-y="386.1"></path><path d="M 349.30 618.90 L 700.10 460.20 L 669.90 447.30 L 310.20 599.90 Z" fill="url(#SVGID_7_)" fill-rule="nonzero" node-id="214" stroke="none" target-height="171.60004" target-width="389.89996" target-x="310.2" target-y="447.3"></path><path d="M 495.00 680.20 L 845.90 521.50 L 815.60 508.60 L 455.90 661.20 Z" fill="url(#SVGID_8_)" fill-rule="nonzero" node-id="216" stroke="none" target-height="171.6" target-width="390.00003" target-x="455.9" target-y="508.6"></path><g node-id="289"><path d="M 561.00 188.20 L 215.60 338.40 L 215.60 552.90 L 561.00 402.70 Z" fill="url(#SVGID_9_)" fill-rule="nonzero" group-id="2" node-id="220" stroke="none" target-height="364.7" target-width="345.4" target-x="215.6" target-y="188.2"></path><path d="M 580.00 106.90 L 196.60 273.60 L 196.60 511.70 L 580.00 345.00 Z" fill="#a9a9ff" fill-rule="nonzero" group-id="2" node-id="222" stroke="none" target-height="404.80002" target-width="383.4" target-x="196.6" target-y="106.9"></path><g node-id="294"><path d="M 220.90 308.80 L 220.90 329.20 L 555.70 183.60 L 555.70 163.20 Z" fill="#ffffff" fill-opacity="0.5" fill-rule="nonzero" group-id="2,7" node-id="226" stroke="none" target-height="166.00002" target-width="334.80002" target-x="220.9" target-y="163.2"></path></g><g node-id="295"><path d="M 220.90 359.80 L 220.90 380.30 L 555.70 234.70 L 555.70 214.30 Z" fill="#ffffff" fill-opacity="0.5" fill-rule="nonzero" group-id="2,8" node-id="231" stroke="none" target-height="165.99998" target-width="334.80002" target-x="220.9" target-y="214.3"></path></g><path d="M 373.50 395.60 L 373.50 416.00 L 555.70 336.80 L 555.70 316.40 Z" fill="url(#SVGID_10_)" fill-rule="nonzero" group-id="2" node-id="234" stroke="none" target-height="99.600006" target-width="182.20001" target-x="373.5" target-y="316.4"></path><path d="M 324.90 365.70 L 324.90 386.10 L 555.70 285.80 L 555.70 265.30 Z" fill="url(#SVGID_11_)" fill-rule="nonzero" group-id="2" node-id="236" stroke="none" target-height="120.80002" target-width="230.80002" target-x="324.9" target-y="265.3"></path></g><g node-id="290"><path d="M 682.50 249.50 L 337.10 399.70 L 337.10 614.20 L 682.50 464.00 Z" fill="url(#SVGID_12_)" fill-rule="nonzero" group-id="3" node-id="241" stroke="none" target-height="364.7" target-width="345.4" target-x="337.1" target-y="249.5"></path><path d="M 701.50 168.20 L 318.10 334.90 L 318.10 573.00 L 701.50 406.30 Z" fill="#bdbdff" fill-rule="nonzero" group-id="3" node-id="243" stroke="none" target-height="404.8" target-width="383.4" target-x="318.1" target-y="168.2"></path><g node-id="296"><path d="M 342.40 370.00 L 342.40 390.50 L 677.20 244.90 L 677.20 224.50 Z" fill="#ffffff" fill-opacity="0.5" fill-rule="nonzero" group-id="3,9" node-id="247" stroke="none" target-height="166" target-width="334.80002" target-x="342.4" target-y="224.5"></path></g><g node-id="297"><path d="M 342.40 421.10 L 342.40 441.50 L 677.20 296.00 L 677.20 275.50 Z" fill="#ffffff" fill-opacity="0.5" fill-rule="nonzero" group-id="3,10" node-id="252" stroke="none" target-height="166" target-width="334.80002" target-x="342.4" target-y="275.5"></path></g><path d="M 495.00 456.90 L 495.00 477.30 L 677.20 398.10 L 677.20 377.70 Z" fill="url(#SVGID_13_)" fill-rule="nonzero" group-id="3" node-id="255" stroke="none" target-height="99.599976" target-width="182.20001" target-x="495" target-y="377.7"></path><g node-id="298"><path d="M 446.40 427.00 L 446.40 447.40 L 677.20 347.00 L 677.20 326.60 Z" fill="#ffffff" fill-opacity="0.5" fill-rule="nonzero" group-id="3,11" node-id="259" stroke="none" target-height="120.79999" target-width="230.80002" target-x="446.4" target-y="326.6"></path></g></g><g node-id="291"><path d="M 828.30 310.80 L 482.80 461.00 L 482.80 675.50 L 828.30 525.30 Z" fill="url(#SVGID_14_)" fill-rule="nonzero" group-id="4" node-id="265" stroke="none" target-height="364.7" target-width="345.5" target-x="482.8" target-y="310.8"></path><path d="M 847.30 229.50 L 463.80 396.20 L 463.80 634.20 L 847.30 467.60 Z" fill="#d3d2ff" fill-rule="nonzero" group-id="4" node-id="267" stroke="none" target-height="404.7" target-width="383.5" target-x="463.8" target-y="229.5"></path><g node-id="299"><path d="M 488.10 431.30 L 488.10 451.80 L 823.00 306.20 L 823.00 285.80 Z" fill="#ffffff" fill-opacity="0.5" fill-rule="nonzero" group-id="4,12" node-id="271" stroke="none" target-height="166" target-width="334.9" target-x="488.1" target-y="285.8"></path></g><g node-id="300"><path d="M 488.10 482.40 L 488.10 502.80 L 823.00 357.30 L 823.00 336.80 Z" fill="#ffffff" fill-opacity="0.5" fill-rule="nonzero" group-id="4,13" node-id="276" stroke="none" target-height="166" target-width="334.9" target-x="488.1" target-y="336.8"></path></g><g node-id="301"><path d="M 640.80 518.20 L 640.80 538.60 L 823.00 459.40 L 823.00 439.00 Z" fill="#ffffff" fill-opacity="0.5" fill-rule="nonzero" group-id="4,14" node-id="281" stroke="none" target-height="99.599976" target-width="182.20001" target-x="640.8" target-y="439"></path></g><path d="M 592.20 488.20 L 592.20 508.70 L 823.00 408.30 L 823.00 387.90 Z" fill="#ffffff" fill-opacity="0.5" fill-rule="nonzero" group-id="4,15" node-id="286" stroke="none" target-height="120.80002" target-width="230.79999" target-x="592.2" target-y="387.9"></path></g></svg>