<?xml version="1.0" standalone="no"?><!DOCTYPE svg PUBLIC "-//W3C//DTD SVG 1.1//EN" "http://www.w3.org/Graphics/SVG/1.1/DTD/svg11.dtd"><svg t="1733747414745" class="icon" viewBox="0 0 1024 1024" version="1.1" xmlns="http://www.w3.org/2000/svg" p-id="9046" xmlns:xlink="http://www.w3.org/1999/xlink" width="32" height="32"><path d="M603.008853 2.005333c-7.381333 0-14.250667 1.578667-20.608 3.712 13.482667 8.96 20.906667 20.906667 24.576 34.389334 0.298667 1.834667 0.810667 3.157333 1.066667 4.992a29.056 29.056 0 0 1 0.554667 4.778666c1.024 23.253333-6.101333 26.197333-11.093334 39.936-7.68 17.706667-5.546667 36.736 3.669334 52.053334a31.573333 31.573333 0 0 0 3.157333 5.845333c-10.026667-66.901333 45.781333-76.928 56.064-97.834667 0.810667-18.261333-14.250667-30.421333-26.154667-38.869333a58.453333 58.453333 0 0 0-31.232-8.96zM687.104853 17.066667c-1.024 6.101333-0.256 4.522667-0.512 7.68-0.256 2.133333-0.256 4.778667-0.512 6.869333-0.554667 2.133333-1.066667 4.266667-1.877333 6.357333-0.512 2.133333-1.28 4.266667-2.133333 6.357334l-2.858667 6.058666c-0.853333 1.066667-1.322667 2.133333-2.133333 3.2l-1.578667 2.346667a91.818667 91.818667 0 0 1-3.968 5.290667c-1.578667 1.621333-2.901333 3.456-4.778667 4.778666v0.256c-1.578667 1.322667-3.157333 2.901333-5.034666 4.266667-5.546667 4.224-11.861333 7.381333-17.706667 11.349333-1.834667 1.28-3.712 2.389333-5.290667 3.968a38.656 38.656 0 0 0-5.034666 4.224c-1.834667 1.578667-3.157333 3.157333-4.736 5.034667-1.322667 1.578667-2.901333 3.413333-3.968 5.290667a67.498667 67.498667 0 0 0-3.712 5.546666c-1.066667 2.133333-1.834667 3.968-2.901334 6.058667-0.810667 2.133333-1.578667 3.968-2.133333 6.101333a85.632 85.632 0 0 0-1.834667 6.613334c-0.256 1.066667-0.256 2.389333-0.512 3.413333-0.298667 1.066667-0.298667 2.133333-0.554666 3.2 0 2.133333-0.256 4.48-0.256 6.613333 0 1.578667 0 3.157333 0.256 4.736 0 2.133333 0.256 4.266667 0.810666 6.613334 0.256 2.133333 0.768 4.266667 1.28 6.4 0.853333 2.090667 1.365333 4.181333 2.133334 6.314666 0.554667 1.28 1.322667 2.645333 1.877333 3.712l-60.842667-23.552c-10.282667-2.901333-20.352-5.546667-30.677333-7.936l-16.64-3.968c-15.872-3.157333-32-5.546667-48.128-7.125333-0.554667 0-0.810667-0.256-1.322667-0.256A472.832 472.832 0 0 0 379.81952 121.813333c-16.128 1.066667-32.256 3.157333-48.384 5.802667a531.2 531.2 0 0 0-35.712 7.424l-11.904 3.157333c-3.925333 1.578667-7.68 3.413333-11.349333 5.034667l-8.746667 3.968c-0.512 0.256-1.024 0.256-1.28 0.512-2.688 1.322667-5.034667 2.389333-7.424 3.712a116.821333 116.821333 0 0 0-10.069333 5.034667c-1.834667 0.768-3.669333 1.834667-5.290667 2.645333a23.850667 23.850667 0 0 1-2.346667 1.28c-2.389333 1.365333-4.778667 2.688-6.912 4.010667a66.56 66.56 0 0 0-6.314666 3.968c-1.877333 1.28-3.712 2.346667-5.290667 3.669333-0.256 0.298667-0.554667 0.298667-0.810667 0.554667-1.578667 1.066667-3.413333 2.389333-5.034666 3.712l-0.512 0.512-3.968 3.157333c-0.512 0.298667-1.066667 0.810667-1.578667 1.066667-1.322667 1.066667-2.645333 2.389333-3.968 3.413333-0.256 0.554667-0.810667 0.853333-1.066667 1.066667-1.578667 1.621333-3.157333 2.944-4.736 4.522666-0.298667 0-0.298667 0.256-0.554666 0.512a74.325333 74.325333 0 0 0-4.736 4.522667c-0.298667 0.256-0.298667 0.512-0.554667 0.512a62.037333 62.037333 0 0 0-3.968 4.266667c-0.512 0.512-1.28 1.024-1.834667 1.536a58.624 58.624 0 0 1-4.522666 4.778666c-0.256 0.512-0.768 0.810667-1.024 1.28-2.133333 2.133333-3.968 4.266667-6.101334 6.4l-0.768 0.768c-4.266667 4.522667-8.746667 9.002667-13.525333 12.970667-4.736 4.266667-9.770667 8.192-14.805333 11.648a161.152 161.152 0 0 1-32.512 17.962667c-5.546667 2.389333-11.392 4.522667-17.194667 6.357333-11.093333 2.389333-22.485333 6.869333-32.256 7.68-2.133333 0-4.48 0.512-6.613333 0.768l-6.613334 1.578667-6.357333 2.389333c-2.133333 0.810667-4.224 1.877333-6.314667 2.901333-1.877333 1.322667-3.968 2.389333-5.845333 3.712a43.136 43.136 0 0 0-5.290667 4.522667c-1.834667 1.28-3.712 3.157333-5.290666 4.736-1.578667 1.834667-3.157333 3.413333-4.48 5.290667-1.322667 2.133333-2.901333 3.968-3.968 6.101333a46.592 46.592 0 0 0-3.712 6.058667c-1.066667 2.389333-2.133333 4.522667-2.901334 6.869333-0.810667 2.133333-1.578667 4.522667-2.389333 6.869333-0.512 2.133333-1.066667 4.266667-1.28 6.4 0 0.213333-0.298667 0.512-0.298667 0.768-0.512 2.389333-0.512 5.546667-0.810666 7.125334C0.342187 339.2 0.086187 340.736 0.086187 342.613333a28.032 28.032 0 0 0 3.157333 13.226667v0.256c0.810667 1.578667 1.877333 3.2 2.944 4.778667 1.024 1.578667 2.133333 3.157333 3.413333 4.736 1.322667 1.322667 2.901333 2.944 4.522667 4.266666a38.656 38.656 0 0 0 4.992 4.224c6.357333 5.546667 7.936 7.381333 16.128 11.605334 1.322667 0.810667 2.645333 1.322667 4.266667 2.133333 0.256 0 0.512 0.256 0.768 0.256 0 0.554667 0 0.810667 0.256 1.322667a54.272 54.272 0 0 0 3.413333 12.714666c0.853333 1.578667 1.365333 3.157333 2.133333 4.736 0.298667 0.554667 0.554667 1.066667 0.853334 1.322667 1.024 2.133333 2.090667 3.968 3.114666 5.845333l3.968 5.546667c1.322667 1.578667 2.944 3.413333 4.522667 5.034667 1.578667 1.578667 3.157333 2.901333 5.034667 4.48 0 0 0.256 0.256 0.512 0.256 1.578667 1.322667 3.157333 2.645333 4.778666 3.712a42.069333 42.069333 0 0 0 5.802667 3.413333c1.834667 1.066667 3.968 2.133333 6.058667 2.944a31.146667 31.146667 0 0 0 5.290666 1.834667c0.298667 0.256 0.554667 0.256 1.066667 0.512 1.066667 0.298667 2.389333 0.554667 3.413333 0.810666-0.768 14.293333-1.024 27.733333 1.109334 32.512 2.346667 5.290667 13.994667-10.837333 25.6-29.354666-1.536 18.261333-2.602667 39.68 0 46.037333 2.944 6.613333 18.773333-14.037333 32.554666-36.778667 187.52-43.349333 358.613333 86.186667 376.576 269.226667-3.413333-28.586667-38.613333-44.416-54.741333-40.448-7.936 19.541333-21.418667 44.672-43.093333 60.288 1.834667-17.493333 1.066667-35.413333-2.645334-52.906667a171.050667 171.050667 0 0 1-32.810666 66.645334c-25.088 1.834667-50.218667-10.325333-63.445334-28.586667-1.066667-0.768-1.322667-2.346667-2.133333-3.413333-0.768-1.834667-1.578667-3.712-2.133333-5.546667a21.973333 21.973333 0 0 1-1.578667-5.546667c-0.256-1.877333-0.256-3.712-0.256-5.845333v-3.968a42.325333 42.325333 0 0 1 1.322667-5.546667c0.554667-1.834667 1.066667-3.669333 1.877333-5.546666 1.024-1.834667 1.834667-3.712 3.157333-5.546667 4.48-12.714667 4.48-23.04-3.712-29.098667a30.122667 30.122667 0 0 0-5.034666-2.645333c-1.024-0.256-2.346667-0.768-3.413334-1.066667l-2.133333-0.768a36.138667 36.138667 0 0 0-5.546667-1.322666 20.138667 20.138667 0 0 0-5.546666-0.810667 43.093333 43.093333 0 0 0-5.802667-0.512c-1.322667 0-2.645333 0.256-3.968 0.256a20.650667 20.650667 0 0 0-5.845333 0.810667c-1.834667 0.256-3.669333 0.512-5.546667 1.024a45.568 45.568 0 0 0-5.546667 1.877333c-1.834667 0.768-3.413333 1.578667-5.290666 2.389333-1.578667 0.768-3.157333 1.834667-5.034667 2.645334-61.610667 40.192-24.832 134.314667 17.194667 161.578666-15.872 2.901333-32 6.314667-36.48 9.770667l-0.554667 0.512c11.392 6.869333 23.296 12.714667 35.712 17.749333 16.938667 5.546667 34.901333 10.538667 42.837333 12.672v0.256a255.829333 255.829333 0 0 0 66.645334 4.778667c117.162667-8.192 213.162667-97.322667 230.613333-214.741333l1.578667 6.869333c0.810667 4.778667 1.834667 9.813333 2.389333 14.805333v0.256c0.512 2.389333 0.768 4.778667 1.066667 6.912v1.024c0.256 2.389333 0.512 4.778667 0.512 6.912 0.256 2.901333 0.512 5.802667 0.512 8.704v4.266667c0 1.28 0.298667 2.858667 0.298666 4.181333 0 1.621333-0.298667 3.2-0.298666 4.778667v3.712c0 1.834667-0.256 3.413333-0.256 5.290667 0 1.066667 0 2.133333-0.256 3.413333 0 1.877333-0.256 3.712-0.256 5.845333-0.256 0.768-0.256 1.578667-0.256 2.346667l-0.853334 6.101333c0 0.810667 0 1.578667-0.213333 2.389334-0.298667 2.645333-0.810667 5.034667-1.066667 7.68v0.512l-1.578666 7.424v0.768l-1.578667 7.125333c0 0.298667-0.298667 0.853333-0.298667 1.066667a70.954667 70.954667 0 0 1-1.834666 7.168v0.768c-0.810667 2.645333-1.578667 5.034667-2.133334 7.424-0.256 0.256-0.256 0.512-0.256 0.512l-2.389333 7.936c-1.024 2.645333-1.834667 5.034667-2.901333 7.68-1.066667 2.645333-1.834667 5.290667-2.901334 7.68-1.066667 2.645333-2.133333 4.992-3.157333 7.68h-0.298667c-1.024 2.346667-2.133333 4.992-3.413333 7.381333a12.885333 12.885333 0 0 1-0.810667 1.834667c-0.256 0.256-0.256 0.554667-0.512 0.810666a250.325333 250.325333 0 0 1-74.325333 88.832c-2.133333 1.322667-4.224 2.944-6.357333 4.522667-0.512 0.512-1.28 0.768-1.834667 1.28a111.061333 111.061333 0 0 1-5.802667 4.010667l0.768 1.578666h0.298667l11.093333-1.578666h0.256c6.869333-1.066667 13.738667-2.389333 20.608-3.712 1.877333-0.256 3.968-0.810667 5.845334-1.322667l3.712-0.810667c1.834667-0.256 3.669333-0.768 5.546666-1.024 1.578667-0.554667 3.157333-0.853333 4.736-1.322666 26.453333-6.4 52.096-15.104 76.714667-25.386667a423.509333 423.509333 0 0 1-164.266667 134.058667c30.464-2.133333 60.842667-7.125333 90.197334-15.616a422.528 422.528 0 0 0 249.898666-199.68 422.101333 422.101333 0 0 1-71.125333 170.069333 416.341333 416.341333 0 0 0 70.613333-58.709333 419.157333 419.157333 0 0 0 111.36-224.768c8.96 41.813333 11.605333 84.906667 7.68 127.445333 190.890667-266.282667 15.829333-542.378667-57.429333-615.082667-0.256-0.554667-0.512-0.810667-0.512-1.322666-0.256 0.256-0.256 0.256-0.256 0.512 0-0.256 0-0.256-0.298667-0.512 0 3.157333-0.256 6.314667-0.512 9.514666a355.84 355.84 0 0 1-2.645333 17.706667c-1.28 5.802667-2.901333 11.648-4.48 17.493333-1.877333 5.546667-3.968 11.349333-6.4 16.896a227.072 227.072 0 0 1-7.893333 16.128 202.026667 202.026667 0 0 1-20.352 29.354667c-3.968 4.736-8.192 8.96-12.458667 13.226667a170.410667 170.410667 0 0 1-7.68 6.613333l-6.058667 5.290667a147.584 147.584 0 0 1-14.805333 10.282666 183.253333 183.253333 0 0 1-15.616 9.002667c-5.546667 2.645333-11.093333 5.034667-16.64 7.424a186.197333 186.197333 0 0 1-34.901333 9.514667c-6.101333 1.066667-12.16 1.578667-18.005334 2.133333a209.664 209.664 0 0 1-12.672 0.512 198.826667 198.826667 0 0 1-18.005333-1.066667 133.845333 133.845333 0 0 1-17.962667-2.645333 133.802667 133.802667 0 0 1-17.706666-4.48h-0.298667c5.845333-0.554667 11.648-1.066667 17.493333-2.133333a191.701333 191.701333 0 0 0 34.901334-9.514667c5.802667-2.133333 11.349333-4.778667 16.64-7.424 5.546667-2.645333 10.581333-5.546667 15.872-8.704 5.034667-3.413333 10.026667-6.869333 14.805333-10.581333 4.778667-3.712 9.258667-7.68 13.482667-11.904 4.48-3.968 8.448-8.448 12.416-12.970667 3.968-4.736 7.68-9.514667 11.093333-14.250667 0.554667-0.810667 1.109333-1.877333 1.621333-2.645333 2.645333-4.266667 5.290667-8.490667 7.68-12.714667a182.272 182.272 0 0 0 14.250667-33.066666c1.877333-5.546667 3.2-11.349333 4.522667-17.194667 1.066667-6.058667 2.133333-11.861333 2.645333-17.706667 0.512-6.058667 1.066667-12.16 1.066667-17.962666 0-4.266667-0.298667-8.490667-0.554667-12.714667a286.976 286.976 0 0 0-2.133333-17.706667 191.701333 191.701333 0 0 0-3.925334-17.706666c-1.877333-5.546667-3.712-11.392-5.845333-16.938667-2.133333-5.546667-4.736-11.093333-7.381333-16.384-2.944-5.290667-5.845333-10.581333-9.002667-15.616a291.968 291.968 0 0 0-10.581333-14.506667c-3.968-4.522667-7.936-9.045333-12.16-13.525333a165.461333 165.461333 0 0 0-6.869334-6.613333c-11.946667-9.258667-24.32-17.962667-36.778666-25.898667a49.237333 49.237333 0 0 0-5.290667-2.645333 103.04 103.04 0 0 0-25.130667-11.093334z" p-id="9047" fill="#1296db"></path></svg>