<svg viewBox="0 0 1024 1024" xmlns:xlink="http://www.w3.org/1999/xlink" xmlns="http://www.w3.org/2000/svg" id="图层_1"><defs><style>.cls-1{fill:none;}.cls-2{clip-path:url(#clip-path);}.cls-3{fill:#eef4ff;}.cls-4{fill:#edf3ff;}.cls-5{fill:#ecf3ff;}.cls-6{fill:#ebf2ff;}.cls-7{fill:#eaf2ff;}.cls-8{fill:#e9f1ff;}.cls-9{fill:#e8f0ff;}.cls-10{fill:#e7f0ff;}.cls-11{fill:#e6efff;}.cls-12{fill:#e5efff;}.cls-13{fill:#e4eeff;}.cls-14{fill:#e3edff;}.cls-15{fill:#e2edff;}.cls-16{fill:#e1ecff;}.cls-17{fill:#e0ecff;}.cls-18{fill:#dfebff;}.cls-19{fill:#ddeafe;}.cls-20{fill:#dceafe;}.cls-21{fill:#dbe9fe;}.cls-22{fill:#dae9fe;}.cls-23{fill:#d9e8fe;}.cls-24{fill:#d8e7fe;}.cls-25{fill:#d7e7fe;}.cls-26{fill:#d6e6fe;}.cls-27{fill:#d5e6fe;}.cls-28{fill:#d4e5fe;}.cls-29{fill:#d3e4fe;}.cls-30{fill:#d2e4fe;}.cls-31{fill:#d1e3fe;}.cls-32{fill:#d0e3fe;}.cls-33{fill:#cfe2fe;}.cls-34{fill:url(#未命名的渐变_5);}.cls-35{fill:url(#未命名的渐变_12);}.cls-36{fill:#fff;}.cls-37{clip-path:url(#clip-path-2);}.cls-38{fill:#1a66ff;}.cls-39{fill:#1b67ff;}.cls-40{fill:#1c67ff;}.cls-41{fill:#1d68ff;}.cls-42{fill:#1e69ff;}.cls-43{fill:#1f69ff;}.cls-44{fill:#206aff;}.cls-45{fill:#216bff;}.cls-46{fill:#226bff;}.cls-47{fill:#236cff;}.cls-48{fill:#246dff;}.cls-49{fill:#256dff;}.cls-50{fill:#266eff;}.cls-51{fill:#276fff;}.cls-52{fill:#286fff;}.cls-53{fill:#2970ff;}.cls-54{fill:#2a71ff;}.cls-55{fill:#2b71ff;}.cls-56{fill:#2c72ff;}.cls-57{fill:#2d73ff;}.cls-58{fill:#2e73ff;}.cls-59{fill:#2f74ff;}.cls-60{fill:#3175ff;}.cls-61{fill:#3276ff;}.cls-62{fill:#3376ff;}.cls-63{fill:#3477ff;}.cls-64{fill:#3578ff;}.cls-65{fill:#3678ff;}.cls-66{fill:#3779ff;}.cls-67{fill:#387aff;}.cls-68{fill:#397aff;}.cls-69{fill:#3a7bff;}.cls-70{fill:#3b7cff;}.cls-71{fill:#3c7cff;}.cls-72{fill:#3d7dff;}.cls-73{fill:#3e7eff;}.cls-74{fill:#3f7eff;}.cls-75{fill:#407fff;}.cls-76{fill:#4180ff;}.cls-77{fill:#4280ff;}.cls-78{fill:#4381ff;}.cls-79{fill:#4482ff;}.cls-80{fill:#4582ff;}.cls-81{fill:#4683ff;}.cls-82{fill:#4784ff;}.cls-83{fill:#4884ff;}.cls-84{fill:#4985ff;}.cls-85{fill:#4a86ff;}.cls-86{fill:#4b86ff;}.cls-87{fill:#4c87ff;}.cls-88{fill:#4d88fe;}.cls-89{fill:#4e88fe;}.cls-90{fill:#4f89fe;}.cls-91{fill:#508afe;}.cls-92{fill:#518afe;}.cls-93{fill:#528bfe;}.cls-94{fill:#538cfe;}.cls-95{fill:#548cfe;}.cls-96{fill:#558dfe;}.cls-97{fill:#568efe;}.cls-98{fill:#578efe;}.cls-99{fill:#588ffe;}.cls-100{fill:#5990fe;}.cls-101{fill:#5a90fd;}.cls-102{fill:#5b91fd;}.cls-103{fill:#5c92fd;}.cls-104{fill:#5d92fd;}.cls-105{fill:#5e93fd;}.cls-106{fill:#5f94fd;}.cls-107{fill:#6094fd;}.cls-108{fill:#6195fd;}.cls-109{fill:#6296fd;}.cls-110{fill:#6396fd;}.cls-111{fill:#6497fd;}.cls-112{fill:#6598fd;}.cls-113{fill:#6698fd;}.cls-114{fill:#6899fd;}.cls-115{fill:#699afc;}.cls-116{fill:#6a9afc;}.cls-117{fill:#6b9bfc;}.cls-118{fill:#6c9cfc;}.cls-119{fill:#6d9cfc;}.cls-120{fill:#6e9dfc;}.cls-121{fill:#6f9efc;}.cls-122{fill:#709efc;}.cls-123{fill:#719ffc;}.cls-124{fill:#72a0fc;}.cls-125{fill:#73a0fc;}.cls-126{fill:#74a1fc;}.cls-127{fill:#75a2fc;}.cls-128{fill:#76a2fb;}.cls-129{fill:#77a3fb;}.cls-130{fill:#78a4fb;}.cls-131{fill:#79a4fb;}.cls-132{fill:#7aa5fb;}.cls-133{fill:#7ba6fb;}.cls-134{fill:#7ca6fb;}.cls-135{fill:#7da7fb;}.cls-136{fill:#7ea8fb;}.cls-137{fill:#7fa8fb;}.cls-138{fill:#80a9fb;}.cls-139{fill:#81aafb;}.cls-140{fill:#82aafb;}.cls-141{fill:#83abfa;}.cls-142{fill:#84acfa;}.cls-143{fill:#85acfa;}.cls-144{fill:#86adfa;}.cls-145{fill:#87aefa;}.cls-146{fill:#88aefa;}.cls-147{fill:#89affa;}.cls-148{clip-path:url(#clip-path-3);}.cls-149{fill:#4885ff;}.cls-150{fill:#4b87ff;}.cls-151{fill:#4d88ff;}.cls-152{fill:#4e88ff;}.cls-153{fill:#4f89ff;}.cls-154{fill:#508aff;}.cls-155{fill:#518bff;}.cls-156{fill:#528bff;}.cls-157{fill:#538cff;}.cls-158{fill:#548dff;}.cls-159{fill:#558eff;}.cls-160{fill:#568eff;}.cls-161{fill:#578fff;}.cls-162{fill:#5890ff;}.cls-163{fill:#5990ff;}.cls-164{fill:#5a91ff;}.cls-165{fill:#5c92ff;}.cls-166{fill:#5d93ff;}.cls-167{fill:#5e93ff;}.cls-168{fill:#5f94ff;}.cls-169{fill:#6095ff;}.cls-170{fill:#6195ff;}.cls-171{fill:#6296ff;}.cls-172{fill:#6397ff;}.cls-173{fill:#6498ff;}.cls-174{fill:#6598ff;}.cls-175{fill:#69f;}.cls-176{fill:#679aff;}.cls-177{fill:#689aff;}.cls-178{fill:#699bff;}.cls-179{fill:#6a9cff;}.cls-180{fill:#6b9dff;}.cls-181{fill:#6c9dff;}.cls-182{fill:#6d9eff;}.cls-183{fill:#6e9fff;}.cls-184{fill:#6f9fff;}.cls-185{fill:#70a0fe;}.cls-186{fill:#71a1fe;}.cls-187{fill:#72a1fe;}.cls-188{fill:#73a2fe;}.cls-189{fill:#75a3fe;}.cls-190{fill:#76a3fe;}.cls-191{fill:#77a4fd;}.cls-192{fill:#78a5fd;}.cls-193{fill:#79a5fd;}.cls-194{fill:#7aa6fd;}.cls-195{fill:#7ba7fd;}.cls-196{fill:#7ca7fd;}.cls-197{fill:#7da8fc;}.cls-198{fill:#7ea9fc;}.cls-199{fill:#7fa9fc;}.cls-200{fill:#80aafc;}.cls-201{fill:#81abfc;}.cls-202{fill:#83abfc;}.cls-203{fill:#84acfb;}.cls-204{fill:#85adfb;}.cls-205{fill:#86adfb;}.cls-206{fill:#87aefb;}.cls-207{fill:#88affb;}.cls-208{fill:#8ab0fa;}.cls-209{fill:#8bb1fa;}.cls-210{fill:#8cb1fa;}.cls-211{fill:#8db2fa;}.cls-212{fill:#8eb3fa;}.cls-213{fill:#8fb3f9;}.cls-214{fill:#90b4f9;}.cls-215{fill:#91b5f9;}.cls-216{fill:#92b5f9;}.cls-217{fill:#93b6f9;}.cls-218{fill:#94b7f9;}.cls-219{fill:#95b7f8;}.cls-220{fill:#96b8f8;}.cls-221{fill:#97b9f8;}.cls-222{fill:#99b9f8;}.cls-223{fill:#9abaf8;}.cls-224{fill:#9bbaf8;}.cls-225{fill:#9cbbf7;}.cls-226{fill:#9dbcf7;}.cls-227{fill:#9ebcf7;}.cls-228{fill:#9fbdf7;}.cls-229{fill:#a0bef7;}.cls-230{fill:#a1bef7;}.cls-231{fill:#a2bff6;}.cls-232{fill:#a3c0f6;}.cls-233{fill:#a4c0f6;}.cls-234{fill:#a5c1f6;}.cls-235{fill:#a6c1f6;}.cls-236{fill:#a7c2f6;}.cls-237{fill:#a8c3f5;}.cls-238{fill:#a9c3f5;}.cls-239{fill:#aac4f5;}.cls-240{fill:#abc5f5;}.cls-241{fill:#acc5f5;}.cls-242{fill:#adc6f5;}.cls-243{fill:#aec6f5;}.cls-244{fill:#afc7f4;}.cls-245{fill:#b0c8f4;}.cls-246{fill:#b1c8f4;}.cls-247{fill:#b1c9f4;}.cls-248{fill:#b2c9f4;}.cls-249{fill:#b3caf4;}.cls-250{fill:#b4cbf3;}.cls-251{fill:#b5cbf3;}.cls-252{fill:#b6ccf3;}.cls-253{fill:#b7ccf3;}.cls-254{fill:#b8cdf3;}.cls-255{fill:#b9cdf3;}.cls-256{fill:#bacef3;}.cls-257{fill:#bbcff2;}.cls-258{fill:#bcd0f2;}.cls-259{fill:#bdd0f2;}</style><clipPath id="clip-path"><path d="M403.63,337.68c45.4-26.87,122.46-27.58,172.14-1.61L980.28,547.56c49.68,26,53.19,68.81,7.79,95.69L618.89,861.81c-45.4,26.87-122.47,27.58-172.14,1.61L42.23,651.93C-7.44,626-11,583.12,34.44,556.24Z" class="cls-1"></path></clipPath><linearGradient gradientUnits="userSpaceOnUse" y2="895.01" x2="431.76" y1="699.51" x1="48.04" id="未命名的渐变_5"><stop stop-color="#cee1fe" offset="0"></stop><stop stop-color="#cbdffe" offset="1"></stop></linearGradient><linearGradient gradientUnits="userSpaceOnUse" y2="793.08" x2="1047.6" y1="804.98" x1="471.91" id="未命名的渐变_12"><stop stop-color="#cbdffe" offset="0.06"></stop><stop stop-color="#94b4ed" offset="0.23"></stop><stop stop-color="#aac5f4" offset="1"></stop></linearGradient><clipPath id="clip-path-2"><path d="M424,320.58c-24.91,9.23-320.34,175.61-144.86,345.78,208.56,183,478.07,132.3,554.49-13.64C879.81,527.33,693.38,249.68,424,320.58Z" class="cls-1"></path></clipPath><clipPath id="clip-path-3"><circle r="179.21" cy="206.75" cx="540.26" class="cls-1"></circle></clipPath></defs><g class="cls-2"><polygon points="-10.96 554.87 80.65 505.81 286.07 889.39 -10.96 889.39 -10.96 554.87" class="cls-3"></polygon><polygon points="80.65 505.81 98.31 496.35 308.79 889.39 286.07 889.39 80.65 505.81" class="cls-3"></polygon><polygon points="98.31 496.35 115.97 486.9 331.51 889.39 308.79 889.39 98.31 496.35" class="cls-4"></polygon><polygon points="115.97 486.9 133.63 477.44 354.23 889.39 331.51 889.39 115.97 486.9" class="cls-5"></polygon><polygon points="133.63 477.44 151.28 467.99 376.95 889.39 354.23 889.39 133.63 477.44" class="cls-6"></polygon><polygon points="151.28 467.99 168.94 458.53 399.67 889.39 376.95 889.39 151.28 467.99" class="cls-7"></polygon><polygon points="168.94 458.53 186.6 449.07 422.39 889.39 399.67 889.39 168.94 458.53" class="cls-8"></polygon><polygon points="186.6 449.07 204.25 439.62 445.11 889.39 422.39 889.39 186.6 449.07" class="cls-9"></polygon><polygon points="204.25 439.62 221.91 430.16 467.83 889.39 445.11 889.39 204.25 439.62" class="cls-10"></polygon><polygon points="221.91 430.16 239.57 420.71 490.55 889.39 467.83 889.39 221.91 430.16" class="cls-11"></polygon><polygon points="239.57 420.71 257.22 411.25 513.27 889.39 490.55 889.39 239.57 420.71" class="cls-12"></polygon><polygon points="257.22 411.25 274.88 401.8 536 889.39 513.27 889.39 257.22 411.25" class="cls-13"></polygon><polygon points="274.88 401.8 292.54 392.34 558.72 889.39 536 889.39 274.88 401.8" class="cls-14"></polygon><polygon points="292.54 392.34 310.19 382.89 580.32 887.29 576.4 889.39 558.72 889.39 292.54 392.34" class="cls-15"></polygon><rect transform="translate(-243.8 289.03) rotate(-28.17)" height="572.18" width="20.03" y="344.27" x="444.07" class="cls-16"></rect><rect transform="translate(-237.25 296.25) rotate(-28.17)" height="572.18" width="20.03" y="334.82" x="461.73" class="cls-17"></rect><rect transform="translate(-230.69 303.46) rotate(-28.17)" height="572.18" width="20.03" y="325.36" x="479.38" class="cls-18"></rect><rect transform="translate(-224.13 310.68) rotate(-28.17)" height="572.18" width="20.03" y="315.9" x="497.04" class="cls-19"></rect><rect transform="translate(-217.58 317.9) rotate(-28.17)" height="572.18" width="20.03" y="306.45" x="514.7" class="cls-20"></rect><rect transform="translate(-211.02 325.11) rotate(-28.17)" height="572.18" width="20.03" y="296.99" x="532.35" class="cls-21"></rect><rect transform="translate(-204.47 332.33) rotate(-28.17)" height="572.18" width="20.03" y="287.54" x="550.01" class="cls-22"></rect><polygon points="433.79 316.7 446.11 310.1 452.98 310.1 721.57 811.65 703.91 821.11 433.79 316.7" class="cls-23"></polygon><polygon points="475.7 310.1 739.23 802.19 721.57 811.65 452.98 310.1 475.7 310.1" class="cls-24"></polygon><polygon points="498.42 310.1 756.88 792.74 739.23 802.19 475.7 310.1 498.42 310.1" class="cls-25"></polygon><polygon points="521.14 310.1 774.54 783.28 756.88 792.74 498.42 310.1 521.14 310.1" class="cls-26"></polygon><polygon points="543.86 310.1 792.2 773.83 774.54 783.28 521.14 310.1 543.86 310.1" class="cls-27"></polygon><polygon points="566.59 310.1 809.86 764.37 792.2 773.83 543.86 310.1 566.59 310.1" class="cls-28"></polygon><polygon points="589.3 310.1 827.51 754.92 809.86 764.37 566.59 310.1 589.3 310.1" class="cls-29"></polygon><polygon points="612.03 310.1 845.17 745.46 827.51 754.92 589.3 310.1 612.03 310.1" class="cls-30"></polygon><polygon points="634.75 310.1 862.83 736 845.17 745.46 612.03 310.1 634.75 310.1" class="cls-31"></polygon><polygon points="657.47 310.1 880.48 726.55 862.83 736 634.75 310.1 657.47 310.1" class="cls-32"></polygon><polygon points="680.19 310.1 898.14 717.09 880.48 726.55 657.47 310.1 680.19 310.1" class="cls-33"></polygon><polygon points="1033.47 644.62 898.14 717.09 680.19 310.1 1033.47 310.1 1033.47 644.62" class="cls-33"></polygon></g><path d="M44.29,653.76a96.94,96.94,0,0,1-24.41-17.52,59.42,59.42,0,0,1-9.94-13.16,46,46,0,0,1-3.06-6.85,39.27,39.27,0,0,1-2.25-13.94L2,714.5C1.58,733.13,14.94,752,41.67,766L446.19,977.46l2.61-112.21Z" class="cls-34"></path><path d="M1021.62,604.56c-.15,1.19-.32,2.38-.57,3.56-.2.92-.46,1.83-.73,2.74-.33,1.13-.7,2.25-1.14,3.37-.35.9-.75,1.8-1.17,2.7-.54,1.14-1.13,2.27-1.78,3.4-.49.85-1,1.71-1.57,2.55-.84,1.29-1.79,2.55-2.78,3.81-.59.74-1.15,1.48-1.79,2.21a67,67,0,0,1-6.28,6.35c-1.85,1.64-3.87,3.23-6,4.79-.64.46-1.37.91-2,1.37-1.81,1.24-3.63,2.49-5.63,3.67L620.94,863.64c-3,1.77-6.13,3.41-9.37,5-1.08.51-2.23,1-3.34,1.44-2.22,1-4.45,2-6.76,2.84-1.37.51-2.79,1-4.18,1.45-2.16.74-4.32,1.48-6.55,2.14-1.52.46-3.09.86-4.65,1.27-2.17.58-4.36,1.14-6.58,1.64-1.26.29-2.53.53-3.8.79-5.48,1.11-11.06,2.05-16.75,2.71-.82.09-1.67.14-2.5.22-3.56.37-7.14.66-10.75.84-1.67.09-3.35.13-5,.18-2.35.07-4.7.11-7,.1-1.85,0-3.7,0-5.55-.09-2-.06-4.09-.14-6.13-.26s-3.86-.24-5.78-.4-3.79-.34-5.68-.55-3.89-.46-5.83-.73-3.75-.54-5.61-.85-3.72-.65-5.56-1q-3-.59-6-1.26-2.56-.59-5.09-1.24c-2.31-.59-4.58-1.23-6.83-1.91-1.47-.44-2.94-.88-4.39-1.36-4.29-1.41-8.51-2.93-12.55-4.65l-.19-.08c-3.31-1.41-6.54-2.94-9.66-4.57l-2.61,112.21c3.11,1.63,6.34,3.16,9.66,4.58h0l.16.06c4,1.72,8.25,3.24,12.54,4.65.52.17,1,.39,1.51.56.94.3,1.93.52,2.88.81,2.26.67,4.53,1.31,6.83,1.9.82.22,1.61.48,2.44.69s1.78.35,2.66.56c2,.45,4,.86,6,1.25,1,.19,1.93.44,2.92.62s1.76.25,2.64.4c1.87.31,3.74.58,5.62.84,1,.15,2.05.34,3.09.47s1.83.16,2.74.26q2.83.32,5.67.55c1,.08,2.05.22,3.07.29s1.81.06,2.72.11c2,.12,4.08.2,6.13.26,1,0,2.08.12,3.12.13.81,0,1.61,0,2.43,0,2.35,0,4.69,0,7-.11,1.11,0,2.23,0,3.33,0,.57,0,1.13-.11,1.7-.14,3.61-.18,7.19-.47,10.75-.83.71-.08,1.44-.09,2.15-.17l.36-.06c5.69-.65,11.26-1.6,16.74-2.71.6-.12,1.24-.17,1.84-.3s1.3-.34,2-.49c2.23-.5,4.41-1.06,6.59-1.64,1.56-.41,3.12-.81,4.65-1.27,2.23-.66,4.39-1.4,6.54-2.14,1.4-.48,2.81-.93,4.18-1.45,2.32-.88,4.55-1.86,6.77-2.84,1.11-.48,2.25-.93,3.33-1.44,3.25-1.54,6.39-3.18,9.38-4.95L987.51,757.29c.59-.34,1.16-.69,1.73-1,1.38-.85,2.62-1.74,3.91-2.62.67-.46,1.39-.9,2-1.37,2.12-1.54,4.12-3.12,6-4.73l.06,0a67,67,0,0,0,6.28-6.36c.18-.21.44-.41.62-.63.44-.52.75-1.06,1.16-1.58,1-1.26,1.94-2.52,2.79-3.81.24-.36.56-.71.79-1.08s.49-1,.77-1.47c.65-1.13,1.25-2.26,1.78-3.4.22-.47.53-.92.73-1.39s.28-.88.45-1.31c.43-1.12.8-2.24,1.13-3.37.16-.54.41-1.07.55-1.62.09-.37.1-.75.18-1.12.26-1.18.43-2.37.57-3.56.08-.6.25-1.19.29-1.79s.08-1.27.09-1.9L1022,600.87C1022,602.1,1021.77,603.33,1021.62,604.56Z" class="cls-35"></path><path d="M538.9,884.3c-31.24,0-62.82-6.47-87.64-19.44L46,654.74c-25.77-13.47-43.27-31.6-41.41-51.12,1.08-11.34,2.71-15.89,5.18-19.9.71,13.26.43,21.3,5.85,31.49,6.26,11.4,20.76,22.61,35.25,30.18L455.07,850.47c48.39,25.31,123.65,24.65,167.77-1.49L999.05,639.11l-371.23,224C604,877.2,571.64,884.3,538.9,884.3Z" class="cls-36"></path><g class="cls-37"><rect height="599.72" width="776.18" y="249.68" x="103.63" class="cls-38"></rect><path d="M573.6,415.27C740.21,459.12,851.42,585.24,822,697c-14.71,55.87-61.79,97.56-126,119.8s-145.61,25-228.91,3.11C300.5,776,189.28,649.91,218.69,538.17S407,371.41,573.6,415.27Z" class="cls-38"></path><path d="M573.19,417c165.5,43.56,276,168.84,246.76,279.83-14.6,55.5-61.37,96.91-125.17,119s-144.63,24.87-227.38,3.09C301.9,775.31,191.43,650,220.64,539S407.7,373.39,573.19,417Z" class="cls-39"></path><path d="M572.78,418.63c164.39,43.27,274.13,167.72,245.11,278-14.51,55.12-61,96.26-124.33,118.21s-143.67,24.7-225.86,3.06c-164.39-43.26-274.13-167.71-245.11-278S408.39,375.36,572.78,418.63Z" class="cls-40"></path><path d="M572.37,420.31c163.28,43,272.28,166.59,243.46,276.09-14.42,54.75-60.55,95.61-123.5,117.41s-142.7,24.53-224.33,3c-163.28-43-272.28-166.58-243.46-276.08S409.09,377.33,572.37,420.31Z" class="cls-41"></path><path d="M572,422c162.17,42.69,270.43,165.46,241.8,274.22-14.31,54.38-60.14,95-122.65,116.61s-141.73,24.37-222.82,3c-162.17-42.68-270.43-165.45-241.8-274.21S409.79,379.31,572,422Z" class="cls-42"></path><ellipse transform="translate(-211.17 964.57) rotate(-75.25)" ry="301.56" rx="202.24" cy="619.25" cx="520.07" class="cls-43"></ellipse><ellipse transform="translate(-211.54 964.76) rotate(-75.25)" ry="299.49" rx="200.85" cy="619.59" cx="520.01" class="cls-44"></ellipse><ellipse transform="translate(-211.9 964.96) rotate(-75.25)" ry="297.41" rx="199.46" cy="619.93" cx="519.96" class="cls-45"></ellipse><ellipse transform="translate(-212.27 965.16) rotate(-75.25)" ry="295.34" rx="198.07" cy="620.26" cx="519.9" class="cls-46"></ellipse><ellipse transform="matrix(0.25, -0.97, 0.97, 0.25, -212.64, 965.35)" ry="293.26" rx="196.68" cy="620.6" cx="519.84" class="cls-47"></ellipse><ellipse transform="translate(-213.01 965.55) rotate(-75.25)" ry="291.19" rx="195.28" cy="620.94" cx="519.78" class="cls-48"></ellipse><ellipse transform="translate(-213.37 965.74) rotate(-75.25)" ry="289.11" rx="193.89" cy="621.27" cx="519.73" class="cls-49"></ellipse><ellipse transform="translate(-213.74 965.94) rotate(-75.25)" ry="287.04" rx="192.5" cy="621.61" cx="519.67" class="cls-50"></ellipse><ellipse transform="translate(-214.11 966.13) rotate(-75.25)" ry="284.96" rx="191.11" cy="621.94" cx="519.61" class="cls-51"></ellipse><ellipse transform="translate(-214.47 966.33) rotate(-75.25)" ry="282.89" rx="189.72" cy="622.28" cx="519.56" class="cls-52"></ellipse><ellipse transform="translate(-214.84 966.53) rotate(-75.25)" ry="280.81" rx="188.33" cy="622.62" cx="519.5" class="cls-53"></ellipse><ellipse transform="translate(-215.21 966.72) rotate(-75.25)" ry="278.74" rx="186.93" cy="622.95" cx="519.44" class="cls-54"></ellipse><ellipse transform="matrix(0.25, -0.97, 0.97, 0.25, -215.58, 966.92)" ry="276.66" rx="185.54" cy="623.29" cx="519.39" class="cls-55"></ellipse><ellipse transform="translate(-215.94 967.11) rotate(-75.25)" ry="274.59" rx="184.15" cy="623.63" cx="519.33" class="cls-56"></ellipse><ellipse transform="translate(-216.31 967.31) rotate(-75.25)" ry="272.51" rx="182.76" cy="623.96" cx="519.27" class="cls-57"></ellipse><ellipse transform="translate(-216.68 967.5) rotate(-75.25)" ry="270.44" rx="181.37" cy="624.3" cx="519.22" class="cls-58"></ellipse><ellipse transform="translate(-217.05 967.7) rotate(-75.25)" ry="268.36" rx="179.98" cy="624.63" cx="519.16" class="cls-59"></ellipse><ellipse transform="translate(-217.41 967.89) rotate(-75.25)" ry="266.29" rx="178.59" cy="624.97" cx="519.1" class="cls-60"></ellipse><ellipse transform="translate(-217.78 968.09) rotate(-75.25)" ry="264.21" rx="177.19" cy="625.31" cx="519.05" class="cls-61"></ellipse><ellipse transform="translate(-218.15 968.29) rotate(-75.25)" ry="262.14" rx="175.8" cy="625.64" cx="518.99" class="cls-62"></ellipse><ellipse transform="translate(-218.52 968.48) rotate(-75.25)" ry="260.06" rx="174.41" cy="625.98" cx="518.93" class="cls-63"></ellipse><ellipse transform="translate(-218.88 968.68) rotate(-75.25)" ry="257.99" rx="173.02" cy="626.31" cx="518.88" class="cls-64"></ellipse><ellipse transform="translate(-219.25 968.87) rotate(-75.25)" ry="255.91" rx="171.63" cy="626.65" cx="518.82" class="cls-65"></ellipse><ellipse transform="translate(-219.62 969.07) rotate(-75.25)" ry="253.84" rx="170.24" cy="626.99" cx="518.76" class="cls-66"></ellipse><ellipse transform="translate(-219.99 969.26) rotate(-75.25)" ry="251.76" rx="168.84" cy="627.32" cx="518.71" class="cls-67"></ellipse><ellipse transform="translate(-220.35 969.46) rotate(-75.25)" ry="249.69" rx="167.45" cy="627.66" cx="518.65" class="cls-68"></ellipse><ellipse transform="translate(-220.72 969.66) rotate(-75.25)" ry="247.61" rx="166.06" cy="628" cx="518.59" class="cls-69"></ellipse><ellipse transform="translate(-221.09 969.85) rotate(-75.25)" ry="245.54" rx="164.67" cy="628.33" cx="518.54" class="cls-70"></ellipse><ellipse transform="translate(-221.46 970.05) rotate(-75.25)" ry="243.47" rx="163.28" cy="628.67" cx="518.48" class="cls-71"></ellipse><ellipse transform="translate(-221.82 970.24) rotate(-75.25)" ry="241.39" rx="161.89" cy="629" cx="518.42" class="cls-72"></ellipse><ellipse transform="translate(-222.19 970.44) rotate(-75.25)" ry="239.32" rx="160.5" cy="629.34" cx="518.37" class="cls-73"></ellipse><ellipse transform="translate(-222.56 970.63) rotate(-75.25)" ry="237.24" rx="159.1" cy="629.68" cx="518.31" class="cls-74"></ellipse><ellipse transform="translate(-222.93 970.83) rotate(-75.25)" ry="235.17" rx="157.71" cy="630.01" cx="518.25" class="cls-75"></ellipse><ellipse transform="translate(-223.29 971.03) rotate(-75.25)" ry="233.09" rx="156.32" cy="630.35" cx="518.19" class="cls-76"></ellipse><ellipse transform="translate(-223.66 971.22) rotate(-75.25)" ry="231.02" rx="154.93" cy="630.69" cx="518.14" class="cls-77"></ellipse><ellipse transform="translate(-224.03 971.42) rotate(-75.25)" ry="228.94" rx="153.54" cy="631.02" cx="518.08" class="cls-78"></ellipse><ellipse transform="translate(-224.4 971.61) rotate(-75.25)" ry="226.87" rx="152.15" cy="631.36" cx="518.02" class="cls-79"></ellipse><ellipse transform="translate(-224.76 971.81) rotate(-75.25)" ry="224.79" rx="150.76" cy="631.69" cx="517.97" class="cls-80"></ellipse><ellipse transform="translate(-225.13 972) rotate(-75.25)" ry="222.72" rx="149.36" cy="632.03" cx="517.91" class="cls-81"></ellipse><ellipse transform="translate(-225.13 972) rotate(-75.25)" ry="220.64" rx="147.97" cy="632.03" cx="517.91" class="cls-81"></ellipse><ellipse transform="translate(-225.71 972.31) rotate(-75.25)" ry="217.35" rx="145.76" cy="632.56" cx="517.82" class="cls-82"></ellipse><ellipse transform="translate(-226.29 972.62) rotate(-75.25)" ry="214.05" rx="143.55" cy="633.09" cx="517.73" class="cls-83"></ellipse><ellipse transform="translate(-226.87 972.93) rotate(-75.25)" ry="210.76" rx="141.35" cy="633.62" cx="517.64" class="cls-84"></ellipse><ellipse transform="translate(-227.45 973.24) rotate(-75.25)" ry="207.47" rx="139.14" cy="634.15" cx="517.55" class="cls-85"></ellipse><ellipse transform="translate(-228.02 973.55) rotate(-75.25)" ry="204.18" rx="136.93" cy="634.68" cx="517.46" class="cls-86"></ellipse><ellipse transform="matrix(0.25, -0.97, 0.97, 0.25, -228.6, 973.85)" ry="200.88" rx="134.72" cy="635.21" cx="517.37" class="cls-87"></ellipse><ellipse transform="matrix(0.25, -0.97, 0.97, 0.25, -229.18, 974.16)" ry="197.59" rx="132.51" cy="635.74" cx="517.28" class="cls-88"></ellipse><ellipse transform="translate(-229.76 974.47) rotate(-75.25)" ry="194.3" rx="130.3" cy="636.26" cx="517.2" class="cls-89"></ellipse><ellipse transform="translate(-230.34 974.78) rotate(-75.25)" ry="191" rx="128.1" cy="636.79" cx="517.11" class="cls-90"></ellipse><ellipse transform="translate(-230.92 975.09) rotate(-75.25)" ry="187.71" rx="125.89" cy="637.32" cx="517.02" class="cls-91"></ellipse><ellipse transform="translate(-231.5 975.39) rotate(-75.25)" ry="184.42" rx="123.68" cy="637.85" cx="516.93" class="cls-92"></ellipse><ellipse transform="translate(-232.07 975.7) rotate(-75.25)" ry="181.12" rx="121.47" cy="638.38" cx="516.84" class="cls-93"></ellipse><ellipse transform="translate(-232.65 976.01) rotate(-75.25)" ry="177.83" rx="119.26" cy="638.91" cx="516.75" class="cls-94"></ellipse><ellipse transform="matrix(0.25, -0.97, 0.97, 0.25, -233.23, 976.32)" ry="174.54" rx="117.05" cy="639.44" cx="516.66" class="cls-95"></ellipse><ellipse transform="translate(-233.81 976.63) rotate(-75.25)" ry="171.24" rx="114.84" cy="639.97" cx="516.57" class="cls-96"></ellipse><ellipse transform="translate(-234.39 976.93) rotate(-75.25)" ry="167.95" rx="112.64" cy="640.5" cx="516.48" class="cls-97"></ellipse><ellipse transform="translate(-234.97 977.24) rotate(-75.25)" ry="164.66" rx="110.43" cy="641.03" cx="516.39" class="cls-98"></ellipse><ellipse transform="translate(-235.55 977.55) rotate(-75.25)" ry="161.36" rx="108.22" cy="641.56" cx="516.3" class="cls-99"></ellipse><ellipse transform="translate(-236.12 977.86) rotate(-75.25)" ry="158.07" rx="106.01" cy="642.09" cx="516.21" class="cls-100"></ellipse><ellipse transform="translate(-236.7 978.17) rotate(-75.25)" ry="154.78" rx="103.8" cy="642.62" cx="516.12" class="cls-101"></ellipse><ellipse transform="translate(-237.28 978.48) rotate(-75.25)" ry="151.48" rx="101.59" cy="643.15" cx="516.03" class="cls-102"></ellipse><ellipse transform="translate(-237.86 978.78) rotate(-75.25)" ry="148.19" rx="99.38" cy="643.68" cx="515.94" class="cls-103"></ellipse><ellipse transform="translate(-238.44 979.09) rotate(-75.25)" ry="144.9" rx="97.18" cy="644.2" cx="515.85" class="cls-104"></ellipse><ellipse transform="matrix(0.25, -0.97, 0.97, 0.25, -239.02, 979.4)" ry="141.61" rx="94.97" cy="644.73" cx="515.76" class="cls-105"></ellipse><ellipse transform="translate(-239.59 979.71) rotate(-75.25)" ry="138.31" rx="92.76" cy="645.26" cx="515.68" class="cls-106"></ellipse><ellipse transform="translate(-240.17 980.02) rotate(-75.25)" ry="135.02" rx="90.55" cy="645.79" cx="515.59" class="cls-107"></ellipse><ellipse transform="translate(-240.75 980.32) rotate(-75.25)" ry="131.73" rx="88.34" cy="646.32" cx="515.5" class="cls-108"></ellipse><ellipse transform="matrix(0.25, -0.97, 0.97, 0.25, -241.33, 980.63)" ry="128.43" rx="86.13" cy="646.85" cx="515.41" class="cls-109"></ellipse><ellipse transform="translate(-241.91 980.94) rotate(-75.25)" ry="125.14" rx="83.92" cy="647.38" cx="515.32" class="cls-110"></ellipse><ellipse transform="translate(-242.49 981.25) rotate(-75.25)" ry="121.85" rx="81.72" cy="647.91" cx="515.23" class="cls-111"></ellipse><ellipse transform="translate(-243.07 981.56) rotate(-75.25)" ry="118.55" rx="79.51" cy="648.44" cx="515.14" class="cls-112"></ellipse><ellipse transform="matrix(0.25, -0.97, 0.97, 0.25, -243.64, 981.86)" ry="115.26" rx="77.3" cy="648.97" cx="515.05" class="cls-113"></ellipse><ellipse transform="translate(-244.22 982.17) rotate(-75.25)" ry="111.97" rx="75.09" cy="649.5" cx="514.96" class="cls-114"></ellipse><ellipse transform="translate(-244.8 982.48) rotate(-75.25)" ry="108.67" rx="72.88" cy="650.03" cx="514.87" class="cls-115"></ellipse><ellipse transform="translate(-245.38 982.79) rotate(-75.25)" ry="105.38" rx="70.67" cy="650.56" cx="514.78" class="cls-116"></ellipse><ellipse transform="translate(-245.96 983.1) rotate(-75.25)" ry="102.09" rx="68.46" cy="651.09" cx="514.69" class="cls-117"></ellipse><ellipse transform="translate(-246.54 983.41) rotate(-75.25)" ry="98.79" rx="66.26" cy="651.62" cx="514.6" class="cls-118"></ellipse><ellipse transform="translate(-247.12 983.71) rotate(-75.25)" ry="95.5" rx="64.05" cy="652.15" cx="514.51" class="cls-119"></ellipse><ellipse transform="matrix(0.25, -0.97, 0.97, 0.25, -247.69, 984.02)" ry="92.21" rx="61.84" cy="652.67" cx="514.42" class="cls-120"></ellipse><ellipse transform="translate(-248.27 984.33) rotate(-75.25)" ry="88.92" rx="59.63" cy="653.2" cx="514.33" class="cls-121"></ellipse><ellipse transform="matrix(0.25, -0.97, 0.97, 0.25, -248.85, 984.64)" ry="85.62" rx="57.42" cy="653.73" cx="514.24" class="cls-122"></ellipse><ellipse transform="translate(-249.43 984.95) rotate(-75.25)" ry="82.33" rx="55.21" cy="654.26" cx="514.16" class="cls-123"></ellipse><ellipse transform="translate(-250.01 985.25) rotate(-75.25)" ry="79.04" rx="53" cy="654.79" cx="514.07" class="cls-124"></ellipse><ellipse transform="translate(-250.59 985.56) rotate(-75.25)" ry="75.74" rx="50.8" cy="655.32" cx="513.98" class="cls-125"></ellipse><ellipse transform="translate(-251.17 985.87) rotate(-75.25)" ry="72.45" rx="48.59" cy="655.85" cx="513.89" class="cls-126"></ellipse><ellipse transform="matrix(0.25, -0.97, 0.97, 0.25, -251.74, 986.18)" ry="69.16" rx="46.38" cy="656.38" cx="513.8" class="cls-127"></ellipse><ellipse transform="translate(-252.32 986.49) rotate(-75.25)" ry="65.86" rx="44.17" cy="656.91" cx="513.71" class="cls-128"></ellipse><ellipse transform="matrix(0.25, -0.97, 0.97, 0.25, -252.9, 986.8)" ry="62.57" rx="41.96" cy="657.44" cx="513.62" class="cls-129"></ellipse><ellipse transform="translate(-253.48 987.1) rotate(-75.25)" ry="59.28" rx="39.75" cy="657.97" cx="513.53" class="cls-130"></ellipse><ellipse transform="translate(-254.06 987.41) rotate(-75.25)" ry="55.98" rx="37.55" cy="658.5" cx="513.44" class="cls-131"></ellipse><ellipse transform="translate(-254.64 987.72) rotate(-75.25)" ry="52.69" rx="35.34" cy="659.03" cx="513.35" class="cls-132"></ellipse><ellipse transform="translate(-255.22 988.03) rotate(-75.25)" ry="49.4" rx="33.13" cy="659.56" cx="513.26" class="cls-133"></ellipse><ellipse transform="translate(-255.79 988.34) rotate(-75.25)" ry="46.1" rx="30.92" cy="660.09" cx="513.17" class="cls-134"></ellipse><ellipse transform="translate(-256.37 988.64) rotate(-75.25)" ry="42.81" rx="28.71" cy="660.61" cx="513.08" class="cls-135"></ellipse><ellipse transform="translate(-256.95 988.95) rotate(-75.25)" ry="39.52" rx="26.5" cy="661.14" cx="512.99" class="cls-136"></ellipse><ellipse transform="translate(-257.53 989.26) rotate(-75.25)" ry="36.22" rx="24.29" cy="661.67" cx="512.9" class="cls-137"></ellipse><ellipse transform="translate(-258.11 989.57) rotate(-75.25)" ry="32.93" rx="22.09" cy="662.2" cx="512.81" class="cls-138"></ellipse><ellipse transform="translate(-258.69 989.88) rotate(-75.25)" ry="29.64" rx="19.88" cy="662.73" cx="512.72" class="cls-139"></ellipse><ellipse transform="matrix(0.25, -0.97, 0.97, 0.25, -259.27, 990.18)" ry="26.35" rx="17.67" cy="663.26" cx="512.64" class="cls-140"></ellipse><ellipse transform="matrix(0.25, -0.97, 0.97, 0.25, -259.84, 990.49)" ry="23.05" rx="15.46" cy="663.79" cx="512.55" class="cls-141"></ellipse><ellipse transform="matrix(0.25, -0.97, 0.97, 0.25, -260.42, 990.8)" ry="19.76" rx="13.25" cy="664.32" cx="512.46" class="cls-142"></ellipse><ellipse transform="translate(-261 991.11) rotate(-75.25)" ry="16.47" rx="11.04" cy="664.85" cx="512.37" class="cls-143"></ellipse><ellipse transform="translate(-261.58 991.42) rotate(-75.25)" ry="13.17" rx="8.83" cy="665.38" cx="512.28" class="cls-144"></ellipse><ellipse transform="matrix(0.25, -0.97, 0.97, 0.25, -262.16, 991.73)" ry="9.88" rx="6.63" cy="665.91" cx="512.19" class="cls-145"></ellipse><ellipse transform="translate(-262.74 992.03) rotate(-75.25)" ry="6.59" rx="4.42" cy="666.44" cx="512.1" class="cls-146"></ellipse><ellipse transform="translate(-263.32 992.34) rotate(-75.25)" ry="3.29" rx="2.21" cy="666.97" cx="512.01" class="cls-147"></ellipse></g><g class="cls-148"><rect height="358.43" width="358.43" y="27.54" x="361.04" class="cls-38"></rect><path d="M720.47,290.11v91.24h.84a279.08,279.08,0,0,1-26.48,10.55V387H487v3.49q-15.24-4.95-30.3-11.32a385.43,385.43,0,0,1-58.88-31.26q-14.33-9.25-27.5-19.52-6.58-5.12-12.88-10.46H360V26.54H720.47Z" class="cls-38"></path><path d="M720.47,288.81v87.55h6q-3.15,1.54-6.36,3a274.08,274.08,0,0,1-26.29,10.48V387H487.5v1.46q-15.12-4.92-30.07-11.24a381.66,381.66,0,0,1-58.46-31q-14.22-9.19-27.3-19.38-6.54-5.07-12.78-10.38H360V26.54H720.47Z" class="cls-39"></path><path d="M720.47,287.51v86.91h4.68c-2.09,1-4.2,2-6.31,3a272.18,272.18,0,0,1-26.1,10.4V387H503v4q-7.54-2.1-15.05-4.53-15-4.87-29.85-11.15a379.52,379.52,0,0,1-58-30.81Q386,335.31,373,325.2q-6.48-5.06-12.69-10.31-3.09-2.64-6.12-5.32H360v-283H720.47Z" class="cls-40"></path><path d="M720.47,286.21v86.27h3.39q-3.11,1.53-6.26,3a269.76,269.76,0,0,1-25.91,10.32q-13.28,4.53-27.11,7.75V387H518.33v5.7a368.61,368.61,0,0,1-117.13-50q-14-9.06-26.91-19.09-6.44-5-12.59-10.23-3.07-2.62-6.08-5.28H360V26.54H720.47Z" class="cls-41"></path><path d="M720.47,284.91v85.63h2.11q-3.09,1.51-6.22,3a271.9,271.9,0,0,1-25.71,10.24q-13.18,4.49-26.91,7.69V387H518.58v3.61A365.9,365.9,0,0,1,402.31,341q-13.9-9-26.7-18.95-6.41-5-12.51-10.16c-2-1.72-4-3.47-6-5.23h3V26.54H720.47Z" class="cls-42"></path><path d="M720.47,283.61v81.9h6.9q-6,3.17-12.25,6A266.89,266.89,0,0,1,689.6,381.7q-13.08,4.46-26.71,7.64V387H518.82v1.52a363.35,363.35,0,0,1-115.4-49.2q-13.8-8.94-26.5-18.82-6.35-4.92-12.41-10.08c-2-1.71-4-3.45-6-5.2H360V26.54H720.47Z" class="cls-43"></path><path d="M720.47,282.31v81.28H726q-6,3.15-12.15,6a265,265,0,0,1-25.33,10.09,285,285,0,0,1-54,12.61V387H548.36v4.86q-14.62-2.06-29.3-5.43a360.7,360.7,0,0,1-114.53-48.83,368.65,368.65,0,0,1-50.36-39.1H360V26.54H720.47Z" class="cls-44"></path><path d="M720.47,281v80.66h4.24q-5.94,3.12-12.06,5.94a265.27,265.27,0,0,1-25.14,10,283.69,283.69,0,0,1-53.58,12.51V387H577.32v5.47a332.29,332.29,0,0,1-58-8.13,357.8,357.8,0,0,1-113.65-48.46,366,366,0,0,1-50-38.8H360V26.54H720.47Z" class="cls-45"></path><path d="M720.47,279.71v80h2.91q-5.89,3.11-12,5.9a264.8,264.8,0,0,1-24.94,9.94A281.26,281.26,0,0,1,633.3,388a318.16,318.16,0,0,1-113.75-5.79,355.32,355.32,0,0,1-112.79-48.09,362.47,362.47,0,0,1-49.6-38.5H360V26.54H720.47Z" class="cls-46"></path><path d="M720.47,278.41v79.43h1.59q-5.87,3.07-11.89,5.84a257.14,257.14,0,0,1-24.75,9.87,279.25,279.25,0,0,1-52.76,12.32,316,316,0,0,1-112.87-5.75A352.48,352.48,0,0,1,407.87,332.4a359.57,359.57,0,0,1-49.22-38.21H360V26.54H720.47Z" class="cls-47"></path><path d="M720.47,277.11v78.81h.26q-5.82,3-11.79,5.8a258.92,258.92,0,0,1-24.56,9.79A276.81,276.81,0,0,1,632,383.73c-72.13,9.7-152.18-7.22-223-53.05a356.69,356.69,0,0,1-48.83-37.91c-1.86-1.72-3.68-3.45-5.49-5.19H360v-261H720.47Z" class="cls-48"></path><path d="M720.47,275.81V350.9h4.64q-2.83,1.59-5.71,3.1-5.76,3-11.7,5.76a256.49,256.49,0,0,1-24.37,9.71,274.62,274.62,0,0,1-51.94,12.13c-71.56,9.62-151-7.17-221.3-52.64a355.13,355.13,0,0,1-48.45-37.61q-2.76-2.55-5.44-5.16H360V26.54H720.47Z" class="cls-49"></path><path d="M720.47,274.51V349h3.27c-1.88,1.05-3.77,2.07-5.67,3.08q-5.72,3-11.61,5.71a256,256,0,0,1-24.17,9.63,272.37,272.37,0,0,1-51.53,12c-71,9.54-149.8-7.11-219.55-52.22a352.45,352.45,0,0,1-48.08-37.31q-2.73-2.54-5.39-5.12H360V26.54H720.47Z" class="cls-50"></path><path d="M720.47,273.21v73.91h1.89q-2.79,1.56-5.62,3.05-5.67,3-11.52,5.66a251,251,0,0,1-24,9.56,270.36,270.36,0,0,1-51.12,11.94c-70.43,9.46-148.6-7.06-217.8-51.81a348.83,348.83,0,0,1-47.69-37q-5.43-5-10.58-10.23h6V26.54H720.47Z" class="cls-51"></path><path d="M720.47,271.91v70.14h6c-29,17.31-62.06,28.45-97,33.14-69.87,9.39-147.41-7-216.06-51.39a346.05,346.05,0,0,1-47.31-36.72q-5.37-5-10.49-10.15H360V26.54H720.47Z" class="cls-52"></path><path d="M720.47,270.61v69.57h4.59c-28.8,17.17-61.55,28.22-96.21,32.88-69.3,9.31-146.22-6.94-214.31-51a343.17,343.17,0,0,1-46.92-36.42q-5.34-4.95-10.41-10.07H360v-249H720.47Z" class="cls-53"></path><path d="M720.47,269.31v69h3.17c-28.56,17-61,28-95.42,32.6-68.74,9.24-145-6.88-212.57-50.56a341,341,0,0,1-46.54-36.12q-5.3-4.92-10.32-10H360V26.54H720.47Z" class="cls-54"></path><path d="M720.47,268v68.44h1.75c-28.33,16.89-60.55,27.76-94.64,32.34C559.41,378,483.75,362,416.77,318.64a336.87,336.87,0,0,1-46.16-35.83q-5.25-4.86-10.24-9.9c-1.66-1.68-3.3-3.38-4.92-5.08H360V26.54H720.47Z" class="cls-55"></path><path d="M720.47,266.71v67.87h.33c-28.09,16.75-60,27.53-93.85,32.07-67.61,9.09-142.65-6.77-209.07-49.73a334.7,334.7,0,0,1-45.78-35.53q-5.21-4.83-10.15-9.82c-1.65-1.67-3.27-3.35-4.88-5h3v-240H720.47Z" class="cls-56"></path><path d="M720.47,265.41v64.12h4.09q-2.56,1.64-5.18,3.19c-27.86,16.6-59.54,27.29-93.07,31.8-67,9-141.45-6.72-207.32-49.32A331.82,331.82,0,0,1,373.6,280Q363.27,270.4,354,260.16H360V26.54H720.47Z" class="cls-57"></path><path d="M720.47,264.11v63.58h2.63q-2.55,1.62-5.14,3.16c-27.62,16.47-59,27.07-92.28,31.53-66.48,8.94-140.26-6.66-205.58-48.9a329,329,0,0,1-45-34.93q-10.24-9.49-19.44-19.65H360V26.54H720.47Z" class="cls-58"></path><path d="M720.47,262.81v59.78h6.16q-4.95,3.33-10.09,6.39C689.15,345.31,658,355.82,625,360.25c-65.91,8.86-139.07-6.6-203.83-48.49a326.13,326.13,0,0,1-44.63-34.64q-10.14-9.4-19.27-19.48H360V26.54H720.47Z" class="cls-59"></path><path d="M720.47,261.51v59.26h4.66q-4.92,3.32-10,6.34c-27.15,16.19-58,26.61-90.71,31-65.35,8.79-137.88-6.54-202.09-48.06a324.1,324.1,0,0,1-44.24-34.35Q368,266.37,359,256.39H360V26.54H720.47Z" class="cls-60"></path><path d="M720.47,260.21V319h3.15q-4.86,3.29-9.92,6.29c-26.92,16-57.53,26.37-89.93,30.73-64.78,8.7-136.68-6.49-200.33-47.65a321.41,321.41,0,0,1-43.87-34.05q-10-9.25-18.94-19.15-2.25-2.46-4.42-5H360V26.54H720.47Z" class="cls-61"></path><path d="M720.47,258.91v58.24h1.65q-4.83,3.25-9.84,6.23c-26.68,15.91-57,26.15-89.14,30.46-64.22,8.63-135.5-6.43-198.59-47.23a317.74,317.74,0,0,1-43.48-33.75q-9.9-9.18-18.78-19-4.46-4.9-8.63-9.94H360V26.54H720.47Z" class="cls-62"></path><path d="M720.47,257.61v57.73h.14q-4.79,3.21-9.74,6.17c-26.45,15.77-56.54,25.92-88.37,30.2-63.65,8.55-134.3-6.38-196.84-46.82a315.46,315.46,0,0,1-43.1-33.46q-9.8-9.07-18.61-18.81-4.41-4.85-8.56-9.85H360V26.54H720.47Z" class="cls-63"></path><path d="M720.47,256.31v54h3.33c-1.55,1.11-3.12,2.19-4.7,3.26q-4.74,3.18-9.65,6.12c-26.22,15.62-56,25.68-87.58,29.92-63.09,8.48-133.11-6.32-195.1-46.4A312.57,312.57,0,0,1,384.06,270q-9.72-9-18.46-18.64-4.35-4.81-8.47-9.77H360V26.54H720.47Z" class="cls-64"></path><path d="M720.47,255v50.12h6.34A204.87,204.87,0,0,1,708,317.78c-26,15.49-55.53,25.46-86.8,29.66-62.52,8.4-131.91-6.26-193.35-46a309.79,309.79,0,0,1-42.33-32.86q-9.63-8.93-18.29-18.48-4.32-4.77-8.4-9.68H360V26.54H720.47Z" class="cls-65"></path><path d="M720.47,253.71v49.67h4.76a202.63,202.63,0,0,1-18.62,12.53c-25.75,15.35-55,25.23-86,29.39-62,8.33-130.73-6.2-191.6-45.57a306.39,306.39,0,0,1-41.95-32.56q-9.56-8.85-18.13-18.31-4.28-4.73-8.32-9.59c-1.35-1.62-2.67-3.26-4-4.9H360V26.54H720.47Z" class="cls-66"></path><path d="M720.47,252.41v49.22h3.17a203.72,203.72,0,0,1-18.45,12.42c-25.51,15.2-54.53,25-85.23,29.12C558.56,351.42,490.43,337,430.11,298a297.8,297.8,0,0,1-75.53-69.67H360V26.54H720.47Z" class="cls-67"></path><path d="M720.47,251.11v48.77h1.58a201.32,201.32,0,0,1-18.28,12.3c-25.28,15.07-54,24.77-84.44,28.85-60.84,8.18-128.34-6.09-188.11-44.74a294.93,294.93,0,0,1-74.83-69H360V26.54H720.47Z" class="cls-68"></path><path d="M720.47,249.81v45h4.29c-1.42,1.14-2.85,2.25-4.3,3.35a195.62,195.62,0,0,1-18.11,12.19c-25,14.93-53.52,24.54-83.66,28.59-60.27,8.1-127.15-6-186.36-44.33a292.28,292.28,0,0,1-74.14-68.39H360V26.54H720.47Z" class="cls-69"></path><path d="M720.47,248.51V289.6h6.84q-4.12,3.51-8.44,6.77a195.25,195.25,0,0,1-17.94,12.07c-24.81,14.79-53,24.31-82.87,28.32-59.71,8-126-6-184.62-43.91A289.58,289.58,0,0,1,360,225.1h0V26.54H720.47Z" class="cls-70"></path><path d="M720.47,247.21v40.7h5.17q-4.08,3.48-8.36,6.71a193.62,193.62,0,0,1-17.77,12c-24.57,14.65-52.52,24.07-82.09,28.05-59.14,7.95-124.76-5.93-182.86-43.5A286.59,286.59,0,0,1,361.81,224q-3.62-4.76-7-9.63H360V26.54H720.47Z" class="cls-71"></path><path d="M720.47,245.91v40.31H724q-4.05,3.45-8.28,6.64a192,192,0,0,1-17.6,11.85c-24.34,14.51-52,23.85-81.3,27.78-58.58,7.88-123.58-5.86-181.12-43.08A284.08,284.08,0,0,1,363.61,223q-3.57-4.72-6.92-9.54H360V26.54H720.47Z" class="cls-72"></path><path d="M720.47,244.61v39.92h1.83q-4,3.41-8.2,6.58a188.25,188.25,0,0,1-17.43,11.73c-24.1,14.37-51.51,23.62-80.52,27.52-58,7.79-122.38-5.81-179.37-42.67a281.21,281.21,0,0,1-71.36-65.82q-3.54-4.68-6.86-9.45H360V26.54H720.47Z" class="cls-73"></path><path d="M720.47,243.31v39.53h.16q-4,3.38-8.12,6.52A188,188,0,0,1,695.25,301c-23.86,14.22-51,23.38-79.73,27.24-57.45,7.72-121.19-5.75-177.63-42.25a278.34,278.34,0,0,1-70.66-65.18q-7-9.25-13.11-18.92H360V26.54H720.47Z" class="cls-74"></path><path d="M720.47,242v32.23h6.17a183.08,183.08,0,0,1-32.81,24.87c-23.63,14.09-50.51,23.16-79,27-56.88,7.64-120-5.7-175.88-41.84a275.69,275.69,0,0,1-70-64.54q-6.94-9.15-13-18.73h4V26.54H720.47Z" class="cls-75"></path><path d="M720.47,240.71v31.91h4.42a181.82,181.82,0,0,1-32.47,24.62c-23.4,13.95-50,22.93-78.17,26.71-56.32,7.57-118.81-5.64-174.13-41.42a272.7,272.7,0,0,1-69.28-63.9Q364,209.57,358,200.09H360V26.54H720.47Z" class="cls-76"></path><path d="M720.47,239.41V271h2.68A180.39,180.39,0,0,1,691,295.38c-23.17,13.8-49.51,22.69-77.39,26.44-55.75,7.49-117.61-5.59-172.38-41a269.83,269.83,0,0,1-68.58-63.26q-6.82-9-12.72-18.35H360V26.54H720.47Z" class="cls-77"></path><path d="M720.47,238.11v31.27h.93a178.48,178.48,0,0,1-31.82,24.13A201.65,201.65,0,0,1,613,319.68c-55.19,7.42-116.42-5.52-170.64-40.58a267.89,267.89,0,0,1-67.89-62.62q-6.74-8.89-12.58-18.18-2.92-4.63-5.61-9.36H360V26.54H720.47Z" class="cls-78"></path><path d="M720.47,236.81v23.87h6.19q-3.4,3.65-7,7.08a176.05,176.05,0,0,1-31.5,23.88,199.77,199.77,0,0,1-75.82,25.91c-54.62,7.34-115.23-5.47-168.89-40.17a264.84,264.84,0,0,1-67.19-62,245.75,245.75,0,0,1-23.09-36.67H360V26.54H720.47Z" class="cls-79"></path><path d="M720.47,235.51v23.62h4.38q-3.37,3.62-6.94,7a174.14,174.14,0,0,1-31.17,23.63,197.59,197.59,0,0,1-75,25.64c-54.06,7.27-114-5.41-167.15-39.75a262,262,0,0,1-66.49-61.34A243.17,243.17,0,0,1,355.21,178H360V26.54H720.47Z" class="cls-80"></path><path d="M720.47,234.21v23.38H723q-3.35,3.57-6.86,6.93a173.07,173.07,0,0,1-30.85,23.39,195.7,195.7,0,0,1-74.25,25.37c-53.49,7.19-112.84-5.36-165.39-39.34a259.15,259.15,0,0,1-65.8-60.7,240.22,240.22,0,0,1-22.62-35.91H360V26.54H720.47Z" class="cls-81"></path><path d="M720.47,232.91V256h.74q-3.3,3.54-6.79,6.86A170.33,170.33,0,0,1,683.9,286a193.41,193.41,0,0,1-73.46,25.1c-52.93,7.12-111.66-5.3-163.65-38.92a256.49,256.49,0,0,1-65.11-60.06,238.07,238.07,0,0,1-22.38-35.53H360V26.54H720.47Z" class="cls-81"></path><path d="M720.47,231.62V247.3h5.28a163.45,163.45,0,0,1-13.06,14,169.26,169.26,0,0,1-30.2,22.9A191.46,191.46,0,0,1,609.81,309c-52.37,7-110.47-5.25-161.92-38.52a253.63,253.63,0,0,1-64.41-59.42,235.28,235.28,0,0,1-22.15-35.16q-2.32-4.55-4.43-9.16H360V26.54H720.47Z" class="cls-82"></path><path d="M720.47,230.33v15.51h3.41A163.17,163.17,0,0,1,711,259.69a167.42,167.42,0,0,1-29.88,22.65,189.4,189.4,0,0,1-71.9,24.57c-51.8,7-109.29-5.19-160.19-38.1A251.19,251.19,0,0,1,385.27,210a232.33,232.33,0,0,1-21.91-34.78q-4.61-9-8.32-18.25h5V26.54H720.47Z" class="cls-149"></path><path d="M720.47,229.05v15.33H722a161.26,161.26,0,0,1-12.78,13.7,165.28,165.28,0,0,1-29.55,22.4,187.22,187.22,0,0,1-71.13,24.31c-51.24,6.89-108.11-5.13-158.45-37.69a248.41,248.41,0,0,1-63-58.15,231,231,0,0,1-21.67-34.4q-4.56-8.91-8.23-18.06H360v-130H720.47Z" class="cls-84"></path><path d="M720.47,227.76v7.78h5.43q-2.79,3.79-5.76,7.38a157.75,157.75,0,0,1-12.64,13.55,163.38,163.38,0,0,1-29.23,22.16,185.15,185.15,0,0,1-70.35,24C557.24,309.48,501,297.6,451.2,265.39a245.59,245.59,0,0,1-62.35-57.51,227.62,227.62,0,0,1-21.43-34q-4.5-8.81-8.14-17.85H360V26.54H719V22.66q2.9,4.18,5.57,8.44h-4.14Z" class="cls-85"></path><path d="M720.47,226.47v7.7H724q-2.75,3.75-5.69,7.3a158.86,158.86,0,0,1-12.5,13.4,162.37,162.37,0,0,1-28.91,21.91,183.25,183.25,0,0,1-69.57,23.77c-50.12,6.74-105.74-5-155-36.86s-82.78-77.75-97.19-126.22H360V26.54H717.18v-2.9c1.91,2.75,3.75,5.54,5.51,8.34h-2.22Z" class="cls-150"></path><path d="M727.28,225.18C673.41,308.48,550.79,325,453.41,262c-48.69-31.49-81.86-76.88-96.11-124.81H360V29.83h-1.49q1.5-4.24,3.25-8.43v5.14H715.32V24.62q2.83,4.08,5.45,8.25h-.3V225.18Z" class="cls-151"></path><path d="M725.28,223.89C672,306.25,550.79,322.54,454.51,260.28c-48.14-31.14-80.93-76-95-123.4H360V47.82h-4.26a155.33,155.33,0,0,1,5-17.07q1.49-4.2,3.21-8.33v4.12H713.47V25.6q2.79,4,5.38,8.15t5,8.32h-3.36V223.89Z" class="cls-152"></path><path d="M723.29,222.6c-52.65,81.42-172.5,97.52-267.68,36-47.59-30.77-80-75.14-93.93-122a185,185,0,0,1-6.94-35.42H360V65.84h-5a156.28,156.28,0,0,1,7.85-34.17q1.47-4.16,3.18-8.24v3.11H708.79V22.61q1.44,2,2.82,4,2.76,4,5.32,8.06,5.13,8.14,9.44,16.57h-5.9V222.6Z" class="cls-153"></path><path d="M721.3,221.31c-52,80.48-170.51,96.4-264.58,35.56-47-30.42-79.08-74.28-92.85-120.58a175.12,175.12,0,0,1-6.56-69.93,154.51,154.51,0,0,1,7.77-33.77q1.44-4.11,3.14-8.14v2.09H704.09V19.76a216.12,216.12,0,0,1,20.25,32.15h-3.87v169.4Z" class="cls-154"></path><path d="M719.3,220c-51.43,79.53-168.5,95.27-261.48,35.14-46.49-30.06-78.15-73.4-91.76-119.16a173.05,173.05,0,0,1-6.48-69.11,152.8,152.8,0,0,1,7.67-33.38c1-2.71,2-5.39,3.11-8v1.08H702.3V20.83a212.65,212.65,0,0,1,20,31.77h-1.84V212.47h3.41Q721.71,216.28,719.3,220Z" class="cls-155"></path><path d="M717.31,218.73c-50.83,78.59-166.51,94.14-258.39,34.72C413,223.75,381.7,180.92,368.25,135.7a171,171,0,0,1-6.4-68.29,150.44,150.44,0,0,1,7.58-33c.94-2.67,2-5.33,3.07-7.95v.06h328V21.9a209.77,209.77,0,0,1,19.78,31.39q2.07,4.07,4,8.19h-3.76V203.62h5.39A148.93,148.93,0,0,1,717.31,218.73Z" class="cls-156"></path><path d="M715.31,217.44c-50.21,77.65-164.51,93-255.28,34.31-45.39-29.35-76.3-71.66-89.59-116.34a168.87,168.87,0,0,1-6.33-67.47,149.78,149.78,0,0,1,7.5-32.59,145.31,145.31,0,0,1,6.53-15.57v6.76H698.71V23a207.72,207.72,0,0,1,19.54,31q4.11,8,7.42,16.27h-5.2V202.51h3.29A143.57,143.57,0,0,1,715.31,217.44Z" class="cls-157"></path><path d="M713.32,216.15C663.71,292.86,550.8,308,461.13,250c-44.84-29-75.38-70.79-88.5-114.93a166.78,166.78,0,0,1-6.25-66.65,147.84,147.84,0,0,1,7.4-32.19,141,141,0,0,1,6.46-15.38v5.65H696.92V24a204.76,204.76,0,0,1,19.3,30.64q4,7.93,7.33,16.08h-3.08V201.41h1.2A144.73,144.73,0,0,1,713.32,216.15Z" class="cls-158"></path><path d="M711.33,214.86c-49,75.77-160.53,90.76-249.1,33.48C418,219.7,387.78,178.41,374.82,134.82A164.73,164.73,0,0,1,368.65,69,145.48,145.48,0,0,1,376,37.19,139.52,139.52,0,0,1,382.34,22v4.54H695.13V25.11a195.87,195.87,0,0,1,32,62.37h-6.62V185.1H726A141.39,141.39,0,0,1,711.33,214.86Z" class="cls-159"></path><path d="M709.33,213.57c-48.39,74.83-158.52,89.63-246,33.06-43.73-28.28-73.52-69-86.32-112.11a162.78,162.78,0,0,1-6.1-65,144.23,144.23,0,0,1,7.22-31.4,141.92,141.92,0,0,1,6.3-15v3.44h308.9v-.36A193.19,193.19,0,0,1,724.9,87.77h-4.43v96.41h3.3A139.1,139.1,0,0,1,709.33,213.57Z" class="cls-160"></path><path d="M707.34,212.28c-47.78,73.88-156.53,88.5-242.9,32.65-43.19-27.93-72.6-68.19-85.24-110.7a160.56,160.56,0,0,1-6-64.2,141.86,141.86,0,0,1,7.13-31,135.51,135.51,0,0,1,6.22-14.82v2.33H686V20.26q2.87,3.45,5.55,7a191,191,0,0,1,31.17,60.81h-2.24v95.21h1.13A138,138,0,0,1,707.34,212.28Z" class="cls-161"></path><path d="M705.34,211c-47.17,72.94-154.53,87.37-239.8,32.23-42.63-27.57-71.67-67.32-84.15-109.29a158.43,158.43,0,0,1-5.94-63.37,140,140,0,0,1,7-30.61,136.07,136.07,0,0,1,6.15-14.63v1.22H684.27V21.42q2.82,3.41,5.48,6.9a188.41,188.41,0,0,1,30.77,60h0v63.38h6A137.44,137.44,0,0,1,705.34,211Z" class="cls-162"></path><path d="M703.35,209.7c-46.56,72-152.54,86.24-236.71,31.81-42.08-27.21-70.74-66.44-83.06-107.87a156.76,156.76,0,0,1-5.87-62.56,138.38,138.38,0,0,1,7-30.21,135.35,135.35,0,0,1,6.06-14.44v.11H682.54v-4q2.81,3.36,5.42,6.81a186.11,186.11,0,0,1,30.37,59.26,156.59,156.59,0,0,1,5.86,62.56A135.64,135.64,0,0,1,703.35,209.7Z" class="cls-163"></path><path d="M701.36,208.41c-46,71.06-150.55,85.12-233.61,31.4-41.54-26.86-69.82-65.58-82-106.46A154.72,154.72,0,0,1,380,71.6a136,136,0,0,1,6.86-29.81,131,131,0,0,1,6-14.25c1.14-2.33,2.36-4.63,3.64-6.91v5.91H680.82v-2.8q2.76,3.32,5.34,6.72a183.37,183.37,0,0,1,30,58.49,154.47,154.47,0,0,1,5.78,61.74A134,134,0,0,1,701.36,208.41Z" class="cls-164"></path><path d="M699.36,207.12c-45.34,70.12-148.55,84-230.51,31-41-26.5-68.89-64.71-80.89-105a152.59,152.59,0,0,1-5.71-60.92A134.17,134.17,0,0,1,389,42.71a129.54,129.54,0,0,1,5.91-14.06c1.12-2.3,2.32-4.58,3.59-6.82v4.71H679.1V24.89q2.71,3.28,5.27,6.64A181.16,181.16,0,0,1,714,89.24C726,129.58,722,172.07,699.36,207.12Z" class="cls-165"></path><path d="M697.37,205.83C652.63,275,550.82,288.69,470,236.4c-40.43-26.15-68-63.84-79.8-103.64a150.35,150.35,0,0,1-5.63-60.11,133,133,0,0,1,6.67-29A129.81,129.81,0,0,1,397,29.75c1.11-2.26,2.3-4.51,3.55-6.72v3.51H671.85V19.68q5.7,6.29,10.73,12.92a178.59,178.59,0,0,1,29.18,56.94C723.6,129.34,719.74,171.25,697.37,205.83Z" class="cls-166"></path><path d="M695.37,204.54c-44.12,68.24-144.55,81.73-224.31,30.15-39.88-25.79-67.05-63-78.72-102.23a148.42,148.42,0,0,1-5.56-59.28,131.57,131.57,0,0,1,6.58-28.63,128.38,128.38,0,0,1,5.75-13.69c1.09-2.23,2.26-4.45,3.5-6.63v2.31H670.2V20.93q5.63,6.2,10.59,12.74a176.39,176.39,0,0,1,28.78,56.16C721.25,129.09,717.44,170.43,695.37,204.54Z" class="cls-167"></path><path d="M693.38,203.25c-43.52,67.29-142.56,80.6-221.22,29.73-39.33-25.43-66.12-62.09-77.63-100.81a146.36,146.36,0,0,1-5.48-58.47,129.43,129.43,0,0,1,6.49-28.24A127.53,127.53,0,0,1,401.2,32c1.09-2.2,2.24-4.39,3.46-6.54v1.11h263.9V22.18Q674.1,28.29,679,34.74a173.81,173.81,0,0,1,28.39,55.38C718.89,128.84,715.14,169.61,693.38,203.25Z" class="cls-168"></path><path d="M691.39,202c-42.91,66.35-140.57,79.48-218.13,29.32S367.61,86.68,410.52,20.33v6.21H666.91V23.42q5.46,6,10.29,12.39a171.44,171.44,0,0,1,28,54.61C716.54,128.59,712.84,168.79,691.39,202Z" class="cls-169"></path><path d="M689.39,200.68c-42.3,65.4-138.57,78.34-215,28.89S370.22,87,412.51,21.62v4.92H665.26V24.67q5.38,5.92,10.15,12.21A169.24,169.24,0,0,1,703,90.71C714.19,128.35,710.54,168,689.39,200.68Z" class="cls-170"></path><path d="M687.4,199.39c-41.69,64.46-136.57,77.21-211.93,28.48s-102.65-140.5-61-205v3.63H663.62v-.63q5.29,5.85,10,12A166.65,166.65,0,0,1,700.81,91C711.84,128.1,708.24,167.15,687.4,199.39Z" class="cls-171"></path><path d="M685.4,198.1c-41.08,63.52-134.57,76.08-208.83,28.06S375.42,87.72,416.5,24.2v2.34H656.59V21.48c1.84,1.86,3.64,3.76,5.38,5.68q5.24,5.76,9.85,11.85a164.44,164.44,0,0,1,26.8,52.29C709.49,127.85,705.94,166.34,685.4,198.1Z" class="cls-172"></path><path d="M683.41,196.81c-40.47,62.58-132.58,74.95-205.73,27.65S378,88.07,418.5,25.49v1.05H655V22.81c1.81,1.84,3.58,3.7,5.29,5.59q5.16,5.68,9.71,11.68a161.87,161.87,0,0,1,26.4,51.52C707.14,127.6,703.64,165.52,683.41,196.81Z" class="cls-173"></path><path d="M681.42,195.52c-39.87,61.63-130.59,73.83-202.64,27.23s-98.15-134.34-58.29-196q1.88-2.89,3.88-5.64v5.4H653.46v-2.4q2.68,2.71,5.22,5.51,5.07,5.6,9.56,11.5a159.67,159.67,0,0,1,26,50.74C704.79,127.35,701.35,164.7,681.42,195.52Z" class="cls-174"></path><path d="M679.42,194.23c-39.25,60.69-128.59,72.7-199.54,26.81s-96.65-132.28-57.4-193q1.84-2.85,3.83-5.55v4H646.47V20.23a170.16,170.16,0,0,1,20,22,156.88,156.88,0,0,1,25.61,50C702.44,127.11,699.05,163.88,679.42,194.23Z" class="cls-175"></path><path d="M677.43,192.94c-38.64,59.75-126.59,71.57-196.44,26.4s-95.15-130.23-56.51-190q1.81-2.8,3.76-5.47v2.65H645v-4.9a167.73,167.73,0,0,1,19.66,21.65,154.42,154.42,0,0,1,25.21,49.19C700.08,126.86,696.75,163.06,677.43,192.94Z" class="cls-176"></path><path d="M675.43,191.65c-38,58.81-124.59,70.44-193.34,26s-93.65-128.17-55.62-187a111.87,111.87,0,0,1,7.69-10.47v6.37H643.51V23.05a166.7,166.7,0,0,1,19.35,21.31,151.9,151.9,0,0,1,24.81,48.41C697.73,126.61,694.45,162.24,675.43,191.65Z" class="cls-177"></path><path d="M673.44,190.36c-37.42,57.87-122.6,69.31-190.25,25.57S391,89.8,428.47,31.93A108.22,108.22,0,0,1,436,21.63v4.91H642V24.46a163.62,163.62,0,0,1,19.05,21,149.64,149.64,0,0,1,24.41,47.64C695.38,126.36,692.15,161.42,673.44,190.36Z" class="cls-178"></path><path d="M671.45,189.07C634.63,246,550.84,257.26,484.29,214.22s-90.64-124.07-53.83-181a107.71,107.71,0,0,1,7.44-10.13v3.45H640.54v-.67A160.31,160.31,0,0,1,659.27,46.5a147,147,0,0,1,24,46.86C693,126.12,689.85,160.61,671.45,189.07Z" class="cls-179"></path><path d="M669.45,187.78c-36.2,56-118.61,67.06-184.05,24.73s-89.15-122-52.95-178a106.06,106.06,0,0,1,7.32-10v2h194V22.62c1.79,1.52,3.55,3.08,5.26,4.66a157.88,157.88,0,0,1,18.42,20.29A144.7,144.7,0,0,1,681.1,93.66C690.68,125.87,687.55,159.79,669.45,187.78Z" class="cls-179"></path><path d="M667.46,186.49c-35.6,55-116.62,65.93-181,24.32s-87.65-120-52.05-175a103.71,103.71,0,0,1,7.19-9.8v.54H627V19.7c3.7,2.87,7.23,5.88,10.59,9a155.47,155.47,0,0,1,18.12,20A142.29,142.29,0,0,1,678.91,94C688.33,125.62,685.25,159,667.46,186.49Z" class="cls-180"></path><path d="M665.46,185.2c-35,54.1-114.61,64.8-177.86,23.9s-86.14-117.91-51.16-172a101.91,101.91,0,0,1,7.07-9.63q1.89-2.28,3.9-4.43v3.51H625.68V21.27q5.46,4.23,10.41,8.83A153,153,0,0,1,653.9,49.71a140,140,0,0,1,22.82,44.53C686,125.37,683,158.15,665.46,185.2Z" class="cls-181"></path><path d="M663.47,183.91c-34.38,53.16-112.62,63.67-174.76,23.49s-84.65-115.86-50.27-169a99.16,99.16,0,0,1,14.83-17.92v6.08H624.38V22.83q5.36,4.17,10.23,8.69A148.34,148.34,0,0,1,652.1,50.78a137.55,137.55,0,0,1,22.43,43.76C683.63,125.12,680.66,157.33,663.47,183.91Z" class="cls-182"></path><path d="M661.47,182.62c-33.76,52.22-110.62,62.55-171.66,23.07s-83.15-113.8-49.38-166A97.24,97.24,0,0,1,455,22.07v4.47H623.08V24.4q5.26,4.08,10,8.53a146.56,146.56,0,0,1,17.18,18.92,135,135,0,0,1,22,43C681.27,124.88,678.36,156.51,661.47,182.62Z" class="cls-182"></path><path d="M660.09,181.73c-33.34,51.56-109.24,61.76-169.52,22.78S408.47,92.13,441.81,40.57A96,96,0,0,1,456.2,23.18v3.36h166V25.48c3.46,2.69,6.77,5.51,9.92,8.42a145.77,145.77,0,0,1,17,18.69A133.24,133.24,0,0,1,670.82,95C679.64,124.71,676.77,156,660.09,181.73Z" class="cls-183"></path><path d="M658.71,180.83c-32.92,50.91-107.86,61-167.37,22.5s-81.07-111-48.15-161.87A94.69,94.69,0,0,1,457.4,24.3v2.24H616V22.67q2.69,1.91,5.25,3.9,5.13,4,9.79,8.31a144.25,144.25,0,0,1,16.76,18.45A131.6,131.6,0,0,1,669.3,95.24C678,124.53,675.17,155.38,658.71,180.83Z" class="cls-184"></path><path d="M657.33,179.94c-32.5,50.26-106.48,60.2-165.23,22.21s-80-109.54-47.52-159.8a93.67,93.67,0,0,1,14-16.94v1.13H609.8V20.15C668.55,58.14,689.83,129.68,657.33,179.94Z" class="cls-185"></path><path d="M656,179.05c-32.08,49.6-105.09,59.42-163.08,21.91S413.88,92.85,446,43.25A92.5,92.5,0,0,1,459.8,26.52v0H609V21.33C667,58.83,688,129.44,656,179.05Z" class="cls-186"></path><path d="M654.57,178.15c-31.66,49-103.71,58.64-160.94,21.63S415.68,93.09,447.34,44.14A90.78,90.78,0,0,1,461,27.64a93.49,93.49,0,0,1,8-6.85v5.75H608.27v-4C665.5,59.52,686.22,129.2,654.57,178.15Z" class="cls-187"></path><path d="M653.19,177.26C622,225.56,550.86,235.11,494.4,198.6S417.48,93.33,448.72,45a89.83,89.83,0,0,1,13.47-16.28A92.24,92.24,0,0,1,470.13,22v4.54H607.51V23.69C664,60.21,684.42,129,653.19,177.26Z" class="cls-188"></path><path d="M651.8,176.37C621,224,550.86,233.44,495.16,197.42S419.29,93.57,450.1,45.93a89,89,0,0,1,13.29-16.07,91.93,91.93,0,0,1,7.84-6.66v3.34H606.75V24.87C662.44,60.89,682.62,128.72,651.8,176.37Z" class="cls-189"></path><path d="M650.42,175.47c-30.39,47-99.56,56.29-154.5,20.77S421.09,93.81,451.48,46.82A87.69,87.69,0,0,1,464.59,31a90.94,90.94,0,0,1,7.73-6.57v2.13H606v-.48C660.92,61.58,680.81,128.48,650.42,175.47Z" class="cls-190"></path><path d="M649,174.58c-30,46.34-98.18,55.51-152.35,20.48s-73.79-101-43.83-147.35A87.53,87.53,0,0,1,481.69,20v6.5H594.91V21.19q5.22,2.76,10.31,6C659.39,62.27,679,128.24,649,174.58Z" class="cls-191"></path><path d="M647.66,173.69c-29.55,45.69-96.8,54.72-150.21,20.18S424.7,94.29,454.25,48.61a86,86,0,0,1,28.42-27.29v5.22H594.29V22.45q5.15,2.73,10.16,6C657.86,63,677.21,128,647.66,173.69Z" class="cls-192"></path><path d="M646.28,172.79c-29.13,45-95.42,54-148.06,19.9S426.5,94.54,455.63,49.5a84.86,84.86,0,0,1,28-26.9v3.94h110V23.72c3.38,1.79,6.73,3.75,10,5.88C656.33,63.65,675.4,127.76,646.28,172.79Z" class="cls-193"></path><path d="M644.9,171.9c-28.71,44.38-94,53.16-145.92,19.61S428.31,94.78,457,50.39a83.65,83.65,0,0,1,27.61-26.5v2.65h98.31V20.17a131.25,131.25,0,0,1,20,10.61C654.81,64.34,673.6,127.52,644.9,171.9Z" class="cls-194"></path><path d="M643.52,171c-28.29,43.73-92.65,52.38-143.77,19.32S430.11,95,458.39,51.29A82.34,82.34,0,0,1,485.6,25.17v1.37h96.86v-5A128.77,128.77,0,0,1,602.16,32C653.28,65,671.8,127.28,643.52,171Z" class="cls-195"></path><path d="M642.13,170.11c-27.86,43.08-91.26,51.6-141.62,19s-68.6-93.89-40.74-137a81.27,81.27,0,0,1,26.8-25.73v.09H582V22.85a127.24,127.24,0,0,1,19.41,10.3C651.75,65.71,670,127,642.13,170.11Z" class="cls-196"></path><path d="M640.75,169.22C613.32,211.65,550.87,220,501.27,188S433.72,95.5,461.15,53.07a80,80,0,0,1,26.4-25.33A87.52,87.52,0,0,1,504.27,20v6.5h77.25V24.19a124.2,124.2,0,0,1,19.11,10.14C650.23,66.4,668.19,126.79,640.75,169.22Z" class="cls-197"></path><path d="M639.37,168.33c-27,41.77-88.5,50-137.33,18.45S435.52,95.74,462.53,54a78.75,78.75,0,0,1,26-24.95A86.88,86.88,0,0,1,505,21.44v5.1h76.07v-1a123.54,123.54,0,0,1,18.82,10C648.7,67.09,666.38,126.55,639.37,168.33Z" class="cls-198"></path><path d="M638,167.43c-26.59,41.12-87.12,49.26-135.19,18.17S437.32,96,463.92,54.86A77.39,77.39,0,0,1,489.5,30.3a85.38,85.38,0,0,1,16.2-7.46v3.7h55.74V20.63A118.6,118.6,0,0,1,599.1,36.69C647.17,67.78,664.58,126.31,638,167.43Z" class="cls-199"></path><path d="M636.61,166.54c-26.17,40.47-85.74,48.47-133,17.88S439.13,96.22,465.3,55.75c13.08-20.23,34.52-32.35,58.59-35.58v6.37h37.38V22.07a116.89,116.89,0,0,1,37.07,15.8C645.64,68.47,662.78,126.07,636.61,166.54Z" class="cls-200"></path><path d="M635.23,165.65c-25.75,39.81-84.36,47.69-130.9,17.59s-63.4-86.78-37.65-126.59c12.87-19.91,34-31.83,57.65-35v4.91h36.78v-3a114.56,114.56,0,0,1,36.46,15.55C644.12,69.15,661,125.83,635.23,165.65Z" class="cls-201"></path><path d="M633.84,164.75c-25.32,39.16-83,46.91-128.74,17.31s-62.37-85.36-37-124.52C480.72,38,501.47,26.23,524.77,23.1s49.15,2.33,72,17.14C642.59,69.84,659.17,125.59,633.84,164.75Z" class="cls-202"></path><path d="M632.46,163.86c-24.9,38.51-81.58,46.13-126.6,17S444.54,96.94,469.44,58.43c12.45-19.25,32.85-30.78,55.76-33.86s48.34,2.29,70.85,16.85C641.06,70.53,657.37,125.35,632.46,163.86Z" class="cls-203"></path><path d="M631.08,163c-24.48,37.85-80.2,45.34-124.46,16.72s-60.28-82.51-35.8-120.36C483.06,40.4,503.12,29.06,525.64,26s47.51,2.25,69.64,16.56C639.53,71.22,655.56,125.11,631.08,163Z" class="cls-204"></path><path d="M629.7,162.07c-24.06,37.21-78.82,44.57-122.31,16.44S448.15,97.42,472.21,60.22c12-18.6,31.73-29.74,53.86-32.72s46.7,2.22,68.45,16.28C638,71.91,653.76,124.87,629.7,162.07Z" class="cls-205"></path><path d="M628.32,161.18c-23.64,36.55-77.44,43.78-120.17,16.15S450,97.67,473.59,61.11C485.41,42.84,504.77,31.89,526.51,29s45.88,2.18,67.24,16C636.48,72.6,652,124.63,628.32,161.18Z" class="cls-206"></path><path d="M626.94,160.29c-23.22,35.89-76.06,43-118,15.86S451.75,97.91,475,62c11.61-17.95,30.62-28.7,52-31.57S572,32.58,593,46.15C635,73.29,650.15,124.39,626.94,160.29Z" class="cls-207"></path><ellipse transform="matrix(0.54, -0.84, 0.84, 0.54, 158.43, 513.43)" ry="88.84" rx="76" cy="111.15" cx="550.95" class="cls-147"></ellipse><ellipse transform="translate(158.43 513.43) rotate(-57.11)" ry="87.2" rx="74.59" cy="111.15" cx="550.95" class="cls-208"></ellipse><ellipse transform="translate(158.43 513.43) rotate(-57.11)" ry="85.55" rx="73.19" cy="111.15" cx="550.95" class="cls-209"></ellipse><ellipse transform="translate(158.43 513.43) rotate(-57.11)" ry="83.91" rx="71.78" cy="111.15" cx="550.95" class="cls-210"></ellipse><ellipse transform="translate(158.43 513.43) rotate(-57.11)" ry="82.26" rx="70.37" cy="111.15" cx="550.95" class="cls-211"></ellipse><ellipse transform="translate(158.43 513.43) rotate(-57.11)" ry="80.62" rx="68.96" cy="111.15" cx="550.95" class="cls-212"></ellipse><ellipse transform="translate(158.43 513.43) rotate(-57.11)" ry="78.97" rx="67.56" cy="111.15" cx="550.95" class="cls-213"></ellipse><ellipse transform="translate(158.43 513.43) rotate(-57.11)" ry="77.33" rx="66.15" cy="111.15" cx="550.95" class="cls-214"></ellipse><ellipse transform="matrix(0.54, -0.84, 0.84, 0.54, 158.43, 513.43)" ry="75.68" rx="64.74" cy="111.15" cx="550.95" class="cls-215"></ellipse><ellipse transform="translate(158.43 513.43) rotate(-57.11)" ry="74.04" rx="63.33" cy="111.15" cx="550.95" class="cls-216"></ellipse><ellipse transform="translate(158.43 513.43) rotate(-57.11)" ry="72.39" rx="61.93" cy="111.15" cx="550.95" class="cls-217"></ellipse><ellipse transform="translate(158.43 513.43) rotate(-57.11)" ry="70.75" rx="60.52" cy="111.15" cx="550.95" class="cls-218"></ellipse><ellipse transform="translate(158.43 513.43) rotate(-57.11)" ry="69.1" rx="59.11" cy="111.15" cx="550.95" class="cls-219"></ellipse><ellipse transform="matrix(0.54, -0.84, 0.84, 0.54, 158.43, 513.43)" ry="67.46" rx="57.7" cy="111.15" cx="550.95" class="cls-220"></ellipse><ellipse transform="translate(158.43 513.43) rotate(-57.11)" ry="65.81" rx="56.3" cy="111.15" cx="550.95" class="cls-221"></ellipse><ellipse transform="translate(158.43 513.43) rotate(-57.11)" ry="64.16" rx="54.89" cy="111.15" cx="550.95" class="cls-222"></ellipse><ellipse transform="translate(158.43 513.43) rotate(-57.11)" ry="62.52" rx="53.48" cy="111.15" cx="550.95" class="cls-223"></ellipse><ellipse transform="translate(158.43 513.43) rotate(-57.11)" ry="60.87" rx="52.07" cy="111.15" cx="550.95" class="cls-224"></ellipse><ellipse transform="translate(158.43 513.43) rotate(-57.11)" ry="59.23" rx="50.67" cy="111.15" cx="550.95" class="cls-225"></ellipse><ellipse transform="translate(158.43 513.43) rotate(-57.11)" ry="57.58" rx="49.26" cy="111.15" cx="550.95" class="cls-226"></ellipse><ellipse transform="translate(158.43 513.43) rotate(-57.11)" ry="55.94" rx="47.85" cy="111.15" cx="550.95" class="cls-227"></ellipse><ellipse transform="translate(158.43 513.43) rotate(-57.11)" ry="54.29" rx="46.44" cy="111.15" cx="550.95" class="cls-228"></ellipse><ellipse transform="translate(158.43 513.43) rotate(-57.11)" ry="52.65" rx="45.04" cy="111.15" cx="550.95" class="cls-229"></ellipse><ellipse transform="translate(158.43 513.43) rotate(-57.11)" ry="51" rx="43.63" cy="111.15" cx="550.95" class="cls-230"></ellipse><ellipse transform="translate(158.43 513.43) rotate(-57.11)" ry="49.36" rx="42.22" cy="111.15" cx="550.95" class="cls-231"></ellipse><ellipse transform="translate(158.43 513.43) rotate(-57.11)" ry="47.71" rx="40.82" cy="111.15" cx="550.95" class="cls-232"></ellipse><ellipse transform="translate(158.43 513.43) rotate(-57.11)" ry="46.07" rx="39.41" cy="111.15" cx="550.95" class="cls-233"></ellipse><ellipse transform="translate(158.43 513.43) rotate(-57.11)" ry="44.42" rx="38" cy="111.15" cx="550.95" class="cls-234"></ellipse><ellipse transform="translate(158.43 513.43) rotate(-57.11)" ry="42.78" rx="36.59" cy="111.15" cx="550.95" class="cls-235"></ellipse><ellipse transform="translate(158.43 513.43) rotate(-57.11)" ry="41.13" rx="35.19" cy="111.15" cx="550.95" class="cls-236"></ellipse><ellipse transform="translate(158.43 513.43) rotate(-57.11)" ry="39.49" rx="33.78" cy="111.15" cx="550.95" class="cls-237"></ellipse><ellipse transform="translate(158.43 513.43) rotate(-57.11)" ry="37.84" rx="32.37" cy="111.15" cx="550.95" class="cls-238"></ellipse><ellipse transform="translate(158.43 513.43) rotate(-57.11)" ry="36.2" rx="30.96" cy="111.15" cx="550.95" class="cls-239"></ellipse><ellipse transform="translate(158.43 513.43) rotate(-57.11)" ry="34.55" rx="29.56" cy="111.15" cx="550.95" class="cls-240"></ellipse><ellipse transform="translate(158.43 513.43) rotate(-57.11)" ry="32.9" rx="28.15" cy="111.15" cx="550.95" class="cls-241"></ellipse><ellipse transform="translate(158.43 513.43) rotate(-57.11)" ry="31.26" rx="26.74" cy="111.15" cx="550.95" class="cls-242"></ellipse><ellipse transform="translate(158.43 513.43) rotate(-57.11)" ry="29.61" rx="25.33" cy="111.15" cx="550.95" class="cls-243"></ellipse><ellipse transform="translate(158.43 513.43) rotate(-57.11)" ry="27.97" rx="23.93" cy="111.15" cx="550.95" class="cls-244"></ellipse><ellipse transform="translate(158.43 513.43) rotate(-57.11)" ry="26.32" rx="22.52" cy="111.15" cx="550.95" class="cls-245"></ellipse><ellipse transform="translate(158.43 513.43) rotate(-57.11)" ry="24.68" rx="21.11" cy="111.15" cx="550.95" class="cls-246"></ellipse><ellipse transform="translate(158.43 513.43) rotate(-57.11)" ry="23.03" rx="19.7" cy="111.15" cx="550.95" class="cls-247"></ellipse><ellipse transform="translate(158.43 513.43) rotate(-57.11)" ry="21.39" rx="18.3" cy="111.15" cx="550.95" class="cls-248"></ellipse><ellipse transform="translate(158.43 513.43) rotate(-57.11)" ry="19.74" rx="16.89" cy="111.15" cx="550.95" class="cls-249"></ellipse><ellipse transform="translate(158.43 513.43) rotate(-57.11)" ry="18.1" rx="15.48" cy="111.15" cx="550.95" class="cls-250"></ellipse><ellipse transform="matrix(0.54, -0.84, 0.84, 0.54, 158.43, 513.43)" ry="16.45" rx="14.07" cy="111.15" cx="550.95" class="cls-251"></ellipse><ellipse transform="translate(158.43 513.43) rotate(-57.11)" ry="14.81" rx="12.67" cy="111.15" cx="550.95" class="cls-252"></ellipse><ellipse transform="translate(158.43 513.43) rotate(-57.11)" ry="13.16" rx="11.26" cy="111.15" cx="550.95" class="cls-253"></ellipse><ellipse transform="translate(158.43 513.43) rotate(-57.11)" ry="11.52" rx="9.85" cy="111.15" cx="550.95" class="cls-254"></ellipse><ellipse transform="translate(158.43 513.43) rotate(-57.11)" ry="9.87" rx="8.44" cy="111.15" cx="550.95" class="cls-255"></ellipse><ellipse transform="translate(158.43 513.43) rotate(-57.11)" ry="8.23" rx="7.04" cy="111.15" cx="550.95" class="cls-256"></ellipse><ellipse transform="translate(158.43 513.43) rotate(-57.11)" ry="6.58" rx="5.63" cy="111.15" cx="550.95" class="cls-257"></ellipse><ellipse transform="translate(158.43 513.43) rotate(-57.11)" ry="4.94" rx="4.22" cy="111.15" cx="550.95" class="cls-257"></ellipse><ellipse transform="translate(158.43 513.43) rotate(-57.11)" ry="3.29" rx="2.81" cy="111.15" cx="550.95" class="cls-258"></ellipse><ellipse transform="translate(158.43 513.43) rotate(-57.11)" ry="1.65" rx="1.41" cy="111.15" cx="550.95" class="cls-259"></ellipse></g><path d="M454.82,436.26l49,29.37a14.54,14.54,0,0,1,6.24,7.63l.23.66A14.53,14.53,0,0,1,506,489.75l-24.55,21.14a14.51,14.51,0,0,1-7.42,3.37l-21.78,3.12a9.31,9.31,0,0,0-7.65,6.75l-29.34,107a6.55,6.55,0,0,1-.55,1.41c-3.48,6.47-32.36,58.14-66.92,55.05-12-20.48-3.05-80.59,0-98.79a18.35,18.35,0,0,1,4.45-9.19l64.25-71.47a9.3,9.3,0,0,0,2.15-8.25l-5.19-23.21a14.51,14.51,0,0,1,1.64-10.51l13.21-22.59a14.52,14.52,0,0,1,7.85-6.42l6.45-2.2A14.52,14.52,0,0,1,454.82,436.26Z" class="cls-36"></path></svg>